M48
;Layer_Color=9474304
;FILE_FORMAT=2:4
INCH,LZ
;TYPE=PLATED
T01F00S00C0.0120
T02F00S00C0.0394
;TYPE=NON_PLATED
T03F00S00C0.0390
%
T01
X021524Y011085
X022833Y011075
X02301Y010041
X024969Y009579
X02676Y009687
X026602Y011439
X02673Y012777
X026051Y012748
X025392Y012148
X024791Y012699
X023787Y012502
X023394
X02359Y01357
X0236Y01462
X023295Y015337
X024246Y01516
X02433Y01413
X022606Y014246
X021819Y013516
X020973Y013024
X020018Y013033
X020028Y012689
X020254Y012384
X020677Y014008
X021179Y015238
X01912Y015614
X01861Y0151
X02594Y01516
X026388Y01456
X02674Y01377
X02808Y01385
X028974Y013516
X02972Y01371
X029994Y013354
X030538Y013358
X030302Y01276
X030323Y011527
X029201Y01259
X028048Y011695
X028364Y010258
X024191Y011449
X02926Y014864
X030343Y015012
Y015848
X030323Y017148
X029443Y017277
X028063Y01727
X02738Y017197
X027291Y016468
X027931Y016429
X028463Y015819
X027812Y018342
X026454Y017554
X026356Y017128
X025703Y017297
X025149Y01676
X024396Y01759
X02477Y01859
X025667Y018555
X023814Y018447
X023345Y018122
X023551Y016951
X02235Y017581
X020677Y016724
X020638Y016262
X021169Y015878
X019063Y016099
X019034Y016626
X018512Y016321
X018886Y018526
X030028Y018388
X03045Y01806
T02
X020079Y018408
X021079
X022079
T03
X019352Y015114
X020152
X019752Y017114
M30
