G04*
G04 #@! TF.GenerationSoftware,Altium Limited,Altium Designer,25.4.2 (15)*
G04*
G04 Layer_Physical_Order=3*
G04 Layer_Color=128*
%FSTAX24Y24*%
%MOIN*%
G70*
G04*
G04 #@! TF.SameCoordinates,37557B88-6B1A-46A0-B974-C7A84E2FC2EA*
G04*
G04*
G04 #@! TF.FilePolarity,Negative*
G04*
G01*
G75*
%ADD33C,0.0320*%
%ADD52C,0.0400*%
%ADD53C,0.0594*%
%ADD54C,0.0590*%
G36*
X03071Y01892D02*
Y01023D01*
X0327D01*
Y01892D01*
X03071D01*
D02*
G37*
D33*
X023551Y016951D02*
D03*
X027291Y016468D02*
D03*
X021169Y015878D02*
D03*
X020677Y016724D02*
D03*
X020638Y016262D02*
D03*
X019063Y016099D02*
D03*
X01912Y015614D02*
D03*
X02972Y01371D02*
D03*
X030538Y013358D02*
D03*
X02674Y01377D02*
D03*
X03045Y01806D02*
D03*
X028063Y01727D02*
D03*
X026454Y017554D02*
D03*
X02477Y01859D02*
D03*
X0236Y01462D02*
D03*
X02359Y01357D02*
D03*
X02594Y01516D02*
D03*
X026388Y01456D02*
D03*
X02433Y01413D02*
D03*
X029994Y013354D02*
D03*
X02808Y01385D02*
D03*
X030302Y01276D02*
D03*
X029443Y017277D02*
D03*
X020018Y013033D02*
D03*
X020028Y012689D02*
D03*
X020254Y012384D02*
D03*
X021179Y015238D02*
D03*
X018886Y018526D02*
D03*
X018512Y016321D02*
D03*
X01861Y0151D02*
D03*
X02235Y017581D02*
D03*
X023345Y018122D02*
D03*
X023814Y018447D02*
D03*
X030323Y011527D02*
D03*
X025392Y012148D02*
D03*
X020677Y014008D02*
D03*
X022606Y014246D02*
D03*
X023295Y015337D02*
D03*
X020973Y013024D02*
D03*
X021819Y013516D02*
D03*
X022833Y011075D02*
D03*
X021524Y011085D02*
D03*
X02301Y010041D02*
D03*
X024969Y009579D02*
D03*
X02676Y009687D02*
D03*
X028364Y010258D02*
D03*
X029201Y01259D02*
D03*
X028974Y013516D02*
D03*
X028048Y011695D02*
D03*
X026602Y011439D02*
D03*
X024191Y011449D02*
D03*
X024791Y012699D02*
D03*
X02673Y012777D02*
D03*
X02738Y017197D02*
D03*
X030323Y017148D02*
D03*
X030343Y015848D02*
D03*
Y015012D02*
D03*
X028463Y015819D02*
D03*
X027931Y016429D02*
D03*
X02926Y014864D02*
D03*
X030028Y018388D02*
D03*
X025667Y018555D02*
D03*
X026356Y017128D02*
D03*
X025471Y016901D02*
D03*
D52*
X01863Y01887D02*
G03*
X032114Y01887I006742J-00254D01*
G01*
X01863D02*
X032114D01*
D53*
X021079Y018408D02*
D03*
X020079D02*
D03*
D54*
X019352Y015114D02*
D03*
X020152D02*
D03*
X019752Y017114D02*
D03*
M02*
