G04*
G04 #@! TF.GenerationSoftware,Altium Limited,Altium Designer,25.4.2 (15)*
G04*
G04 Layer_Physical_Order=4*
G04 Layer_Color=417716*
%FSTAX24Y24*%
%MOIN*%
G70*
G04*
G04 #@! TF.SameCoordinates,4B3FD54A-89C9-4FE9-A7AC-56F29E8A28E8*
G04*
G04*
G04 #@! TF.FilePolarity,Positive*
G04*
G01*
G75*
%ADD47C,0.0100*%
%ADD48C,0.0080*%
%ADD49C,0.0630*%
%ADD50C,0.0390*%
%ADD51C,0.0240*%
%ADD55R,0.1559X0.1559*%
%ADD56R,0.1382X0.1382*%
%ADD57C,0.0200*%
G36*
X020782Y018728D02*
X020769Y018718D01*
X020699Y018628D01*
X020655Y018522D01*
X02064Y018408D01*
X020655Y018295D01*
X020699Y018189D01*
X020769Y018098D01*
X02086Y018028D01*
X020906Y018009D01*
Y017346D01*
X020919Y01728D01*
X020956Y017224D01*
X021227Y016953D01*
X021204Y016898D01*
X02085D01*
X020771Y01695D01*
X020677Y016969D01*
X020584Y01695D01*
X020504Y016897D01*
X020451Y016818D01*
X020433Y016724D01*
X020451Y016631D01*
X020504Y016551D01*
X020521Y01654D01*
X020518Y01647D01*
X020465Y016435D01*
X020412Y016355D01*
X020393Y016262D01*
X020412Y016168D01*
X020465Y016089D01*
X020544Y016036D01*
X020638Y016017D01*
X020732Y016036D01*
X02081Y016088D01*
X020953D01*
X020981Y016028D01*
X020943Y015972D01*
X020925Y015878D01*
X020935Y015826D01*
X020889Y015766D01*
X019641D01*
X019307Y016099D01*
X019289Y016192D01*
X019236Y016272D01*
X019156Y016325D01*
X019107Y016335D01*
Y016396D01*
X019127Y0164D01*
X019207Y016453D01*
X01926Y016532D01*
X019278Y016626D01*
X01926Y01672D01*
X019207Y016799D01*
X019127Y016852D01*
X019034Y016871D01*
X01894Y016852D01*
X018861Y016799D01*
X018807Y01672D01*
X018789Y016626D01*
X018807Y016532D01*
X018861Y016453D01*
X01894Y0164D01*
X01899Y01639D01*
Y016329D01*
X018969Y016325D01*
X01889Y016272D01*
X018837Y016192D01*
X018818Y016099D01*
X018837Y016005D01*
X01889Y015926D01*
X018969Y015872D01*
X019062Y015854D01*
X019435Y015482D01*
X019415Y01543D01*
X01941Y015424D01*
X019352Y015432D01*
X01927Y015421D01*
X019193Y015389D01*
X019127Y015339D01*
X019077Y015273D01*
X019045Y015196D01*
X019034Y015114D01*
X019045Y015032D01*
X019071Y014969D01*
X019044Y014909D01*
X018705D01*
Y013989D01*
X018645Y013979D01*
X018504Y014422D01*
X018381Y014936D01*
X018297Y015459D01*
X018252Y015986D01*
X018246Y016516D01*
X01828Y017044D01*
X018352Y017568D01*
X018464Y018086D01*
X018613Y018594D01*
X018686Y018788D01*
X019794D01*
X019815Y018728D01*
X019783Y018704D01*
X019716Y018617D01*
X019675Y018517D01*
X019667Y018458D01*
X020079D01*
X020491D01*
X020483Y018517D01*
X020441Y018617D01*
X020375Y018704D01*
X020343Y018728D01*
X020364Y018788D01*
X020761D01*
X020782Y018728D01*
D02*
G37*
G36*
X03071Y013596D02*
X030657Y013567D01*
X030632Y013584D01*
X030538Y013603D01*
X030444Y013584D01*
X030365Y013531D01*
X030312Y013452D01*
X030303Y013406D01*
X030291Y013402D01*
X030222Y013439D01*
X03022Y013448D01*
X030167Y013527D01*
X030088Y01358D01*
X029999Y013598D01*
X029994Y0136D01*
X029953Y013652D01*
X029965Y01371D01*
X029946Y013804D01*
X029893Y013883D01*
X029814Y013936D01*
X029721Y013955D01*
X027447Y016228D01*
X027453Y016288D01*
X027464Y016295D01*
X027517Y016375D01*
X027536Y016468D01*
X027523Y016537D01*
X027561Y016597D01*
X028926D01*
X028989Y016609D01*
X029042Y016645D01*
X029431Y017034D01*
X029443Y017032D01*
X029537Y017051D01*
X029616Y017104D01*
X029669Y017183D01*
X029688Y017277D01*
X029669Y01737D01*
X029616Y01745D01*
X029537Y017503D01*
X029443Y017522D01*
X02935Y017503D01*
X02927Y01745D01*
X029217Y01737D01*
X029198Y017277D01*
X029201Y017265D01*
X028859Y016923D01*
X025711D01*
X025697Y016995D01*
X025644Y017074D01*
X025564Y017127D01*
X025471Y017146D01*
X025377Y017127D01*
X025298Y017074D01*
X025244Y016995D01*
X025226Y016901D01*
X025244Y016808D01*
X025298Y016728D01*
X025337Y016702D01*
X025319Y016642D01*
X022029D01*
X021252Y017418D01*
Y018009D01*
X021298Y018028D01*
X021389Y018098D01*
X021459Y018189D01*
X021503Y018295D01*
X021518Y018408D01*
X021503Y018522D01*
X021459Y018628D01*
X021389Y018718D01*
X021376Y018728D01*
X021396Y018788D01*
X021761D01*
X021782Y018728D01*
X021769Y018718D01*
X021699Y018628D01*
X021655Y018522D01*
X02164Y018408D01*
X021655Y018295D01*
X021699Y018189D01*
X021769Y018098D01*
X02186Y018028D01*
X021965Y017984D01*
X022079Y017969D01*
X022192Y017984D01*
X022298Y018028D01*
X022389Y018098D01*
X022459Y018189D01*
X022503Y018295D01*
X022518Y018408D01*
X022503Y018522D01*
X022459Y018628D01*
X022389Y018718D01*
X022376Y018728D01*
X022396Y018788D01*
X03071Y018788D01*
Y013596D01*
D02*
G37*
G36*
X027657Y014448D02*
Y01365D01*
X02767Y013584D01*
X027707Y013527D01*
X028287Y012947D01*
X028344Y01291D01*
X02841Y012897D01*
X03025D01*
X030316Y01291D01*
X030373Y012947D01*
X030539Y013114D01*
X030632Y013132D01*
X030657Y013149D01*
X03071Y013121D01*
Y011609D01*
X030384Y011262D01*
X029995Y010904D01*
X029579Y010576D01*
X029141Y010279D01*
X028681Y010016D01*
X028204Y009788D01*
X02771Y009596D01*
X027204Y009441D01*
X026688Y009324D01*
X026165Y009246D01*
X025637Y009207D01*
X025107D01*
X02458Y009246D01*
X024056Y009324D01*
X02354Y009441D01*
X023034Y009596D01*
X022541Y009788D01*
X022063Y010016D01*
X021604Y010279D01*
X021165Y010576D01*
X02075Y010904D01*
X02036Y011262D01*
X019997Y011648D01*
X019665Y012059D01*
X019364Y012495D01*
X019168Y012828D01*
X019216Y012865D01*
X019961Y01212D01*
X020001Y012094D01*
X020047Y012084D01*
X020362D01*
X020409Y012094D01*
X020449Y01212D01*
X020478Y01215D01*
X020505Y012189D01*
X020514Y012236D01*
Y012994D01*
X020505Y013041D01*
X020478Y013081D01*
X020311Y013248D01*
X020327Y013287D01*
X020327D01*
Y014851D01*
X020377Y014889D01*
X020427Y014955D01*
X020459Y015032D01*
X02047Y015114D01*
X020459Y015196D01*
X020427Y015273D01*
X020377Y015339D01*
X02035Y015359D01*
X020371Y015419D01*
X024093D01*
X024112Y015359D01*
X024073Y015333D01*
X02402Y015254D01*
X024001Y01516D01*
X02402Y015066D01*
X024073Y014987D01*
X024152Y014934D01*
X024246Y014915D01*
X024339Y014934D01*
X024419Y014987D01*
X024472Y015066D01*
X02449Y01516D01*
X024472Y015254D01*
X024419Y015333D01*
X02438Y015359D01*
X024398Y015419D01*
X026686D01*
X027657Y014448D01*
D02*
G37*
G36*
X029416Y013299D02*
X029393Y013243D01*
X028482D01*
X028157Y013568D01*
X028159Y013575D01*
X028181Y013629D01*
X028253Y013677D01*
X028306Y013756D01*
X028325Y01385D01*
X028306Y013944D01*
X028253Y014023D01*
Y014383D01*
X028309Y014406D01*
X029416Y013299D01*
D02*
G37*
G36*
X020146Y01324D02*
X020392Y012994D01*
Y012236D01*
X020362Y012207D01*
X020047D01*
X01925Y013004D01*
Y014146D01*
X019467Y014362D01*
X020146D01*
Y01324D01*
D02*
G37*
%LPC*%
G36*
X020029Y018358D02*
X019667D01*
X019675Y0183D01*
X019716Y018199D01*
X019783Y018112D01*
X01987Y018046D01*
X019971Y018004D01*
X020029Y017996D01*
Y018358D01*
D02*
G37*
G36*
X020491D02*
X020129D01*
Y017996D01*
X020187Y018004D01*
X020288Y018046D01*
X020375Y018112D01*
X020441Y018199D01*
X020483Y0183D01*
X020491Y018358D01*
D02*
G37*
G36*
X019752Y017432D02*
X01967Y017421D01*
X019593Y017389D01*
X019527Y017339D01*
X019477Y017273D01*
X019445Y017196D01*
X019434Y017114D01*
X019445Y017032D01*
X019477Y016955D01*
X019527Y016889D01*
X019593Y016839D01*
X01967Y016807D01*
X019752Y016796D01*
X019834Y016807D01*
X019911Y016839D01*
X019977Y016889D01*
X020027Y016955D01*
X020059Y017032D01*
X02007Y017114D01*
X020059Y017196D01*
X020027Y017273D01*
X019977Y017339D01*
X019911Y017389D01*
X019834Y017421D01*
X019752Y017432D01*
D02*
G37*
G36*
X027812Y018587D02*
X027718Y018568D01*
X027639Y018515D01*
X027586Y018436D01*
X027567Y018342D01*
X027586Y018248D01*
X027639Y018169D01*
X027718Y018116D01*
X027812Y018097D01*
X027906Y018116D01*
X027985Y018169D01*
X028038Y018248D01*
X028057Y018342D01*
X028038Y018436D01*
X027985Y018515D01*
X027906Y018568D01*
X027812Y018587D01*
D02*
G37*
G36*
X024396Y017835D02*
X024302Y017817D01*
X024223Y017764D01*
X02417Y017684D01*
X024151Y01759D01*
X02417Y017497D01*
X024223Y017417D01*
X024302Y017364D01*
X024396Y017346D01*
X02449Y017364D01*
X024569Y017417D01*
X024622Y017497D01*
X024641Y01759D01*
X024622Y017684D01*
X024569Y017764D01*
X02449Y017817D01*
X024396Y017835D01*
D02*
G37*
G36*
X02625Y014976D02*
X02542D01*
Y014146D01*
X02625D01*
Y014976D01*
D02*
G37*
G36*
X02532D02*
X02449D01*
Y014146D01*
X02532D01*
Y014976D01*
D02*
G37*
G36*
X02625Y014046D02*
X02542D01*
Y013217D01*
X02625D01*
Y014046D01*
D02*
G37*
G36*
X02532D02*
X02449D01*
Y013217D01*
X02532D01*
Y014046D01*
D02*
G37*
G36*
X023787Y012747D02*
X023694Y012728D01*
X023631Y012686D01*
X023591Y012679D01*
X02355Y012686D01*
X023487Y012728D01*
X023394Y012747D01*
X0233Y012728D01*
X023221Y012675D01*
X023168Y012596D01*
X023149Y012502D01*
X023168Y012408D01*
X023221Y012329D01*
X0233Y012276D01*
X023394Y012257D01*
X023487Y012276D01*
X02355Y012318D01*
X023591Y012325D01*
X023631Y012318D01*
X023694Y012276D01*
X023787Y012257D01*
X023881Y012276D01*
X023961Y012329D01*
X024014Y012408D01*
X024032Y012502D01*
X024014Y012596D01*
X023961Y012675D01*
X023881Y012728D01*
X023787Y012747D01*
D02*
G37*
G36*
X026051Y012993D02*
X025958Y012974D01*
X025878Y012921D01*
X025825Y012842D01*
X025807Y012748D01*
X025825Y012654D01*
X025878Y012575D01*
X025958Y012522D01*
X026051Y012503D01*
X026145Y012522D01*
X026224Y012575D01*
X026277Y012654D01*
X026296Y012748D01*
X026277Y012842D01*
X026224Y012921D01*
X026145Y012974D01*
X026051Y012993D01*
D02*
G37*
%LPD*%
D47*
X021957Y016468D02*
X027291D01*
X021079Y017346D02*
X021957Y016468D01*
X021079Y017346D02*
Y018408D01*
X021888Y016183D02*
X027247D01*
X021347Y016724D02*
X021888Y016183D01*
X020677Y016724D02*
X021347D01*
X027247Y016183D02*
X02972Y01371D01*
X02176Y015976D02*
X026984D01*
X021474Y016262D02*
X02176Y015976D01*
X020638Y016262D02*
X021474D01*
X021494Y015878D02*
X021593Y015779D01*
X021169Y015878D02*
X021494D01*
X021593Y015779D02*
X026821D01*
X026984Y015976D02*
X029606Y013354D01*
X026821Y015779D02*
X02808Y01452D01*
X026758Y015592D02*
X02783Y01452D01*
X019569Y015592D02*
X026758D01*
X019063Y016099D02*
X019569Y015592D01*
X029606Y013354D02*
X029994D01*
X02808Y01385D02*
Y01452D01*
X02783Y01365D02*
Y01452D01*
Y01365D02*
X02841Y01307D01*
X03025D01*
X030538Y013358D01*
D48*
X02624Y01377D02*
X02674D01*
X028926Y01676D02*
X029443Y017277D01*
X025612Y01676D02*
X028926D01*
X025471Y016901D02*
X025612Y01676D01*
D49*
X022079Y018408D02*
D03*
X021079D02*
D03*
X020079D02*
D03*
D50*
X019352Y015114D02*
D03*
X020152D02*
D03*
X019752Y017114D02*
D03*
D51*
X023551Y016951D02*
D03*
X027291Y016468D02*
D03*
X021169Y015878D02*
D03*
X019034Y016626D02*
D03*
X020677Y016724D02*
D03*
X020638Y016262D02*
D03*
X019063Y016099D02*
D03*
X01912Y015614D02*
D03*
X02972Y01371D02*
D03*
X030538Y013358D02*
D03*
X02674Y01377D02*
D03*
X03045Y01806D02*
D03*
X028063Y01727D02*
D03*
X027812Y018342D02*
D03*
X026454Y017554D02*
D03*
X02477Y01859D02*
D03*
X024246Y01516D02*
D03*
X0236Y01462D02*
D03*
X02359Y01357D02*
D03*
X02594Y01516D02*
D03*
X026388Y01456D02*
D03*
X02433Y01413D02*
D03*
X029994Y013354D02*
D03*
X02808Y01385D02*
D03*
X030302Y01276D02*
D03*
X029443Y017277D02*
D03*
X020018Y013033D02*
D03*
X020028Y012689D02*
D03*
X020254Y012384D02*
D03*
X023394Y012502D02*
D03*
X023787D02*
D03*
X021179Y015238D02*
D03*
X018886Y018526D02*
D03*
X018512Y016321D02*
D03*
X01861Y0151D02*
D03*
X02235Y017581D02*
D03*
X023345Y018122D02*
D03*
X023814Y018447D02*
D03*
X030323Y011527D02*
D03*
X025392Y012148D02*
D03*
X020677Y014008D02*
D03*
X022606Y014246D02*
D03*
X023295Y015337D02*
D03*
X020973Y013024D02*
D03*
X021819Y013516D02*
D03*
X022833Y011075D02*
D03*
X021524Y011085D02*
D03*
X02301Y010041D02*
D03*
X024969Y009579D02*
D03*
X02676Y009687D02*
D03*
X028364Y010258D02*
D03*
X029201Y01259D02*
D03*
X028974Y013516D02*
D03*
X028048Y011695D02*
D03*
X026602Y011439D02*
D03*
X024191Y011449D02*
D03*
X024791Y012699D02*
D03*
X02673Y012777D02*
D03*
X02738Y017197D02*
D03*
X030323Y017148D02*
D03*
X030343Y015848D02*
D03*
Y015012D02*
D03*
X028463Y015819D02*
D03*
X027931Y016429D02*
D03*
X02926Y014864D02*
D03*
X030028Y018388D02*
D03*
X025667Y018555D02*
D03*
X026356Y017128D02*
D03*
X024396Y01759D02*
D03*
X026051Y012748D02*
D03*
X025471Y016901D02*
D03*
D55*
X02537Y014096D02*
D03*
D56*
X019516Y014098D02*
D03*
D57*
X025336Y01413D02*
X02537Y014096D01*
X02433Y01413D02*
X025336D01*
M02*
