G04*
G04 #@! TF.GenerationSoftware,Altium Limited,Altium Designer,25.4.2 (15)*
G04*
G04 Layer_Color=128*
%FSTAX24Y24*%
%MOIN*%
G70*
G04*
G04 #@! TF.SameCoordinates,37557B88-6B1A-46A0-B974-C7A84E2FC2EA*
G04*
G04*
G04 #@! TF.FilePolarity,Positive*
G04*
G01*
G75*
%ADD61C,0.0020*%
D61*
X021882Y018408D02*
X022276D01*
X022079Y018211D02*
Y018605D01*
X020882Y018408D02*
X021276D01*
X021079Y018211D02*
Y018605D01*
X019882Y018408D02*
X020276D01*
X020079Y018211D02*
Y018605D01*
X019157Y015114D02*
X019547D01*
X019352Y014919D02*
Y015309D01*
X019957Y015114D02*
X020347D01*
X020152Y014919D02*
Y015309D01*
X019557Y017114D02*
X019947D01*
X019752Y016919D02*
Y017309D01*
X023491Y016951D02*
X023611D01*
X023551Y016891D02*
Y017011D01*
X027231Y016468D02*
X027351D01*
X027291Y016408D02*
Y016528D01*
X021109Y015878D02*
X021229D01*
X021169Y015818D02*
Y015938D01*
X018974Y016626D02*
X019094D01*
X019034Y016566D02*
Y016686D01*
X020617Y016724D02*
X020737D01*
X020677Y016664D02*
Y016784D01*
X020578Y016262D02*
X020698D01*
X020638Y016202D02*
Y016322D01*
X019003Y016099D02*
X019123D01*
X019063Y016039D02*
Y016159D01*
X01906Y015614D02*
X01918D01*
X01912Y015554D02*
Y015674D01*
X02966Y01371D02*
X02978D01*
X02972Y01365D02*
Y01377D01*
X030478Y013358D02*
X030598D01*
X030538Y013298D02*
Y013418D01*
X02668Y01377D02*
X0268D01*
X02674Y01371D02*
Y01383D01*
X03039Y01806D02*
X03051D01*
X03045Y018D02*
Y01812D01*
X028003Y01727D02*
X028123D01*
X028063Y01721D02*
Y01733D01*
X027752Y018342D02*
X027872D01*
X027812Y018282D02*
Y018402D01*
X026394Y017554D02*
X026514D01*
X026454Y017494D02*
Y017614D01*
X02471Y01859D02*
X02483D01*
X02477Y01853D02*
Y01865D01*
X024186Y01516D02*
X024306D01*
X024246Y0151D02*
Y01522D01*
X02354Y01462D02*
X02366D01*
X0236Y01456D02*
Y01468D01*
X02353Y01357D02*
X02365D01*
X02359Y01351D02*
Y01363D01*
X02588Y01516D02*
X026D01*
X02594Y0151D02*
Y01522D01*
X026328Y01456D02*
X026448D01*
X026388Y0145D02*
Y01462D01*
X02427Y01413D02*
X02439D01*
X02433Y01407D02*
Y01419D01*
X029934Y013354D02*
X030054D01*
X029994Y013294D02*
Y013414D01*
X02802Y01385D02*
X02814D01*
X02808Y01379D02*
Y01391D01*
X030242Y01276D02*
X030362D01*
X030302Y0127D02*
Y01282D01*
X029383Y017277D02*
X029503D01*
X029443Y017217D02*
Y017337D01*
X019958Y013033D02*
X020078D01*
X020018Y012973D02*
Y013093D01*
X019968Y012689D02*
X020088D01*
X020028Y012629D02*
Y012749D01*
X020194Y012384D02*
X020314D01*
X020254Y012324D02*
Y012444D01*
X023334Y012502D02*
X023454D01*
X023394Y012442D02*
Y012562D01*
X023727Y012502D02*
X023847D01*
X023787Y012442D02*
Y012562D01*
X021119Y015238D02*
X021239D01*
X021179Y015178D02*
Y015298D01*
X018826Y018526D02*
X018946D01*
X018886Y018466D02*
Y018586D01*
X018452Y016321D02*
X018572D01*
X018512Y016261D02*
Y016381D01*
X01855Y0151D02*
X01867D01*
X01861Y01504D02*
Y01516D01*
X02229Y017581D02*
X02241D01*
X02235Y017521D02*
Y017641D01*
X023285Y018122D02*
X023405D01*
X023345Y018062D02*
Y018182D01*
X023754Y018447D02*
X023874D01*
X023814Y018387D02*
Y018507D01*
X030263Y011527D02*
X030383D01*
X030323Y011467D02*
Y011587D01*
X025332Y012148D02*
X025452D01*
X025392Y012088D02*
Y012208D01*
X020617Y014008D02*
X020737D01*
X020677Y013948D02*
Y014068D01*
X022546Y014246D02*
X022666D01*
X022606Y014186D02*
Y014306D01*
X023235Y015337D02*
X023355D01*
X023295Y015277D02*
Y015397D01*
X020913Y013024D02*
X021033D01*
X020973Y012964D02*
Y013084D01*
X021759Y013516D02*
X021879D01*
X021819Y013456D02*
Y013576D01*
X022773Y011075D02*
X022893D01*
X022833Y011015D02*
Y011135D01*
X021464Y011085D02*
X021584D01*
X021524Y011025D02*
Y011145D01*
X02295Y010041D02*
X02307D01*
X02301Y009981D02*
Y010101D01*
X024909Y009579D02*
X025029D01*
X024969Y009519D02*
Y009639D01*
X0267Y009687D02*
X02682D01*
X02676Y009627D02*
Y009747D01*
X028304Y010258D02*
X028424D01*
X028364Y010198D02*
Y010318D01*
X029141Y01259D02*
X029261D01*
X029201Y01253D02*
Y01265D01*
X028914Y013516D02*
X029034D01*
X028974Y013456D02*
Y013576D01*
X027988Y011695D02*
X028108D01*
X028048Y011635D02*
Y011755D01*
X026542Y011439D02*
X026662D01*
X026602Y011379D02*
Y011499D01*
X024131Y011449D02*
X024251D01*
X024191Y011389D02*
Y011509D01*
X024731Y012699D02*
X024851D01*
X024791Y012639D02*
Y012759D01*
X02667Y012777D02*
X02679D01*
X02673Y012717D02*
Y012837D01*
X02732Y017197D02*
X02744D01*
X02738Y017137D02*
Y017257D01*
X030263Y017148D02*
X030383D01*
X030323Y017088D02*
Y017208D01*
X030283Y015848D02*
X030403D01*
X030343Y015788D02*
Y015908D01*
X030283Y015012D02*
X030403D01*
X030343Y014952D02*
Y015072D01*
X028403Y015819D02*
X028523D01*
X028463Y015759D02*
Y015879D01*
X027871Y016429D02*
X027991D01*
X027931Y016369D02*
Y016489D01*
X0292Y014864D02*
X02932D01*
X02926Y014804D02*
Y014924D01*
X029968Y018388D02*
X030088D01*
X030028Y018328D02*
Y018448D01*
X025607Y018555D02*
X025727D01*
X025667Y018495D02*
Y018615D01*
X026296Y017128D02*
X026416D01*
X026356Y017068D02*
Y017188D01*
X024336Y01759D02*
X024456D01*
X024396Y01753D02*
Y01765D01*
X025991Y012748D02*
X026111D01*
X026051Y012688D02*
Y012808D01*
X025411Y016901D02*
X025531D01*
X025471Y016841D02*
Y016961D01*
M02*
