G04*
G04 #@! TF.GenerationSoftware,Altium Limited,Altium Designer,25.4.2 (15)*
G04*
G04 Layer_Color=32896*
%FSTAX24Y24*%
%MOIN*%
G70*
G04*
G04 #@! TF.SameCoordinates,E8C35838-7A26-4AB5-A82F-FF47F1EBD12F*
G04*
G04*
G04 #@! TF.FilePolarity,Positive*
G04*
G01*
G75*
%ADD14C,0.0050*%
%ADD15C,0.0047*%
D14*
X027319Y013317D02*
Y014876D01*
X026276D02*
X027319D01*
X023421D02*
X024464D01*
X026276Y013317D02*
X027319D01*
X023421D02*
X024464D01*
X023421D02*
Y014876D01*
D15*
X020668Y017414D02*
X020799D01*
X020733D01*
Y017086D01*
X020799Y01702D01*
X020864D01*
X02093Y017086D01*
X020536Y01702D02*
X020405D01*
X020471D01*
Y017414D01*
X020536Y017348D01*
X02553Y015494D02*
Y015166D01*
X025464Y0151D01*
X025333D01*
X025268Y015166D01*
Y015494D01*
X024874D02*
X025136D01*
Y015297D01*
X025005Y015363D01*
X02494D01*
X024874Y015297D01*
Y015166D01*
X02494Y0151D01*
X025071D01*
X025136Y015166D01*
X02068Y015494D02*
Y015166D01*
X020614Y0151D01*
X020483D01*
X020418Y015166D01*
Y015494D01*
X020024Y0151D02*
X020286D01*
X020024Y015363D01*
Y015428D01*
X02009Y015494D01*
X020221D01*
X020286Y015428D01*
M02*
