G04*
G04 #@! TF.GenerationSoftware,Altium Limited,Altium Designer,25.4.2 (15)*
G04*
G04 Layer_Physical_Order=1*
G04 Layer_Color=1265191*
%FSTAX24Y24*%
%MOIN*%
G70*
G04*
G04 #@! TF.SameCoordinates,5CE265F0-7D9D-4DF0-BE37-BCC977853A71*
G04*
G04*
G04 #@! TF.FilePolarity,Positive*
G04*
G01*
G75*
%ADD17R,0.0197X0.0197*%
%ADD18R,0.0197X0.0197*%
%ADD19C,0.0300*%
%ADD20R,0.0217X0.0315*%
%ADD21R,0.0394X0.0709*%
%ADD22R,0.0157X0.0197*%
%ADD23R,0.0197X0.0157*%
%ADD24R,0.0475X0.0417*%
%ADD25R,0.0236X0.0177*%
%ADD26R,0.0236X0.0098*%
%ADD27R,0.0236X0.0110*%
%ADD28R,0.0413X0.0315*%
G04:AMPARAMS|DCode=29|XSize=21.7mil|YSize=31.5mil|CornerRadius=0mil|HoleSize=0mil|Usage=FLASHONLY|Rotation=223.000|XOffset=0mil|YOffset=0mil|HoleType=Round|Shape=Rectangle|*
%AMROTATEDRECTD29*
4,1,4,-0.0028,0.0189,0.0187,-0.0041,0.0028,-0.0189,-0.0187,0.0041,-0.0028,0.0189,0.0*
%
%ADD29ROTATEDRECTD29*%

%ADD30R,0.0236X0.0433*%
%ADD45C,0.0310*%
%ADD46C,0.0100*%
%ADD47C,0.0080*%
%ADD48C,0.0150*%
%ADD49C,0.0630*%
%ADD50C,0.0390*%
%ADD51C,0.0240*%
G36*
X03071Y017772D02*
X030596D01*
Y017573D01*
Y017375D01*
X03071D01*
Y014445D01*
X030626D01*
Y0148D01*
X029914D01*
Y014445D01*
X027687D01*
Y016246D01*
X027674Y016312D01*
X027637Y016368D01*
X027637Y016368D01*
X027536Y016469D01*
X027517Y016562D01*
X027464Y016641D01*
X027385Y016695D01*
X027291Y016713D01*
X027198Y016695D01*
X027118Y016641D01*
X027103Y016619D01*
X027043Y016637D01*
Y017079D01*
Y017355D01*
X027988D01*
Y017375D01*
X028015D01*
Y017573D01*
X028115D01*
Y017375D01*
X028142D01*
Y017355D01*
X029167D01*
X029205Y017308D01*
X029198Y017277D01*
X029217Y017183D01*
X02927Y017104D01*
X02935Y017051D01*
X029443Y017032D01*
X029537Y017051D01*
X029616Y017104D01*
X029669Y017183D01*
X029688Y017277D01*
X029682Y017308D01*
X02972Y017355D01*
X030469D01*
Y017375D01*
X030496D01*
Y017573D01*
Y017772D01*
X030469D01*
Y017792D01*
X029465D01*
X029442Y017847D01*
X029484Y017889D01*
X029519Y017942D01*
X029531Y018D01*
X029726D01*
Y018657D01*
X028361D01*
Y01827D01*
X028306Y018258D01*
Y018258D01*
X028157D01*
Y01806D01*
X028057D01*
Y018295D01*
X028049Y018305D01*
X028057Y018342D01*
X028038Y018436D01*
X027985Y018515D01*
X027906Y018568D01*
X027812Y018587D01*
X027749Y018574D01*
X027689Y018615D01*
Y018664D01*
X027055D01*
Y018057D01*
X026995Y018009D01*
X026977Y018013D01*
X026705D01*
Y018664D01*
X026071D01*
Y017888D01*
X026016Y017865D01*
X025494Y018387D01*
X025441Y018422D01*
X025382Y018434D01*
Y018608D01*
X024906D01*
Y018588D01*
X02482D01*
Y018271D01*
X02472D01*
Y018588D01*
X024634D01*
Y018608D01*
X024158D01*
Y017935D01*
X024239D01*
X024245Y017904D01*
X024272Y017863D01*
X024281Y017851D01*
X024259Y017788D01*
X024223Y017764D01*
X02417Y017684D01*
X024151Y01759D01*
X024166Y017515D01*
X024158Y017505D01*
X024158D01*
Y016832D01*
X024373D01*
X024761Y016444D01*
X024731Y016389D01*
X024403Y016082D01*
X024781Y015677D01*
X024855Y015745D01*
X024933Y015667D01*
X024928Y01563D01*
X024937Y01556D01*
X024964Y015494D01*
X024993Y015456D01*
X025006Y015426D01*
X024996Y015371D01*
X024974Y015342D01*
X024947Y015276D01*
X024937Y015206D01*
X024941Y015179D01*
X024895Y015137D01*
X024893Y015134D01*
X024891Y015133D01*
X024875Y015109D01*
X024858Y015085D01*
X024857Y015082D01*
X024855Y01508D01*
X02485Y015051D01*
X024843Y015024D01*
X024843Y01502D01*
X024843Y015017D01*
Y01387D01*
X024798D01*
Y013315D01*
X025254D01*
Y01387D01*
X025169D01*
Y014898D01*
X02521Y014933D01*
X02528Y014943D01*
X025346Y01497D01*
X025402Y015013D01*
X025446Y015069D01*
X025473Y015135D01*
X025482Y015206D01*
X025479Y01523D01*
X0257Y015451D01*
X026607D01*
Y01515D01*
Y014875D01*
Y014599D01*
Y014323D01*
X026627D01*
Y014296D01*
X026825D01*
Y014246D01*
X026875D01*
Y014068D01*
X027023D01*
X02704Y014014D01*
Y014008D01*
X027834D01*
X027862Y013955D01*
X027854Y013944D01*
X027835Y01385D01*
X027854Y013756D01*
X027907Y013677D01*
X027986Y013624D01*
X02808Y013605D01*
X028118Y013613D01*
X028178Y013564D01*
Y013408D01*
X027837Y013067D01*
X0278Y013072D01*
X02773Y013063D01*
X027664Y013036D01*
X027607Y012993D01*
X027564Y012936D01*
X027537Y01287D01*
X027528Y0128D01*
X027537Y01273D01*
X027564Y012664D01*
X027607Y012607D01*
X027664Y012564D01*
X02773Y012537D01*
X0278Y012528D01*
X02787Y012537D01*
X027936Y012564D01*
X027993Y012607D01*
X027995Y012611D01*
X028055D01*
X028057Y012607D01*
X028114Y012564D01*
X02818Y012537D01*
X02825Y012528D01*
X02832Y012537D01*
X028386Y012564D01*
X028443Y012607D01*
X028486Y012664D01*
X028513Y01273D01*
X028522Y0128D01*
X028517Y012837D01*
X028732Y013051D01*
X028767Y013104D01*
X02878Y013166D01*
Y014008D01*
X029556D01*
Y013889D01*
X029547Y013883D01*
X029494Y013804D01*
X029475Y01371D01*
X029494Y013616D01*
X029547Y013537D01*
X029626Y013484D01*
X029715Y013466D01*
X029721Y013464D01*
X029761Y013412D01*
X02975Y013354D01*
X029768Y013261D01*
X029821Y013181D01*
X029901Y013128D01*
X029994Y01311D01*
X030088Y013128D01*
X030167Y013181D01*
X03022Y013261D01*
X030236Y013339D01*
X030297D01*
X030312Y013264D01*
X030365Y013185D01*
X030444Y013132D01*
X030538Y013113D01*
X030632Y013132D01*
X030657Y013149D01*
X03071Y013121D01*
Y011609D01*
X030384Y011262D01*
X029995Y010904D01*
X029579Y010576D01*
X029141Y010279D01*
X028681Y010016D01*
X028204Y009788D01*
X02771Y009596D01*
X027204Y009441D01*
X026688Y009324D01*
X026165Y009246D01*
X025637Y009207D01*
X025107D01*
X02458Y009246D01*
X024056Y009324D01*
X02354Y009441D01*
X023034Y009596D01*
X022541Y009788D01*
X022063Y010016D01*
X021604Y010279D01*
X021165Y010576D01*
X02075Y010904D01*
X02036Y011262D01*
X019997Y011648D01*
X019665Y012059D01*
X019364Y012495D01*
X019096Y012951D01*
X018862Y013426D01*
X018665Y013917D01*
X018504Y014422D01*
X018381Y014937D01*
X018297Y015459D01*
X018252Y015986D01*
X018246Y016516D01*
X01828Y017044D01*
X018352Y017568D01*
X018464Y018086D01*
X018613Y018594D01*
X018686Y018788D01*
X019794D01*
X019815Y018728D01*
X019783Y018704D01*
X019716Y018617D01*
X019675Y018517D01*
X019667Y018458D01*
X020079D01*
X020491D01*
X020483Y018517D01*
X020441Y018617D01*
X020375Y018704D01*
X020343Y018728D01*
X020364Y018788D01*
X020761D01*
X020782Y018728D01*
X020769Y018718D01*
X020699Y018628D01*
X020655Y018522D01*
X02064Y018408D01*
X020655Y018295D01*
X020699Y018189D01*
X020769Y018098D01*
X02086Y018028D01*
X020965Y017984D01*
X021079Y017969D01*
X021192Y017984D01*
X021298Y018028D01*
X021389Y018098D01*
X021459Y018189D01*
X021503Y018295D01*
X021518Y018408D01*
X021503Y018522D01*
X021459Y018628D01*
X021389Y018718D01*
X021376Y018728D01*
X021396Y018788D01*
X021761D01*
X021782Y018728D01*
X021769Y018718D01*
X021699Y018628D01*
X021655Y018522D01*
X02164Y018408D01*
X021655Y018295D01*
X021699Y018189D01*
X021769Y018098D01*
X02186Y018028D01*
X021965Y017984D01*
X022079Y017969D01*
X022192Y017984D01*
X022298Y018028D01*
X022389Y018098D01*
X022459Y018189D01*
X022503Y018295D01*
X022518Y018408D01*
X022503Y018522D01*
X022459Y018628D01*
X022389Y018718D01*
X022376Y018728D01*
X022396Y018788D01*
X03071Y018788D01*
Y017772D01*
D02*
G37*
G36*
X026486Y017699D02*
X026548Y017687D01*
X026627D01*
Y017604D01*
X026825D01*
Y017504D01*
X026627D01*
Y017477D01*
X026607D01*
Y017079D01*
Y01689D01*
X026368D01*
X026276Y016982D01*
Y017188D01*
X02622D01*
Y017593D01*
X026208Y017655D01*
X026208Y017656D01*
X02624Y017716D01*
X026461D01*
X026486Y017699D01*
D02*
G37*
%LPC*%
G36*
X020029Y018358D02*
X019667D01*
X019675Y0183D01*
X019716Y018199D01*
X019783Y018112D01*
X01987Y018046D01*
X019971Y018004D01*
X020029Y017996D01*
Y018358D01*
D02*
G37*
G36*
X020491D02*
X020129D01*
Y017996D01*
X020187Y018004D01*
X020288Y018046D01*
X020375Y018112D01*
X020441Y018199D01*
X020483Y0183D01*
X020491Y018358D01*
D02*
G37*
G36*
X019752Y017374D02*
X019653Y017354D01*
X019568Y017298D01*
X019512Y017214D01*
X019492Y017114D01*
X019512Y017015D01*
X019559Y016944D01*
X019535Y016894D01*
X01953Y016888D01*
X019502Y016891D01*
X01943Y016882D01*
X019363Y016854D01*
X01931Y016813D01*
X019186D01*
X019127Y016852D01*
X019034Y016871D01*
X01894Y016852D01*
X018861Y016799D01*
X018807Y01672D01*
X018789Y016626D01*
X018807Y016532D01*
X018861Y016453D01*
X01894Y0164D01*
X01899Y01639D01*
Y016329D01*
X018969Y016325D01*
X01889Y016272D01*
X018837Y016192D01*
X018818Y016099D01*
X018837Y016005D01*
X01889Y015926D01*
X018969Y015872D01*
X019063Y015854D01*
X019156Y015872D01*
X019236Y015926D01*
X0193Y015926D01*
X019306Y015918D01*
X019345Y015888D01*
X01935Y015831D01*
X019346Y015816D01*
X019318Y015798D01*
X019262Y015714D01*
X019242Y015614D01*
X019262Y015515D01*
X019318Y01543D01*
X01932Y015429D01*
X019308Y015365D01*
X019253Y015354D01*
X019168Y015298D01*
X019112Y015214D01*
X019092Y015114D01*
X019112Y015015D01*
X019168Y01493D01*
X019253Y014874D01*
X019352Y014854D01*
X019452Y014874D01*
X019536Y01493D01*
X019592Y015015D01*
X019612Y015114D01*
X019592Y015214D01*
X019536Y015298D01*
X019534Y015299D01*
X019547Y015363D01*
X019602Y015374D01*
X019686Y01543D01*
X019704Y015458D01*
X019719Y015462D01*
X019776Y015457D01*
X019806Y015418D01*
X019863Y015374D01*
X01993Y015346D01*
X019933Y015346D01*
X019942Y015334D01*
X019958Y015282D01*
X019912Y015214D01*
X019892Y015114D01*
X019912Y015015D01*
X019968Y01493D01*
X020053Y014874D01*
X020152Y014854D01*
X020252Y014874D01*
X020336Y01493D01*
X020392Y015015D01*
X020412Y015114D01*
X020392Y015214D01*
X020336Y015298D01*
X020252Y015354D01*
X020238Y015385D01*
X020235Y015419D01*
X020259Y015441D01*
X020502D01*
X020568Y015454D01*
X020625Y015492D01*
X020838Y015705D01*
X020997D01*
X021076Y015652D01*
X021169Y015633D01*
X021263Y015652D01*
X021342Y015705D01*
X021395Y015784D01*
X021414Y015878D01*
X021395Y015972D01*
X021342Y016051D01*
X021263Y016104D01*
X021169Y016123D01*
X021076Y016104D01*
X020997Y016051D01*
X020855D01*
X020826Y016111D01*
X020864Y016168D01*
X020883Y016262D01*
X020864Y016355D01*
X020811Y016435D01*
X020794Y016446D01*
X020797Y016516D01*
X02085Y016551D01*
X020903Y016631D01*
X020922Y016724D01*
X020903Y016818D01*
X02085Y016897D01*
X020771Y01695D01*
X020677Y016969D01*
X020584Y01695D01*
X020504Y016897D01*
X020451Y016818D01*
X020443Y016777D01*
X020223D01*
X020198Y01681D01*
X020141Y016854D01*
X020074Y016882D01*
X020002Y016891D01*
X019974Y016888D01*
X019969Y016894D01*
X019945Y016944D01*
X019992Y017015D01*
X020012Y017114D01*
X019992Y017214D01*
X019936Y017298D01*
X019852Y017354D01*
X019752Y017374D01*
D02*
G37*
G36*
X023791Y01683D02*
X023675Y016722D01*
X023817Y016571D01*
X023933Y016679D01*
X023791Y01683D01*
D02*
G37*
G36*
X023602Y016654D02*
X023486Y016546D01*
X023628Y016394D01*
X023744Y016502D01*
X023602Y016654D01*
D02*
G37*
G36*
X024001Y016605D02*
X023885Y016497D01*
X024027Y016346D01*
X024142Y016454D01*
X024001Y016605D01*
D02*
G37*
G36*
X023812Y016429D02*
X023696Y016321D01*
X023838Y01617D01*
X023953Y016278D01*
X023812Y016429D01*
D02*
G37*
G36*
X02419Y015884D02*
X023856Y015572D01*
X024047Y015368D01*
Y015294D01*
X02402Y015254D01*
X024001Y01516D01*
X02402Y015066D01*
X024073Y014987D01*
X024152Y014934D01*
X024246Y014915D01*
X024339Y014934D01*
X024419Y014987D01*
X024472Y015066D01*
X02449Y01516D01*
X024472Y015254D01*
X024444Y015294D01*
Y015362D01*
X024568Y015478D01*
X024397Y015662D01*
X024386Y015677D01*
X024375Y015685D01*
X02419Y015884D01*
D02*
G37*
G36*
X026775Y014196D02*
X026627D01*
Y014068D01*
X026775D01*
Y014196D01*
D02*
G37*
G36*
X022795Y013507D02*
X022647D01*
Y013359D01*
X022795D01*
Y013507D01*
D02*
G37*
G36*
X021674Y013253D02*
X021506D01*
Y013154D01*
X021674D01*
Y013253D01*
D02*
G37*
G36*
X021406D02*
X021238D01*
Y013154D01*
X021406D01*
Y013253D01*
D02*
G37*
G36*
X021337Y013054D02*
X021238D01*
Y012957D01*
X021337D01*
Y013054D01*
D02*
G37*
G36*
X025608Y012865D02*
X02545D01*
Y012658D01*
X025608D01*
Y012865D01*
D02*
G37*
G36*
X02535D02*
X025192D01*
Y012658D01*
X02535D01*
Y012865D01*
D02*
G37*
G36*
X026002Y01387D02*
X025546D01*
Y013315D01*
X025575D01*
Y013153D01*
X02559Y013077D01*
X025633Y013013D01*
X025822Y012824D01*
X025807Y012748D01*
X025825Y012654D01*
X025878Y012575D01*
X025958Y012522D01*
X026051Y012503D01*
X026145Y012522D01*
X026224Y012575D01*
X026277Y012654D01*
X026296Y012748D01*
X026277Y012842D01*
X026248Y012885D01*
X026235Y012952D01*
X026192Y013016D01*
X025973Y013235D01*
Y013315D01*
X026002D01*
Y01387D01*
D02*
G37*
G36*
X025608Y012558D02*
X02545D01*
Y01235D01*
X025608D01*
Y012558D01*
D02*
G37*
G36*
X02535D02*
X025192D01*
Y01235D01*
X02535D01*
Y012558D01*
D02*
G37*
G36*
X022547Y013507D02*
X022398D01*
Y013273D01*
X021926D01*
Y013113D01*
X021947Y013092D01*
Y012135D01*
X022046D01*
X022055Y012133D01*
X02237D01*
X022379Y012135D01*
X022402D01*
Y01214D01*
X022417Y012143D01*
X022457Y012169D01*
X022509Y012222D01*
X023945D01*
X023992Y012231D01*
X024031Y012258D01*
X024091Y012317D01*
X024117Y012357D01*
X024126Y012403D01*
Y01261D01*
X024117Y012657D01*
X024091Y012697D01*
X024031Y012756D01*
X023992Y012782D01*
X023945Y012792D01*
X023177D01*
Y012792D01*
X022815D01*
Y013173D01*
X022795D01*
Y013259D01*
X022597D01*
Y013309D01*
X022547D01*
Y013507D01*
D02*
G37*
G36*
X020195Y013313D02*
X019841D01*
X019794Y013304D01*
X019754Y013277D01*
X019685Y013208D01*
X019659Y013169D01*
X019649Y013122D01*
Y012482D01*
X019659Y012435D01*
X019685Y012396D01*
X019961Y01212D01*
X020001Y012094D01*
X020047Y012084D01*
X020732D01*
Y011983D01*
X020835D01*
Y01202D01*
X021168D01*
Y012098D01*
X021188D01*
Y012143D01*
X021583D01*
X021602Y012147D01*
X021671D01*
X021671Y012148D01*
Y012797D01*
X021612Y012856D01*
X021337D01*
Y012879D01*
X021238D01*
Y012879D01*
X021218D01*
Y012782D01*
X02101Y012575D01*
X02059Y012575D01*
X020376Y012789D01*
Y013132D01*
X020367Y013179D01*
X020341Y013218D01*
X020281Y013277D01*
X020242Y013304D01*
X020195Y013313D01*
D02*
G37*
G36*
X0228Y012043D02*
X022543D01*
Y011941D01*
X0228D01*
Y012043D01*
D02*
G37*
G36*
X023157D02*
X0229D01*
Y011941D01*
X023039D01*
X023043Y011836D01*
X023157D01*
Y012043D01*
D02*
G37*
G36*
X020835Y011883D02*
X020732D01*
Y011744D01*
X020835D01*
Y011883D01*
D02*
G37*
G36*
X023157Y011736D02*
X023046D01*
X023049Y011636D01*
X022961Y011547D01*
X0229D01*
Y011528D01*
X023157D01*
Y011736D01*
D02*
G37*
G36*
X0228Y011547D02*
X022543D01*
Y011528D01*
X0228D01*
Y011547D01*
D02*
G37*
%LPD*%
G36*
X022557Y012669D02*
X023945D01*
X024004Y01261D01*
Y012403D01*
X023945Y012344D01*
X022459D01*
X02237Y012256D01*
X022055D01*
Y012758D01*
X022469D01*
X022557Y012669D01*
D02*
G37*
G36*
X020254Y013132D02*
Y012738D01*
X020539Y012453D01*
X021061Y012453D01*
X021327Y012718D01*
X021583D01*
Y012266D01*
X02112D01*
X021061Y012207D01*
X020047D01*
X019772Y012482D01*
Y013122D01*
X019841Y013191D01*
X020195D01*
X020254Y013132D01*
D02*
G37*
D17*
X025703Y01697D02*
D03*
X026057D02*
D03*
X025703Y01642D02*
D03*
X026057D02*
D03*
X030243Y01372D02*
D03*
X030597D02*
D03*
X027753Y01806D02*
D03*
X028107D02*
D03*
D18*
X022597Y012955D02*
D03*
Y013309D02*
D03*
D19*
X02521Y015206D02*
D03*
X0278Y0128D02*
D03*
X02825D02*
D03*
X0252Y01563D02*
D03*
D20*
X025026Y013592D02*
D03*
X025774D02*
D03*
X0254Y012608D02*
D03*
D21*
X026388Y01819D02*
D03*
X027372D02*
D03*
D22*
X030546Y017573D02*
D03*
X028065D02*
D03*
X02779D02*
D03*
X030427Y014581D02*
D03*
X029168Y014227D02*
D03*
X029443D02*
D03*
X027514Y017573D02*
D03*
X028065Y014227D02*
D03*
X028341Y017573D02*
D03*
X028616D02*
D03*
X028892D02*
D03*
X029168D02*
D03*
X029443D02*
D03*
X030546Y014227D02*
D03*
X03027D02*
D03*
X028892D02*
D03*
X028616D02*
D03*
X027238D02*
D03*
X029994Y017573D02*
D03*
X029719D02*
D03*
Y014227D02*
D03*
X029994D02*
D03*
X030112Y014581D02*
D03*
X03027Y017573D02*
D03*
X027238D02*
D03*
X027514Y014227D02*
D03*
X028341D02*
D03*
X02779D02*
D03*
D23*
X026825Y017554D02*
D03*
Y014246D02*
D03*
Y014522D02*
D03*
Y017278D02*
D03*
Y017002D02*
D03*
Y016451D02*
D03*
Y016176D02*
D03*
Y0159D02*
D03*
Y015624D02*
D03*
Y015073D02*
D03*
Y014798D02*
D03*
Y015349D02*
D03*
Y016727D02*
D03*
D24*
X029369Y018329D02*
D03*
X028718D02*
D03*
D25*
X02095Y011933D02*
D03*
Y012307D02*
D03*
D26*
X022164Y013104D02*
D03*
Y012907D02*
D03*
X021456Y01271D02*
D03*
Y012513D02*
D03*
Y012316D02*
D03*
X022164Y012513D02*
D03*
Y01271D02*
D03*
X021456Y012907D02*
D03*
Y013104D02*
D03*
D27*
X022164Y01231D02*
D03*
D28*
X02285Y011786D02*
D03*
Y012514D02*
D03*
D29*
X024759Y016035D02*
D03*
X024212Y015525D02*
D03*
X023814Y0165D02*
D03*
D30*
X025144Y018271D02*
D03*
X02477D02*
D03*
X024396D02*
D03*
Y017169D02*
D03*
X025144D02*
D03*
D45*
X020002Y015614D02*
D03*
X019502D02*
D03*
X020002Y016114D02*
D03*
X019502D02*
D03*
X020002Y016614D02*
D03*
X019502D02*
D03*
D46*
X025703Y01697D02*
Y017297D01*
X024396Y017054D02*
X02503Y01642D01*
X025703D01*
X024396Y017054D02*
Y017228D01*
X027291Y016468D02*
X027514Y016246D01*
Y014227D02*
Y016246D01*
X020766Y015878D02*
X021169D01*
X020502Y015614D02*
X020766Y015878D01*
X02049Y016114D02*
X020638Y016262D01*
X020002Y016114D02*
X02049D01*
X020002Y015614D02*
X020502D01*
X019063Y016099D02*
X019079Y016115D01*
X019502D01*
X02547Y0159D02*
X026825D01*
X0252Y01563D02*
X02547Y0159D01*
X025629Y015624D02*
X026825D01*
X02521Y015206D02*
X025629Y015624D01*
X02779Y017573D02*
X027812Y017596D01*
X030546Y013727D02*
Y014227D01*
X029994Y013354D02*
Y014227D01*
X030538Y013358D02*
X0306Y01342D01*
Y013673D01*
X030546Y013727D02*
X0306Y013673D01*
X030243Y013388D02*
X030302Y013329D01*
X030243Y013388D02*
Y01372D01*
X030302Y01276D02*
Y013329D01*
X027753Y017886D02*
X027812Y017827D01*
X027753Y017886D02*
Y01806D01*
Y018283D01*
X027812Y018342D01*
Y017596D02*
Y017827D01*
X028341Y017951D02*
X028718Y018329D01*
X028341Y017573D02*
Y017951D01*
D47*
X026057Y01697D02*
Y017593D01*
X025144Y018271D02*
X025379D01*
X026057Y017593D01*
X025144Y017856D02*
X02543Y01757D01*
Y01687D02*
X02558Y01672D01*
X02543Y01687D02*
Y01757D01*
X024506Y017856D02*
X025144D01*
X0263Y016727D02*
X026825D01*
X026057Y01697D02*
X0263Y016727D01*
X02593Y01672D02*
X026057Y016593D01*
X02558Y01672D02*
X02593D01*
X026057Y01647D02*
Y016593D01*
Y01647D02*
X026076Y016451D01*
X026825D01*
X025144Y016765D02*
X025149Y01676D01*
X025144Y016765D02*
Y017169D01*
X020567Y016614D02*
X020677Y016724D01*
X020002Y016614D02*
X020567D01*
X0278Y0128D02*
X028341Y013341D01*
Y014227D01*
X027514Y018152D02*
X027532Y01817D01*
X027514Y017573D02*
Y018152D01*
X027234Y014223D02*
X027238Y014227D01*
X028616Y017573D02*
X028645D01*
X028063Y014229D02*
X028065Y014227D01*
X02825Y0128D02*
X028616Y013166D01*
Y014227D01*
X025006Y013582D02*
X025026Y013592D01*
X025006Y015017D02*
X02521Y015206D01*
X029719Y013711D02*
Y014226D01*
Y013711D02*
X02972Y01371D01*
X02674Y01377D02*
Y013797D01*
X026825Y013882D01*
Y014246D01*
X025006Y013582D02*
Y015017D01*
X024798Y01594D02*
X02489D01*
X0252Y01563D01*
X024246Y015537D02*
X024246Y015537D01*
X03045Y018033D02*
X030546Y017937D01*
Y017573D02*
Y017937D01*
X03045Y018033D02*
Y01806D01*
X028645Y017573D02*
Y017769D01*
X028048Y017585D02*
Y01806D01*
Y017585D02*
X028063Y017571D01*
Y01727D02*
Y017571D01*
X026977Y01785D02*
X027238Y017588D01*
X026388Y01801D02*
Y01819D01*
Y01801D02*
X026548Y01785D01*
X026977D01*
X029443Y017277D02*
Y017573D01*
X028065Y013865D02*
Y014227D01*
Y013865D02*
X02808Y01385D01*
X022164Y012907D02*
X022585D01*
X0226Y012892D01*
X024396Y018271D02*
X024396Y018271D01*
X024396Y017966D02*
Y018271D01*
Y017966D02*
X024506Y017856D01*
X025144Y017228D02*
X025174Y017198D01*
X02878Y017903D02*
X029268D01*
X029369Y018004D01*
Y018329D01*
X028645Y017769D02*
X02878Y017903D01*
D48*
X023551Y016763D02*
Y016951D01*
Y016763D02*
X023814Y0165D01*
X019045Y016614D02*
X019502D01*
X019034Y016626D02*
X019045Y016614D01*
X01912Y015614D02*
X019502D01*
X026454Y017554D02*
X026825D01*
X02477Y018212D02*
Y01859D01*
X024246Y01516D02*
Y015537D01*
X025392Y012148D02*
X0254Y012156D01*
Y012608D01*
X024396Y017228D02*
Y01759D01*
X025774Y013153D02*
Y013592D01*
X026051Y012748D02*
Y012876D01*
X025774Y013153D02*
X026051Y012876D01*
D49*
X022079Y018408D02*
D03*
X021079D02*
D03*
X020079D02*
D03*
D50*
X019352Y015114D02*
D03*
X020152D02*
D03*
X019752Y017114D02*
D03*
D51*
X025703Y017297D02*
D03*
X025149Y01676D02*
D03*
X023551Y016951D02*
D03*
X027291Y016468D02*
D03*
X021169Y015878D02*
D03*
X019034Y016626D02*
D03*
X020677Y016724D02*
D03*
X020638Y016262D02*
D03*
X019063Y016099D02*
D03*
X01912Y015614D02*
D03*
X02972Y01371D02*
D03*
X030538Y013358D02*
D03*
X02674Y01377D02*
D03*
X03045Y01806D02*
D03*
X028063Y01727D02*
D03*
X027812Y018342D02*
D03*
X026454Y017554D02*
D03*
X02477Y01859D02*
D03*
X024246Y01516D02*
D03*
X0236Y01462D02*
D03*
X02359Y01357D02*
D03*
X02594Y01516D02*
D03*
X026388Y01456D02*
D03*
X02433Y01413D02*
D03*
X029994Y013354D02*
D03*
X02808Y01385D02*
D03*
X030302Y01276D02*
D03*
X029443Y017277D02*
D03*
X020018Y013033D02*
D03*
X020028Y012689D02*
D03*
X020254Y012384D02*
D03*
X023394Y012502D02*
D03*
X023787D02*
D03*
X021179Y015238D02*
D03*
X018886Y018526D02*
D03*
X018512Y016321D02*
D03*
X01861Y0151D02*
D03*
X02235Y017581D02*
D03*
X023345Y018122D02*
D03*
X023814Y018447D02*
D03*
X030323Y011527D02*
D03*
X025392Y012148D02*
D03*
X020677Y014008D02*
D03*
X022606Y014246D02*
D03*
X023295Y015337D02*
D03*
X020973Y013024D02*
D03*
X021819Y013516D02*
D03*
X022833Y011075D02*
D03*
X021524Y011085D02*
D03*
X02301Y010041D02*
D03*
X024969Y009579D02*
D03*
X02676Y009687D02*
D03*
X028364Y010258D02*
D03*
X029201Y01259D02*
D03*
X028974Y013516D02*
D03*
X028048Y011695D02*
D03*
X026602Y011439D02*
D03*
X024191Y011449D02*
D03*
X024791Y012699D02*
D03*
X02673Y012777D02*
D03*
X02738Y017197D02*
D03*
X030323Y017148D02*
D03*
X030343Y015848D02*
D03*
Y015012D02*
D03*
X028463Y015819D02*
D03*
X027931Y016429D02*
D03*
X02926Y014864D02*
D03*
X030028Y018388D02*
D03*
X025667Y018555D02*
D03*
X026356Y017128D02*
D03*
X024396Y01759D02*
D03*
X026051Y012748D02*
D03*
M02*
