G04*
G04 #@! TF.GenerationSoftware,Altium Limited,Altium Designer,25.4.2 (15)*
G04*
G04 Layer_Color=65535*
%FSTAX24Y24*%
%MOIN*%
G70*
G04*
G04 #@! TF.SameCoordinates,5CE265F0-7D9D-4DF0-BE37-BCC977853A71*
G04*
G04*
G04 #@! TF.FilePolarity,Positive*
G04*
G01*
G75*
%ADD10C,0.0098*%
%ADD11C,0.0079*%
%ADD12C,0.0118*%
%ADD13C,0.0050*%
%ADD14C,0.0059*%
%ADD15C,0.0059*%
%ADD16C,0.0047*%
G36*
X021248Y018032D02*
X021251D01*
X021255Y018032D01*
X021259Y018031D01*
X021264Y018031D01*
X021274Y018029D01*
X021286Y018026D01*
X021298Y018022D01*
X021304Y01802D01*
X021309Y018017D01*
X02131D01*
X021311Y018016D01*
X021312Y018016D01*
X021315Y018014D01*
X021317Y018013D01*
X02132Y018011D01*
X021327Y018006D01*
X021334Y018D01*
X021341Y017992D01*
X021349Y017984D01*
X021355Y017974D01*
Y017973D01*
X021356Y017972D01*
X021357Y017971D01*
X021358Y017968D01*
X021359Y017966D01*
X02136Y017963D01*
X021361Y017959D01*
X021363Y017955D01*
X021364Y017951D01*
X021366Y017946D01*
X021368Y017936D01*
X02137Y017924D01*
X021371Y017912D01*
Y017909D01*
X02137Y017907D01*
Y017903D01*
X02137Y0179D01*
X021369Y017896D01*
X021368Y017891D01*
X021366Y017881D01*
X021363Y017871D01*
X021359Y01786D01*
X021356Y017854D01*
X021353Y017849D01*
X021353Y017848D01*
X021353Y017848D01*
X021352Y017846D01*
X02135Y017844D01*
X021349Y017842D01*
X021347Y017839D01*
X021341Y017833D01*
X021335Y017826D01*
X021327Y017819D01*
X021317Y017812D01*
X021307Y017806D01*
X021307D01*
X021305Y017805D01*
X021304Y017805D01*
X021302Y017804D01*
X021299Y017803D01*
X021296Y017802D01*
X021292Y0178D01*
X021288Y017799D01*
X021283Y017798D01*
X021279Y017796D01*
X021268Y017794D01*
X021256Y017793D01*
X021244Y017792D01*
X021244D01*
X021243D01*
X021241D01*
X021238Y017792D01*
X021233D01*
X021228Y017793D01*
X021222Y017794D01*
X021215Y017795D01*
X021208Y017796D01*
X0212Y017798D01*
X021192Y0178D01*
X021184Y017803D01*
X021176Y017806D01*
X021168Y01781D01*
X02116Y017814D01*
X021153Y01782D01*
X021146Y017825D01*
X021145Y017826D01*
X021144Y017827D01*
X021142Y017829D01*
X02114Y017832D01*
X021137Y017835D01*
X021134Y017839D01*
X021131Y017844D01*
X021128Y017849D01*
X021125Y017855D01*
X021121Y017861D01*
X021118Y017869D01*
X021115Y017876D01*
X021113Y017885D01*
X021111Y017893D01*
X02111Y017903D01*
X02111Y017912D01*
Y017916D01*
X02111Y017918D01*
Y017921D01*
X021111Y017925D01*
X021111Y017929D01*
X021112Y017933D01*
X021114Y017943D01*
X021117Y017954D01*
X021121Y017964D01*
X021124Y01797D01*
X021127Y017975D01*
X021127Y017976D01*
X021127Y017976D01*
X021129Y017978D01*
X02113Y01798D01*
X021131Y017982D01*
X021134Y017985D01*
X021139Y017991D01*
X021145Y017998D01*
X021153Y018005D01*
X021163Y018012D01*
X021173Y018018D01*
X021174D01*
X021175Y018019D01*
X021176Y018019D01*
X021178Y01802D01*
X021181Y018022D01*
X021185Y018023D01*
X021189Y018024D01*
X021193Y018026D01*
X021198Y018027D01*
X021203Y018028D01*
X021209Y01803D01*
X021214Y018031D01*
X021227Y018032D01*
X021241Y018033D01*
X021241D01*
X021243D01*
X021245D01*
X021248Y018032D01*
D02*
G37*
G36*
X021366Y01771D02*
X021114D01*
Y017743D01*
X021366D01*
Y01771D01*
D02*
G37*
G36*
X021193Y017661D02*
X021195Y017661D01*
X021199Y01766D01*
X021202Y01766D01*
X021206Y017659D01*
X021215Y017656D01*
X021219Y017655D01*
X021224Y017653D01*
X021229Y01765D01*
X021233Y017648D01*
X021237Y017644D01*
X021242Y017641D01*
X021242Y01764D01*
X021243Y01764D01*
X021244Y017639D01*
X021245Y017637D01*
X021247Y017635D01*
X021249Y017632D01*
X021251Y017628D01*
X021253Y017624D01*
X021255Y017619D01*
X021257Y017614D01*
X021259Y017608D01*
X02126Y017601D01*
X021262Y017594D01*
X021263Y017586D01*
X021264Y017577D01*
X021264Y017567D01*
Y017503D01*
X021366D01*
Y017469D01*
X021114D01*
Y017573D01*
X021115Y017578D01*
X021115Y017584D01*
X021115Y017591D01*
X021116Y017597D01*
X021117Y017603D01*
Y017603D01*
X021118Y017606D01*
X021118Y017609D01*
X021119Y017614D01*
X021121Y017618D01*
X021123Y017623D01*
X021126Y017629D01*
X021129Y017634D01*
X021129Y017634D01*
X02113Y017636D01*
X021133Y017638D01*
X021135Y017641D01*
X021138Y017644D01*
X021143Y017647D01*
X021147Y017651D01*
X021153Y017654D01*
X021154Y017654D01*
X021155Y017655D01*
X021159Y017656D01*
X021163Y017658D01*
X021168Y017659D01*
X021174Y01766D01*
X021181Y017661D01*
X021188Y017662D01*
X021188D01*
X021189D01*
X02119D01*
X021193Y017661D01*
D02*
G37*
G36*
X021332Y01742D02*
X021332Y017419D01*
X021333Y017418D01*
X021335Y017416D01*
X021336Y017414D01*
X021338Y017411D01*
X02134Y017408D01*
X021342Y017405D01*
X021347Y017397D01*
X021352Y017388D01*
X021357Y017379D01*
X021361Y017369D01*
Y017369D01*
X021361Y017368D01*
X021361Y017367D01*
X021362Y017365D01*
X021363Y017362D01*
X021364Y017359D01*
X021365Y017356D01*
X021365Y017353D01*
X021367Y017345D01*
X021369Y017336D01*
X02137Y017326D01*
X021371Y017316D01*
Y017312D01*
X02137Y01731D01*
Y017306D01*
X02137Y017302D01*
X021369Y017298D01*
X021369Y017293D01*
X021367Y017283D01*
X021364Y017271D01*
X02136Y01726D01*
X021358Y017254D01*
X021355Y017248D01*
X021355Y017248D01*
X021354Y017247D01*
X021353Y017245D01*
X021352Y017243D01*
X02135Y01724D01*
X021348Y017238D01*
X021343Y017231D01*
X021337Y017224D01*
X021329Y017216D01*
X02132Y017209D01*
X021309Y017202D01*
X021309D01*
X021308Y017201D01*
X021306Y017201D01*
X021304Y0172D01*
X021301Y017199D01*
X021297Y017197D01*
X021294Y017196D01*
X021289Y017195D01*
X021285Y017193D01*
X021279Y017192D01*
X021274Y017191D01*
X021268Y017189D01*
X021255Y017188D01*
X021242Y017187D01*
X021241D01*
X02124D01*
X021238D01*
X021236Y017187D01*
X021232D01*
X021228Y017188D01*
X021224Y017188D01*
X02122Y017189D01*
X021214Y01719D01*
X021209Y017191D01*
X021197Y017193D01*
X021185Y017197D01*
X021173Y017202D01*
X021173Y017203D01*
X021172Y017203D01*
X02117Y017204D01*
X021168Y017205D01*
X021165Y017207D01*
X021162Y017208D01*
X021155Y017213D01*
X021147Y01722D01*
X02114Y017227D01*
X021132Y017236D01*
X021129Y017241D01*
X021126Y017246D01*
X021125Y017247D01*
X021125Y017248D01*
X021124Y017249D01*
X021123Y017251D01*
X021122Y017254D01*
X021121Y017258D01*
X021119Y017261D01*
X021118Y017266D01*
X021116Y01727D01*
X021115Y017275D01*
X021114Y017281D01*
X021113Y017287D01*
X021111Y017299D01*
X02111Y017306D01*
Y017318D01*
X02111Y01732D01*
Y017323D01*
X021111Y01733D01*
X021112Y017337D01*
X021114Y017345D01*
X021116Y017354D01*
X021119Y017362D01*
Y017363D01*
X021119Y017363D01*
X02112Y017365D01*
X021121Y017366D01*
X021123Y01737D01*
X021125Y017375D01*
X021129Y017381D01*
X021133Y017386D01*
X021138Y017392D01*
X021144Y017397D01*
X021145Y017398D01*
X021147Y017399D01*
X02115Y017401D01*
X021155Y017404D01*
X021161Y017407D01*
X021168Y01741D01*
X021176Y017414D01*
X021185Y017416D01*
X021193Y017386D01*
X021193D01*
X021192Y017386D01*
X021191Y017385D01*
X02119Y017385D01*
X021186Y017384D01*
X021182Y017382D01*
X021177Y01738D01*
X021172Y017378D01*
X021167Y017375D01*
X021163Y017372D01*
X021162Y017371D01*
X021161Y01737D01*
X021159Y017368D01*
X021157Y017366D01*
X021154Y017362D01*
X021151Y017358D01*
X021148Y017353D01*
X021145Y017348D01*
X021145Y017347D01*
X021144Y017345D01*
X021143Y017342D01*
X021142Y017338D01*
X021141Y017333D01*
X021139Y017327D01*
X021139Y01732D01*
X021138Y017313D01*
Y017309D01*
X021139Y017307D01*
Y017305D01*
X021139Y0173D01*
X02114Y017294D01*
X021141Y017287D01*
X021143Y01728D01*
X021146Y017274D01*
X021146Y017273D01*
X021147Y017271D01*
X021149Y017268D01*
X02115Y017264D01*
X021153Y01726D01*
X021156Y017255D01*
X02116Y017251D01*
X021164Y017247D01*
X021164Y017246D01*
X021166Y017245D01*
X021168Y017243D01*
X021171Y017241D01*
X021175Y017238D01*
X021179Y017236D01*
X021184Y017233D01*
X021189Y017231D01*
X021189D01*
X02119Y01723D01*
X021191Y01723D01*
X021193Y017229D01*
X021195Y017228D01*
X021198Y017228D01*
X021201Y017227D01*
X021204Y017226D01*
X021212Y017224D01*
X02122Y017223D01*
X021229Y017222D01*
X02124Y017221D01*
X02124D01*
X021241D01*
X021243D01*
X021245Y017222D01*
X021248D01*
X021252Y017222D01*
X021255Y017222D01*
X021259Y017223D01*
X021268Y017224D01*
X021278Y017226D01*
X021287Y017229D01*
X021296Y017232D01*
X021297D01*
X021297Y017233D01*
X021299Y017234D01*
X0213Y017235D01*
X021304Y017237D01*
X021309Y017241D01*
X021315Y017246D01*
X02132Y017252D01*
X021325Y017259D01*
X02133Y017266D01*
Y017267D01*
X02133Y017267D01*
X021331Y017268D01*
X021332Y01727D01*
X021332Y017272D01*
X021333Y017275D01*
X021335Y01728D01*
X021337Y017288D01*
X021339Y017296D01*
X02134Y017305D01*
X021341Y017314D01*
Y017317D01*
X02134Y017319D01*
Y017322D01*
X02134Y017327D01*
X021339Y017334D01*
X021337Y017341D01*
X021335Y017348D01*
X021333Y017356D01*
Y017356D01*
X021332Y017357D01*
X021332Y017358D01*
X021331Y017359D01*
X021329Y017363D01*
X021327Y017367D01*
X021325Y017373D01*
X021322Y017378D01*
X021319Y017383D01*
X021315Y017387D01*
X021268D01*
Y017313D01*
X021238D01*
Y01742D01*
X021331D01*
X021332Y01742D01*
D02*
G37*
G36*
X02262Y018319D02*
X022585D01*
X022488Y018571D01*
X022524D01*
X02259Y018388D01*
Y018387D01*
X02259Y018387D01*
X022591Y018385D01*
X022591Y018384D01*
X022592Y018382D01*
X022592Y01838D01*
X022594Y018374D01*
X022596Y018368D01*
X022599Y018361D01*
X022603Y018346D01*
Y018347D01*
X022603Y018348D01*
X022604Y018349D01*
X022604Y01835D01*
X022605Y018354D01*
X022607Y01836D01*
X022609Y018366D01*
X022611Y018373D01*
X022613Y01838D01*
X022616Y018388D01*
X022685Y018571D01*
X022719D01*
X02262Y018319D01*
D02*
G37*
G36*
X023106Y01857D02*
X023114Y01857D01*
X023121Y018569D01*
X023128Y018568D01*
X023134Y018567D01*
X023135D01*
X023135Y018567D01*
X023137D01*
X023138Y018566D01*
X023142Y018565D01*
X023147Y018563D01*
X023153Y018561D01*
X023159Y018557D01*
X023165Y018554D01*
X023171Y018549D01*
X023172Y018549D01*
X023172Y018548D01*
X023173Y018547D01*
X023174Y018546D01*
X023178Y018542D01*
X023182Y018537D01*
X023187Y018531D01*
X023192Y018524D01*
X023197Y018515D01*
X023201Y018506D01*
Y018506D01*
X023201Y018505D01*
X023202Y018503D01*
X023202Y018501D01*
X023204Y018499D01*
X023204Y018496D01*
X023205Y018492D01*
X023206Y018488D01*
X023207Y018484D01*
X023208Y01848D01*
X02321Y01847D01*
X023211Y018458D01*
X023211Y018446D01*
Y018445D01*
Y018445D01*
Y018443D01*
Y018441D01*
X023211Y018439D01*
Y018436D01*
X02321Y018429D01*
X023209Y018421D01*
X023208Y018412D01*
X023206Y018404D01*
X023204Y018395D01*
Y018395D01*
X023204Y018394D01*
X023204Y018393D01*
X023203Y018391D01*
X023202Y018387D01*
X0232Y018382D01*
X023197Y018376D01*
X023194Y018371D01*
X023191Y018364D01*
X023187Y018359D01*
X023187Y018358D01*
X023185Y018356D01*
X023183Y018353D01*
X02318Y01835D01*
X023177Y018346D01*
X023173Y018343D01*
X023169Y018339D01*
X023164Y018336D01*
X023163Y018335D01*
X023162Y018334D01*
X023159Y018333D01*
X023156Y018331D01*
X023151Y018329D01*
X023146Y018327D01*
X023141Y018325D01*
X023134Y018323D01*
X023133D01*
X023132Y018322D01*
X023131Y018322D01*
X023127Y018322D01*
X023122Y018321D01*
X023117Y01832D01*
X02311Y01832D01*
X023102Y018319D01*
X023094Y018319D01*
X023003D01*
Y018571D01*
X0231D01*
X023106Y01857D01*
D02*
G37*
G36*
X022852D02*
X02286Y01857D01*
X022867Y018569D01*
X022874Y018568D01*
X02288Y018567D01*
X022881D01*
X022881Y018567D01*
X022882D01*
X022884Y018566D01*
X022888Y018565D01*
X022893Y018563D01*
X022899Y018561D01*
X022905Y018557D01*
X022911Y018554D01*
X022917Y018549D01*
X022917Y018549D01*
X022918Y018548D01*
X022919Y018547D01*
X02292Y018546D01*
X022924Y018542D01*
X022928Y018537D01*
X022933Y018531D01*
X022938Y018524D01*
X022943Y018515D01*
X022947Y018506D01*
Y018506D01*
X022947Y018505D01*
X022948Y018503D01*
X022948Y018501D01*
X022949Y018499D01*
X02295Y018496D01*
X022951Y018492D01*
X022952Y018488D01*
X022953Y018484D01*
X022954Y01848D01*
X022956Y01847D01*
X022957Y018458D01*
X022957Y018446D01*
Y018445D01*
Y018445D01*
Y018443D01*
Y018441D01*
X022957Y018439D01*
Y018436D01*
X022956Y018429D01*
X022955Y018421D01*
X022954Y018412D01*
X022952Y018404D01*
X02295Y018395D01*
Y018395D01*
X02295Y018394D01*
X022949Y018393D01*
X022949Y018391D01*
X022948Y018387D01*
X022945Y018382D01*
X022943Y018376D01*
X02294Y018371D01*
X022937Y018364D01*
X022933Y018359D01*
X022933Y018358D01*
X022931Y018356D01*
X022929Y018353D01*
X022926Y01835D01*
X022923Y018346D01*
X022919Y018343D01*
X022915Y018339D01*
X02291Y018336D01*
X022909Y018335D01*
X022908Y018334D01*
X022905Y018333D01*
X022902Y018331D01*
X022897Y018329D01*
X022892Y018327D01*
X022886Y018325D01*
X02288Y018323D01*
X022879D01*
X022878Y018322D01*
X022877Y018322D01*
X022873Y018322D01*
X022868Y018321D01*
X022862Y01832D01*
X022856Y01832D01*
X022848Y018319D01*
X02284Y018319D01*
X022749D01*
Y018571D01*
X022846D01*
X022852Y01857D01*
D02*
G37*
G36*
X019107Y018457D02*
X01911D01*
X019117Y018456D01*
X019125Y018455D01*
X019133Y018453D01*
X019142Y018451D01*
X01915Y018448D01*
X01915D01*
X019151Y018448D01*
X019152Y018447D01*
X019154Y018446D01*
X019158Y018444D01*
X019163Y018442D01*
X019168Y018438D01*
X019174Y018434D01*
X019179Y018429D01*
X019185Y018423D01*
X019185Y018422D01*
X019187Y01842D01*
X019189Y018417D01*
X019192Y018412D01*
X019195Y018406D01*
X019198Y018399D01*
X019201Y018391D01*
X019204Y018382D01*
X019174Y018374D01*
Y018374D01*
X019173Y018375D01*
X019173Y018376D01*
X019173Y018377D01*
X019171Y018381D01*
X01917Y018385D01*
X019168Y01839D01*
X019165Y018395D01*
X019163Y0184D01*
X019159Y018404D01*
X019159Y018405D01*
X019158Y018406D01*
X019156Y018408D01*
X019153Y01841D01*
X01915Y018413D01*
X019146Y018416D01*
X019141Y018419D01*
X019135Y018422D01*
X019135Y018422D01*
X019133Y018423D01*
X01913Y018424D01*
X019125Y018425D01*
X01912Y018426D01*
X019114Y018427D01*
X019108Y018428D01*
X019101Y018429D01*
X019097D01*
X019095Y018428D01*
X019093D01*
X019087Y018428D01*
X019081Y018427D01*
X019074Y018426D01*
X019068Y018424D01*
X019061Y018421D01*
X01906Y018421D01*
X019058Y01842D01*
X019055Y018418D01*
X019052Y018417D01*
X019047Y018414D01*
X019043Y018411D01*
X019038Y018407D01*
X019034Y018403D01*
X019034Y018403D01*
X019032Y018401D01*
X019031Y018399D01*
X019028Y018396D01*
X019026Y018392D01*
X019023Y018388D01*
X019021Y018383D01*
X019018Y018378D01*
Y018378D01*
X019018Y018377D01*
X019017Y018376D01*
X019017Y018374D01*
X019016Y018372D01*
X019015Y018369D01*
X019014Y018366D01*
X019013Y018363D01*
X019012Y018355D01*
X01901Y018347D01*
X019009Y018338D01*
X019009Y018327D01*
Y018327D01*
Y018326D01*
Y018324D01*
X019009Y018322D01*
Y018319D01*
X019009Y018315D01*
X01901Y018312D01*
X01901Y018308D01*
X019012Y018299D01*
X019013Y018289D01*
X019016Y01828D01*
X01902Y018271D01*
Y01827D01*
X019021Y018269D01*
X019021Y018268D01*
X019022Y018267D01*
X019025Y018263D01*
X019029Y018258D01*
X019033Y018252D01*
X019039Y018247D01*
X019046Y018242D01*
X019054Y018237D01*
X019054D01*
X019055Y018237D01*
X019056Y018236D01*
X019058Y018235D01*
X01906Y018235D01*
X019062Y018234D01*
X019068Y018232D01*
X019075Y01823D01*
X019083Y018228D01*
X019092Y018227D01*
X019101Y018226D01*
X019105D01*
X019107Y018227D01*
X019109D01*
X019115Y018227D01*
X019121Y018228D01*
X019128Y018229D01*
X019136Y018232D01*
X019143Y018234D01*
X019144D01*
X019144Y018235D01*
X019145Y018235D01*
X019147Y018236D01*
X019151Y018237D01*
X019155Y01824D01*
X01916Y018242D01*
X019166Y018245D01*
X019171Y018248D01*
X019175Y018252D01*
Y018299D01*
X019101D01*
Y018329D01*
X019208D01*
Y018236D01*
X019207Y018235D01*
X019207Y018235D01*
X019205Y018234D01*
X019203Y018232D01*
X019201Y018231D01*
X019199Y018229D01*
X019195Y018227D01*
X019192Y018225D01*
X019185Y01822D01*
X019176Y018215D01*
X019167Y01821D01*
X019157Y018206D01*
X019156D01*
X019156Y018206D01*
X019154Y018205D01*
X019152Y018205D01*
X01915Y018204D01*
X019147Y018203D01*
X019144Y018202D01*
X01914Y018201D01*
X019132Y0182D01*
X019123Y018198D01*
X019114Y018197D01*
X019103Y018196D01*
X0191D01*
X019097Y018197D01*
X019094D01*
X01909Y018197D01*
X019086Y018198D01*
X019081Y018198D01*
X01907Y0182D01*
X019059Y018203D01*
X019047Y018207D01*
X019041Y018209D01*
X019036Y018212D01*
X019035Y018212D01*
X019034Y018213D01*
X019033Y018214D01*
X019031Y018215D01*
X019028Y018217D01*
X019025Y018219D01*
X019019Y018224D01*
X019011Y01823D01*
X019004Y018238D01*
X018996Y018247D01*
X01899Y018258D01*
Y018258D01*
X018989Y018259D01*
X018988Y018261D01*
X018987Y018263D01*
X018986Y018266D01*
X018985Y018269D01*
X018984Y018273D01*
X018982Y018278D01*
X018981Y018282D01*
X018979Y018288D01*
X018978Y018293D01*
X018977Y018299D01*
X018975Y018312D01*
X018974Y018325D01*
Y018326D01*
Y018327D01*
Y018329D01*
X018975Y018331D01*
Y018335D01*
X018975Y018339D01*
X018976Y018343D01*
X018976Y018347D01*
X018977Y018353D01*
X018978Y018358D01*
X018981Y01837D01*
X018985Y018382D01*
X01899Y018394D01*
X01899Y018394D01*
X01899Y018395D01*
X018991Y018397D01*
X018993Y018399D01*
X018994Y018402D01*
X018996Y018405D01*
X019001Y018411D01*
X019007Y018419D01*
X019015Y018427D01*
X019024Y018435D01*
X019029Y018438D01*
X019034Y018441D01*
X019034Y018442D01*
X019035Y018442D01*
X019037Y018443D01*
X019039Y018444D01*
X019042Y018445D01*
X019045Y018446D01*
X019049Y018448D01*
X019053Y018449D01*
X019058Y018451D01*
X019063Y018452D01*
X019068Y018453D01*
X019074Y018454D01*
X019087Y018456D01*
X019094Y018457D01*
X019105D01*
X019107Y018457D01*
D02*
G37*
G36*
X019455Y018201D02*
X01942D01*
X019289Y018398D01*
Y018201D01*
X019257D01*
Y018453D01*
X019291D01*
X019423Y018255D01*
Y018453D01*
X019455D01*
Y018201D01*
D02*
G37*
G36*
X019614Y018452D02*
X019622Y018452D01*
X019629Y018451D01*
X019636Y01845D01*
X019642Y018449D01*
X019643D01*
X019644Y018449D01*
X019645D01*
X019646Y018448D01*
X01965Y018447D01*
X019655Y018445D01*
X019661Y018442D01*
X019667Y018439D01*
X019673Y018435D01*
X019679Y018431D01*
X01968Y01843D01*
X01968Y01843D01*
X019681Y018429D01*
X019682Y018428D01*
X019686Y018424D01*
X01969Y018419D01*
X019695Y018413D01*
X0197Y018406D01*
X019705Y018397D01*
X019709Y018388D01*
Y018387D01*
X019709Y018387D01*
X01971Y018385D01*
X019711Y018383D01*
X019712Y018381D01*
X019712Y018378D01*
X019713Y018374D01*
X019714Y01837D01*
X019715Y018366D01*
X019716Y018362D01*
X019718Y018351D01*
X019719Y01834D01*
X019719Y018328D01*
Y018327D01*
Y018327D01*
Y018325D01*
Y018323D01*
X019719Y01832D01*
Y018318D01*
X019719Y018311D01*
X019717Y018303D01*
X019716Y018294D01*
X019714Y018286D01*
X019712Y018277D01*
Y018276D01*
X019712Y018276D01*
X019712Y018275D01*
X019711Y018273D01*
X01971Y018269D01*
X019708Y018264D01*
X019705Y018258D01*
X019702Y018252D01*
X019699Y018246D01*
X019695Y01824D01*
X019695Y01824D01*
X019693Y018238D01*
X019691Y018235D01*
X019688Y018232D01*
X019685Y018228D01*
X019681Y018225D01*
X019677Y018221D01*
X019672Y018217D01*
X019672Y018217D01*
X01967Y018216D01*
X019668Y018215D01*
X019664Y018213D01*
X01966Y018211D01*
X019654Y018209D01*
X019649Y018207D01*
X019642Y018205D01*
X019641D01*
X01964Y018204D01*
X019639Y018204D01*
X019636Y018204D01*
X01963Y018203D01*
X019625Y018202D01*
X019618Y018201D01*
X01961Y018201D01*
X019602Y018201D01*
X019511D01*
Y018453D01*
X019608D01*
X019614Y018452D01*
D02*
G37*
G36*
X028054Y012489D02*
X028062Y012488D01*
X028071Y012486D01*
X02808Y012483D01*
X02808Y012483D01*
X028081Y012483D01*
X028083Y012482D01*
X028085Y012481D01*
X028087Y01248D01*
X02809Y012479D01*
X028093Y012477D01*
X028097Y012475D01*
X028101Y012472D01*
X028105Y012469D01*
X02811Y012465D01*
X028115Y012461D01*
X02812Y012457D01*
X028126Y012452D01*
X028132Y012447D01*
X028138Y012441D01*
X028138Y012441D01*
X028139Y01244D01*
X028141Y012438D01*
X028143Y012435D01*
X028146Y012432D01*
X028149Y012429D01*
X028153Y012425D01*
X028156Y01242D01*
X028164Y012411D01*
X028172Y0124D01*
X028179Y01239D01*
X028182Y012384D01*
X028185Y012379D01*
X028185Y012379D01*
X028185Y012378D01*
X028186Y012376D01*
X028187Y012374D01*
X028188Y012372D01*
X028189Y012369D01*
X028191Y012362D01*
X028192Y012354D01*
X028194Y012345D01*
X028194Y012336D01*
X028193Y012326D01*
X028193Y012326D01*
Y012325D01*
X028193Y012324D01*
X028192Y012322D01*
X028192Y01232D01*
X028191Y012317D01*
X02819Y012314D01*
X028189Y012311D01*
X028186Y012304D01*
X028182Y012297D01*
X028176Y012289D01*
X02817Y012281D01*
X028168Y012279D01*
X028166Y012278D01*
X028164Y012277D01*
X028162Y012275D01*
X028156Y012271D01*
X028149Y012267D01*
X028142Y012263D01*
X028133Y01226D01*
X028129Y012259D01*
X028124Y012259D01*
X02812D01*
X028117Y012259D01*
X028115Y012259D01*
X028108Y01226D01*
X028101Y012262D01*
X028093Y012266D01*
X028085Y01227D01*
X028076Y012276D01*
X028095Y012299D01*
X028095Y012298D01*
X028096Y012298D01*
X028096Y012298D01*
X028098Y012297D01*
X028101Y012295D01*
X028105Y012293D01*
X02811Y012291D01*
X028116Y012289D01*
X028121Y012287D01*
X028126Y012287D01*
X028127D01*
X028129Y012287D01*
X028132Y012288D01*
X028135Y012289D01*
X028139Y012291D01*
X028143Y012293D01*
X028148Y012296D01*
X028152Y0123D01*
X028154Y012302D01*
X028156Y012304D01*
X028158Y012306D01*
X02816Y01231D01*
X028162Y012313D01*
X028164Y012318D01*
X028165Y012322D01*
Y012322D01*
X028166Y012324D01*
X028166Y012327D01*
Y01233D01*
X028167Y012333D01*
Y012338D01*
X028166Y012342D01*
X028166Y012347D01*
Y012347D01*
X028165Y012349D01*
X028164Y012352D01*
X028163Y012355D01*
X028161Y01236D01*
X028159Y012365D01*
X028156Y01237D01*
X028152Y012376D01*
X028152Y012376D01*
Y012377D01*
X028151Y012377D01*
X028151Y012379D01*
X028149Y012382D01*
X028146Y012386D01*
X028142Y012391D01*
X028139Y012396D01*
X028134Y012401D01*
X028129Y012406D01*
X028129Y012406D01*
X028128Y012407D01*
X028127Y012408D01*
X028125Y01241D01*
X028125Y01241D01*
X028125Y012407D01*
X028125Y012404D01*
X028126Y0124D01*
Y012394D01*
X028126Y012389D01*
X028125Y012382D01*
X028124Y012375D01*
X028123Y012375D01*
X028123Y012372D01*
X028121Y012369D01*
X02812Y012365D01*
X028117Y01236D01*
X028114Y012355D01*
X02811Y012349D01*
X028105Y012344D01*
X028103Y012342D01*
X028102Y012341D01*
X028099Y012339D01*
X028097Y012337D01*
X028094Y012335D01*
X02809Y012333D01*
X028083Y012329D01*
X028078Y012328D01*
X028074Y012326D01*
X028069Y012324D01*
X028063Y012324D01*
X028058Y012323D01*
X028051D01*
X028049Y012323D01*
X028047Y012323D01*
X028044Y012324D01*
X028041Y012324D01*
X028037Y012326D01*
X028033Y012327D01*
X028029Y012328D01*
X028025Y01233D01*
X02802Y012332D01*
X028015Y012335D01*
X02801Y012338D01*
X028005Y012341D01*
X028Y012345D01*
X027995Y01235D01*
X027994Y01235D01*
X027993Y012351D01*
X027992Y012353D01*
X027991Y012355D01*
X027989Y012357D01*
X027986Y01236D01*
X027984Y012364D01*
X027981Y012368D01*
X027976Y012376D01*
X027974Y012381D01*
X027972Y012386D01*
X02797Y012392D01*
X027969Y012398D01*
X027967Y012403D01*
X027967Y012409D01*
Y01241D01*
Y012411D01*
Y012413D01*
X027967Y012415D01*
X027968Y012418D01*
X027968Y012421D01*
X027969Y012425D01*
X02797Y012429D01*
X027971Y012433D01*
X027973Y012437D01*
X027977Y012447D01*
X027979Y012452D01*
X027983Y012457D01*
X027986Y012461D01*
X02799Y012466D01*
X027992Y012468D01*
X027994Y012469D01*
X027995Y01247D01*
X027997Y012472D01*
X028002Y012475D01*
X028008Y012479D01*
X028015Y012483D01*
X028023Y012486D01*
X028031Y012488D01*
X028032Y012488D01*
X028033Y012488D01*
X028034Y012488D01*
X028036Y012489D01*
X02804Y012489D01*
X028046Y01249D01*
X028054Y012489D01*
D02*
G37*
G36*
X027913Y012351D02*
X02792Y01235D01*
X027921Y01235D01*
X027923Y01235D01*
X027926Y012348D01*
X027931Y012347D01*
X027937Y012345D01*
X027943Y012342D01*
X02795Y012339D01*
X027957Y012335D01*
X027958Y012335D01*
X027958Y012334D01*
X027959Y012334D01*
X027961Y012333D01*
X027963Y012331D01*
X027965Y01233D01*
X027968Y012328D01*
X02797Y012326D01*
X027974Y012323D01*
X027977Y012321D01*
X027981Y012317D01*
X027985Y012314D01*
X02799Y01231D01*
X027994Y012306D01*
X027999Y012302D01*
X028003Y012297D01*
X028004Y012297D01*
X028005Y012296D01*
X028007Y012294D01*
X028009Y012292D01*
X028011Y012289D01*
X028014Y012286D01*
X028017Y012282D01*
X028021Y012278D01*
X028028Y012269D01*
X028035Y012259D01*
X028042Y01225D01*
X028045Y012245D01*
X028047Y01224D01*
X028048Y012239D01*
X028048Y012239D01*
X028048Y012237D01*
X028049Y012235D01*
X028051Y012233D01*
X028051Y01223D01*
X028054Y012224D01*
X028056Y012216D01*
X028057Y012208D01*
X028058Y012199D01*
X028058Y01219D01*
X028058Y01219D01*
X028058Y012189D01*
X028058Y012188D01*
X028057Y012187D01*
X028057Y012184D01*
X028056Y012182D01*
X028054Y012176D01*
X028052Y01217D01*
X028048Y012163D01*
X028043Y012155D01*
X028036Y012148D01*
X028034Y012145D01*
X028031Y012144D01*
X028029Y012142D01*
X028026Y01214D01*
X028023Y012138D01*
X028019Y012135D01*
X028015Y012133D01*
X02801Y012131D01*
X028005Y012129D01*
X028Y012128D01*
X027995Y012126D01*
X027989Y012126D01*
X027983Y012125D01*
X027977Y012126D01*
X027977D01*
X027975Y012126D01*
X027973Y012126D01*
X02797Y012127D01*
X027966Y012128D01*
X027962Y01213D01*
X027957Y012132D01*
X027951Y012134D01*
X027945Y012137D01*
X027938Y012141D01*
X02793Y012146D01*
X027922Y012151D01*
X027914Y012157D01*
X027905Y012164D01*
X027896Y012172D01*
X027887Y012181D01*
X027887Y012181D01*
X027886Y012182D01*
X027884Y012184D01*
X027882Y012186D01*
X027879Y012189D01*
X027876Y012192D01*
X027873Y012196D01*
X02787Y0122D01*
X027862Y012208D01*
X027855Y012218D01*
X027848Y012228D01*
X027845Y012233D01*
X027843Y012238D01*
X027842Y012238D01*
X027842Y012239D01*
X027842Y012241D01*
X027841Y012242D01*
X027839Y012245D01*
X027839Y012248D01*
X027836Y012254D01*
X027834Y012261D01*
X027833Y012269D01*
X027832Y012278D01*
X027832Y012287D01*
X027833Y012287D01*
X027832Y012288D01*
X027833Y012289D01*
X027833Y012291D01*
X027833Y012293D01*
X027834Y012295D01*
X027836Y012301D01*
X027839Y012308D01*
X027842Y012315D01*
X027848Y012322D01*
X027854Y01233D01*
X027856Y012332D01*
X02786Y012335D01*
X027863Y012338D01*
X027868Y012341D01*
X027873Y012344D01*
X027879Y012347D01*
X027885Y012349D01*
X027885Y012349D01*
X027886D01*
X027888Y01235D01*
X027891Y01235D01*
X027896Y012351D01*
X027901Y012351D01*
X027907Y012352D01*
X027913Y012351D01*
D02*
G37*
G36*
X027943Y012061D02*
X027918Y012036D01*
X027893Y012061D01*
X027918Y012086D01*
X027943Y012061D01*
D02*
G37*
G36*
X027705Y012149D02*
X02771D01*
X027713Y012148D01*
X027716Y012148D01*
X02772Y012147D01*
X027727Y012145D01*
X027736Y012141D01*
X02774Y012139D01*
X027744Y012136D01*
X027748Y012133D01*
X027752Y012129D01*
X027753Y012129D01*
X027754Y012128D01*
X027756Y012125D01*
X027759Y012122D01*
X027761Y012119D01*
X027764Y012114D01*
X027767Y012109D01*
X027769Y012104D01*
X027769Y012103D01*
X02777Y012101D01*
X027771Y012098D01*
X027772Y012094D01*
X027773Y012088D01*
X027775Y012082D01*
X027775Y012075D01*
X027776Y012067D01*
Y012066D01*
X027776Y012063D01*
Y012061D01*
Y012058D01*
Y012055D01*
Y012051D01*
Y012047D01*
X027776Y012042D01*
Y012037D01*
X027776Y012031D01*
X027775Y012025D01*
X027775Y012018D01*
X027774Y01201D01*
X027774Y012002D01*
Y012002D01*
Y012001D01*
X027774Y011999D01*
X027773Y011997D01*
Y011994D01*
X027773Y01199D01*
X027772Y011983D01*
X027772Y011975D01*
X027772Y011967D01*
X027771Y01196D01*
X027771Y011957D01*
Y011954D01*
Y011954D01*
Y011952D01*
Y01195D01*
X027771Y011947D01*
X027772Y011944D01*
X027772Y011941D01*
X027773Y011933D01*
X027861Y012021D01*
X027882Y012D01*
X027764Y011882D01*
X027764Y011882D01*
X027763Y011883D01*
X027761Y011885D01*
X027759Y011887D01*
X027757Y01189D01*
X027755Y011893D01*
X027753Y011896D01*
X027751Y0119D01*
X027751Y0119D01*
Y011901D01*
X02775Y011903D01*
X027749Y011906D01*
X027747Y011911D01*
X027746Y011916D01*
X027744Y011923D01*
X027743Y01193D01*
X027742Y011938D01*
X027742Y011938D01*
X027742Y011939D01*
X027742Y011942D01*
Y011946D01*
Y011953D01*
Y011961D01*
X027742Y01197D01*
X027743Y011981D01*
X027744Y011993D01*
Y011994D01*
X027744Y011996D01*
X027745Y011998D01*
X027745Y012002D01*
X027745Y012006D01*
X027746Y012011D01*
X027746Y012017D01*
X027746Y012023D01*
X027747Y012035D01*
X027747Y012048D01*
Y012054D01*
X027747Y01206D01*
X027746Y012066D01*
X027746Y01207D01*
X027745Y012071D01*
X027746Y012071D01*
X027745Y012073D01*
X027745Y012074D01*
X027744Y012079D01*
X027742Y012084D01*
X02774Y01209D01*
X027738Y012096D01*
X027734Y012102D01*
X02773Y012107D01*
X027729Y012108D01*
X027729Y012108D01*
X027727Y012109D01*
X027724Y012112D01*
X027721Y012114D01*
X027716Y012116D01*
X027711Y012118D01*
X027705Y012119D01*
X027698Y01212D01*
X027697D01*
X027695Y01212D01*
X027692Y012119D01*
X027687Y012118D01*
X027682Y012116D01*
X027676Y012113D01*
X02767Y01211D01*
X027665Y012104D01*
X027663Y012103D01*
X027662Y012102D01*
X02766Y012098D01*
X027657Y012094D01*
X027654Y012089D01*
X027651Y012083D01*
X02765Y012076D01*
X027649Y012069D01*
Y012068D01*
X027649Y012066D01*
X02765Y012062D01*
X027651Y012058D01*
X027653Y012052D01*
X027656Y012046D01*
X02766Y01204D01*
X027665Y012034D01*
X027641Y012014D01*
X027641Y012014D01*
X02764Y012015D01*
X027639Y012016D01*
X027637Y012018D01*
X027636Y012021D01*
X027634Y012024D01*
X027632Y012027D01*
X02763Y012031D01*
X027626Y012039D01*
X027623Y012048D01*
X027621Y012053D01*
X02762Y012059D01*
X02762Y012064D01*
Y012069D01*
Y012069D01*
X02762Y01207D01*
Y012072D01*
X027621Y012074D01*
X027621Y012076D01*
X027622Y012079D01*
X027623Y012083D01*
X027624Y012086D01*
X027626Y012091D01*
X027627Y012095D01*
X02763Y012099D01*
X027632Y012104D01*
X027635Y012109D01*
X027639Y012113D01*
X027643Y012118D01*
X027647Y012123D01*
X02765Y012126D01*
X027652Y012127D01*
X027654Y012129D01*
X027657Y012131D01*
X02766Y012133D01*
X027664Y012136D01*
X027672Y012141D01*
X027681Y012145D01*
X027686Y012147D01*
X027691Y012148D01*
X027697Y012149D01*
X027702Y012149D01*
X027703D01*
X027704Y012149D01*
X027705Y012149D01*
D02*
G37*
G36*
X027578Y012012D02*
X027584Y012011D01*
X02759Y012009D01*
X027591Y012009D01*
X027592Y012008D01*
X027596Y012007D01*
X0276Y012005D01*
X027604Y012002D01*
X027609Y011999D01*
X027615Y011995D01*
X02762Y01199D01*
X02762Y01199D01*
X027621Y011989D01*
X027622Y011988D01*
X027623Y011986D01*
X027625Y011984D01*
X027627Y011982D01*
X027629Y011979D01*
X027631Y011975D01*
X027635Y011967D01*
X027637Y011963D01*
X027639Y011958D01*
X027641Y011953D01*
X027642Y011948D01*
X027643Y011943D01*
X027643Y011937D01*
Y011937D01*
Y011936D01*
Y011934D01*
X027643Y011932D01*
X027643Y011929D01*
X027642Y011926D01*
X027641Y011922D01*
X027639Y011918D01*
X027637Y011913D01*
X027635Y011908D01*
X027632Y011902D01*
X027628Y011896D01*
X027624Y01189D01*
X027619Y011884D01*
X027613Y011877D01*
X027607Y01187D01*
X027562Y011824D01*
X027634Y011752D01*
X02761Y011728D01*
X027432Y011906D01*
X027505Y011979D01*
X027509Y011983D01*
X027514Y011987D01*
X027519Y011991D01*
X027524Y011995D01*
X027528Y011999D01*
X027529Y011999D01*
X027531Y012D01*
X027534Y012002D01*
X027538Y012005D01*
X027542Y012007D01*
X027547Y012009D01*
X027553Y012011D01*
X027558Y012012D01*
X027559Y012012D01*
X027561Y012013D01*
X027564D01*
X027568Y012013D01*
X027573D01*
X027578Y012012D01*
D02*
G37*
G36*
X027551Y011564D02*
X027532Y011545D01*
X027299Y011779D01*
X027318Y011798D01*
X027551Y011564D01*
D02*
G37*
G36*
X027198Y011641D02*
X027202D01*
X027205Y011641D01*
X027208Y01164D01*
X027212Y01164D01*
X02722Y011637D01*
X027228Y011634D01*
X027233Y011632D01*
X027237Y011629D01*
X027241Y011625D01*
X027245Y011622D01*
X027245Y011621D01*
X027247Y01162D01*
X027249Y011618D01*
X027251Y011615D01*
X027254Y011611D01*
X027256Y011606D01*
X027259Y011601D01*
X027261Y011596D01*
X027262Y011595D01*
X027262Y011593D01*
X027263Y01159D01*
X027265Y011586D01*
X027266Y011581D01*
X027267Y011574D01*
X027268Y011567D01*
X027269Y01156D01*
Y011558D01*
X027269Y011556D01*
Y011553D01*
Y011551D01*
Y011547D01*
Y011543D01*
Y011539D01*
X027269Y011534D01*
Y011529D01*
X027268Y011523D01*
X027268Y011517D01*
X027268Y01151D01*
X027267Y011503D01*
X027266Y011495D01*
Y011494D01*
Y011493D01*
X027266Y011492D01*
X027266Y011489D01*
Y011486D01*
X027266Y011483D01*
X027265Y011475D01*
X027264Y011467D01*
X027264Y011459D01*
X027264Y011452D01*
X027263Y011449D01*
Y011447D01*
Y011446D01*
Y011445D01*
Y011443D01*
X027264Y01144D01*
X027264Y011437D01*
X027264Y011433D01*
X027266Y011426D01*
X027354Y011514D01*
X027375Y011493D01*
X027257Y011374D01*
X027256Y011375D01*
X027255Y011376D01*
X027254Y011377D01*
X027252Y01138D01*
X02725Y011382D01*
X027248Y011385D01*
X027246Y011388D01*
X027244Y011392D01*
X027244Y011392D01*
Y011393D01*
X027243Y011395D01*
X027241Y011398D01*
X02724Y011403D01*
X027238Y011409D01*
X027237Y011415D01*
X027235Y011422D01*
X027235Y01143D01*
X027234Y011431D01*
X027235Y011431D01*
X027234Y011434D01*
Y011439D01*
Y011445D01*
Y011453D01*
X027235Y011463D01*
X027235Y011474D01*
X027236Y011486D01*
Y011486D01*
X027237Y011488D01*
X027237Y011491D01*
X027237Y011494D01*
X027237Y011499D01*
X027238Y011504D01*
X027238Y011509D01*
X027239Y011515D01*
X027239Y011528D01*
X027239Y01154D01*
Y011547D01*
X027239Y011553D01*
X027239Y011558D01*
X027238Y011563D01*
X027238Y011563D01*
X027238Y011564D01*
X027238Y011565D01*
X027237Y011567D01*
X027236Y011571D01*
X027235Y011577D01*
X027233Y011583D01*
X02723Y011589D01*
X027226Y011595D01*
X027222Y0116D01*
X027222Y0116D01*
X027222Y0116D01*
X02722Y011602D01*
X027217Y011604D01*
X027213Y011606D01*
X027209Y011609D01*
X027203Y01161D01*
X027197Y011612D01*
X027191Y011612D01*
X02719D01*
X027187Y011612D01*
X027184Y011612D01*
X02718Y01161D01*
X027174Y011608D01*
X027169Y011606D01*
X027163Y011602D01*
X027157Y011597D01*
X027156Y011595D01*
X027155Y011594D01*
X027152Y011591D01*
X027149Y011586D01*
X027146Y011581D01*
X027144Y011575D01*
X027142Y011569D01*
X027141Y011562D01*
Y011561D01*
X027141Y011558D01*
X027142Y011555D01*
X027144Y01155D01*
X027145Y011545D01*
X027148Y011539D01*
X027153Y011532D01*
X027158Y011526D01*
X027133Y011506D01*
X027133Y011506D01*
X027132Y011507D01*
X027131Y011509D01*
X02713Y011511D01*
X027128Y011513D01*
X027126Y011516D01*
X027124Y01152D01*
X027122Y011523D01*
X027118Y011531D01*
X027115Y011541D01*
X027114Y011546D01*
X027113Y011551D01*
X027112Y011556D01*
Y011561D01*
Y011562D01*
X027113Y011563D01*
Y011564D01*
X027113Y011566D01*
X027114Y011569D01*
X027114Y011572D01*
X027115Y011575D01*
X027116Y011579D01*
X027118Y011583D01*
X02712Y011587D01*
X027122Y011592D01*
X027125Y011596D01*
X027128Y011601D01*
X027131Y011606D01*
X027135Y01161D01*
X02714Y011615D01*
X027142Y011618D01*
X027144Y011619D01*
X027147Y011621D01*
X027149Y011624D01*
X027153Y011626D01*
X027156Y011628D01*
X027165Y011633D01*
X027174Y011637D01*
X027179Y011639D01*
X027184Y011641D01*
X027189Y011641D01*
X027195Y011642D01*
X027195D01*
X027196Y011642D01*
X027198Y011641D01*
D02*
G37*
G36*
X02707Y011504D02*
X027076Y011504D01*
X027082Y011502D01*
X027083Y011502D01*
X027085Y011501D01*
X027088Y0115D01*
X027092Y011497D01*
X027097Y011495D01*
X027102Y011492D01*
X027107Y011487D01*
X027112Y011483D01*
X027112Y011483D01*
X027113Y011482D01*
X027114Y011481D01*
X027116Y011479D01*
X027117Y011477D01*
X027119Y011474D01*
X027121Y011471D01*
X027124Y011468D01*
X027128Y01146D01*
X02713Y011456D01*
X027132Y011451D01*
X027133Y011446D01*
X027134Y011441D01*
X027135Y011435D01*
X027136Y01143D01*
Y011429D01*
Y011428D01*
Y011427D01*
X027135Y011425D01*
X027135Y011422D01*
X027134Y011418D01*
X027133Y011414D01*
X027132Y01141D01*
X02713Y011405D01*
X027128Y0114D01*
X027125Y011395D01*
X027121Y011389D01*
X027117Y011382D01*
X027112Y011376D01*
X027106Y011369D01*
X027099Y011362D01*
X027054Y011317D01*
X027126Y011244D01*
X027103Y011221D01*
X026924Y011399D01*
X026998Y011472D01*
X027002Y011475D01*
X027006Y011479D01*
X027011Y011484D01*
X027016Y011488D01*
X02702Y011491D01*
X027021Y011492D01*
X027023Y011493D01*
X027026Y011495D01*
X02703Y011497D01*
X027035Y011499D01*
X02704Y011501D01*
X027045Y011503D01*
X027051Y011504D01*
X027052Y011505D01*
X027053Y011505D01*
X027057D01*
X02706Y011505D01*
X027065D01*
X02707Y011504D01*
D02*
G37*
G36*
X026921Y011353D02*
X026862Y011294D01*
X027019Y011137D01*
X026996Y011114D01*
X026839Y011271D01*
X02678Y011212D01*
X026759Y011233D01*
X0269Y011374D01*
X026921Y011353D01*
D02*
G37*
G36*
X027352Y012728D02*
X027355Y012727D01*
X027361Y012726D01*
X027369Y012724D01*
X027377Y012721D01*
X027385Y012716D01*
X027389Y012713D01*
X027392Y012709D01*
X027393Y012709D01*
X027393Y012709D01*
X027394Y012707D01*
X027397Y012705D01*
X027399Y012701D01*
X027402Y012697D01*
X027404Y012692D01*
X027406Y012687D01*
X027407Y012681D01*
X027408Y01268D01*
Y012678D01*
Y012675D01*
Y012671D01*
X027407Y012666D01*
X027406Y01266D01*
X027404Y012654D01*
X027402Y012647D01*
X027402Y012648D01*
X027403Y012648D01*
X027404Y012648D01*
X027406Y012649D01*
X02741Y012651D01*
X027415Y012653D01*
X027422Y012654D01*
X027429Y012655D01*
X027436Y012655D01*
X027444Y012655D01*
X027444Y012655D01*
X027445D01*
X027447Y012654D01*
X027451Y012653D01*
X027456Y012651D01*
X027462Y012649D01*
X027468Y012645D01*
X027475Y012641D01*
X027481Y012635D01*
X027481Y012635D01*
X027482Y012634D01*
X027483Y012633D01*
X027485Y012631D01*
X027486Y012629D01*
X027488Y012627D01*
X02749Y012623D01*
X027492Y01262D01*
X027496Y012612D01*
X027498Y012608D01*
X0275Y012603D01*
X027501Y012598D01*
X027502Y012592D01*
X027503Y012587D01*
X027503Y012581D01*
Y01258D01*
Y012579D01*
Y012578D01*
X027503Y012576D01*
X027502Y012573D01*
X027502Y012569D01*
X0275Y012566D01*
X027499Y012562D01*
X027498Y012557D01*
X027496Y012553D01*
X027494Y012548D01*
X027491Y012543D01*
X027488Y012538D01*
X027485Y012533D01*
X027481Y012528D01*
X027476Y012523D01*
X027473Y01252D01*
X027471Y012519D01*
X027469Y012517D01*
X027466Y012514D01*
X027463Y012512D01*
X027459Y01251D01*
X02745Y012505D01*
X027445Y012502D01*
X027441Y0125D01*
X027435Y012498D01*
X027429Y012497D01*
X027424Y012496D01*
X027418Y012496D01*
X027415D01*
X027412Y012496D01*
X02741Y012496D01*
X027407Y012497D01*
X027403Y012497D01*
X027399Y012498D01*
X027395Y012499D01*
X027391Y012501D01*
X027382Y012505D01*
X027377Y012508D01*
X027372Y012511D01*
X027367Y012515D01*
X027363Y012518D01*
X027363Y012519D01*
X027362Y012519D01*
X027361Y01252D01*
X02736Y012522D01*
X027359Y012523D01*
X027357Y012525D01*
X027354Y01253D01*
X02735Y012535D01*
X027347Y012542D01*
X027345Y012549D01*
X027343Y012556D01*
X027342Y012557D01*
X027343Y012557D01*
X027342Y01256D01*
Y012564D01*
X027343Y012569D01*
X027344Y012575D01*
X027345Y012583D01*
X027348Y01259D01*
X027352Y012598D01*
X027352Y012597D01*
X027351D01*
X02735Y012597D01*
X027349Y012596D01*
X027345Y012595D01*
X027341Y012593D01*
X027335Y012592D01*
X027329Y012591D01*
X027323Y012591D01*
X027317Y012591D01*
X027317Y012592D01*
X027315Y012592D01*
X027312Y012593D01*
X027308Y012594D01*
X027304Y012596D01*
X027299Y012599D01*
X027294Y012603D01*
X027289Y012607D01*
X027288Y012608D01*
X027288Y012608D01*
X027287Y012609D01*
X027286Y012611D01*
X027284Y012613D01*
X027282Y012615D01*
X027279Y01262D01*
X027276Y012627D01*
X027273Y012635D01*
X027271Y012639D01*
X02727Y012644D01*
X02727Y012649D01*
X02727Y012654D01*
Y012654D01*
X02727Y012655D01*
Y012657D01*
X02727Y012658D01*
X027271Y012661D01*
X027271Y012664D01*
X027272Y012667D01*
X027273Y01267D01*
X027274Y012674D01*
X027276Y012678D01*
X027278Y012682D01*
X02728Y012687D01*
X027286Y012696D01*
X02729Y0127D01*
X027294Y012704D01*
X027296Y012707D01*
X027298Y012708D01*
X0273Y01271D01*
X027303Y012712D01*
X027305Y012714D01*
X027309Y012716D01*
X027316Y012721D01*
X027325Y012724D01*
X02733Y012726D01*
X027334Y012727D01*
X02734Y012728D01*
X027345Y012728D01*
X027349D01*
X027352Y012728D01*
D02*
G37*
G36*
X027214Y012587D02*
X027221Y012586D01*
X027222Y012586D01*
X027224Y012586D01*
X027227Y012585D01*
X027233Y012583D01*
X027238Y012581D01*
X027244Y012578D01*
X027251Y012575D01*
X027259Y012571D01*
X027259Y012571D01*
X02726Y01257D01*
X027261Y01257D01*
X027262Y012569D01*
X027264Y012568D01*
X027266Y012566D01*
X027269Y012564D01*
X027272Y012562D01*
X027275Y01256D01*
X027278Y012557D01*
X027282Y012553D01*
X027286Y01255D01*
X027291Y012547D01*
X027295Y012542D01*
X0273Y012538D01*
X027305Y012533D01*
X027305Y012533D01*
X027306Y012532D01*
X027308Y01253D01*
X02731Y012528D01*
X027312Y012525D01*
X027315Y012522D01*
X027319Y012518D01*
X027322Y012514D01*
X027329Y012505D01*
X027337Y012496D01*
X027343Y012486D01*
X027346Y012481D01*
X027349Y012476D01*
X027349Y012476D01*
X027349Y012475D01*
X02735Y012473D01*
X02735Y012471D01*
X027352Y012469D01*
X027352Y012466D01*
X027355Y01246D01*
X027357Y012453D01*
X027359Y012444D01*
X027359Y012436D01*
X027359Y012427D01*
X027359Y012426D01*
X027359Y012426D01*
X027359Y012424D01*
X027358Y012423D01*
X027358Y012421D01*
X027358Y012418D01*
X027356Y012413D01*
X027353Y012406D01*
X027349Y012399D01*
X027344Y012392D01*
X027337Y012384D01*
X027335Y012382D01*
X027333Y01238D01*
X02733Y012378D01*
X027327Y012376D01*
X027324Y012374D01*
X02732Y012372D01*
X027316Y012369D01*
X027312Y012367D01*
X027307Y012365D01*
X027302Y012364D01*
X027296Y012363D01*
X02729Y012362D01*
X027284Y012361D01*
X027278Y012362D01*
X027278D01*
X027277Y012362D01*
X027275Y012363D01*
X027271Y012363D01*
X027268Y012364D01*
X027263Y012366D01*
X027258Y012368D01*
X027252Y01237D01*
X027246Y012374D01*
X027239Y012377D01*
X027232Y012382D01*
X027224Y012387D01*
X027215Y012393D01*
X027207Y0124D01*
X027198Y012408D01*
X027188Y012417D01*
X027188Y012417D01*
X027187Y012418D01*
X027185Y01242D01*
X027183Y012422D01*
X027181Y012425D01*
X027177Y012428D01*
X027174Y012432D01*
X027171Y012436D01*
X027164Y012445D01*
X027156Y012454D01*
X027149Y012464D01*
X027147Y012469D01*
X027144Y012474D01*
X027143Y012474D01*
X027143Y012475D01*
X027143Y012477D01*
X027142Y012479D01*
X027141Y012481D01*
X02714Y012484D01*
X027138Y01249D01*
X027136Y012497D01*
X027134Y012506D01*
X027133Y012514D01*
X027133Y012523D01*
X027134Y012523D01*
X027133Y012524D01*
X027134Y012525D01*
X027134Y012527D01*
X027134Y012529D01*
X027135Y012532D01*
X027137Y012538D01*
X02714Y012544D01*
X027143Y012551D01*
X027149Y012559D01*
X027155Y012566D01*
X027158Y012568D01*
X027161Y012571D01*
X027165Y012574D01*
X027169Y012577D01*
X027174Y01258D01*
X02718Y012583D01*
X027186Y012585D01*
X027186Y012585D01*
X027187D01*
X027189Y012586D01*
X027192Y012587D01*
X027197Y012587D01*
X027202Y012588D01*
X027208Y012588D01*
X027214Y012587D01*
D02*
G37*
G36*
X027244Y012297D02*
X027219Y012272D01*
X027194Y012297D01*
X027219Y012322D01*
X027244Y012297D01*
D02*
G37*
G36*
X027006Y012385D02*
X027011D01*
X027014Y012385D01*
X027017Y012384D01*
X027021Y012383D01*
X027028Y012381D01*
X027037Y012377D01*
X027041Y012375D01*
X027045Y012372D01*
X02705Y012369D01*
X027054Y012366D01*
X027054Y012365D01*
X027055Y012364D01*
X027057Y012361D01*
X02706Y012358D01*
X027062Y012355D01*
X027065Y01235D01*
X027068Y012345D01*
X02707Y01234D01*
X02707Y012339D01*
X027071Y012337D01*
X027072Y012334D01*
X027073Y01233D01*
X027075Y012325D01*
X027076Y012318D01*
X027077Y012311D01*
X027077Y012303D01*
Y012302D01*
X027078Y012299D01*
Y012297D01*
Y012294D01*
Y012291D01*
Y012287D01*
Y012283D01*
X027077Y012278D01*
Y012273D01*
X027077Y012267D01*
X027077Y012261D01*
X027076Y012254D01*
X027076Y012246D01*
X027075Y012239D01*
Y012238D01*
Y012237D01*
X027075Y012235D01*
X027075Y012233D01*
Y01223D01*
X027074Y012227D01*
X027073Y012219D01*
X027073Y012211D01*
X027073Y012203D01*
X027072Y012196D01*
X027072Y012193D01*
Y012191D01*
Y01219D01*
Y012189D01*
Y012186D01*
X027072Y012184D01*
X027073Y012181D01*
X027073Y012177D01*
X027075Y01217D01*
X027162Y012257D01*
X027183Y012236D01*
X027065Y012118D01*
X027065Y012119D01*
X027064Y01212D01*
X027062Y012121D01*
X027061Y012123D01*
X027059Y012126D01*
X027057Y012129D01*
X027054Y012132D01*
X027053Y012136D01*
X027052Y012136D01*
Y012137D01*
X027051Y012139D01*
X02705Y012142D01*
X027049Y012147D01*
X027047Y012152D01*
X027045Y012159D01*
X027044Y012166D01*
X027043Y012174D01*
X027043Y012174D01*
X027043Y012175D01*
X027043Y012178D01*
Y012183D01*
Y012189D01*
Y012197D01*
X027043Y012207D01*
X027044Y012218D01*
X027045Y012229D01*
Y01223D01*
X027045Y012232D01*
X027046Y012235D01*
X027046Y012238D01*
X027046Y012242D01*
X027047Y012247D01*
X027047Y012253D01*
X027047Y012259D01*
X027048Y012272D01*
X027048Y012284D01*
Y01229D01*
X027048Y012296D01*
X027047Y012302D01*
X027047Y012307D01*
X027046Y012307D01*
X027047Y012308D01*
X027046Y012309D01*
X027046Y012311D01*
X027045Y012315D01*
X027044Y012321D01*
X027041Y012326D01*
X027039Y012333D01*
X027035Y012339D01*
X027031Y012344D01*
X02703Y012344D01*
X02703Y012344D01*
X027028Y012346D01*
X027026Y012348D01*
X027022Y01235D01*
X027017Y012352D01*
X027012Y012354D01*
X027006Y012356D01*
X026999Y012356D01*
X026998D01*
X026996Y012356D01*
X026993Y012355D01*
X026988Y012354D01*
X026983Y012352D01*
X026977Y01235D01*
X026972Y012346D01*
X026966Y012341D01*
X026964Y012339D01*
X026964Y012338D01*
X026961Y012334D01*
X026958Y01233D01*
X026955Y012325D01*
X026953Y012319D01*
X026951Y012313D01*
X02695Y012306D01*
Y012305D01*
X02695Y012302D01*
X026951Y012299D01*
X026952Y012294D01*
X026954Y012289D01*
X026957Y012282D01*
X026961Y012276D01*
X026967Y01227D01*
X026942Y01225D01*
X026942Y01225D01*
X026941Y012251D01*
X02694Y012252D01*
X026938Y012254D01*
X026937Y012257D01*
X026935Y01226D01*
X026933Y012263D01*
X026931Y012267D01*
X026927Y012275D01*
X026924Y012285D01*
X026922Y012289D01*
X026922Y012295D01*
X026921Y0123D01*
Y012305D01*
Y012306D01*
X026921Y012306D01*
Y012308D01*
X026922Y01231D01*
X026922Y012313D01*
X026923Y012315D01*
X026924Y012319D01*
X026925Y012323D01*
X026927Y012327D01*
X026929Y012331D01*
X026931Y012335D01*
X026933Y01234D01*
X026937Y012345D01*
X02694Y01235D01*
X026944Y012354D01*
X026948Y012359D01*
X026951Y012362D01*
X026953Y012363D01*
X026955Y012365D01*
X026958Y012367D01*
X026962Y01237D01*
X026965Y012372D01*
X026973Y012377D01*
X026983Y012381D01*
X026988Y012383D01*
X026993Y012384D01*
X026998Y012385D01*
X027003Y012385D01*
X027004D01*
X027005Y012386D01*
X027006Y012385D01*
D02*
G37*
G36*
X026879Y012248D02*
X026885Y012247D01*
X026891Y012246D01*
X026892Y012245D01*
X026894Y012245D01*
X026897Y012243D01*
X026901Y012241D01*
X026905Y012238D01*
X026911Y012235D01*
X026916Y012231D01*
X026921Y012227D01*
X026921Y012226D01*
X026922Y012226D01*
X026923Y012225D01*
X026924Y012222D01*
X026926Y01222D01*
X026928Y012218D01*
X02693Y012215D01*
X026932Y012211D01*
X026937Y012204D01*
X026939Y0122D01*
X02694Y012195D01*
X026942Y01219D01*
X026943Y012185D01*
X026944Y012179D01*
X026945Y012174D01*
Y012173D01*
Y012172D01*
Y01217D01*
X026944Y012168D01*
X026944Y012166D01*
X026943Y012162D01*
X026942Y012158D01*
X02694Y012154D01*
X026939Y012149D01*
X026936Y012144D01*
X026933Y012138D01*
X02693Y012132D01*
X026925Y012126D01*
X026921Y01212D01*
X026915Y012113D01*
X026908Y012106D01*
X026863Y01206D01*
X026935Y011988D01*
X026911Y011964D01*
X026733Y012142D01*
X026806Y012216D01*
X02681Y012219D01*
X026815Y012223D01*
X02682Y012228D01*
X026825Y012231D01*
X026829Y012235D01*
X02683Y012235D01*
X026832Y012237D01*
X026835Y012238D01*
X026839Y012241D01*
X026843Y012243D01*
X026849Y012245D01*
X026854Y012247D01*
X02686Y012248D01*
X02686Y012248D01*
X026862Y012249D01*
X026865D01*
X026869Y012249D01*
X026874D01*
X026879Y012248D01*
D02*
G37*
G36*
X026853Y011801D02*
X026834Y011782D01*
X0266Y012015D01*
X026619Y012034D01*
X026853Y011801D01*
D02*
G37*
G36*
X0265Y011872D02*
X026507Y011871D01*
X026507Y01187D01*
X02651Y01187D01*
X026513Y011869D01*
X026517Y011867D01*
X026522Y011865D01*
X026527Y011862D01*
X026532Y011859D01*
X026536Y011854D01*
X026537Y011854D01*
X026538Y011852D01*
X02654Y01185D01*
X026542Y011847D01*
X026545Y011843D01*
X026547Y011838D01*
X026549Y011833D01*
X026551Y011827D01*
X026551Y011826D01*
X026552Y011824D01*
X026552Y011821D01*
Y011817D01*
X026552Y011812D01*
X026551Y011806D01*
X02655Y0118D01*
X026548Y011794D01*
X026548Y011794D01*
X026549Y011794D01*
X02655Y011795D01*
X026551Y011795D01*
X026555Y011797D01*
X02656Y011799D01*
X026566Y011801D01*
X026573Y011803D01*
X02658Y011803D01*
X026588Y011803D01*
X026588Y011803D01*
X026591Y011802D01*
X026595Y011801D01*
X0266Y0118D01*
X026606Y011797D01*
X026612Y011794D01*
X026619Y011789D01*
X026625Y011783D01*
X026625Y011783D01*
X026626Y011782D01*
X026627Y011781D01*
X026629Y011779D01*
X026631Y011777D01*
X026632Y011774D01*
X026634Y011771D01*
X026637Y011767D01*
X026641Y011759D01*
X026643Y011754D01*
X026644Y01175D01*
X026645Y011744D01*
X026646Y011739D01*
X026647Y011733D01*
Y011726D01*
Y011726D01*
Y011725D01*
X026647Y011723D01*
X026647Y011721D01*
X026646Y011718D01*
X026646Y011715D01*
X026645Y011711D01*
X026643Y011707D01*
X026642Y011702D01*
X02664Y011697D01*
X026638Y011693D01*
X026636Y011688D01*
X026633Y011682D01*
X026629Y011677D01*
X026625Y011672D01*
X02662Y011667D01*
X026618Y011665D01*
X026616Y011664D01*
X026614Y011662D01*
X026611Y01166D01*
X026608Y011658D01*
X026605Y011655D01*
X026597Y011651D01*
X026588Y011647D01*
X026583Y011645D01*
X026579Y011644D01*
X026573Y011643D01*
X026568Y011642D01*
X026565D01*
X026563Y011643D01*
X02656D01*
X026557Y011643D01*
X026554Y011643D01*
X02655Y011644D01*
X026546Y011645D01*
X026542Y011646D01*
X026533Y01165D01*
X026523Y011654D01*
X026519Y011658D01*
X026514Y011661D01*
X026533Y011686D01*
X026533Y011686D01*
X026534Y011685D01*
X026535Y011685D01*
X026537Y011684D01*
X026539Y011682D01*
X026541Y011681D01*
X026546Y011678D01*
X026553Y011676D01*
X026559Y011673D01*
X026566Y011672D01*
X026573Y011671D01*
X026573Y011672D01*
X026575D01*
X026579Y011672D01*
X026583Y011674D01*
X026587Y011675D01*
X026592Y011678D01*
X026598Y011681D01*
X026603Y011686D01*
X026604Y011687D01*
X026605Y011688D01*
X026608Y011691D01*
X02661Y011696D01*
X026613Y011701D01*
X026616Y011707D01*
X026618Y011714D01*
X026618Y011722D01*
Y011723D01*
X026618Y011726D01*
X026617Y01173D01*
X026616Y011735D01*
X026614Y011741D01*
X026611Y011747D01*
X026608Y011753D01*
X026602Y011759D01*
X026602Y01176D01*
X026602Y01176D01*
X026601Y011761D01*
X0266Y011762D01*
X026597Y011764D01*
X026592Y011767D01*
X026587Y01177D01*
X026581Y011772D01*
X026575Y011774D01*
X026567Y011774D01*
X026566D01*
X026564Y011774D01*
X026561Y011774D01*
X026556Y011773D01*
X02655Y011771D01*
X026545Y011768D01*
X026539Y011764D01*
X026533Y011759D01*
X02653Y011757D01*
X026529Y011755D01*
X026527Y011752D01*
X026525Y011749D01*
X026522Y011746D01*
X02652Y011741D01*
X026503Y011763D01*
X026504Y011765D01*
X026505Y011765D01*
X026509Y011769D01*
X026511Y011772D01*
X026514Y011776D01*
X026517Y011781D01*
X02652Y011786D01*
X026522Y011792D01*
X026524Y011799D01*
X026525Y011799D01*
Y0118D01*
X026525Y011802D01*
Y011806D01*
X026525Y01181D01*
X026523Y011815D01*
X026521Y011821D01*
X026518Y011827D01*
X026516Y01183D01*
X026513Y011833D01*
X026513Y011833D01*
X026513Y011833D01*
X026511Y011835D01*
X026509Y011836D01*
X026505Y011838D01*
X026501Y011841D01*
X026497Y011843D01*
X026491Y011844D01*
X026485Y011844D01*
X026485D01*
X026483Y011844D01*
X026479Y011843D01*
X026476Y011843D01*
X026471Y011841D01*
X026466Y011838D01*
X026461Y011835D01*
X026456Y011831D01*
X026454Y011829D01*
X026452Y011826D01*
X02645Y011823D01*
X026448Y011818D01*
X026445Y011813D01*
X026444Y011808D01*
X026443Y011802D01*
Y011801D01*
X026443Y011799D01*
X026444Y011796D01*
X026444Y011791D01*
X026446Y011786D01*
X026448Y01178D01*
X026452Y011774D01*
X026456Y011767D01*
X026431Y011749D01*
X02643Y011749D01*
X02643Y01175D01*
X026429Y011752D01*
X026428Y011754D01*
X026426Y011756D01*
X026425Y011759D01*
X026422Y011765D01*
X026419Y011773D01*
X026416Y011782D01*
X026415Y011791D01*
Y011801D01*
Y011802D01*
X026415Y011802D01*
X026415Y011804D01*
X026415Y011806D01*
X026416Y011808D01*
X026416Y011811D01*
X026417Y011813D01*
X026418Y011817D01*
X026421Y011824D01*
X026425Y011832D01*
X026431Y011841D01*
X026434Y011845D01*
X02644Y011851D01*
X026443Y011854D01*
X026447Y011856D01*
X026452Y01186D01*
X026458Y011863D01*
X026464Y011866D01*
X026471Y011869D01*
X026471Y011869D01*
X026472D01*
X026474Y01187D01*
X026478Y011871D01*
X026482Y011871D01*
X026488Y011872D01*
X026494Y011872D01*
X0265Y011872D01*
D02*
G37*
G36*
X026372Y011741D02*
X026378Y01174D01*
X026383Y011738D01*
X026384Y011738D01*
X026386Y011737D01*
X026389Y011736D01*
X026393Y011734D01*
X026398Y011731D01*
X026403Y011728D01*
X026408Y011724D01*
X026413Y011719D01*
X026414Y011719D01*
X026414Y011718D01*
X026415Y011717D01*
X026417Y011715D01*
X026418Y011713D01*
X026421Y01171D01*
X026423Y011707D01*
X026425Y011704D01*
X026429Y011696D01*
X026431Y011692D01*
X026433Y011687D01*
X026434Y011682D01*
X026436Y011677D01*
X026436Y011672D01*
X026437Y011666D01*
Y011666D01*
Y011664D01*
Y011663D01*
X026436Y011661D01*
X026436Y011658D01*
X026435Y011655D01*
X026434Y011651D01*
X026433Y011646D01*
X026431Y011642D01*
X026429Y011636D01*
X026426Y011631D01*
X026422Y011625D01*
X026418Y011619D01*
X026413Y011612D01*
X026407Y011605D01*
X026401Y011598D01*
X026355Y011553D01*
X026427Y01148D01*
X026404Y011457D01*
X026226Y011635D01*
X026299Y011708D01*
X026303Y011712D01*
X026308Y011716D01*
X026312Y01172D01*
X026317Y011724D01*
X026322Y011727D01*
X026322Y011728D01*
X026324Y011729D01*
X026327Y011731D01*
X026331Y011733D01*
X026336Y011735D01*
X026341Y011737D01*
X026347Y011739D01*
X026352Y011741D01*
X026353Y011741D01*
X026355Y011741D01*
X026358D01*
X026362Y011741D01*
X026366D01*
X026372Y011741D01*
D02*
G37*
G36*
X026222Y011589D02*
X026164Y011531D01*
X026321Y011374D01*
X026297Y01135D01*
X02614Y011507D01*
X026081Y011448D01*
X02606Y011469D01*
X026201Y01161D01*
X026222Y011589D01*
D02*
G37*
G36*
X026149Y015766D02*
X026154D01*
X026157Y015766D01*
X02616Y015765D01*
X026164Y015765D01*
X026171Y015762D01*
X02618Y015759D01*
X026184Y015757D01*
X026188Y015753D01*
X026193Y01575D01*
X026197Y015747D01*
X026197Y015746D01*
X026198Y015745D01*
X0262Y015743D01*
X026203Y01574D01*
X026205Y015736D01*
X026208Y015731D01*
X026211Y015726D01*
X026213Y015721D01*
X026213Y01572D01*
X026214Y015718D01*
X026215Y015715D01*
X026216Y015711D01*
X026218Y015706D01*
X026219Y015699D01*
X02622Y015692D01*
X02622Y015684D01*
Y015683D01*
X026221Y015681D01*
Y015678D01*
Y015675D01*
Y015672D01*
Y015668D01*
Y015664D01*
X02622Y015659D01*
Y015654D01*
X02622Y015648D01*
X02622Y015642D01*
X026219Y015635D01*
X026219Y015628D01*
X026218Y01562D01*
Y015619D01*
Y015618D01*
X026218Y015617D01*
X026218Y015614D01*
Y015611D01*
X026217Y015608D01*
X026216Y0156D01*
X026216Y015592D01*
X026216Y015584D01*
X026215Y015577D01*
X026215Y015574D01*
Y015572D01*
Y015571D01*
Y01557D01*
Y015568D01*
X026215Y015565D01*
X026216Y015562D01*
X026216Y015558D01*
X026218Y015551D01*
X026305Y015639D01*
X026326Y015618D01*
X026208Y015499D01*
X026208Y0155D01*
X026207Y015501D01*
X026205Y015502D01*
X026204Y015505D01*
X026202Y015507D01*
X0262Y01551D01*
X026197Y015513D01*
X026196Y015517D01*
X026195Y015517D01*
Y015518D01*
X026194Y01552D01*
X026193Y015523D01*
X026192Y015528D01*
X02619Y015534D01*
X026188Y01554D01*
X026187Y015547D01*
X026186Y015555D01*
X026186Y015556D01*
X026186Y015556D01*
X026186Y015559D01*
Y015564D01*
Y01557D01*
Y015578D01*
X026186Y015588D01*
X026187Y015599D01*
X026188Y015611D01*
Y015611D01*
X026188Y015613D01*
X026189Y015616D01*
X026189Y015619D01*
X026189Y015624D01*
X02619Y015629D01*
X02619Y015634D01*
X02619Y01564D01*
X026191Y015653D01*
X026191Y015665D01*
Y015672D01*
X026191Y015678D01*
X02619Y015683D01*
X02619Y015688D01*
X026189Y015688D01*
X02619Y015689D01*
X026189Y01569D01*
X026189Y015692D01*
X026188Y015696D01*
X026187Y015702D01*
X026184Y015708D01*
X026182Y015714D01*
X026178Y01572D01*
X026174Y015725D01*
X026174Y015725D01*
X026173Y015725D01*
X026171Y015727D01*
X026169Y015729D01*
X026165Y015731D01*
X02616Y015734D01*
X026155Y015735D01*
X026149Y015737D01*
X026142Y015737D01*
X026141D01*
X026139Y015737D01*
X026136Y015736D01*
X026131Y015735D01*
X026126Y015733D01*
X02612Y015731D01*
X026115Y015727D01*
X026109Y015722D01*
X026107Y01572D01*
X026107Y015719D01*
X026104Y015716D01*
X026101Y015711D01*
X026098Y015706D01*
X026096Y0157D01*
X026094Y015694D01*
X026093Y015687D01*
Y015686D01*
X026093Y015683D01*
X026094Y01568D01*
X026095Y015675D01*
X026097Y01567D01*
X0261Y015664D01*
X026104Y015657D01*
X02611Y015651D01*
X026085Y015631D01*
X026085Y015631D01*
X026084Y015632D01*
X026083Y015634D01*
X026081Y015636D01*
X02608Y015638D01*
X026078Y015641D01*
X026076Y015645D01*
X026074Y015648D01*
X02607Y015656D01*
X026067Y015666D01*
X026065Y015671D01*
X026065Y015676D01*
X026064Y015681D01*
Y015686D01*
Y015687D01*
X026064Y015688D01*
Y015689D01*
X026065Y015691D01*
X026065Y015694D01*
X026066Y015697D01*
X026067Y0157D01*
X026068Y015704D01*
X02607Y015708D01*
X026072Y015712D01*
X026074Y015717D01*
X026076Y015721D01*
X02608Y015726D01*
X026083Y015731D01*
X026087Y015735D01*
X026091Y01574D01*
X026094Y015743D01*
X026096Y015744D01*
X026098Y015746D01*
X026101Y015749D01*
X026105Y015751D01*
X026108Y015753D01*
X026116Y015758D01*
X026126Y015762D01*
X026131Y015764D01*
X026136Y015766D01*
X026141Y015766D01*
X026146Y015767D01*
X026147D01*
X026148Y015767D01*
X026149Y015766D01*
D02*
G37*
G36*
X026083Y015417D02*
X026171Y015505D01*
X026192Y015483D01*
X026081Y015372D01*
X025903Y01555D01*
X025926Y015574D01*
X026083Y015417D01*
D02*
G37*
G36*
X025945Y015278D02*
X026033Y015366D01*
X026054Y015345D01*
X025942Y015234D01*
X025764Y015412D01*
X025788Y015435D01*
X025945Y015278D01*
D02*
G37*
G36*
X025924Y015216D02*
X025898Y015189D01*
X025823Y015222D01*
X025748Y015147D01*
X025783Y015074D01*
X025758Y015049D01*
X025648Y015295D01*
X025673Y015321D01*
X025924Y015216D01*
D02*
G37*
G36*
X025738Y015029D02*
X025714Y015006D01*
X02563Y015089D01*
X025538Y014997D01*
X025622Y014913D01*
X025598Y01489D01*
X02542Y015068D01*
X025444Y015091D01*
X025517Y015018D01*
X025609Y015111D01*
X025536Y015184D01*
X02556Y015207D01*
X025738Y015029D01*
D02*
G37*
G36*
X026284Y016077D02*
X026262Y016055D01*
X026123Y016194D01*
Y016194D01*
X026122Y016192D01*
Y016188D01*
X026122Y016184D01*
X026121Y016179D01*
X02612Y016173D01*
X026119Y016166D01*
X026117Y016158D01*
X026117Y016158D01*
Y016158D01*
X026116Y016155D01*
X026115Y016151D01*
X026113Y016147D01*
X026112Y016141D01*
X02611Y016135D01*
X026108Y01613D01*
X026105Y016124D01*
X026084Y016145D01*
X026084Y016146D01*
Y016147D01*
X026085Y016148D01*
X026086Y01615D01*
X026086Y016152D01*
X026087Y016155D01*
X026089Y016162D01*
X026091Y01617D01*
X026093Y016179D01*
X026094Y016188D01*
X026095Y016198D01*
Y016199D01*
Y016199D01*
Y016201D01*
X026095Y016203D01*
X026095Y016208D01*
Y016214D01*
X026095Y01622D01*
X026094Y016228D01*
X026093Y016235D01*
X026091Y016242D01*
X026105Y016256D01*
X026284Y016077D01*
D02*
G37*
G36*
X026074Y015909D02*
X026161Y015997D01*
X026182Y015976D01*
X026071Y015864D01*
X025893Y016042D01*
X025917Y016066D01*
X026074Y015909D01*
D02*
G37*
G36*
X025935Y01577D02*
X026023Y015858D01*
X026044Y015837D01*
X025933Y015726D01*
X025754Y015904D01*
X025778Y015927D01*
X025935Y01577D01*
D02*
G37*
G36*
X025915Y015708D02*
X025888Y015681D01*
X025813Y015714D01*
X025738Y015639D01*
X025773Y015566D01*
X025748Y015541D01*
X025638Y015787D01*
X025664Y015813D01*
X025915Y015708D01*
D02*
G37*
G36*
X025728Y015521D02*
X025704Y015498D01*
X025621Y015582D01*
X025528Y015489D01*
X025612Y015405D01*
X025589Y015382D01*
X025411Y01556D01*
X025434Y015584D01*
X025507Y015511D01*
X025599Y015603D01*
X025526Y015676D01*
X02555Y015699D01*
X025728Y015521D01*
D02*
G37*
%LPC*%
G36*
X021241Y017999D02*
X02124D01*
X021239D01*
X021238D01*
X021236D01*
X021233Y017998D01*
X02123D01*
X021226Y017998D01*
X021222Y017997D01*
X021214Y017996D01*
X021205Y017994D01*
X021196Y017992D01*
X021187Y017988D01*
X021187D01*
X021186Y017988D01*
X021185Y017987D01*
X021183Y017986D01*
X021179Y017984D01*
X021174Y01798D01*
X021168Y017976D01*
X021162Y017971D01*
X021157Y017964D01*
X021151Y017958D01*
Y017957D01*
X021151Y017957D01*
X02115Y017956D01*
X021149Y017954D01*
X021149Y017952D01*
X021147Y01795D01*
X021145Y017944D01*
X021143Y017938D01*
X021141Y01793D01*
X021139Y017921D01*
X021139Y017912D01*
Y017909D01*
X021139Y017907D01*
X021139Y017903D01*
X02114Y0179D01*
X021141Y017896D01*
X021142Y017892D01*
X021145Y017882D01*
X021147Y017877D01*
X021149Y017872D01*
X021152Y017867D01*
X021155Y017861D01*
X021159Y017856D01*
X021163Y017852D01*
X021163Y017851D01*
X021164Y017851D01*
X021166Y017849D01*
X021168Y017848D01*
X02117Y017846D01*
X021174Y017844D01*
X021178Y017841D01*
X021182Y017839D01*
X021188Y017837D01*
X021194Y017834D01*
X0212Y017832D01*
X021208Y01783D01*
X021216Y017828D01*
X021225Y017827D01*
X021234Y017826D01*
X021244Y017826D01*
X021245D01*
X021246D01*
X021249D01*
X021252Y017826D01*
X021256Y017827D01*
X02126Y017828D01*
X021265Y017828D01*
X02127Y017829D01*
X021282Y017832D01*
X021288Y017834D01*
X021294Y017836D01*
X0213Y017839D01*
X021305Y017842D01*
X021311Y017846D01*
X021316Y017851D01*
X021316Y017851D01*
X021317Y017852D01*
X021319Y017853D01*
X02132Y017855D01*
X021322Y017857D01*
X021324Y01786D01*
X021327Y017864D01*
X021329Y017867D01*
X021332Y017872D01*
X021334Y017876D01*
X021336Y017881D01*
X021338Y017887D01*
X02134Y017893D01*
X021341Y017899D01*
X021342Y017905D01*
X021342Y017912D01*
Y017914D01*
X021342Y017916D01*
Y017918D01*
X021341Y017921D01*
X021341Y017925D01*
X02134Y017929D01*
X021339Y017934D01*
X021337Y017939D01*
X021336Y017944D01*
X021334Y017949D01*
X021331Y017954D01*
X021328Y017959D01*
X021325Y017964D01*
X021321Y01797D01*
X021316Y017974D01*
X021316Y017975D01*
X021315Y017975D01*
X021313Y017976D01*
X021311Y017978D01*
X021308Y01798D01*
X021305Y017982D01*
X021301Y017984D01*
X021297Y017987D01*
X021292Y017989D01*
X021286Y017991D01*
X02128Y017993D01*
X021273Y017995D01*
X021266Y017996D01*
X021258Y017998D01*
X021249Y017998D01*
X021241Y017999D01*
D02*
G37*
G36*
X021189Y017627D02*
X021188D01*
X021188D01*
X021186D01*
X021183Y017627D01*
X021179Y017626D01*
X021175Y017626D01*
X02117Y017624D01*
X021166Y017622D01*
X021162Y017619D01*
X021161Y017619D01*
X02116Y017618D01*
X021158Y017616D01*
X021155Y017614D01*
X021153Y017611D01*
X021151Y017607D01*
X021149Y017603D01*
X021147Y017598D01*
Y017598D01*
X021146Y017596D01*
X021146Y017594D01*
X021145Y017591D01*
X021145Y017587D01*
X021145Y017581D01*
X021144Y017575D01*
Y017503D01*
X021234D01*
Y017571D01*
X021234Y017573D01*
Y017576D01*
X021233Y017579D01*
X021233Y017586D01*
X021231Y017593D01*
X021229Y017601D01*
X021226Y017608D01*
X021224Y017611D01*
X021222Y017614D01*
X021221Y017614D01*
X02122Y017616D01*
X021217Y017618D01*
X021213Y01762D01*
X021209Y017623D01*
X021203Y017625D01*
X021196Y017627D01*
X021189Y017627D01*
D02*
G37*
G36*
X023095Y018541D02*
X023036D01*
Y018349D01*
X023096D01*
X023099Y018349D01*
X023104Y018349D01*
X02311Y01835D01*
X023117Y01835D01*
X023123Y018352D01*
X023129Y018353D01*
X02313Y018353D01*
X023131Y018354D01*
X023134Y018355D01*
X023137Y018356D01*
X023141Y018359D01*
X023145Y018361D01*
X023148Y018363D01*
X023152Y018366D01*
X023152Y018367D01*
X023154Y018368D01*
X023156Y018371D01*
X023158Y018375D01*
X023161Y018379D01*
X023165Y018385D01*
X023167Y018391D01*
X02317Y018398D01*
Y018398D01*
X02317Y018399D01*
X023171Y0184D01*
X023171Y018401D01*
X023172Y018403D01*
X023172Y018406D01*
X023173Y018408D01*
X023174Y018411D01*
X023175Y018419D01*
X023176Y018427D01*
X023177Y018436D01*
X023177Y018447D01*
Y018447D01*
Y018448D01*
Y01845D01*
X023177Y018453D01*
Y018456D01*
X023176Y01846D01*
X023176Y018464D01*
X023175Y018469D01*
X023174Y018479D01*
X023172Y018489D01*
X023168Y018498D01*
X023166Y018503D01*
X023164Y018507D01*
Y018507D01*
X023163Y018508D01*
X023162Y018509D01*
X023162Y018511D01*
X023159Y018514D01*
X023155Y018519D01*
X02315Y018523D01*
X023145Y018528D01*
X023139Y018532D01*
X023132Y018535D01*
X023131Y018536D01*
X02313Y018536D01*
X023126Y018537D01*
X023122Y018538D01*
X023116Y018539D01*
X023109Y01854D01*
X023104Y018541D01*
X023099D01*
X023095Y018541D01*
D02*
G37*
G36*
X022841D02*
X022782D01*
Y018349D01*
X022842D01*
X022845Y018349D01*
X02285Y018349D01*
X022856Y01835D01*
X022863Y01835D01*
X022869Y018352D01*
X022875Y018353D01*
X022876Y018353D01*
X022877Y018354D01*
X02288Y018355D01*
X022883Y018356D01*
X022887Y018359D01*
X02289Y018361D01*
X022894Y018363D01*
X022898Y018366D01*
X022898Y018367D01*
X0229Y018368D01*
X022902Y018371D01*
X022904Y018375D01*
X022907Y018379D01*
X022911Y018385D01*
X022913Y018391D01*
X022916Y018398D01*
Y018398D01*
X022916Y018399D01*
X022917Y0184D01*
X022917Y018401D01*
X022917Y018403D01*
X022918Y018406D01*
X022919Y018408D01*
X02292Y018411D01*
X022921Y018419D01*
X022922Y018427D01*
X022923Y018436D01*
X022923Y018447D01*
Y018447D01*
Y018448D01*
Y01845D01*
X022923Y018453D01*
Y018456D01*
X022922Y01846D01*
X022922Y018464D01*
X022921Y018469D01*
X02292Y018479D01*
X022917Y018489D01*
X022914Y018498D01*
X022912Y018503D01*
X02291Y018507D01*
Y018507D01*
X022909Y018508D01*
X022908Y018509D01*
X022908Y018511D01*
X022905Y018514D01*
X022901Y018519D01*
X022896Y018523D01*
X022891Y018528D01*
X022885Y018532D01*
X022878Y018535D01*
X022877Y018536D01*
X022876Y018536D01*
X022872Y018537D01*
X022868Y018538D01*
X022862Y018539D01*
X022854Y01854D01*
X02285Y018541D01*
X022845D01*
X022841Y018541D01*
D02*
G37*
G36*
X019603Y018423D02*
X019545D01*
Y018231D01*
X019604D01*
X019607Y018231D01*
X019612Y018231D01*
X019618Y018232D01*
X019625Y018232D01*
X019632Y018233D01*
X019637Y018235D01*
X019638Y018235D01*
X01964Y018236D01*
X019642Y018237D01*
X019645Y018238D01*
X019649Y01824D01*
X019653Y018243D01*
X019656Y018245D01*
X01966Y018248D01*
X01966Y018249D01*
X019662Y01825D01*
X019664Y018253D01*
X019666Y018256D01*
X019669Y018261D01*
X019673Y018267D01*
X019676Y018273D01*
X019678Y01828D01*
Y01828D01*
X019678Y018281D01*
X019679Y018282D01*
X019679Y018283D01*
X01968Y018285D01*
X01968Y018288D01*
X019681Y01829D01*
X019682Y018293D01*
X019683Y0183D01*
X019684Y018309D01*
X019685Y018318D01*
X019685Y018328D01*
Y018329D01*
Y01833D01*
Y018332D01*
X019685Y018335D01*
Y018338D01*
X019684Y018342D01*
X019684Y018346D01*
X019684Y018351D01*
X019682Y018361D01*
X01968Y018371D01*
X019676Y01838D01*
X019674Y018385D01*
X019672Y018389D01*
Y018389D01*
X019671Y01839D01*
X01967Y018391D01*
X01967Y018393D01*
X019667Y018396D01*
X019663Y018401D01*
X019658Y018405D01*
X019653Y01841D01*
X019647Y018414D01*
X01964Y018417D01*
X01964Y018418D01*
X019638Y018418D01*
X019634Y018419D01*
X01963Y01842D01*
X019624Y018421D01*
X019617Y018422D01*
X019612Y018422D01*
X019607D01*
X019603Y018423D01*
D02*
G37*
G36*
X028046Y012464D02*
X028045Y012464D01*
X028043D01*
X028039Y012464D01*
X028034Y012463D01*
X028029Y012461D01*
X028023Y012459D01*
X028017Y012455D01*
X028014Y012453D01*
X02801Y012449D01*
X028009Y012448D01*
X028006Y012445D01*
X028004Y012441D01*
X028001Y012435D01*
X027999Y012428D01*
X027998Y012421D01*
Y012417D01*
Y012413D01*
X027998Y012413D01*
X027998Y012412D01*
X027998Y012411D01*
X027998Y012409D01*
X027999Y012405D01*
X028001Y0124D01*
X028003Y012393D01*
X028007Y012386D01*
X028012Y012379D01*
X028018Y012372D01*
X028018Y012371D01*
X028019Y012371D01*
X028019Y01237D01*
X028021Y012369D01*
X028022Y012367D01*
X028024Y012366D01*
X028029Y012363D01*
X028035Y01236D01*
X028041Y012357D01*
X028048Y012355D01*
X028055Y012354D01*
X028056D01*
X028059Y012354D01*
X028063Y012355D01*
X028068Y012356D01*
X028073Y012358D01*
X02808Y01236D01*
X028086Y012364D01*
X028091Y012369D01*
X028093Y012371D01*
X028094Y012372D01*
X028096Y012375D01*
X028099Y012379D01*
X028102Y012384D01*
X028104Y01239D01*
X028106Y012397D01*
X028106Y012405D01*
Y012406D01*
X028105Y012408D01*
X028105Y012412D01*
X028103Y012417D01*
X028101Y012423D01*
X028098Y01243D01*
X028093Y012437D01*
X028087Y012444D01*
X028086Y012444D01*
X028086Y012445D01*
X028085Y012446D01*
X028083Y012447D01*
X028081Y012449D01*
X028079Y01245D01*
X028074Y012453D01*
X028069Y012457D01*
X028062Y012461D01*
X028054Y012463D01*
X028046Y012464D01*
X028046Y012464D01*
D02*
G37*
G36*
X027908Y012323D02*
X027898D01*
X027891Y012322D01*
X027885Y01232D01*
X027881Y012319D01*
X027878Y012317D01*
X027875Y012314D01*
X027872Y012312D01*
X02787Y01231D01*
X02787Y012309D01*
X027867Y012305D01*
X027865Y012301D01*
X027862Y012296D01*
X027861Y012289D01*
X02786Y012286D01*
X02786Y012282D01*
X02786Y012278D01*
X02786Y012274D01*
X027861Y012274D01*
Y012273D01*
X027861Y012271D01*
X027862Y012269D01*
X027863Y012267D01*
X027864Y012263D01*
X027866Y01226D01*
X027869Y012255D01*
X027871Y01225D01*
X027875Y012245D01*
X027879Y012239D01*
X027883Y012233D01*
X027889Y012226D01*
X027895Y012219D01*
X027902Y012211D01*
X02791Y012203D01*
X02791Y012202D01*
X027911Y012201D01*
X027914Y012199D01*
X027917Y012196D01*
X02792Y012193D01*
X027925Y012189D01*
X027929Y012185D01*
X027934Y012181D01*
X027946Y012172D01*
X027951Y012168D01*
X027957Y012164D01*
X027963Y012161D01*
X027968Y012158D01*
X027973Y012156D01*
X027978Y012155D01*
X027978Y012155D01*
X027979Y012155D01*
X027982Y012154D01*
X027987D01*
X027992Y012155D01*
X027999Y012156D01*
X028005Y012158D01*
X028012Y012161D01*
X028015Y012163D01*
X028018Y012166D01*
X02802Y012167D01*
X02802Y012169D01*
X028022Y012172D01*
X028025Y012176D01*
X028027Y012182D01*
X028029Y012189D01*
X028029Y012193D01*
Y012197D01*
Y012201D01*
X028029Y012206D01*
X028029Y012206D01*
Y012207D01*
X028028Y012208D01*
X028028Y01221D01*
X028027Y012213D01*
X028025Y012216D01*
X028024Y012219D01*
X028022Y012224D01*
X028019Y012228D01*
X028016Y012233D01*
X028012Y012239D01*
X028007Y012245D01*
X028002Y012252D01*
X027996Y012259D01*
X027989Y012267D01*
X027981Y012275D01*
X027981Y012275D01*
X027981Y012275D01*
X027979Y012276D01*
X027977Y012279D01*
X027974Y012281D01*
X02797Y012285D01*
X027966Y012289D01*
X027961Y012293D01*
X027956Y012297D01*
X027945Y012306D01*
X027939Y01231D01*
X027933Y012313D01*
X027928Y012317D01*
X027922Y012319D01*
X027917Y012321D01*
X027912Y012323D01*
X027912Y012323D01*
X027911Y012323D01*
X02791Y012323D01*
X027908Y012323D01*
D02*
G37*
G36*
X027563Y011979D02*
X027559Y011979D01*
X027555Y011978D01*
X027551Y011976D01*
X027546Y011974D01*
X027546Y011974D01*
X027545Y011973D01*
X027543Y011972D01*
X02754Y011971D01*
X027537Y011968D01*
X027533Y011964D01*
X027528Y01196D01*
X027477Y011909D01*
X02754Y011845D01*
X027588Y011893D01*
X02759Y011895D01*
X027592Y011897D01*
X027593Y011899D01*
X027598Y011905D01*
X027602Y011911D01*
X027606Y011918D01*
X027609Y011925D01*
X02761Y011929D01*
X02761Y011932D01*
Y011933D01*
Y011935D01*
X02761Y011939D01*
X027609Y011943D01*
X027607Y011948D01*
X027605Y011954D01*
X027601Y01196D01*
X027596Y011965D01*
X027596Y011966D01*
X027596Y011966D01*
X027594Y011967D01*
X027592Y011969D01*
X027589Y011971D01*
X027585Y011974D01*
X027581Y011976D01*
X027576Y011978D01*
X027572Y011979D01*
X027571D01*
X027569Y011979D01*
X027567D01*
X027563Y011979D01*
D02*
G37*
G36*
X027056Y011472D02*
X027052Y011471D01*
X027048Y01147D01*
X027043Y011469D01*
X027039Y011467D01*
X027038Y011467D01*
X027037Y011466D01*
X027035Y011465D01*
X027033Y011463D01*
X027029Y01146D01*
X027025Y011457D01*
X02702Y011452D01*
X026969Y011401D01*
X027033Y011338D01*
X027081Y011386D01*
X027082Y011388D01*
X027084Y011389D01*
X027086Y011392D01*
X02709Y011397D01*
X027095Y011404D01*
X027098Y01141D01*
X027101Y011417D01*
X027102Y011421D01*
X027103Y011424D01*
Y011425D01*
Y011427D01*
X027102Y011431D01*
X027101Y011435D01*
X0271Y011441D01*
X027097Y011446D01*
X027094Y011452D01*
X027089Y011458D01*
X027088Y011458D01*
X027088Y011458D01*
X027087Y01146D01*
X027084Y011462D01*
X027081Y011464D01*
X027078Y011466D01*
X027074Y011468D01*
X027069Y01147D01*
X027064Y011471D01*
X027063D01*
X027062Y011471D01*
X027059D01*
X027056Y011472D01*
D02*
G37*
G36*
X027341Y012699D02*
X02734D01*
X027338Y012699D01*
X027335Y012698D01*
X027331Y012698D01*
X027327Y012696D01*
X027322Y012694D01*
X027317Y012691D01*
X027312Y012687D01*
X02731Y012685D01*
X027308Y012682D01*
X027306Y012678D01*
X027303Y012674D01*
X027301Y012669D01*
X0273Y012664D01*
X027299Y012657D01*
Y012657D01*
Y012655D01*
X0273Y012652D01*
X027301Y012648D01*
X027302Y012644D01*
X027304Y012639D01*
X027307Y012635D01*
X027311Y01263D01*
X027311Y01263D01*
X027311Y01263D01*
X027313Y012628D01*
X027315Y012626D01*
X027319Y012624D01*
X027323Y012622D01*
X027328Y01262D01*
X027333Y012618D01*
X027339Y012618D01*
X02734D01*
X027342Y012618D01*
X027345Y012618D01*
X027349Y012619D01*
X027353Y012621D01*
X027358Y012623D01*
X027363Y012626D01*
X027368Y012631D01*
X027369Y012631D01*
X02737Y012633D01*
X027372Y012636D01*
X027375Y012639D01*
X027377Y012644D01*
X027379Y012648D01*
X027381Y012654D01*
X027381Y01266D01*
Y01266D01*
X027381Y012662D01*
X027381Y012665D01*
X02738Y012669D01*
X027378Y012673D01*
X027376Y012678D01*
X027374Y012683D01*
X02737Y012687D01*
X027369Y012688D01*
X027369Y012688D01*
X027368Y012689D01*
X027365Y012691D01*
X027362Y012694D01*
X027357Y012696D01*
X027352Y012697D01*
X027347Y012699D01*
X027341Y012699D01*
D02*
G37*
G36*
X027422Y012628D02*
X027421D01*
X027419Y012628D01*
X027415Y012627D01*
X02741Y012626D01*
X027404Y012624D01*
X027398Y012621D01*
X027391Y012617D01*
X027385Y012612D01*
X027384Y012611D01*
X027383Y012609D01*
X02738Y012606D01*
X027377Y012602D01*
X027375Y012596D01*
X027372Y012591D01*
X027371Y012584D01*
X02737Y012576D01*
Y012575D01*
X02737Y012573D01*
X027371Y012569D01*
X027372Y012565D01*
X027374Y012559D01*
X027377Y012553D01*
X027381Y012547D01*
X027385Y012541D01*
X027386Y01254D01*
X027387Y012539D01*
X027389Y012538D01*
X027392Y012536D01*
X027395Y012533D01*
X027399Y012531D01*
X027403Y012529D01*
X027408Y012527D01*
X027408D01*
X02741Y012526D01*
X027412Y012526D01*
X027416Y012525D01*
X02742Y012525D01*
X027425D01*
X027429Y012525D01*
X027434Y012526D01*
X027435Y012527D01*
X027437Y012527D01*
X027439Y012528D01*
X027442Y01253D01*
X027446Y012532D01*
X02745Y012534D01*
X027454Y012538D01*
X027458Y012541D01*
X02746Y012542D01*
X02746Y012544D01*
X027463Y012547D01*
X027466Y012551D01*
X027469Y012557D01*
X027472Y012563D01*
X027473Y012569D01*
X027474Y012577D01*
Y012578D01*
X027474Y01258D01*
X027473Y012584D01*
X027472Y012589D01*
X02747Y012594D01*
X027468Y012601D01*
X027464Y012607D01*
X027459Y012613D01*
X027459Y012613D01*
X027458Y012613D01*
X027457Y012614D01*
X027456Y012615D01*
X027453Y012618D01*
X027448Y012621D01*
X027443Y012623D01*
X027437Y012626D01*
X02743Y012628D01*
X027422Y012628D01*
D02*
G37*
G36*
X027209Y012559D02*
X027199D01*
X027193Y012558D01*
X027186Y012556D01*
X027183Y012555D01*
X027179Y012553D01*
X027176Y01255D01*
X027173Y012548D01*
X027172Y012546D01*
X027171Y012545D01*
X027168Y012542D01*
X027166Y012538D01*
X027164Y012532D01*
X027162Y012526D01*
X027161Y012522D01*
X027161Y012518D01*
X027161Y012515D01*
X027162Y01251D01*
X027162Y01251D01*
Y012509D01*
X027162Y012508D01*
X027163Y012506D01*
X027164Y012503D01*
X027165Y012499D01*
X027167Y012496D01*
X02717Y012491D01*
X027173Y012487D01*
X027176Y012481D01*
X02718Y012475D01*
X027184Y012469D01*
X02719Y012462D01*
X027196Y012455D01*
X027203Y012447D01*
X027211Y012439D01*
X027211Y012439D01*
X027212Y012437D01*
X027215Y012435D01*
X027218Y012432D01*
X027221Y012429D01*
X027226Y012425D01*
X02723Y012421D01*
X027236Y012417D01*
X027247Y012408D01*
X027253Y012404D01*
X027258Y0124D01*
X027264Y012397D01*
X027269Y012394D01*
X027275Y012392D01*
X027279Y012391D01*
X02728Y012391D01*
X02728Y012391D01*
X027284Y012391D01*
X027288D01*
X027294Y012391D01*
X0273Y012392D01*
X027307Y012394D01*
X027313Y012397D01*
X027316Y0124D01*
X027319Y012402D01*
X027321Y012404D01*
X027322Y012405D01*
X027324Y012408D01*
X027326Y012413D01*
X027328Y012418D01*
X02733Y012425D01*
X027331Y012429D01*
Y012433D01*
Y012437D01*
X02733Y012442D01*
X02733Y012442D01*
Y012443D01*
X02733Y012444D01*
X027329Y012446D01*
X027328Y012449D01*
X027327Y012452D01*
X027325Y012456D01*
X027323Y01246D01*
X02732Y012464D01*
X027317Y01247D01*
X027313Y012476D01*
X027308Y012481D01*
X027303Y012488D01*
X027297Y012495D01*
X02729Y012503D01*
X027282Y012511D01*
X027282Y012511D01*
X027282Y012511D01*
X02728Y012513D01*
X027278Y012515D01*
X027275Y012518D01*
X027271Y012521D01*
X027267Y012525D01*
X027262Y012529D01*
X027257Y012533D01*
X027246Y012542D01*
X02724Y012546D01*
X027235Y01255D01*
X027229Y012553D01*
X027224Y012556D01*
X027218Y012558D01*
X027214Y012559D01*
X027213Y012559D01*
X027212Y012559D01*
X027211Y012559D01*
X027209Y012559D01*
D02*
G37*
G36*
X026864Y012216D02*
X02686Y012215D01*
X026856Y012214D01*
X026852Y012213D01*
X026847Y012211D01*
X026847Y01221D01*
X026846Y01221D01*
X026844Y012208D01*
X026841Y012207D01*
X026838Y012204D01*
X026834Y0122D01*
X026829Y012196D01*
X026778Y012145D01*
X026842Y012081D01*
X026889Y012129D01*
X026891Y012131D01*
X026893Y012133D01*
X026895Y012135D01*
X026899Y012141D01*
X026903Y012147D01*
X026907Y012154D01*
X02691Y012161D01*
X026911Y012165D01*
X026911Y012168D01*
Y012169D01*
Y012171D01*
X026911Y012175D01*
X02691Y012179D01*
X026909Y012184D01*
X026906Y01219D01*
X026902Y012196D01*
X026897Y012202D01*
X026897Y012202D01*
X026897Y012202D01*
X026896Y012203D01*
X026893Y012205D01*
X02689Y012208D01*
X026887Y01221D01*
X026882Y012212D01*
X026878Y012214D01*
X026873Y012215D01*
X026872D01*
X02687Y012215D01*
X026868D01*
X026864Y012216D01*
D02*
G37*
G36*
X026357Y011708D02*
X026353Y011707D01*
X026349Y011706D01*
X026344Y011705D01*
X02634Y011703D01*
X026339Y011703D01*
X026338Y011702D01*
X026336Y011701D01*
X026334Y011699D01*
X02633Y011696D01*
X026326Y011693D01*
X026321Y011688D01*
X02627Y011637D01*
X026334Y011574D01*
X026382Y011622D01*
X026383Y011624D01*
X026385Y011626D01*
X026387Y011628D01*
X026391Y011633D01*
X026396Y01164D01*
X0264Y011647D01*
X026402Y011654D01*
X026404Y011657D01*
X026404Y011661D01*
Y011662D01*
Y011664D01*
X026403Y011667D01*
X026402Y011672D01*
X026401Y011677D01*
X026398Y011682D01*
X026395Y011688D01*
X02639Y011694D01*
X02639Y011694D01*
X026389Y011695D01*
X026388Y011696D01*
X026385Y011698D01*
X026382Y0117D01*
X026379Y011702D01*
X026375Y011705D01*
X02637Y011706D01*
X026365Y011707D01*
X026365D01*
X026363Y011708D01*
X02636D01*
X026357Y011708D01*
D02*
G37*
G36*
X025679Y015289D02*
X025679Y015289D01*
X025679Y015288D01*
X02568Y015287D01*
X025681Y015285D01*
X025682Y015283D01*
X025683Y015281D01*
X025687Y015276D01*
X025691Y015269D01*
X025695Y015262D01*
X025699Y015254D01*
X025703Y015245D01*
X025736Y015174D01*
X025796Y015234D01*
X025728Y015264D01*
X025728Y015264D01*
X025727Y015265D01*
X025725Y015266D01*
X025723Y015267D01*
X025721Y015268D01*
X025718Y015269D01*
X025714Y015271D01*
X025711Y015273D01*
X025703Y015277D01*
X025695Y015281D01*
X025686Y015285D01*
X025679Y015289D01*
D02*
G37*
G36*
X025669Y015781D02*
X025669Y015781D01*
X025669Y01578D01*
X02567Y015779D01*
X025671Y015777D01*
X025672Y015775D01*
X025674Y015773D01*
X025677Y015768D01*
X025681Y015761D01*
X025685Y015754D01*
X025689Y015746D01*
X025693Y015737D01*
X025726Y015666D01*
X025786Y015726D01*
X025719Y015756D01*
X025718Y015757D01*
X025717Y015757D01*
X025716Y015758D01*
X025713Y015759D01*
X025711Y01576D01*
X025708Y015761D01*
X025704Y015763D01*
X025701Y015765D01*
X025693Y015769D01*
X025685Y015773D01*
X025676Y015777D01*
X025669Y015781D01*
D02*
G37*
%LPD*%
D10*
X026148Y013592D02*
G03*
X026148Y013592I-000049J0D01*
G01*
X024024Y015303D02*
G03*
X024024Y015303I-000049J0D01*
G01*
X025219Y01867D02*
G03*
X025219Y01867I-000049J0D01*
G01*
D11*
X022479Y01231D02*
G03*
X02244Y01231I-00002J0D01*
G01*
D02*
G03*
X022479Y01231I00002J0D01*
G01*
D02*
G03*
X02244Y01231I-00002J0D01*
G01*
X025991Y012765D02*
Y013277D01*
X025666Y012765D02*
X025991D01*
X024809D02*
Y013277D01*
Y012765D02*
X025134D01*
X028481Y017963D02*
X029606D01*
X028481Y018694D02*
X029606D01*
X021226Y011923D02*
Y012317D01*
X020674Y011923D02*
Y012317D01*
X021692Y012198D02*
X021928D01*
X021692Y013222D02*
X021928D01*
X023135Y012091D02*
Y012209D01*
X022565Y012091D02*
Y012209D01*
X024116Y016566D02*
X024354Y016788D01*
X024703Y016413D01*
X02349Y015982D02*
X023727Y016204D01*
X02349Y015982D02*
X023839Y015608D01*
X02538Y017523D02*
Y017917D01*
X02416Y017523D02*
Y017917D01*
X02538D01*
X02416Y017523D02*
X02538D01*
D12*
X018335Y016606D02*
G03*
X018335Y016606I-000059J0D01*
G01*
D13*
X020479Y018064D02*
X020952D01*
X018552D02*
X019679D01*
X020952Y014164D02*
Y018064D01*
X018552Y014164D02*
X020952D01*
X018552D02*
Y018064D01*
X021568Y013812D02*
X021868D01*
X021718D01*
Y014012D01*
X021568D01*
X021868D01*
X021668Y014112D02*
X021818D01*
X021868Y014162D01*
Y014312D01*
X021918D01*
X021968Y014262D01*
Y014212D01*
X021868Y014312D02*
X021668D01*
X021568Y014611D02*
X021868D01*
Y014462D01*
X021818Y014412D01*
X021718D01*
X021668Y014462D01*
Y014611D01*
Y014711D02*
X021868D01*
X021768D01*
X021718Y014761D01*
X021668Y014811D01*
Y014861D01*
X021868Y015061D02*
Y015161D01*
X021818Y015211D01*
X021718D01*
X021668Y015161D01*
Y015061D01*
X021718Y015011D01*
X021818D01*
X021868Y015061D01*
Y015311D02*
Y015461D01*
X021818Y015511D01*
X021768Y015461D01*
Y015361D01*
X021718Y015311D01*
X021668Y015361D01*
Y015511D01*
X021868Y015611D02*
X021668D01*
Y015661D01*
X021718Y015711D01*
X021868D01*
X021718D01*
X021668Y015761D01*
X021718Y015811D01*
X021868D01*
X021668Y015961D02*
Y016061D01*
X021718Y016111D01*
X021868D01*
Y015961D01*
X021818Y015911D01*
X021768Y015961D01*
Y016111D01*
X021668Y016211D02*
X021868D01*
X021768D01*
X021718Y016261D01*
X021668Y016311D01*
Y016361D01*
X021618Y016561D02*
X021668D01*
Y016511D01*
Y016611D01*
Y016561D01*
X021818D01*
X021868Y016611D01*
X021568Y017061D02*
Y017161D01*
Y017111D01*
X021868D01*
Y017061D01*
Y017161D01*
Y017311D02*
X021668D01*
Y017461D01*
X021718Y017511D01*
X021868D01*
X021668Y01781D02*
Y01766D01*
X021718Y01761D01*
X021818D01*
X021868Y01766D01*
Y01781D01*
Y01791D02*
X021818D01*
Y01796D01*
X021868D01*
Y01791D01*
X022447Y013812D02*
X022148D01*
Y013962D01*
X022198Y014012D01*
X022297D01*
X022347Y013962D01*
Y013812D01*
X022247Y014112D02*
X022447D01*
X022347D01*
X022297Y014162D01*
X022247Y014212D01*
Y014262D01*
X022447Y014462D02*
Y014561D01*
X022397Y014611D01*
X022297D01*
X022247Y014561D01*
Y014462D01*
X022297Y014412D01*
X022397D01*
X022447Y014462D01*
X022198Y014761D02*
X022247D01*
Y014711D01*
Y014811D01*
Y014761D01*
X022397D01*
X022447Y014811D01*
Y015011D02*
Y015111D01*
X022397Y015161D01*
X022297D01*
X022247Y015111D01*
Y015011D01*
X022297Y014961D01*
X022397D01*
X022447Y015011D01*
X022198Y015311D02*
X022247D01*
Y015261D01*
Y015361D01*
Y015311D01*
X022397D01*
X022447Y015361D01*
X022247Y015511D02*
X022397D01*
X022447Y015561D01*
Y015711D01*
X022497D01*
X022547Y015661D01*
Y015611D01*
X022447Y015711D02*
X022247D01*
X022547Y015811D02*
X022247D01*
Y015961D01*
X022297Y016011D01*
X022397D01*
X022447Y015961D01*
Y015811D01*
Y016261D02*
Y016161D01*
X022397Y016111D01*
X022297D01*
X022247Y016161D01*
Y016261D01*
X022297Y016311D01*
X022347D01*
Y016111D01*
X022447Y016711D02*
Y016811D01*
Y016761D01*
X022148D01*
X022198Y016711D01*
X022247Y017161D02*
Y017011D01*
X022297Y016961D01*
X022397D01*
X022447Y017011D01*
Y017161D01*
X022727Y013812D02*
X023027D01*
X022877D01*
X022827Y013862D01*
Y013962D01*
X022877Y014012D01*
X023027D01*
X022827Y014112D02*
X022977D01*
X023027Y014162D01*
Y014312D01*
X023077D01*
X023127Y014262D01*
Y014212D01*
X023027Y014312D02*
X022827D01*
X022727Y014611D02*
X023027D01*
Y014462D01*
X022977Y014412D01*
X022877D01*
X022827Y014462D01*
Y014611D01*
Y014711D02*
X023027D01*
X022927D01*
X022877Y014761D01*
X022827Y014811D01*
Y014861D01*
X023027Y015061D02*
Y015161D01*
X022977Y015211D01*
X022877D01*
X022827Y015161D01*
Y015061D01*
X022877Y015011D01*
X022977D01*
X023027Y015061D01*
Y015311D02*
Y015461D01*
X022977Y015511D01*
X022927Y015461D01*
Y015361D01*
X022877Y015311D01*
X022827Y015361D01*
Y015511D01*
X023027Y015611D02*
X022827D01*
Y015661D01*
X022877Y015711D01*
X023027D01*
X022877D01*
X022827Y015761D01*
X022877Y015811D01*
X023027D01*
X022827Y015961D02*
Y016061D01*
X022877Y016111D01*
X023027D01*
Y015961D01*
X022977Y015911D01*
X022927Y015961D01*
Y016111D01*
X022827Y016211D02*
X023027D01*
X022927D01*
X022877Y016261D01*
X022827Y016311D01*
Y016361D01*
X022777Y016561D02*
X022827D01*
Y016511D01*
Y016611D01*
Y016561D01*
X022977D01*
X023027Y016611D01*
Y016761D02*
X022977D01*
Y016811D01*
X023027D01*
Y016761D01*
X022777Y017061D02*
X022827D01*
Y017011D01*
Y017111D01*
Y017061D01*
X022977D01*
X023027Y017111D01*
Y017411D02*
Y017311D01*
X022977Y017261D01*
X022877D01*
X022827Y017311D01*
Y017411D01*
X022877Y017461D01*
X022927D01*
Y017261D01*
X022827Y01776D02*
Y01761D01*
X022877Y017561D01*
X022977D01*
X023027Y01761D01*
Y01776D01*
X022727Y01786D02*
X023027D01*
X022877D01*
X022827Y01791D01*
Y01801D01*
X022877Y01806D01*
X023027D01*
X025613Y01721D02*
Y01753D01*
X025773D01*
X025827Y017477D01*
Y01737D01*
X025773Y017317D01*
X025613D01*
X02572D02*
X025827Y01721D01*
X026147D02*
X025933D01*
X026147Y017423D01*
Y017477D01*
X026093Y01753D01*
X025987D01*
X025933Y017477D01*
X024963Y01626D02*
Y01658D01*
X025123D01*
X025177Y016527D01*
Y01642D01*
X025123Y016367D01*
X024963D01*
X02507D02*
X025177Y01626D01*
X025283Y016527D02*
X025337Y01658D01*
X025443D01*
X025497Y016527D01*
Y016473D01*
X025443Y01642D01*
X02539D01*
X025443D01*
X025497Y016367D01*
Y016313D01*
X025443Y01626D01*
X025337D01*
X025283Y016313D01*
D14*
X02588Y016881D02*
Y017059D01*
Y016331D02*
Y016509D01*
X022508Y013132D02*
X022685D01*
X03042Y013631D02*
Y013809D01*
X02793Y017971D02*
Y018149D01*
D15*
X03214Y01403D02*
Y0159D01*
X026628Y01777D02*
X03214D01*
X026628Y01403D02*
Y01777D01*
Y01403D02*
X03214D01*
Y0159D02*
Y01777D01*
D16*
X028003Y01868D02*
X027951Y018732D01*
X027846D01*
X027793Y01868D01*
Y01847D01*
X027846Y018417D01*
X027951D01*
X028003Y01847D01*
X028108Y01868D02*
X028161Y018732D01*
X028266D01*
X028318Y01868D01*
Y018627D01*
X028266Y018575D01*
X028213D01*
X028266D01*
X028318Y018522D01*
Y01847D01*
X028266Y018417D01*
X028161D01*
X028108Y01847D01*
X029772Y018604D02*
Y018211D01*
X030034D01*
X030428D02*
X030165D01*
X030428Y018473D01*
Y018539D01*
X030362Y018604D01*
X030231D01*
X030165Y018539D01*
X029768Y013155D02*
X029703Y01322D01*
X029572D01*
X029506Y013155D01*
Y012892D01*
X029572Y012827D01*
X029703D01*
X029768Y012892D01*
X030096Y012827D02*
Y01322D01*
X0299Y013023D01*
X030162D01*
X027301Y013437D02*
Y01383D01*
X027432Y013699D01*
X027564Y01383D01*
Y013437D01*
X027695D02*
X027826D01*
X02776D01*
Y01383D01*
X027695Y013765D01*
X025559Y018348D02*
Y018283D01*
X02569Y018151D01*
X025822Y018283D01*
Y018348D01*
X02569Y018151D02*
Y017955D01*
X025953D02*
X026084D01*
X026018D01*
Y018348D01*
X025953Y018283D01*
X019719Y013968D02*
X019588D01*
X019654D01*
Y01364D01*
X019588Y013575D01*
X019522D01*
X019457Y01364D01*
X01985Y013575D02*
X019982D01*
X019916D01*
Y013968D01*
X01985Y013903D01*
X023886Y014943D02*
Y014615D01*
X023951Y014549D01*
X024083D01*
X024148Y014615D01*
Y014943D01*
X024279Y014877D02*
X024345Y014943D01*
X024476D01*
X024542Y014877D01*
Y014812D01*
X024476Y014746D01*
X024411D01*
X024476D01*
X024542Y01468D01*
Y014615D01*
X024476Y014549D01*
X024345D01*
X024279Y014615D01*
X024122Y013053D02*
X02445D01*
X024516Y013119D01*
Y01325D01*
X02445Y013315D01*
X024122D01*
X024516Y013643D02*
X024122D01*
X024319Y013447D01*
Y013709D01*
X023591Y017207D02*
Y017338D01*
Y017272D01*
X023984D01*
Y017207D01*
Y017338D01*
X023656Y017797D02*
X023591Y017731D01*
Y0176D01*
X023656Y017535D01*
X023919D01*
X023984Y0176D01*
Y017731D01*
X023919Y017797D01*
X023984Y017928D02*
Y018059D01*
Y017994D01*
X023591D01*
X023656Y017928D01*
X023361Y011908D02*
X023295Y011842D01*
Y011711D01*
X023361Y011646D01*
X023623D01*
X023689Y011711D01*
Y011842D01*
X023623Y011908D01*
X023689Y012039D02*
Y01217D01*
Y012105D01*
X023295D01*
X023361Y012039D01*
X023276Y012984D02*
X022882D01*
Y013181D01*
X022948Y013247D01*
X023079D01*
X023144Y013181D01*
Y012984D01*
Y013115D02*
X023276Y013247D01*
Y013378D02*
Y013509D01*
Y013443D01*
X022882D01*
X022948Y013378D01*
X021573Y012019D02*
Y011691D01*
X021639Y011626D01*
X02177D01*
X021835Y011691D01*
Y012019D01*
X021966Y011626D02*
X022098D01*
X022032D01*
Y012019D01*
X021966Y011954D01*
X020398Y012941D02*
X020333Y012876D01*
Y012745D01*
X020398Y012679D01*
X020661D01*
X020726Y012745D01*
Y012876D01*
X020661Y012941D01*
X020726Y013335D02*
Y013073D01*
X020464Y013335D01*
X020398D01*
X020333Y013269D01*
Y013138D01*
X020398Y013073D01*
M02*
