G04*
G04 #@! TF.GenerationSoftware,Altium Limited,Altium Designer,25.4.2 (15)*
G04*
G04 Layer_Physical_Order=2*
G04 Layer_Color=32768*
%FSTAX24Y24*%
%MOIN*%
G70*
G04*
G04 #@! TF.SameCoordinates,E8C35838-7A26-4AB5-A82F-FF47F1EBD12F*
G04*
G04*
G04 #@! TF.FilePolarity,Negative*
G04*
G01*
G75*
%ADD32C,0.0320*%
%ADD49C,0.0400*%
%ADD50C,0.0590*%
%ADD51C,0.0594*%
G36*
X03071Y01892D02*
Y01023D01*
X0327D01*
Y01892D01*
X03071D01*
D02*
G37*
D32*
X021169Y015878D02*
D03*
X020677Y016724D02*
D03*
X020638Y016262D02*
D03*
X01863Y01612D02*
D03*
Y01712D02*
D03*
X01861Y01662D02*
D03*
X01983Y01712D02*
D03*
X025703Y017297D02*
D03*
X025149Y01676D02*
D03*
X027291Y016468D02*
D03*
X02972Y01371D02*
D03*
X030538Y013358D02*
D03*
X027812Y018342D02*
D03*
X024246Y01516D02*
D03*
X029994Y013354D02*
D03*
X02808Y01385D02*
D03*
X029443Y017277D02*
D03*
X020018Y013033D02*
D03*
X020028Y012689D02*
D03*
X020254Y012384D02*
D03*
X023394Y012502D02*
D03*
X023787D02*
D03*
X024396Y01759D02*
D03*
X026051Y012748D02*
D03*
D49*
X01863Y01887D02*
G03*
X032114Y01887I006742J-00254D01*
G01*
X01863D02*
X032114D01*
D50*
X01918Y01762D02*
D03*
X01878Y01562D02*
D03*
X01958D02*
D03*
D51*
X022079Y018408D02*
D03*
X021079D02*
D03*
M02*
