G04*
G04 #@! TF.GenerationSoftware,Altium Limited,Altium Designer,25.4.2 (15)*
G04*
G04 Layer_Color=255*
%FSTAX24Y24*%
%MOIN*%
G70*
G04*
G04 #@! TF.SameCoordinates,5CE265F0-7D9D-4DF0-BE37-BCC977853A71*
G04*
G04*
G04 #@! TF.FilePolarity,Positive*
G04*
G01*
G75*
%ADD17R,0.0197X0.0197*%
%ADD18R,0.0197X0.0197*%
%ADD19C,0.0300*%
%ADD20R,0.0217X0.0315*%
%ADD21R,0.0394X0.0709*%
%ADD22R,0.0157X0.0197*%
%ADD23R,0.0197X0.0157*%
%ADD24R,0.0475X0.0417*%
%ADD25R,0.0236X0.0177*%
%ADD26R,0.0236X0.0098*%
%ADD27R,0.0236X0.0110*%
%ADD28R,0.0413X0.0315*%
G04:AMPARAMS|DCode=29|XSize=21.7mil|YSize=31.5mil|CornerRadius=0mil|HoleSize=0mil|Usage=FLASHONLY|Rotation=223.000|XOffset=0mil|YOffset=0mil|HoleType=Round|Shape=Rectangle|*
%AMROTATEDRECTD29*
4,1,4,-0.0028,0.0189,0.0187,-0.0041,0.0028,-0.0189,-0.0187,0.0041,-0.0028,0.0189,0.0*
%
%ADD29ROTATEDRECTD29*%

%ADD30R,0.0236X0.0433*%
%ADD45C,0.0310*%
%ADD49C,0.0630*%
%ADD50C,0.0390*%
D17*
X025703Y01697D02*
D03*
X026057D02*
D03*
X025703Y01642D02*
D03*
X026057D02*
D03*
X030243Y01372D02*
D03*
X030597D02*
D03*
X027753Y01806D02*
D03*
X028107D02*
D03*
D18*
X022597Y012955D02*
D03*
Y013309D02*
D03*
D19*
X02521Y015206D02*
D03*
X0278Y0128D02*
D03*
X02825D02*
D03*
X0252Y01563D02*
D03*
D20*
X025026Y013592D02*
D03*
X025774D02*
D03*
X0254Y012608D02*
D03*
D21*
X026388Y01819D02*
D03*
X027372D02*
D03*
D22*
X030546Y017573D02*
D03*
X028065D02*
D03*
X02779D02*
D03*
X030427Y014581D02*
D03*
X029168Y014227D02*
D03*
X029443D02*
D03*
X027514Y017573D02*
D03*
X028065Y014227D02*
D03*
X028341Y017573D02*
D03*
X028616D02*
D03*
X028892D02*
D03*
X029168D02*
D03*
X029443D02*
D03*
X030546Y014227D02*
D03*
X03027D02*
D03*
X028892D02*
D03*
X028616D02*
D03*
X027238D02*
D03*
X029994Y017573D02*
D03*
X029719D02*
D03*
Y014227D02*
D03*
X029994D02*
D03*
X030112Y014581D02*
D03*
X03027Y017573D02*
D03*
X027238D02*
D03*
X027514Y014227D02*
D03*
X028341D02*
D03*
X02779D02*
D03*
D23*
X026825Y017554D02*
D03*
Y014246D02*
D03*
Y014522D02*
D03*
Y017278D02*
D03*
Y017002D02*
D03*
Y016451D02*
D03*
Y016176D02*
D03*
Y0159D02*
D03*
Y015624D02*
D03*
Y015073D02*
D03*
Y014798D02*
D03*
Y015349D02*
D03*
Y016727D02*
D03*
D24*
X029369Y018329D02*
D03*
X028718D02*
D03*
D25*
X02095Y011933D02*
D03*
Y012307D02*
D03*
D26*
X022164Y013104D02*
D03*
Y012907D02*
D03*
X021456Y01271D02*
D03*
Y012513D02*
D03*
Y012316D02*
D03*
X022164Y012513D02*
D03*
Y01271D02*
D03*
X021456Y012907D02*
D03*
Y013104D02*
D03*
D27*
X022164Y01231D02*
D03*
D28*
X02285Y011786D02*
D03*
Y012514D02*
D03*
D29*
X024759Y016035D02*
D03*
X024212Y015525D02*
D03*
X023814Y0165D02*
D03*
D30*
X025144Y018271D02*
D03*
X02477D02*
D03*
X024396D02*
D03*
Y017169D02*
D03*
X025144D02*
D03*
D45*
X020002Y015614D02*
D03*
X019502D02*
D03*
X020002Y016114D02*
D03*
X019502D02*
D03*
X020002Y016614D02*
D03*
X019502D02*
D03*
D49*
X022079Y018408D02*
D03*
X021079D02*
D03*
X020079D02*
D03*
D50*
X019352Y015114D02*
D03*
X020152D02*
D03*
X019752Y017114D02*
D03*
M02*
