M48
;Layer_Color=9474304
;FILE_FORMAT=2:4
INCH,LZ
;TYPE=PLATED
T01F00S00C0.0120
T02F00S00C0.0320
;TYPE=NON_PLATED
T03F00S00C0.0400
T04F00S00C0.0400
%
T01
X02088Y01119
X02113
X02213
Y01244
X02151Y01245
X021153Y012187
X02088Y01244
X02005Y0128
X02088Y01369
X02338
X02417Y01373
X02422Y01494
X02338
X02213
X023332Y012445
X023683Y011837
X023735Y011108
X02463Y01119
X025534Y011434
X02588Y01244
X02625Y01311
X02674Y01377
X02713Y01369
Y01494
X02838
X02973Y0146
X02972Y01371
X02973Y01307
X0297Y01239
X02838Y01244
Y01119
X02753Y01136
X02713Y01244
X0249Y0123
X02463Y01244
Y00994
X02588
X02713
X02338
X02342Y01679
X02338Y01744
X02463
X02536Y01791
X02404Y01821
X02145Y01826
X02088Y01744
X02213
Y01619
X01963
Y01744
X01954Y01823
X024479Y015861
X02568Y01585
X02616Y01586
X02713Y01619
X02769Y01604
X02838Y01619
X02806Y01686
X02765Y01717
X02731Y01686
X02641Y017196
X03045Y01806
T02
X019524Y01887
X020024
X020524
X021024
X021524
X022524
X023024
X023524
X024024
X024524
T03
X022024Y01828
T04
X019024Y01887
M30
