G04*
G04 #@! TF.GenerationSoftware,Altium Limited,Altium Designer,25.4.2 (15)*
G04*
G04 Layer_Color=65535*
%FSTAX24Y24*%
%MOIN*%
G70*
G04*
G04 #@! TF.SameCoordinates,F4185BB4-0936-4B88-B031-81E5C399A6D0*
G04*
G04*
G04 #@! TF.FilePolarity,Positive*
G04*
G01*
G75*
%ADD10C,0.0098*%
%ADD11C,0.0039*%
%ADD12C,0.0079*%
%ADD13C,0.0059*%
%ADD14C,0.0050*%
D10*
X036621Y030531D02*
G03*
X036621Y030531I-000049J0D01*
G01*
X038578Y029972D02*
G03*
X038578Y029972I-000049J0D01*
G01*
D11*
X046869Y03508D02*
G03*
X04683Y03508I-00002J0D01*
G01*
Y03507D02*
G03*
X046869Y03507I00002J0D01*
G01*
D12*
X03508Y02851D02*
G03*
X035119Y02851I00002J0D01*
G01*
D02*
G03*
X03508Y02851I-00002J0D01*
G01*
D02*
G03*
X035119Y02851I00002J0D01*
G01*
X035745Y030639D02*
X036257D01*
X035745D02*
Y030964D01*
Y031821D02*
X036257D01*
X035745Y031496D02*
Y031821D01*
X038421Y029145D02*
Y029657D01*
X038096Y029145D02*
X038421D01*
X037239D02*
Y029657D01*
Y029145D02*
X037564D01*
X049206Y029603D02*
X049641D01*
X049206Y030077D02*
X049641D01*
X041511Y031142D02*
Y031398D01*
X040369Y031142D02*
X041511D01*
X040369D02*
Y031398D01*
X041511D01*
X041531Y031536D02*
Y031988D01*
X034261Y028305D02*
X034379D01*
X034261Y027735D02*
X034379D01*
X036266Y027754D02*
X03666D01*
X036266Y028306D02*
X03666D01*
X035392Y027318D02*
X035628D01*
X035392Y028342D02*
X035628D01*
D13*
X05116Y03199D02*
Y03386D01*
X045648Y03012D02*
X05116D01*
X045648D02*
Y03386D01*
X05116D01*
Y03012D02*
Y03199D01*
D14*
X04949Y034657D02*
X04929D01*
Y034523D01*
Y034323D02*
Y034457D01*
X049423Y034323D01*
X049457D01*
X04949Y034357D01*
Y034423D01*
X049457Y034457D01*
X050037Y029863D02*
X05007Y029897D01*
Y029963D01*
X050037Y029997D01*
X049903D01*
X04987Y029963D01*
Y029897D01*
X049903Y029863D01*
X04987Y029697D02*
X05007D01*
X04997Y029797D01*
Y029663D01*
X047287Y035007D02*
X047253Y03504D01*
X047187D01*
X047153Y035007D01*
Y034873D01*
X047187Y03484D01*
X047253D01*
X047287Y034873D01*
X047353Y035007D02*
X047387Y03504D01*
X047453D01*
X047487Y035007D01*
Y034973D01*
X047453Y03494D01*
X04742D01*
X047453D01*
X047487Y034907D01*
Y034873D01*
X047453Y03484D01*
X047387D01*
X047353Y034873D01*
X045687Y03514D02*
Y035107D01*
X045753Y03504D01*
X04582Y035107D01*
Y03514D01*
X045753Y03504D02*
Y03494D01*
X045887D02*
X045953D01*
X04592D01*
Y03514D01*
X045887Y035107D01*
X035903Y03217D02*
Y032003D01*
X035937Y03197D01*
X036003D01*
X036037Y032003D01*
Y03217D01*
X036203Y03197D02*
Y03217D01*
X036103Y03207D01*
X036237D01*
X037663Y03048D02*
Y030313D01*
X037697Y03028D01*
X037763D01*
X037797Y030313D01*
Y03048D01*
X037863Y030447D02*
X037897Y03048D01*
X037963D01*
X037997Y030447D01*
Y030413D01*
X037963Y03038D01*
X03793D01*
X037963D01*
X037997Y030347D01*
Y030313D01*
X037963Y03028D01*
X037897D01*
X037863Y030313D01*
X035377Y02867D02*
Y028503D01*
X03541Y02847D01*
X035477D01*
X03551Y028503D01*
Y02867D01*
X035577Y02847D02*
X035643D01*
X03561D01*
Y02867D01*
X035577Y028637D01*
X034507Y0271D02*
Y0273D01*
X034607D01*
X03464Y027267D01*
Y0272D01*
X034607Y027167D01*
X034507D01*
X034573D02*
X03464Y0271D01*
X034707D02*
X034773D01*
X03474D01*
Y0273D01*
X034707Y027267D01*
X050417Y03404D02*
Y03424D01*
X050483Y034173D01*
X05055Y03424D01*
Y03404D01*
X050617D02*
X050683D01*
X05065D01*
Y03424D01*
X050617Y034207D01*
X040733Y03037D02*
X0408D01*
X040767D01*
Y03017D01*
X040733D01*
X0408D01*
X041033Y030337D02*
X041Y03037D01*
X040933D01*
X0409Y030337D01*
Y030203D01*
X040933Y03017D01*
X041D01*
X041033Y030203D01*
X0411Y03017D02*
X041167D01*
X041133D01*
Y03037D01*
X0411Y030337D01*
X036447Y027577D02*
X036413Y02761D01*
X036347D01*
X036313Y027577D01*
Y027443D01*
X036347Y02741D01*
X036413D01*
X036447Y027443D01*
X036647Y02741D02*
X036513D01*
X036647Y027543D01*
Y027577D01*
X036613Y02761D01*
X036547D01*
X036513Y027577D01*
X03431Y028657D02*
X034277Y02869D01*
X03421D01*
X034177Y028657D01*
Y028523D01*
X03421Y02849D01*
X034277D01*
X03431Y028523D01*
X034377Y02849D02*
X034443D01*
X03441D01*
Y02869D01*
X034377Y028657D01*
M02*
