G04*
G04 #@! TF.GenerationSoftware,Altium Limited,Altium Designer,25.4.2 (15)*
G04*
G04 Layer_Physical_Order=3*
G04 Layer_Color=36540*
%FSTAX24Y24*%
%MOIN*%
G70*
G04*
G04 #@! TF.SameCoordinates,F4185BB4-0936-4B88-B031-81E5C399A6D0*
G04*
G04*
G04 #@! TF.FilePolarity,Positive*
G04*
G01*
G75*
%ADD42C,0.0080*%
%ADD45C,0.0250*%
%ADD46C,0.0200*%
G36*
X04226Y035151D02*
Y03515D01*
X042516D01*
X042517Y035151D01*
X044965Y035151D01*
X044965Y03515D01*
X045222D01*
X045222Y035151D01*
X049667Y03515D01*
Y033306D01*
X049587Y033272D01*
X049556Y033304D01*
X049481Y033335D01*
X049399D01*
X049324Y033304D01*
X049266Y033246D01*
X049235Y033171D01*
Y033089D01*
X049266Y033014D01*
X049324Y032956D01*
X049399Y032925D01*
X049481D01*
X049556Y032956D01*
X049587Y032988D01*
X049667Y032954D01*
Y02914D01*
X049611Y029084D01*
X045218Y029086D01*
Y032848D01*
X04523Y032859D01*
X045241Y032866D01*
X045292Y032887D01*
X045348Y032831D01*
Y02974D01*
X045357Y029693D01*
X045383Y029653D01*
X045404Y029633D01*
X045376Y029606D01*
X045345Y029531D01*
Y029449D01*
X045376Y029374D01*
X045434Y029316D01*
X045509Y029285D01*
X045591D01*
X045666Y029316D01*
X045724Y029374D01*
X04574Y029414D01*
X045829Y029438D01*
X045854Y029413D01*
X045893Y029387D01*
X04594Y029378D01*
X046102D01*
X046154Y029326D01*
X046229Y029295D01*
X046311D01*
X046386Y029326D01*
X046444Y029384D01*
X046475Y029459D01*
Y029541D01*
X046444Y029616D01*
X046386Y029674D01*
X046311Y029705D01*
X046311D01*
X046306Y029705D01*
X046241Y029719D01*
Y029801D01*
X04621Y029876D01*
X046152Y029934D01*
X046077Y029965D01*
X045995D01*
X04599Y029963D01*
X045914Y030039D01*
Y030713D01*
X045994Y030737D01*
X046022Y030718D01*
X046069Y030709D01*
X046951D01*
X046994Y030666D01*
X047069Y030635D01*
X047151D01*
X047226Y030666D01*
X047284Y030724D01*
X047315Y030799D01*
Y030881D01*
X047284Y030956D01*
X047226Y031014D01*
X047151Y031045D01*
X047069D01*
X046994Y031014D01*
X046936Y030956D01*
X046935Y030954D01*
X046119D01*
X046079Y030994D01*
Y031551D01*
X046158Y031578D01*
X046197Y03154D01*
X046273Y031508D01*
X046354D01*
X046429Y03154D01*
X046487Y031597D01*
X046518Y031673D01*
Y031754D01*
X046487Y031829D01*
X046464Y031852D01*
X046481Y031946D01*
X046506Y031956D01*
X046564Y032014D01*
X046595Y032089D01*
Y032171D01*
X046564Y032246D01*
X046554Y032256D01*
X046587Y032336D01*
X046591D01*
X046666Y032367D01*
X046724Y032425D01*
X046755Y0325D01*
Y032551D01*
X046768Y03259D01*
X046824Y032625D01*
X046861D01*
X046936Y032656D01*
X046948Y032668D01*
X047016Y032623D01*
X047015Y032621D01*
Y032539D01*
X047046Y032464D01*
X047047Y032463D01*
X047114Y032531D01*
X047171Y032474D01*
X047103Y032407D01*
X047104Y032406D01*
X047179Y032375D01*
X047261D01*
X047336Y032406D01*
X04739Y03246D01*
X047434Y032416D01*
X047509Y032385D01*
X047591D01*
X047666Y032416D01*
X047724Y032474D01*
X047755Y032549D01*
Y032631D01*
X047724Y032706D01*
X047666Y032764D01*
X047633Y032778D01*
X047649Y032858D01*
X047782D01*
X047834Y032806D01*
X047909Y032775D01*
X047991D01*
X048066Y032806D01*
X048124Y032864D01*
X048155Y032939D01*
Y033021D01*
X048124Y033096D01*
X048066Y033154D01*
X047991Y033185D01*
X047909D01*
X047834Y033154D01*
X047782Y033102D01*
X047365D01*
X045991Y034477D01*
X045951Y034503D01*
X045926Y034508D01*
X045897Y034537D01*
X045857Y034563D01*
X045811Y034572D01*
X041122D01*
X041104Y034616D01*
X041046Y034674D01*
X040971Y034705D01*
X040889D01*
X040814Y034674D01*
X040756Y034616D01*
X040725Y034541D01*
Y034459D01*
X040734Y034439D01*
X040717Y034411D01*
X040676Y034369D01*
X040611D01*
X040535Y034338D01*
X040478Y03428D01*
X040465Y03425D01*
X040427Y034206D01*
X040369Y03421D01*
X040338Y034223D01*
X040257D01*
X040255Y034222D01*
X040153Y034258D01*
X040096Y034316D01*
X04002Y034347D01*
X039939D01*
X039908Y034335D01*
X039843Y034342D01*
X039815Y034376D01*
X039797Y034418D01*
X03974Y034476D01*
X039664Y034507D01*
X039583D01*
X039507Y034476D01*
X03945Y034418D01*
X039418Y034343D01*
Y034262D01*
X03945Y034186D01*
X039501Y034135D01*
Y033801D01*
X03951Y033754D01*
X039537Y033714D01*
X039854Y033397D01*
X039894Y03337D01*
X039941Y033361D01*
X040903D01*
X040934Y033287D01*
X040711Y033065D01*
X040711Y033065D01*
X040629D01*
X040554Y033034D01*
X040496Y032976D01*
X040465Y032901D01*
Y032819D01*
X040496Y032744D01*
X040554Y032686D01*
X040629Y032655D01*
X040711D01*
X040786Y032686D01*
X04082Y03272D01*
X04087Y032736D01*
X04092Y03272D01*
X040954Y032686D01*
X041029Y032655D01*
X041111D01*
X041186Y032686D01*
X04123Y03273D01*
X041284Y032676D01*
X041359Y032645D01*
X041441D01*
X041516Y032676D01*
X04157Y03273D01*
X041624Y032676D01*
X041699Y032645D01*
X041781D01*
X041856Y032676D01*
X041914Y032734D01*
X041945Y032809D01*
Y032891D01*
X041915Y032964D01*
X04192Y032977D01*
X041955Y033038D01*
X04226D01*
X04226Y032851D01*
X04226Y032851D01*
X04226Y032848D01*
Y032726D01*
X042261Y032724D01*
X042261Y032722D01*
X042264Y032706D01*
X042267Y03269D01*
X042267Y03269D01*
X042268Y032689D01*
X042268Y032687D01*
X042268Y032687D01*
X042268Y032687D01*
X042269Y032686D01*
X042269Y032684D01*
X042279Y032671D01*
X042288Y032657D01*
X042289Y032656D01*
X04229Y032655D01*
X04229Y032655D01*
X04229Y032655D01*
X042291Y032654D01*
X042292Y032652D01*
X042306Y032644D01*
X042319Y032634D01*
X042321Y032634D01*
X042322Y032633D01*
X042322Y032633D01*
X042322Y032633D01*
X042324Y032633D01*
X042326Y032632D01*
X042326Y032632D01*
X042342Y032629D01*
X042357Y032625D01*
X042359Y032626D01*
X042361Y032625D01*
X044461Y032623D01*
X044461Y030126D01*
X044376Y029908D01*
X04416Y02945D01*
X043912Y029008D01*
X043634Y028586D01*
X043326Y028184D01*
X04299Y027806D01*
X042628Y027452D01*
X042242Y027124D01*
X041833Y026825D01*
X041404Y026556D01*
X040958Y026318D01*
X040495Y026113D01*
X040019Y025941D01*
X039532Y025803D01*
X039037Y0257D01*
X038535Y025633D01*
X03803Y025601D01*
X037523Y025606D01*
X037019Y025646D01*
X036519Y025722D01*
X036025Y025834D01*
X03554Y025981D01*
X035067Y026161D01*
X034609Y026375D01*
X034166Y026621D01*
X033742Y026898D01*
X033339Y027204D01*
X032959Y027538D01*
X032604Y027898D01*
X032275Y028283D01*
X031974Y02869D01*
X031703Y029117D01*
X031463Y029563D01*
X031255Y030025D01*
X031081Y0305D01*
X030941Y030986D01*
X030835Y031481D01*
X030766Y031983D01*
X030732Y032488D01*
X030734Y032994D01*
X030772Y033499D01*
X030846Y034D01*
X030956Y034494D01*
X0311Y034979D01*
X031167Y035152D01*
X04226Y035151D01*
D02*
G37*
%LPC*%
G36*
X046371Y034985D02*
X046289D01*
X046214Y034954D01*
X046156Y034896D01*
X046125Y034821D01*
Y034739D01*
X046156Y034664D01*
X046214Y034606D01*
X046289Y034575D01*
X046371D01*
X046446Y034606D01*
X046504Y034664D01*
X046535Y034739D01*
Y034821D01*
X046504Y034896D01*
X046446Y034954D01*
X046371Y034985D01*
D02*
G37*
G36*
X037521Y033035D02*
X037439D01*
X037364Y033004D01*
X037306Y032946D01*
X037275Y032871D01*
Y032789D01*
X037306Y032714D01*
X037364Y032656D01*
X037439Y032625D01*
X037521D01*
X037596Y032656D01*
X037654Y032714D01*
X037685Y032789D01*
Y032871D01*
X037654Y032946D01*
X037596Y033004D01*
X037521Y033035D01*
D02*
G37*
G36*
X039811Y031165D02*
X039729D01*
X039654Y031134D01*
X039596Y031076D01*
X039565Y031001D01*
Y030919D01*
X039596Y030844D01*
X039654Y030786D01*
X039729Y030755D01*
X039811D01*
X039886Y030786D01*
X039944Y030844D01*
X039975Y030919D01*
Y031001D01*
X039944Y031076D01*
X039886Y031134D01*
X039811Y031165D01*
D02*
G37*
G36*
X034961Y031035D02*
X034879D01*
X034804Y031004D01*
X034746Y030946D01*
X034715Y030871D01*
Y030789D01*
X034746Y030714D01*
X034804Y030656D01*
X034879Y030625D01*
X034961D01*
X035036Y030656D01*
X035094Y030714D01*
X035125Y030789D01*
Y030871D01*
X035094Y030946D01*
X035036Y031004D01*
X034961Y031035D01*
D02*
G37*
G36*
X035381Y030255D02*
X035299D01*
X035224Y030224D01*
X035223Y030223D01*
X035291Y030156D01*
X035234Y030099D01*
X035167Y030167D01*
X035166Y030166D01*
X035135Y030091D01*
Y030009D01*
X035166Y029934D01*
X035167Y029933D01*
X035234Y030001D01*
X035291Y029944D01*
X035223Y029877D01*
X035224Y029876D01*
X035299Y029845D01*
X035381D01*
X035456Y029876D01*
X035457Y029877D01*
X035389Y029944D01*
X035446Y030001D01*
X035513Y029933D01*
X035514Y029934D01*
X035545Y030009D01*
Y030091D01*
X035514Y030166D01*
X035513Y030167D01*
X035446Y030099D01*
X035389Y030156D01*
X035457Y030223D01*
X035456Y030224D01*
X035381Y030255D01*
D02*
G37*
G36*
X039931Y030195D02*
X039849D01*
X039774Y030164D01*
X039773Y030163D01*
X039841Y030096D01*
X039784Y030039D01*
X039717Y030107D01*
X039716Y030106D01*
X039685Y030031D01*
Y029949D01*
X039716Y029874D01*
X039717Y029873D01*
X039784Y029941D01*
X039841Y029884D01*
X039773Y029817D01*
X039774Y029816D01*
X039849Y029785D01*
X039931D01*
X040006Y029816D01*
X040007Y029817D01*
X039939Y029884D01*
X039996Y029941D01*
X040063Y029873D01*
X040064Y029874D01*
X040095Y029949D01*
Y030031D01*
X040064Y030106D01*
X040063Y030107D01*
X039996Y030039D01*
X039939Y030096D01*
X040007Y030163D01*
X040006Y030164D01*
X039931Y030195D01*
D02*
G37*
G36*
X046881Y030215D02*
X046799D01*
X046724Y030184D01*
X046666Y030126D01*
X046635Y030051D01*
Y029969D01*
X046666Y029894D01*
X046724Y029836D01*
X046799Y029805D01*
X046881D01*
X046956Y029836D01*
X047014Y029894D01*
X047045Y029969D01*
Y030051D01*
X047014Y030126D01*
X046956Y030184D01*
X046881Y030215D01*
D02*
G37*
G36*
X049022Y029725D02*
X04894D01*
X048865Y029694D01*
X048807Y029636D01*
X048776Y029561D01*
Y029479D01*
X048807Y029404D01*
X048865Y029346D01*
X04894Y029315D01*
X049022D01*
X049097Y029346D01*
X049155Y029404D01*
X049186Y029479D01*
Y029561D01*
X049155Y029636D01*
X049097Y029694D01*
X049022Y029725D01*
D02*
G37*
G36*
X034921Y029135D02*
X034839D01*
X034764Y029104D01*
X034763Y029103D01*
X034831Y029036D01*
X034774Y028979D01*
X034707Y029047D01*
X034706Y029046D01*
X034675Y028971D01*
Y028889D01*
X034706Y028814D01*
X034707Y028813D01*
X034774Y028881D01*
X034831Y028824D01*
X034763Y028757D01*
X034764Y028756D01*
X034839Y028725D01*
X034921D01*
X034996Y028756D01*
X034997Y028757D01*
X034929Y028824D01*
X034986Y028881D01*
X035053Y028813D01*
X035054Y028814D01*
X035085Y028889D01*
Y028971D01*
X035054Y029046D01*
X035053Y029047D01*
X034986Y028979D01*
X034929Y029036D01*
X034997Y029103D01*
X034996Y029104D01*
X034921Y029135D01*
D02*
G37*
G36*
X040541Y030105D02*
X040459D01*
X040384Y030074D01*
X040326Y030016D01*
X040295Y029941D01*
Y029859D01*
X040326Y029784D01*
X040384Y029726D01*
X04041Y029716D01*
X040394Y029636D01*
X037052D01*
X036982Y029622D01*
X036922Y029582D01*
X036046Y028705D01*
X035994Y028684D01*
X035936Y028626D01*
X035905Y028551D01*
Y028469D01*
X035936Y028394D01*
X035994Y028336D01*
X036069Y028305D01*
X036151D01*
X036226Y028336D01*
X036284Y028394D01*
X036305Y028446D01*
X037128Y029269D01*
X038481D01*
X038522Y029189D01*
X038502Y02914D01*
Y029059D01*
X038533Y028983D01*
X038591Y028926D01*
X038666Y028895D01*
X038747D01*
X038823Y028926D01*
X038881Y028983D01*
X038912Y029059D01*
Y02914D01*
X038892Y029189D01*
X038932Y029269D01*
X042162D01*
X042232Y029282D01*
X042292Y029322D01*
X042374Y029405D01*
X042426Y029426D01*
X042484Y029484D01*
X042515Y029559D01*
Y029641D01*
X042484Y029716D01*
X042426Y029774D01*
X042351Y029805D01*
X042269D01*
X042194Y029774D01*
X042136Y029716D01*
X042115Y029664D01*
X042086Y029636D01*
X040606D01*
X04059Y029716D01*
X040616Y029726D01*
X040674Y029784D01*
X040705Y029859D01*
Y029941D01*
X040674Y030016D01*
X040616Y030074D01*
X040541Y030105D01*
D02*
G37*
G36*
X039151Y028915D02*
X039069D01*
X038994Y028884D01*
X038993Y028883D01*
X039061Y028816D01*
X039004Y028759D01*
X038937Y028827D01*
X038936Y028826D01*
X038905Y028751D01*
Y028669D01*
X038936Y028594D01*
X038937Y028593D01*
X039004Y028661D01*
X039061Y028604D01*
X038993Y028537D01*
X038994Y028536D01*
X039069Y028505D01*
X039151D01*
X039226Y028536D01*
X039227Y028537D01*
X039159Y028604D01*
X039216Y028661D01*
X039283Y028593D01*
X039284Y028594D01*
X039315Y028669D01*
Y028751D01*
X039284Y028826D01*
X039283Y028827D01*
X039216Y028759D01*
X039159Y028816D01*
X039227Y028883D01*
X039226Y028884D01*
X039151Y028915D01*
D02*
G37*
G36*
X040956Y028335D02*
X040884D01*
X040814Y028316D01*
X040751Y02828D01*
X0407Y028229D01*
X040664Y028166D01*
X040645Y028096D01*
Y028024D01*
X040664Y027954D01*
X0407Y027891D01*
X040751Y02784D01*
X040814Y027804D01*
X040884Y027785D01*
X040956D01*
X041026Y027804D01*
X041089Y02784D01*
X04114Y027891D01*
X041176Y027954D01*
X041195Y028024D01*
Y028096D01*
X041176Y028166D01*
X04114Y028229D01*
X041089Y02828D01*
X041026Y028316D01*
X040956Y028335D01*
D02*
G37*
G36*
X037956Y027935D02*
X037884D01*
X037814Y027916D01*
X037751Y02788D01*
X0377Y027829D01*
X037664Y027766D01*
X037645Y027696D01*
Y027624D01*
X037664Y027554D01*
X0377Y027491D01*
X037751Y02744D01*
X037814Y027404D01*
X037884Y027385D01*
X037956D01*
X038026Y027404D01*
X038089Y02744D01*
X03814Y027491D01*
X038176Y027554D01*
X038195Y027624D01*
Y027696D01*
X038176Y027766D01*
X03814Y027829D01*
X038089Y02788D01*
X038026Y027916D01*
X037956Y027935D01*
D02*
G37*
G36*
X040956Y027535D02*
X040884D01*
X040814Y027516D01*
X040751Y02748D01*
X0407Y027429D01*
X040664Y027366D01*
X040645Y027296D01*
Y027224D01*
X040664Y027154D01*
X0407Y027091D01*
X040751Y02704D01*
X040814Y027004D01*
X040884Y026985D01*
X040956D01*
X041026Y027004D01*
X041089Y02704D01*
X04114Y027091D01*
X041176Y027154D01*
X041195Y027224D01*
Y027296D01*
X041176Y027366D01*
X04114Y027429D01*
X041089Y02748D01*
X041026Y027516D01*
X040956Y027535D01*
D02*
G37*
G36*
X038461Y026836D02*
X038379D01*
X038304Y026804D01*
X038303Y026804D01*
X038371Y026737D01*
X038314Y02668D01*
X038247Y026747D01*
X038246Y026747D01*
X038215Y026671D01*
Y02659D01*
X038246Y026514D01*
X038247Y026514D01*
X038314Y026581D01*
X038371Y026525D01*
X038303Y026457D01*
X038304Y026457D01*
X038379Y026426D01*
X038461D01*
X038536Y026457D01*
X038537Y026457D01*
X038469Y026525D01*
X038526Y026581D01*
X038593Y026514D01*
X038594Y026514D01*
X038625Y02659D01*
Y026671D01*
X038594Y026747D01*
X038593Y026747D01*
X038526Y02668D01*
X038469Y026737D01*
X038537Y026804D01*
X038536Y026804D01*
X038461Y026836D01*
D02*
G37*
G36*
X040461Y026975D02*
X040379D01*
X040304Y026944D01*
X040246Y026886D01*
X040215Y026811D01*
Y026729D01*
X040246Y026654D01*
X040304Y026596D01*
X040379Y026565D01*
X040461D01*
X040536Y026596D01*
X040594Y026654D01*
X040625Y026729D01*
Y026811D01*
X040594Y026886D01*
X040536Y026944D01*
X040461Y026975D01*
D02*
G37*
G36*
X039631Y026945D02*
X039549D01*
X039474Y026914D01*
X039416Y026856D01*
X039385Y026781D01*
Y026699D01*
X039416Y026624D01*
X039474Y026566D01*
X039549Y026535D01*
X039631D01*
X039706Y026566D01*
X039764Y026624D01*
X039795Y026699D01*
Y026781D01*
X039764Y026856D01*
X039706Y026914D01*
X039631Y026945D01*
D02*
G37*
%LPD*%
D42*
X045632Y029808D02*
Y032974D01*
X04594Y0295D02*
X04627D01*
X045632Y029808D02*
X04594Y0295D01*
X04122Y03413D02*
X04236D01*
X04094Y03385D02*
X04122Y03413D01*
X040465Y03385D02*
X04094D01*
X041143Y03429D02*
X04236D01*
X041017Y034164D02*
X041143Y03429D01*
X040651Y034164D02*
X041017D01*
X041303Y03397D02*
X04236D01*
X041013Y03368D02*
X041303Y03397D01*
X04015Y03368D02*
X041013D01*
X041373Y03381D02*
X04236D01*
X039941Y033483D02*
X041046D01*
X041373Y03381D01*
X04067Y03286D02*
X04068D01*
X04147Y03365D01*
X04107Y03286D02*
Y033D01*
X04155Y03348D01*
X0414Y033048D02*
X041672Y03332D01*
X04236D01*
X0414Y03285D02*
Y033048D01*
X045811Y03445D02*
X045871Y03439D01*
X041007Y03445D02*
X045811D01*
X040957Y0345D02*
X041007Y03445D01*
X04093Y0345D02*
X040957D01*
X040298Y034018D02*
X040465Y03385D01*
X045117Y03381D02*
X045117D01*
X042361D02*
X042361D01*
X04236D02*
X04236D01*
X045117D02*
X045122D01*
X042361D02*
X045117D01*
X04236D02*
X042361D01*
X03998Y03385D02*
Y034142D01*
Y03385D02*
X04015Y03368D01*
X04236Y03397D02*
X04236D01*
X04236D02*
X042361D01*
X045117D02*
X045117D01*
X045117D02*
X045122D01*
X045117D02*
X045612D01*
X04236D02*
X045117D01*
X039623Y033801D02*
X039941Y033483D01*
X039623Y033801D02*
Y034302D01*
X046282Y032265D02*
Y0333D01*
X045612Y03397D02*
X046282Y0333D01*
Y032265D02*
X04639Y032157D01*
X046121Y031932D02*
Y033234D01*
Y031932D02*
X046313Y03174D01*
X045546Y03381D02*
X046121Y033234D01*
X045956Y030944D02*
Y033159D01*
X045465Y03365D02*
X045956Y033159D01*
Y030944D02*
X046069Y030831D01*
X045792Y029988D02*
Y033069D01*
X045381Y03348D02*
X045792Y033069D01*
Y029988D02*
X04602Y02976D01*
X045286Y03332D02*
X045632Y032974D01*
X04236Y03429D02*
X04236D01*
X045531Y029509D02*
X04555Y02949D01*
X04547Y02974D02*
Y032881D01*
Y02974D02*
X045531Y029679D01*
Y029509D02*
Y029679D01*
X045191Y03316D02*
X04547Y032881D01*
X04602Y02976D02*
X046036D01*
X042361Y03429D02*
X045117D01*
X045122Y03316D02*
X045191D01*
X042361D02*
X042361D01*
X04174Y03302D02*
X04188Y03316D01*
X045117D02*
X045122D01*
X045122D01*
X042361D02*
X045117D01*
X04188D02*
X04236D01*
X04236D02*
X042361D01*
X045117D02*
X045117D01*
X04236D02*
X04236D01*
X045117Y03332D02*
X045122D01*
X042361D02*
X045117D01*
X04236D02*
X04236D01*
X045122D02*
X045286D01*
X045117D02*
X045117D01*
X045122D02*
X045122D01*
X042361D02*
X042361D01*
X04236D02*
X042361D01*
X04147Y03365D02*
X045465D01*
X04155Y03348D02*
X045381D01*
X04682Y03283D02*
Y033214D01*
X045744Y03429D02*
X04682Y033214D01*
X045122Y03381D02*
X045546D01*
X045871Y03439D02*
X045904D01*
X047314Y03298D01*
X04236Y03429D02*
X042361D01*
X045122D02*
X045744D01*
X045117D02*
X045122D01*
X042361D02*
X042361D01*
X045117D02*
X045117D01*
X045122D02*
X045122D01*
X04236Y03413D02*
X045678D01*
X04655Y033258D01*
X047314Y03298D02*
X04795D01*
X04639Y03213D02*
Y032157D01*
X04174Y03285D02*
Y03302D01*
X04655Y032541D02*
Y033258D01*
X046313Y031713D02*
Y03174D01*
X046069Y030831D02*
X047101D01*
X04711Y03084D01*
D45*
X040651Y034164D02*
D03*
X040298Y034018D02*
D03*
X03998Y034142D02*
D03*
X039623Y034302D02*
D03*
X04555Y02949D02*
D03*
X046036Y02976D02*
D03*
X04627Y0295D02*
D03*
X03488Y02893D02*
D03*
X04231Y0296D02*
D03*
X03611Y02851D02*
D03*
X03989Y02999D02*
D03*
X03534Y03005D02*
D03*
X03842Y026631D02*
D03*
X03911Y02871D02*
D03*
X04682Y03283D02*
D03*
X04722Y03258D02*
D03*
X0414Y03285D02*
D03*
X04107Y03286D02*
D03*
X04067D02*
D03*
X04093Y0345D02*
D03*
X04795Y03298D02*
D03*
X04174Y03285D02*
D03*
X04655Y032541D02*
D03*
X04639Y03213D02*
D03*
X046313Y031713D02*
D03*
X04711Y03084D02*
D03*
D46*
X037052Y029452D02*
X042162D01*
X03611Y02851D02*
X037052Y029452D01*
X042162D02*
X04231Y0296D01*
M02*
