G04*
G04 #@! TF.GenerationSoftware,Altium Limited,Altium Designer,25.4.2 (15)*
G04*
G04 Layer_Color=8388736*
%FSTAX24Y24*%
%MOIN*%
G70*
G04*
G04 #@! TF.SameCoordinates,F4185BB4-0936-4B88-B031-81E5C399A6D0*
G04*
G04*
G04 #@! TF.FilePolarity,Positive*
G04*
G01*
G75*
%ADD43C,0.0100*%
%ADD51C,0.0005*%
G36*
X042356Y032723D02*
Y03525D01*
X042358Y035253D01*
X04512D01*
X045123Y03525D01*
Y028986D01*
X045117D01*
Y032851D01*
X042361D01*
X042356Y032723D01*
D02*
G37*
D43*
X046975Y03186D02*
Y03246D01*
X047275D01*
X047375Y03236D01*
Y03216D01*
X047275Y03206D01*
X046975D01*
X047175D02*
X047375Y03186D01*
X047575Y03246D02*
X047775D01*
X047675D01*
Y03186D01*
X047575D01*
X047775D01*
X048474Y03236D02*
X048374Y03246D01*
X048175D01*
X048075Y03236D01*
Y03196D01*
X048175Y03186D01*
X048374D01*
X048474Y03196D01*
Y03216D01*
X048274D01*
X048674Y03246D02*
X048874D01*
X048774D01*
Y03186D01*
X048674D01*
X048874D01*
X049174Y03246D02*
Y03186D01*
X049474D01*
X049574Y03196D01*
Y03236D01*
X049474Y03246D01*
X049174D01*
X042978Y03614D02*
X042578D01*
Y03584D01*
X042778D01*
X042578D01*
Y03554D01*
X043177Y03614D02*
Y03554D01*
X043577D01*
X044177Y03614D02*
X043777D01*
Y03554D01*
X044177D01*
X043777Y03584D02*
X043977D01*
X044377Y03614D02*
X044777Y03554D01*
Y03614D02*
X044377Y03554D01*
X035635Y03092D02*
Y03152D01*
X035935D01*
X036035Y03142D01*
Y03122D01*
X035935Y03112D01*
X035635D01*
X035835D02*
X036035Y03092D01*
X036235Y03152D02*
X036435D01*
X036335D01*
Y03092D01*
X036235D01*
X036435D01*
X037135Y03142D02*
X037035Y03152D01*
X036835D01*
X036735Y03142D01*
Y03102D01*
X036835Y03092D01*
X037035D01*
X037135Y03102D01*
Y03122D01*
X036935D01*
X037335Y03152D02*
X037535D01*
X037435D01*
Y03092D01*
X037335D01*
X037535D01*
X037835Y03152D02*
Y03092D01*
X038134D01*
X038234Y03102D01*
Y03142D01*
X038134Y03152D01*
X037835D01*
D51*
X031098Y03525D02*
G03*
X044559Y030108I006742J-00254D01*
G01*
X04512Y028986D02*
Y03525D01*
Y028986D02*
X051168D01*
Y03525D01*
X04512D02*
X051168D01*
X031098D02*
X042358D01*
X044559Y030108D02*
Y032723D01*
X042358D02*
X044559D01*
X042358D02*
Y03525D01*
Y032854D02*
X04512D01*
X042358Y03525D02*
X04512D01*
M02*
