G04*
G04 #@! TF.GenerationSoftware,Altium Limited,Altium Designer,25.4.2 (15)*
G04*
G04 Layer_Color=255*
%FSTAX24Y24*%
%MOIN*%
G70*
G04*
G04 #@! TF.SameCoordinates,F4185BB4-0936-4B88-B031-81E5C399A6D0*
G04*
G04*
G04 #@! TF.FilePolarity,Positive*
G04*
G01*
G75*
%ADD15R,0.0236X0.0098*%
%ADD16R,0.0138X0.0098*%
%ADD17R,0.0177X0.0236*%
%ADD18R,0.0315X0.0217*%
%ADD19R,0.0217X0.0315*%
%ADD20R,0.0188X0.0159*%
%ADD21R,0.0394X0.0709*%
%ADD22R,0.0159X0.0188*%
%ADD23R,0.0157X0.0197*%
%ADD24R,0.0197X0.0157*%
%ADD25R,0.0475X0.0417*%
%ADD26R,0.0236X0.0453*%
%ADD27R,0.0315X0.0413*%
%ADD28R,0.0236X0.0110*%
%ADD32C,0.0390*%
%ADD41C,0.0310*%
D15*
X035156Y027633D02*
D03*
X035864Y028224D02*
D03*
Y028027D02*
D03*
Y02783D02*
D03*
Y027633D02*
D03*
Y027436D02*
D03*
X035156Y02783D02*
D03*
Y028027D02*
D03*
Y027436D02*
D03*
D16*
X03475Y02749D02*
D03*
X034533D02*
D03*
D17*
X036276Y02803D02*
D03*
X03665D02*
D03*
D18*
X036572Y030856D02*
D03*
Y031604D02*
D03*
X035588Y03123D02*
D03*
D19*
X038204Y029972D02*
D03*
X037456D02*
D03*
X03783Y028988D02*
D03*
D20*
X0493Y02984D02*
D03*
X049547D02*
D03*
D21*
X04682Y03442D02*
D03*
X045836D02*
D03*
D22*
X0473Y034267D02*
D03*
Y034513D02*
D03*
D23*
X04681Y030317D02*
D03*
X047361D02*
D03*
X046534D02*
D03*
X049566Y033663D02*
D03*
X046258D02*
D03*
X04929D02*
D03*
X049132Y030671D02*
D03*
X04681Y033663D02*
D03*
X049014Y030317D02*
D03*
X048739D02*
D03*
Y033663D02*
D03*
X049014D02*
D03*
X046258Y030317D02*
D03*
X047636D02*
D03*
X047912D02*
D03*
X04929D02*
D03*
X049566D02*
D03*
X048463Y033663D02*
D03*
X048188D02*
D03*
X047912D02*
D03*
X047636D02*
D03*
X047361D02*
D03*
X047085D02*
D03*
Y030317D02*
D03*
X046534Y033663D02*
D03*
X048463Y030317D02*
D03*
X048188D02*
D03*
X049447Y030671D02*
D03*
D24*
X045845Y032817D02*
D03*
Y031439D02*
D03*
Y033644D02*
D03*
Y030336D02*
D03*
Y030888D02*
D03*
Y031163D02*
D03*
Y031714D02*
D03*
Y03199D02*
D03*
Y032266D02*
D03*
Y032541D02*
D03*
Y033092D02*
D03*
Y033368D02*
D03*
Y030612D02*
D03*
D25*
X048075Y03447D02*
D03*
X048725D02*
D03*
D26*
X041314Y031762D02*
D03*
X040566D02*
D03*
X041314Y030778D02*
D03*
X04094Y031762D02*
D03*
X040566Y030778D02*
D03*
D27*
X033956Y02802D02*
D03*
X034684D02*
D03*
D28*
X035156Y02823D02*
D03*
D32*
X03792Y02766D02*
D03*
X04092Y02806D02*
D03*
Y02726D02*
D03*
D41*
X03842Y02741D02*
D03*
X03892D02*
D03*
X03942Y02741D02*
D03*
X03992Y02741D02*
D03*
X04042D02*
D03*
Y02791D02*
D03*
X03992D02*
D03*
X03942Y02791D02*
D03*
X03892Y02791D02*
D03*
X03842D02*
D03*
M02*
