G04*
G04 #@! TF.GenerationSoftware,Altium Limited,Altium Designer,25.4.2 (15)*
G04*
G04 Layer_Color=2752767*
%FSTAX24Y24*%
%MOIN*%
G70*
G04*
G04 #@! TF.SameCoordinates,F4185BB4-0936-4B88-B031-81E5C399A6D0*
G04*
G04*
G04 #@! TF.FilePolarity,Positive*
G04*
G01*
G75*
%ADD43C,0.0100*%
%ADD53C,0.0150*%
%ADD54C,0.0020*%
%ADD55C,0.0160*%
D43*
X032895Y042492D02*
X033062Y042326D01*
X032729Y042492D02*
X032895D01*
X032729D02*
X032895Y042659D01*
X032729Y042826D02*
X032895Y042659D01*
X032729Y042826D02*
X032895D01*
X033062Y042992D01*
X033229Y042826D01*
X033395D01*
X033229Y042659D02*
X033395Y042826D01*
X033229Y042659D02*
X033395Y042492D01*
X033229D02*
X033395D01*
X033062Y042326D02*
X033229Y042492D01*
X033062Y040826D02*
X033395Y041492D01*
X032729D02*
X033395D01*
X032729D02*
X033062Y040826D01*
X084477Y042326D02*
Y042926D01*
X084777D01*
X084877Y042826D01*
Y042626D01*
X084777Y042526D01*
X084477D01*
X084677D02*
X084877Y042326D01*
X085176D02*
X085376D01*
X085476Y042426D01*
Y042626D01*
X085376Y042726D01*
X085176D01*
X085076Y042626D01*
Y042426D01*
X085176Y042326D01*
X085676Y042726D02*
Y042426D01*
X085776Y042326D01*
X086076D01*
Y042726D01*
X086276Y042326D02*
Y042726D01*
X086576D01*
X086676Y042626D01*
Y042326D01*
X087276Y042926D02*
Y042326D01*
X086976D01*
X086876Y042426D01*
Y042626D01*
X086976Y042726D01*
X087276D01*
X087776Y042326D02*
X087576D01*
X087476Y042426D01*
Y042626D01*
X087576Y042726D01*
X087776D01*
X087876Y042626D01*
Y042526D01*
X087476D01*
X088475Y042926D02*
Y042326D01*
X088175D01*
X088076Y042426D01*
Y042626D01*
X088175Y042726D01*
X088475D01*
X084477Y040826D02*
Y041426D01*
X084777D01*
X084877Y041326D01*
Y041126D01*
X084777Y041026D01*
X084477D01*
X084677D02*
X084877Y040826D01*
X085176D02*
X085376D01*
X085476Y040926D01*
Y041126D01*
X085376Y041226D01*
X085176D01*
X085076Y041126D01*
Y040926D01*
X085176Y040826D01*
X085676Y041226D02*
Y040926D01*
X085776Y040826D01*
X086076D01*
Y041226D01*
X086276Y040826D02*
Y041226D01*
X086576D01*
X086676Y041126D01*
Y040826D01*
X087276Y041426D02*
Y040826D01*
X086976D01*
X086876Y040926D01*
Y041126D01*
X086976Y041226D01*
X087276D01*
X087776Y040826D02*
X087576D01*
X087476Y040926D01*
Y041126D01*
X087576Y041226D01*
X087776D01*
X087876Y041126D01*
Y041026D01*
X087476D01*
X088475Y041426D02*
Y040826D01*
X088175D01*
X088076Y040926D01*
Y041126D01*
X088175Y041226D01*
X088475D01*
X078578Y042326D02*
Y042926D01*
X078878D01*
X078978Y042826D01*
Y042626D01*
X078878Y042526D01*
X078578D01*
X079278Y042726D02*
X079478D01*
X079578Y042626D01*
Y042326D01*
X079278D01*
X079178Y042426D01*
X079278Y042526D01*
X079578D01*
X080178Y042926D02*
Y042326D01*
X079878D01*
X079778Y042426D01*
Y042626D01*
X079878Y042726D01*
X080178D01*
X078578Y041426D02*
Y041026D01*
X078778Y040826D01*
X078978Y041026D01*
Y041426D01*
X079178Y040826D02*
X079378D01*
X079278D01*
Y041226D01*
X079178D01*
X079778D02*
X079978D01*
X080078Y041126D01*
Y040826D01*
X079778D01*
X079678Y040926D01*
X079778Y041026D01*
X080078D01*
X066682Y042926D02*
Y042326D01*
X067082D01*
X067281D02*
X067481D01*
X067381D01*
Y042926D01*
X067281Y042826D01*
X068381Y042626D02*
X068781D01*
X069581Y042926D02*
Y042326D01*
X069981D01*
X07048D02*
Y042926D01*
X070181Y042626D01*
X07058D01*
X066682Y041426D02*
Y040826D01*
X067082D01*
X067281D02*
X067481D01*
X067381D01*
Y041426D01*
X067281Y041326D01*
X068381Y041126D02*
X068781D01*
X069581Y041426D02*
Y040826D01*
X069981D01*
X07048D02*
Y041426D01*
X070181Y041126D01*
X07058D01*
X059344Y042326D02*
Y042926D01*
X059644D01*
X059743Y042826D01*
Y042626D01*
X059644Y042526D01*
X059344D01*
X059544D02*
X059743Y042326D01*
X060043D02*
X060243D01*
X060343Y042426D01*
Y042626D01*
X060243Y042726D01*
X060043D01*
X059943Y042626D01*
Y042426D01*
X060043Y042326D01*
X060543Y042726D02*
Y042426D01*
X060643Y042326D01*
X060943D01*
Y042726D01*
X061143Y042326D02*
Y042726D01*
X061443D01*
X061543Y042626D01*
Y042326D01*
X062143Y042926D02*
Y042326D01*
X061843D01*
X061743Y042426D01*
Y042626D01*
X061843Y042726D01*
X062143D01*
X059344Y040826D02*
Y041426D01*
X059644D01*
X059743Y041326D01*
Y041126D01*
X059644Y041026D01*
X059344D01*
X059544D02*
X059743Y040826D01*
X060043D02*
X060243D01*
X060343Y040926D01*
Y041126D01*
X060243Y041226D01*
X060043D01*
X059943Y041126D01*
Y040926D01*
X060043Y040826D01*
X060543Y041226D02*
Y040926D01*
X060643Y040826D01*
X060943D01*
Y041226D01*
X061143Y040826D02*
Y041226D01*
X061443D01*
X061543Y041126D01*
Y040826D01*
X062143Y041426D02*
Y040826D01*
X061843D01*
X061743Y040926D01*
Y041126D01*
X061843Y041226D01*
X062143D01*
X054285Y042326D02*
Y042926D01*
X054685Y042326D01*
Y042926D01*
X054885Y042326D02*
Y042926D01*
X055185D01*
X055285Y042826D01*
Y042626D01*
X055185Y042526D01*
X054885D01*
X055484Y042926D02*
X055884D01*
X055684D01*
Y042326D01*
X056084Y042926D02*
Y042326D01*
Y042626D01*
X056484D01*
Y042926D01*
Y042326D01*
X054285Y040826D02*
Y041426D01*
X054585D01*
X054685Y041326D01*
Y041126D01*
X054585Y041026D01*
X054285D01*
X054885Y041426D02*
X055285D01*
X055085D01*
Y040826D01*
X055484Y041426D02*
Y040826D01*
Y041126D01*
X055884D01*
Y041426D01*
Y040826D01*
X043388Y042826D02*
X043488Y042926D01*
X043688D01*
X043788Y042826D01*
Y042426D01*
X043688Y042326D01*
X043488D01*
X043388Y042426D01*
Y042826D01*
X043988Y042326D02*
Y042426D01*
X044088D01*
Y042326D01*
X043988D01*
X044488Y042426D02*
X044588Y042326D01*
X044788D01*
X044888Y042426D01*
Y042826D01*
X044788Y042926D01*
X044588D01*
X044488Y042826D01*
Y042726D01*
X044588Y042626D01*
X044888D01*
X045087Y042426D02*
X045187Y042326D01*
X045387D01*
X045487Y042426D01*
Y042826D01*
X045387Y042926D01*
X045187D01*
X045087Y042826D01*
Y042726D01*
X045187Y042626D01*
X045487D01*
X045687Y042326D02*
X045887D01*
X045787D01*
Y042926D01*
X045687Y042826D01*
X046187Y042326D02*
Y042726D01*
X046287D01*
X046387Y042626D01*
Y042326D01*
Y042626D01*
X046487Y042726D01*
X046587Y042626D01*
Y042326D01*
X046787D02*
Y042726D01*
X046887D01*
X046987Y042626D01*
Y042326D01*
Y042626D01*
X047087Y042726D01*
X047187Y042626D01*
Y042326D01*
X048186D02*
X047987Y042526D01*
Y042726D01*
X048186Y042926D01*
X048486Y042826D02*
X048586Y042926D01*
X048786D01*
X048886Y042826D01*
Y042726D01*
X048786Y042626D01*
X048686D01*
X048786D01*
X048886Y042526D01*
Y042426D01*
X048786Y042326D01*
X048586D01*
X048486Y042426D01*
X049086D02*
X049186Y042326D01*
X049386D01*
X049486Y042426D01*
Y042826D01*
X049386Y042926D01*
X049186D01*
X049086Y042826D01*
Y042726D01*
X049186Y042626D01*
X049486D01*
X049686Y042326D02*
Y042426D01*
X049786D01*
Y042326D01*
X049686D01*
X050186Y042826D02*
X050286Y042926D01*
X050486D01*
X050586Y042826D01*
Y042426D01*
X050486Y042326D01*
X050286D01*
X050186Y042426D01*
Y042826D01*
X050786D02*
X050886Y042926D01*
X051086D01*
X051186Y042826D01*
Y042426D01*
X051086Y042326D01*
X050886D01*
X050786Y042426D01*
Y042826D01*
X051385Y042326D02*
Y042726D01*
X051485D01*
X051585Y042626D01*
Y042326D01*
Y042626D01*
X051685Y042726D01*
X051785Y042626D01*
Y042326D01*
X051985D02*
X052185D01*
X052085D01*
Y042726D01*
X051985D01*
X052485Y042326D02*
X052685D01*
X052585D01*
Y042926D01*
X052485D01*
X052985Y042326D02*
X053185Y042526D01*
Y042726D01*
X052985Y042926D01*
X043388Y041326D02*
X043488Y041426D01*
X043688D01*
X043788Y041326D01*
Y040926D01*
X043688Y040826D01*
X043488D01*
X043388Y040926D01*
Y041326D01*
X043988Y040826D02*
Y040926D01*
X044088D01*
Y040826D01*
X043988D01*
X044488Y041326D02*
X044588Y041426D01*
X044788D01*
X044888Y041326D01*
Y041226D01*
X044788Y041126D01*
X044688D01*
X044788D01*
X044888Y041026D01*
Y040926D01*
X044788Y040826D01*
X044588D01*
X044488Y040926D01*
X045487Y040826D02*
X045087D01*
X045487Y041226D01*
Y041326D01*
X045387Y041426D01*
X045187D01*
X045087Y041326D01*
X046087Y041426D02*
X045687D01*
Y041126D01*
X045887Y041226D01*
X045987D01*
X046087Y041126D01*
Y040926D01*
X045987Y040826D01*
X045787D01*
X045687Y040926D01*
X046287Y040826D02*
Y041226D01*
X046387D01*
X046487Y041126D01*
Y040826D01*
Y041126D01*
X046587Y041226D01*
X046687Y041126D01*
Y040826D01*
X046887D02*
Y041226D01*
X046987D01*
X047087Y041126D01*
Y040826D01*
Y041126D01*
X047187Y041226D01*
X047287Y041126D01*
Y040826D01*
X048286D02*
X048087Y041026D01*
Y041226D01*
X048286Y041426D01*
X048586Y040826D02*
X048786D01*
X048686D01*
Y041426D01*
X048586Y041326D01*
X049486Y040826D02*
X049086D01*
X049486Y041226D01*
Y041326D01*
X049386Y041426D01*
X049186D01*
X049086Y041326D01*
X049686Y040826D02*
Y040926D01*
X049786D01*
Y040826D01*
X049686D01*
X050186Y041326D02*
X050286Y041426D01*
X050486D01*
X050586Y041326D01*
Y041226D01*
X050486Y041126D01*
X050586Y041026D01*
Y040926D01*
X050486Y040826D01*
X050286D01*
X050186Y040926D01*
Y041026D01*
X050286Y041126D01*
X050186Y041226D01*
Y041326D01*
X050286Y041126D02*
X050486D01*
X050786Y041326D02*
X050886Y041426D01*
X051086D01*
X051186Y041326D01*
Y040926D01*
X051086Y040826D01*
X050886D01*
X050786Y040926D01*
Y041326D01*
X051385Y040826D02*
Y041226D01*
X051485D01*
X051585Y041126D01*
Y040826D01*
Y041126D01*
X051685Y041226D01*
X051785Y041126D01*
Y040826D01*
X051985D02*
X052185D01*
X052085D01*
Y041226D01*
X051985D01*
X052485Y040826D02*
X052685D01*
X052585D01*
Y041426D01*
X052485D01*
X052985Y040826D02*
X053185Y041026D01*
Y041226D01*
X052985Y041426D01*
X038389Y039326D02*
Y039926D01*
X038089Y039626D01*
X038489D01*
X038689Y039326D02*
X038889D01*
X038789D01*
Y039926D01*
X038689Y039826D01*
X039789Y039926D02*
X040189D01*
X039989D01*
Y039326D01*
X040489D02*
X040689D01*
X040789Y039426D01*
Y039626D01*
X040689Y039726D01*
X040489D01*
X040389Y039626D01*
Y039426D01*
X040489Y039326D01*
X041088Y039826D02*
Y039726D01*
X040988D01*
X041188D01*
X041088D01*
Y039426D01*
X041188Y039326D01*
X041588Y039726D02*
X041788D01*
X041888Y039626D01*
Y039326D01*
X041588D01*
X041488Y039426D01*
X041588Y039526D01*
X041888D01*
X042088Y039326D02*
X042288D01*
X042188D01*
Y039926D01*
X042088D01*
X038089Y042826D02*
X038189Y042926D01*
X038389D01*
X038489Y042826D01*
Y042726D01*
X038389Y042626D01*
X038289D01*
X038389D01*
X038489Y042526D01*
Y042426D01*
X038389Y042326D01*
X038189D01*
X038089Y042426D01*
Y041326D02*
X038189Y041426D01*
X038389D01*
X038489Y041326D01*
Y041226D01*
X038389Y041126D01*
X038289D01*
X038389D01*
X038489Y041026D01*
Y040926D01*
X038389Y040826D01*
X038189D01*
X038089Y040926D01*
X038689Y041326D02*
X038789Y041426D01*
X038989D01*
X039089Y041326D01*
Y041226D01*
X038989Y041126D01*
X039089Y041026D01*
Y040926D01*
X038989Y040826D01*
X038789D01*
X038689Y040926D01*
Y041026D01*
X038789Y041126D01*
X038689Y041226D01*
Y041326D01*
X038789Y041126D02*
X038989D01*
D53*
X032131Y043376D02*
X091935D01*
X032131Y040376D02*
X091935D01*
X032131Y038876D02*
X091935D01*
Y044876D01*
X032131D02*
X091935D01*
X032131Y038876D02*
Y044876D01*
X084027Y038876D02*
Y044876D01*
X078128Y038876D02*
Y044876D01*
X066232Y038876D02*
Y044876D01*
X058894Y038876D02*
Y044876D01*
X053835Y038876D02*
Y044876D01*
X042938Y038876D02*
Y044876D01*
X037639Y038876D02*
Y044876D01*
D54*
X048981Y02942D02*
X049081Y02962D01*
X048881D02*
X049081D01*
X048881D02*
X048981Y02942D01*
X04711Y03074D02*
X04721Y03094D01*
X04701D02*
X04721D01*
X04701D02*
X04711Y03074D01*
X046313Y031613D02*
X046413Y031813D01*
X046213D02*
X046413D01*
X046213D02*
X046313Y031613D01*
X04639Y03203D02*
X04649Y03223D01*
X04629D02*
X04649D01*
X04629D02*
X04639Y03203D01*
X04655Y032441D02*
X04665Y032641D01*
X04645D02*
X04665D01*
X04645D02*
X04655Y032441D01*
X04174Y03275D02*
X04184Y03295D01*
X04164D02*
X04184D01*
X04164D02*
X04174Y03275D01*
X04795Y03288D02*
X04805Y03308D01*
X04785D02*
X04805D01*
X04785D02*
X04795Y03288D01*
X04093Y0344D02*
X04103Y0346D01*
X04083D02*
X04103D01*
X04083D02*
X04093Y0344D01*
X04067Y03276D02*
X04077Y03296D01*
X04057D02*
X04077D01*
X04057D02*
X04067Y03276D01*
X04107D02*
X04117Y03296D01*
X04097D02*
X04117D01*
X04097D02*
X04107Y03276D01*
X0414Y03275D02*
X0415Y03295D01*
X0413D02*
X0415D01*
X0413D02*
X0414Y03275D01*
X04722Y03248D02*
X04732Y03268D01*
X04712D02*
X04732D01*
X04712D02*
X04722Y03248D01*
X04682Y03273D02*
X04692Y03293D01*
X04672D02*
X04692D01*
X04672D02*
X04682Y03273D01*
X04633Y03468D02*
X04643Y03488D01*
X04623D02*
X04643D01*
X04623D02*
X04633Y03468D01*
X04944Y03303D02*
X04954Y03323D01*
X04934D02*
X04954D01*
X04934D02*
X04944Y03303D01*
X04755Y03249D02*
X04765Y03269D01*
X04745D02*
X04765D01*
X04745D02*
X04755Y03249D01*
X04042Y02667D02*
X04052Y02687D01*
X04032D02*
X04052D01*
X04032D02*
X04042Y02667D01*
X03911Y02861D02*
X03921Y02881D01*
X03901D02*
X03921D01*
X03901D02*
X03911Y02861D01*
X03842Y026531D02*
X03852Y026731D01*
X03832D02*
X03852D01*
X03832D02*
X03842Y026531D01*
X0405Y0298D02*
X0406Y03D01*
X0404D02*
X0406D01*
X0404D02*
X0405Y0298D01*
X03534Y02995D02*
X03544Y03015D01*
X03524D02*
X03544D01*
X03524D02*
X03534Y02995D01*
X03492Y03073D02*
X03502Y03093D01*
X03482D02*
X03502D01*
X03482D02*
X03492Y03073D01*
X03989Y02989D02*
X03999Y03009D01*
X03979D02*
X03999D01*
X03979D02*
X03989Y02989D01*
X03611Y02841D02*
X03621Y02861D01*
X03601D02*
X03621D01*
X03601D02*
X03611Y02841D01*
X04231Y0295D02*
X04241Y0297D01*
X04221D02*
X04241D01*
X04221D02*
X04231Y0295D01*
X03488Y02883D02*
X03498Y02903D01*
X03478D02*
X03498D01*
X03478D02*
X03488Y02883D01*
X03748Y03273D02*
X03758Y03293D01*
X03738D02*
X03758D01*
X03738D02*
X03748Y03273D01*
X03977Y03086D02*
X03987Y03106D01*
X03967D02*
X03987D01*
X03967D02*
X03977Y03086D01*
X04627Y0294D02*
X04637Y0296D01*
X04617D02*
X04637D01*
X04617D02*
X04627Y0294D01*
X046036Y02966D02*
X046136Y02986D01*
X045936D02*
X046136D01*
X045936D02*
X046036Y02966D01*
X04555Y02939D02*
X04565Y02959D01*
X04545D02*
X04565D01*
X04545D02*
X04555Y02939D01*
X04684Y02991D02*
X04694Y03011D01*
X04674D02*
X04694D01*
X04674D02*
X04684Y02991D01*
X038707Y029D02*
X038807Y0292D01*
X038607D02*
X038807D01*
X038607D02*
X038707Y029D01*
X03959Y02664D02*
X03969Y02684D01*
X03949D02*
X03969D01*
X03949D02*
X03959Y02664D01*
X039623Y034202D02*
X039723Y034402D01*
X039523D02*
X039723D01*
X039523D02*
X039623Y034202D01*
X03998Y034042D02*
X04008Y034242D01*
X03988D02*
X04008D01*
X03988D02*
X03998Y034042D01*
X040298Y033918D02*
X040398Y034118D01*
X040198D02*
X040398D01*
X040198D02*
X040298Y033918D01*
X040651Y034064D02*
X040751Y034264D01*
X040551D02*
X040751D01*
X040551D02*
X040651Y034064D01*
X04087Y02721D02*
X04092Y02716D01*
X04082Y02721D02*
X04087D01*
X04082D02*
X04087Y02726D01*
X04082Y02731D02*
X04087Y02726D01*
X04082Y02731D02*
X04087D01*
X04092Y02736D01*
X04097Y02731D01*
X04102D01*
X04097Y02726D02*
X04102Y02731D01*
X04097Y02726D02*
X04102Y02721D01*
X04097D02*
X04102D01*
X04092Y02716D02*
X04097Y02721D01*
X04087Y02801D02*
X04092Y02796D01*
X04082Y02801D02*
X04087D01*
X04082D02*
X04087Y02806D01*
X04082Y02811D02*
X04087Y02806D01*
X04082Y02811D02*
X04087D01*
X04092Y02816D01*
X04097Y02811D01*
X04102D01*
X04097Y02806D02*
X04102Y02811D01*
X04097Y02806D02*
X04102Y02801D01*
X04097D02*
X04102D01*
X04092Y02796D02*
X04097Y02801D01*
X03787Y02761D02*
X03792Y02756D01*
X03782Y02761D02*
X03787D01*
X03782D02*
X03787Y02766D01*
X03782Y02771D02*
X03787Y02766D01*
X03782Y02771D02*
X03787D01*
X03792Y02776D01*
X03797Y02771D01*
X03802D01*
X03797Y02766D02*
X03802Y02771D01*
X03797Y02766D02*
X03802Y02761D01*
X03797D02*
X03802D01*
X03792Y02756D02*
X03797Y02761D01*
D55*
X084477Y043826D02*
Y044545D01*
X084837D01*
X084957Y044426D01*
Y044186D01*
X084837Y044066D01*
X084477D01*
X085316Y044306D02*
X085556D01*
X085676Y044186D01*
Y043826D01*
X085316D01*
X085196Y043946D01*
X085316Y044066D01*
X085676D01*
X086396Y044545D02*
Y043826D01*
X086036D01*
X085916Y043946D01*
Y044186D01*
X086036Y044306D01*
X086396D01*
X087836Y044426D02*
X087716Y044545D01*
X087476D01*
X087356Y044426D01*
Y044306D01*
X087476Y044186D01*
X087716D01*
X087836Y044066D01*
Y043946D01*
X087716Y043826D01*
X087476D01*
X087356Y043946D01*
X088076Y044545D02*
Y043826D01*
Y044186D01*
X088195Y044306D01*
X088435D01*
X088555Y044186D01*
Y043826D01*
X088915Y044306D02*
X089155D01*
X089275Y044186D01*
Y043826D01*
X088915D01*
X088795Y043946D01*
X088915Y044066D01*
X089275D01*
X089515Y043586D02*
Y044306D01*
X089875D01*
X089995Y044186D01*
Y043946D01*
X089875Y043826D01*
X089515D01*
X090595D02*
X090355D01*
X090235Y043946D01*
Y044186D01*
X090355Y044306D01*
X090595D01*
X090715Y044186D01*
Y044066D01*
X090235D01*
X078578Y044545D02*
Y044066D01*
X078818Y043826D01*
X079058Y044066D01*
Y044545D01*
X079298Y043826D02*
X079538D01*
X079418D01*
Y044306D01*
X079298D01*
X080018D02*
X080258D01*
X080378Y044186D01*
Y043826D01*
X080018D01*
X079898Y043946D01*
X080018Y044066D01*
X080378D01*
X080618Y043826D02*
X081097Y044306D01*
X081337Y043826D02*
Y044545D01*
X081697D01*
X081817Y044426D01*
Y044186D01*
X081697Y044066D01*
X081337D01*
X082177Y044306D02*
X082417D01*
X082537Y044186D01*
Y043826D01*
X082177D01*
X082057Y043946D01*
X082177Y044066D01*
X082537D01*
X083257Y044545D02*
Y043826D01*
X082897D01*
X082777Y043946D01*
Y044186D01*
X082897Y044306D01*
X083257D01*
X066682Y044545D02*
Y043826D01*
X067042D01*
X067161Y043946D01*
Y044426D01*
X067042Y044545D01*
X066682D01*
X067401Y044306D02*
Y043826D01*
Y044066D01*
X067521Y044186D01*
X067641Y044306D01*
X067761D01*
X068121Y043826D02*
X068361D01*
X068241D01*
Y044306D01*
X068121D01*
X068721Y043826D02*
X068961D01*
X068841D01*
Y044545D01*
X068721D01*
X069321Y043826D02*
X069561D01*
X069441D01*
Y044545D01*
X069321D01*
X07064D02*
Y043826D01*
X07112D01*
X07148Y044306D02*
X07172D01*
X07184Y044186D01*
Y043826D01*
X07148D01*
X07136Y043946D01*
X07148Y044066D01*
X07184D01*
X07208Y044306D02*
Y043946D01*
X0722Y043826D01*
X07256D01*
Y043706D01*
X07244Y043586D01*
X07232D01*
X07256Y043826D02*
Y044306D01*
X07316Y043826D02*
X07292D01*
X0728Y043946D01*
Y044186D01*
X07292Y044306D01*
X07316D01*
X07328Y044186D01*
Y044066D01*
X0728D01*
X073519Y044306D02*
Y043826D01*
Y044066D01*
X073639Y044186D01*
X073759Y044306D01*
X073879D01*
X074959Y043826D02*
Y044545D01*
X075319D01*
X075439Y044426D01*
Y044186D01*
X075319Y044066D01*
X074959D01*
X075799Y044306D02*
X076039D01*
X076159Y044186D01*
Y043826D01*
X075799D01*
X075679Y043946D01*
X075799Y044066D01*
X076159D01*
X076398Y043826D02*
X076638D01*
X076518D01*
Y044306D01*
X076398D01*
X076998D02*
Y043826D01*
Y044066D01*
X077118Y044186D01*
X077238Y044306D01*
X077358D01*
X059344Y044545D02*
Y043826D01*
Y044186D01*
X059823D01*
Y044545D01*
Y043826D01*
X060183D02*
X060423D01*
X060543Y043946D01*
Y044186D01*
X060423Y044306D01*
X060183D01*
X060063Y044186D01*
Y043946D01*
X060183Y043826D01*
X060783D02*
X061023D01*
X060903D01*
Y044545D01*
X060783D01*
X061743Y043826D02*
X061503D01*
X061383Y043946D01*
Y044186D01*
X061503Y044306D01*
X061743D01*
X061863Y044186D01*
Y044066D01*
X061383D01*
X062822Y044545D02*
X063302D01*
X063062D01*
Y043826D01*
X063542Y044306D02*
Y043946D01*
X063662Y043826D01*
X064022D01*
Y043706D01*
X063902Y043586D01*
X063782D01*
X064022Y043826D02*
Y044306D01*
X064262Y043586D02*
Y044306D01*
X064622D01*
X064742Y044186D01*
Y043946D01*
X064622Y043826D01*
X064262D01*
X065342D02*
X065102D01*
X064982Y043946D01*
Y044186D01*
X065102Y044306D01*
X065342D01*
X065462Y044186D01*
Y044066D01*
X064982D01*
X054285Y043826D02*
Y044545D01*
X054645D01*
X054765Y044426D01*
Y044186D01*
X054645Y044066D01*
X054285D01*
X055005Y043826D02*
X055245D01*
X055125D01*
Y044545D01*
X055005D01*
X055724Y044306D02*
X055964D01*
X056084Y044186D01*
Y043826D01*
X055724D01*
X055604Y043946D01*
X055724Y044066D01*
X056084D01*
X056444Y044426D02*
Y044306D01*
X056324D01*
X056564D01*
X056444D01*
Y043946D01*
X056564Y043826D01*
X057284D02*
X057044D01*
X056924Y043946D01*
Y044186D01*
X057044Y044306D01*
X057284D01*
X057404Y044186D01*
Y044066D01*
X056924D01*
X058124Y044545D02*
Y043826D01*
X057764D01*
X057644Y043946D01*
Y044186D01*
X057764Y044306D01*
X058124D01*
X043388Y044545D02*
Y043826D01*
Y044186D01*
X043868D01*
Y044545D01*
Y043826D01*
X044228D02*
X044468D01*
X044588Y043946D01*
Y044186D01*
X044468Y044306D01*
X044228D01*
X044108Y044186D01*
Y043946D01*
X044228Y043826D01*
X044828D02*
X045067D01*
X044948D01*
Y044545D01*
X044828D01*
X045787Y043826D02*
X045547D01*
X045427Y043946D01*
Y044186D01*
X045547Y044306D01*
X045787D01*
X045907Y044186D01*
Y044066D01*
X045427D01*
X047347Y044426D02*
X047227Y044545D01*
X046987D01*
X046867Y044426D01*
Y044306D01*
X046987Y044186D01*
X047227D01*
X047347Y044066D01*
Y043946D01*
X047227Y043826D01*
X046987D01*
X046867Y043946D01*
X047587Y043826D02*
X047827D01*
X047707D01*
Y044306D01*
X047587D01*
X048186D02*
X048666D01*
X048186Y043826D01*
X048666D01*
X049266D02*
X049026D01*
X048906Y043946D01*
Y044186D01*
X049026Y044306D01*
X049266D01*
X049386Y044186D01*
Y044066D01*
X048906D01*
X038569Y044426D02*
X038449Y044545D01*
X038209D01*
X038089Y044426D01*
Y043946D01*
X038209Y043826D01*
X038449D01*
X038569Y043946D01*
X038929Y043826D02*
X039169D01*
X039289Y043946D01*
Y044186D01*
X039169Y044306D01*
X038929D01*
X038809Y044186D01*
Y043946D01*
X038929Y043826D01*
X039529Y044306D02*
Y043946D01*
X039649Y043826D01*
X040009D01*
Y044306D01*
X040249Y043826D02*
Y044306D01*
X040609D01*
X040729Y044186D01*
Y043826D01*
X041088Y044426D02*
Y044306D01*
X040968D01*
X041208D01*
X041088D01*
Y043946D01*
X041208Y043826D01*
X03351Y044426D02*
X033391Y044545D01*
X033151D01*
X033031Y044426D01*
Y044306D01*
X033151Y044186D01*
X033391D01*
X03351Y044066D01*
Y043946D01*
X033391Y043826D01*
X033151D01*
X033031Y043946D01*
X03375Y044306D02*
Y043946D01*
X03387Y043826D01*
X03423D01*
Y043706D01*
X03411Y043586D01*
X03399D01*
X03423Y043826D02*
Y044306D01*
X03447Y043826D02*
Y044306D01*
X03459D01*
X03471Y044186D01*
Y043826D01*
Y044186D01*
X03483Y044306D01*
X03495Y044186D01*
Y043826D01*
X03519Y044545D02*
Y043826D01*
X03555D01*
X03567Y043946D01*
Y044066D01*
Y044186D01*
X03555Y044306D01*
X03519D01*
X03603Y043826D02*
X03627D01*
X03639Y043946D01*
Y044186D01*
X03627Y044306D01*
X03603D01*
X03591Y044186D01*
Y043946D01*
X03603Y043826D01*
X036629D02*
X036869D01*
X036749D01*
Y044545D01*
X036629D01*
M02*
