G04*
G04 #@! TF.GenerationSoftware,Altium Limited,Altium Designer,25.4.2 (15)*
G04*
G04 Layer_Physical_Order=1*
G04 Layer_Color=1265191*
%FSTAX24Y24*%
%MOIN*%
G70*
G04*
G04 #@! TF.SameCoordinates,F4185BB4-0936-4B88-B031-81E5C399A6D0*
G04*
G04*
G04 #@! TF.FilePolarity,Positive*
G04*
G01*
G75*
%ADD15R,0.0236X0.0098*%
%ADD16R,0.0138X0.0098*%
%ADD17R,0.0177X0.0236*%
%ADD18R,0.0315X0.0217*%
%ADD19R,0.0217X0.0315*%
%ADD20R,0.0188X0.0159*%
%ADD21R,0.0394X0.0709*%
%ADD22R,0.0159X0.0188*%
%ADD23R,0.0157X0.0197*%
%ADD24R,0.0197X0.0157*%
%ADD25R,0.0475X0.0417*%
%ADD26R,0.0236X0.0453*%
%ADD27R,0.0315X0.0413*%
%ADD28R,0.0236X0.0110*%
%ADD32C,0.0390*%
%ADD41C,0.0310*%
%ADD42C,0.0080*%
%ADD43C,0.0100*%
%ADD44C,0.0120*%
%ADD45C,0.0250*%
G36*
X049433Y033335D02*
X049399D01*
X049324Y033304D01*
X049323Y033303D01*
X049391Y033236D01*
X049334Y033179D01*
X049267Y033247D01*
X049266Y033246D01*
X049235Y033171D01*
Y033089D01*
X049266Y033014D01*
X049267Y033013D01*
X049334Y033081D01*
X049391Y033024D01*
X049323Y032957D01*
X049324Y032956D01*
X049399Y032925D01*
X049481D01*
X049556Y032956D01*
X049587Y032988D01*
X049667Y032954D01*
Y030895D01*
X049606Y03085D01*
X048974D01*
Y030495D01*
X047226D01*
Y030666D01*
X047284Y030724D01*
X047315Y030799D01*
Y030881D01*
X047284Y030956D01*
X047226Y031014D01*
X047151Y031045D01*
X047069D01*
X046994Y031014D01*
X046936Y030956D01*
X046905Y030881D01*
Y030799D01*
X046936Y030724D01*
X046982Y030679D01*
Y030495D01*
X0461D01*
Y030495D01*
X046023Y030504D01*
Y031004D01*
Y03128D01*
Y031591D01*
X046146D01*
X046197Y03154D01*
X046273Y031508D01*
X046354D01*
X046429Y03154D01*
X046487Y031597D01*
X046518Y031673D01*
Y031754D01*
X046487Y031829D01*
X046464Y031852D01*
X046481Y031946D01*
X046506Y031956D01*
X046564Y032014D01*
X046595Y032089D01*
Y032171D01*
X046564Y032246D01*
X046554Y032256D01*
X046587Y032336D01*
X046591D01*
X046666Y032367D01*
X046724Y032425D01*
X046755Y0325D01*
Y032551D01*
X046768Y03259D01*
X046824Y032625D01*
X046861D01*
X046936Y032656D01*
X046948Y032668D01*
X047016Y032623D01*
X047015Y032621D01*
Y032539D01*
X047046Y032464D01*
X047104Y032406D01*
X047179Y032375D01*
X047261D01*
X047336Y032406D01*
X04739Y03246D01*
X047434Y032416D01*
X047509Y032385D01*
X047591D01*
X047666Y032416D01*
X047667Y032417D01*
X047599Y032484D01*
X047656Y032541D01*
X047723Y032473D01*
X047724Y032474D01*
X047755Y032549D01*
Y032631D01*
X047724Y032706D01*
X047723Y032707D01*
X047656Y032639D01*
X047599Y032696D01*
X047683Y032779D01*
Y032881D01*
X047763Y032897D01*
X047776Y032864D01*
X047834Y032806D01*
X047909Y032775D01*
X047991D01*
X048066Y032806D01*
X048118Y032858D01*
X04836D01*
X048407Y032867D01*
X048447Y032893D01*
X048527Y032973D01*
X048553Y033013D01*
X048562Y03306D01*
Y033485D01*
X049433D01*
Y033335D01*
D02*
G37*
G36*
X04226Y035151D02*
X04226Y033338D01*
X04226Y032851D01*
X04226Y032851D01*
X04226Y032848D01*
Y032726D01*
X042261Y032724D01*
X042261Y032722D01*
X042264Y032706D01*
X042266Y032693D01*
X042267Y03269D01*
X042261Y032668D01*
X042244Y032635D01*
X042223Y032613D01*
X042222Y032613D01*
X041873D01*
X041873Y032693D01*
X041914Y032734D01*
X041945Y032809D01*
Y032891D01*
X041914Y032966D01*
X041856Y033024D01*
X041781Y033055D01*
X041699D01*
X041624Y033024D01*
X04157Y03297D01*
X041516Y033024D01*
X041441Y033055D01*
X041359D01*
X041284Y033024D01*
X04124Y03298D01*
X041186Y033034D01*
X041111Y033065D01*
X041029D01*
X040954Y033034D01*
X04092Y033D01*
X04087Y032984D01*
X04082Y033D01*
X040786Y033034D01*
X040711Y033065D01*
X040629D01*
X040559Y033113D01*
X040554Y033178D01*
X041017Y033641D01*
X041043Y033681D01*
X041052Y033727D01*
Y034332D01*
X041104Y034384D01*
X041135Y034459D01*
Y034541D01*
X041104Y034616D01*
X041046Y034674D01*
X040971Y034705D01*
X040889D01*
X040814Y034674D01*
X040756Y034616D01*
X040725Y034541D01*
Y034459D01*
X040734Y034439D01*
X040717Y034411D01*
X040676Y034369D01*
X040611D01*
X040535Y034338D01*
X040478Y03428D01*
X040465Y03425D01*
X040427Y034206D01*
X040369Y03421D01*
X040338Y034223D01*
X040257D01*
X040255Y034222D01*
X040153Y034258D01*
X040096Y034316D01*
X04002Y034347D01*
X039939D01*
X039908Y034335D01*
X039843Y034342D01*
X039815Y034376D01*
X039797Y034418D01*
X03974Y034476D01*
X039664Y034507D01*
X039583D01*
X039507Y034476D01*
X03945Y034418D01*
X039418Y034343D01*
Y03427D01*
X038413Y033265D01*
X038387Y033226D01*
X038378Y033179D01*
Y031937D01*
X038163Y031722D01*
X03681D01*
Y031792D01*
X036335D01*
Y031416D01*
X03681D01*
Y031478D01*
X03804D01*
X038071Y031404D01*
X037369Y030703D01*
X037343Y030663D01*
X037334Y030616D01*
Y03021D01*
X037268D01*
Y029735D01*
X037644D01*
Y03021D01*
X037578D01*
Y030565D01*
X038747Y031733D01*
X038773Y031773D01*
X038782Y03182D01*
Y032772D01*
X039948Y033937D01*
X04002D01*
X040022Y033938D01*
X040124Y033902D01*
X040175Y03385D01*
Y033598D01*
X039965Y033388D01*
X039939Y033348D01*
X039929Y033302D01*
Y032487D01*
X039939Y03244D01*
X039965Y0324D01*
X040231Y032135D01*
X04027Y032108D01*
X040302Y032102D01*
X040368Y032069D01*
Y031456D01*
X040764Y031456D01*
X040797Y031389D01*
Y031151D01*
X040764Y031084D01*
X040368D01*
Y030733D01*
X040365Y03072D01*
Y030427D01*
X040071Y030133D01*
X040037D01*
X040006Y030164D01*
X039931Y030195D01*
X039849D01*
X039774Y030164D01*
X039734Y030124D01*
X038392D01*
Y03021D01*
X038016D01*
Y029735D01*
X038392D01*
Y029838D01*
X039752D01*
X039774Y029816D01*
X039849Y029785D01*
X039931D01*
X040006Y029816D01*
X040037Y029847D01*
X04013D01*
X04013Y029847D01*
X040185Y029858D01*
X040215Y029878D01*
X040265Y029866D01*
X040271Y029864D01*
X040301Y029846D01*
X040326Y029784D01*
X040327Y029783D01*
X040394Y029851D01*
X040451Y029794D01*
X040383Y029727D01*
X040384Y029726D01*
X040459Y029695D01*
X040541D01*
X040616Y029726D01*
X040647Y029757D01*
X04082D01*
X04082Y029757D01*
X040875Y029768D01*
X040921Y029799D01*
X041041Y029919D01*
X041041Y029919D01*
X041072Y029965D01*
X041083Y03002D01*
X041083Y03002D01*
Y030405D01*
X041116Y030471D01*
X041163Y030471D01*
X041512D01*
Y030911D01*
X041837Y031236D01*
X041863Y031275D01*
X041872Y031322D01*
Y032084D01*
X041871Y032088D01*
X041927Y032168D01*
X042385D01*
X042707Y031845D01*
Y028923D01*
X04017D01*
X040119Y028912D01*
X040076Y028884D01*
X039826Y028634D01*
X039798Y028591D01*
X039787Y02854D01*
Y028109D01*
X039787Y028109D01*
X039721Y028043D01*
X039713Y028025D01*
X039627D01*
X039619Y028043D01*
X039553Y028109D01*
X039467Y028145D01*
X039373D01*
X039287Y028109D01*
X039221Y028043D01*
X039213Y028025D01*
X039127D01*
X039119Y028043D01*
X039053Y028109D01*
X039033Y028118D01*
Y028431D01*
X039107Y028505D01*
X039151D01*
X039226Y028536D01*
X039284Y028594D01*
X039315Y028669D01*
Y028751D01*
X039284Y028826D01*
X039226Y028884D01*
X039151Y028915D01*
X039069D01*
X038994Y028884D01*
X038936Y028826D01*
X038905Y028751D01*
Y028707D01*
X038789Y028591D01*
X038758Y028545D01*
X038747Y02849D01*
X038747Y02849D01*
Y02807D01*
X038721Y028043D01*
X038713Y028025D01*
X038627D01*
X038619Y028043D01*
X038553Y028109D01*
X038553Y028109D01*
Y028758D01*
X038689Y028895D01*
X038747D01*
X038823Y028926D01*
X038881Y028983D01*
X038912Y029059D01*
Y02914D01*
X038881Y029216D01*
X038823Y029273D01*
X038747Y029305D01*
X038666D01*
X038591Y029273D01*
X038533Y029216D01*
X038502Y02914D01*
Y029082D01*
X038326Y028907D01*
X038298Y028864D01*
X038287Y028813D01*
Y028109D01*
X038287Y028109D01*
X038221Y028043D01*
X038185Y027957D01*
Y027897D01*
X038105Y027864D01*
X038089Y02788D01*
X038026Y027916D01*
X037956Y027935D01*
X037884D01*
X037814Y027916D01*
X037751Y02788D01*
X0377Y027829D01*
X037664Y027766D01*
X037645Y027696D01*
Y027624D01*
X037664Y027554D01*
X0377Y027491D01*
X037751Y02744D01*
X037814Y027404D01*
X037884Y027385D01*
X037956D01*
X038026Y027404D01*
X038089Y02744D01*
X038105Y027456D01*
X038185Y027423D01*
Y027363D01*
X038221Y027277D01*
X038277Y02722D01*
Y026778D01*
X038246Y026747D01*
X038215Y026671D01*
Y02659D01*
X038246Y026514D01*
X038304Y026457D01*
X038379Y026426D01*
X038461D01*
X038536Y026457D01*
X038594Y026514D01*
X038625Y02659D01*
Y026671D01*
X038594Y026747D01*
X038563Y026778D01*
Y02722D01*
X038619Y027277D01*
X038627Y027295D01*
X038713D01*
X038721Y027277D01*
X038787Y027211D01*
X038797Y027206D01*
Y026565D01*
X038808Y026514D01*
X038836Y026471D01*
X039081Y026226D01*
X039124Y026198D01*
X039175Y026187D01*
X040467D01*
X040481Y026107D01*
X040019Y025941D01*
X039532Y025803D01*
X039037Y0257D01*
X038535Y025633D01*
X03803Y025601D01*
X037523Y025606D01*
X037019Y025646D01*
X036519Y025722D01*
X036025Y025834D01*
X03554Y025981D01*
X035067Y026161D01*
X034609Y026375D01*
X034166Y026621D01*
X033742Y026898D01*
X033339Y027204D01*
X032959Y027538D01*
X032604Y027898D01*
X032275Y028283D01*
X031974Y02869D01*
X031703Y029117D01*
X031463Y029563D01*
X031255Y030025D01*
X031081Y0305D01*
X030941Y030986D01*
X030835Y031481D01*
X030766Y031983D01*
X030732Y032488D01*
X030734Y032994D01*
X030772Y033499D01*
X030846Y034D01*
X030956Y034494D01*
X0311Y034979D01*
X031167Y035152D01*
X04226Y035151D01*
D02*
G37*
G36*
X04276Y028577D02*
X040635Y026453D01*
X03923D01*
X039063Y02662D01*
Y02722D01*
X039119Y027277D01*
X039127Y027295D01*
X039213D01*
X039221Y027277D01*
X039287Y027211D01*
X039373Y027175D01*
X039458D01*
Y026897D01*
X039416Y026856D01*
X039385Y026781D01*
Y026699D01*
X039416Y026624D01*
X039474Y026566D01*
X039549Y026535D01*
X039631D01*
X039706Y026566D01*
X039764Y026624D01*
X039795Y026699D01*
Y026781D01*
X039764Y026856D01*
X039723Y026897D01*
Y027162D01*
X039748Y027181D01*
X039803Y027204D01*
X039873Y027175D01*
X039967D01*
X040053Y027211D01*
X040119Y027277D01*
X040155Y027363D01*
Y02741D01*
X040277D01*
Y026917D01*
X040246Y026886D01*
X040215Y026811D01*
Y026729D01*
X040246Y026654D01*
X040247Y026653D01*
X040314Y026721D01*
X040371Y026664D01*
X040303Y026597D01*
X040304Y026596D01*
X040379Y026565D01*
X040461D01*
X040536Y026596D01*
X040537Y026597D01*
X040469Y026664D01*
X040526Y026721D01*
X040593Y026653D01*
X040594Y026654D01*
X040625Y026729D01*
Y026811D01*
X040594Y026886D01*
X040563Y026917D01*
Y02741D01*
X040552Y027465D01*
X040521Y027511D01*
X040475Y027542D01*
X04042Y027553D01*
Y027675D01*
X040467D01*
X040553Y027711D01*
X040619Y027777D01*
X040643Y027835D01*
X040719Y027859D01*
X040733Y027858D01*
X040751Y02784D01*
X040814Y027804D01*
X040884Y027785D01*
X040956D01*
X041026Y027804D01*
X041089Y02784D01*
X04114Y027891D01*
X041176Y027954D01*
X041195Y028024D01*
Y028096D01*
X041176Y028166D01*
X04114Y028229D01*
X041089Y02828D01*
X041026Y028316D01*
X040956Y028335D01*
X040884D01*
X040814Y028316D01*
X040751Y02828D01*
X0407Y028229D01*
X040664Y028166D01*
X040652Y028123D01*
X040585Y028097D01*
X040565Y028097D01*
X040553Y028109D01*
X040467Y028145D01*
X040373D01*
X040287Y028109D01*
X040221Y028043D01*
X040213Y028025D01*
X040127D01*
X040119Y028043D01*
X040053Y028109D01*
X040053Y028109D01*
Y028485D01*
X040225Y028657D01*
X042727D01*
X04276Y028577D01*
D02*
G37*
%LPC*%
G36*
X037521Y033035D02*
X037439D01*
X037364Y033004D01*
X037363Y033003D01*
X037431Y032936D01*
X037374Y032879D01*
X037307Y032947D01*
X037306Y032946D01*
X037275Y032871D01*
Y032789D01*
X037306Y032714D01*
X037307Y032713D01*
X037374Y032781D01*
X037431Y032724D01*
X037363Y032657D01*
X037364Y032656D01*
X037439Y032625D01*
X037521D01*
X037596Y032656D01*
X037597Y032657D01*
X037529Y032724D01*
X037586Y032781D01*
X037653Y032713D01*
X037654Y032714D01*
X037685Y032789D01*
Y032871D01*
X037654Y032946D01*
X037653Y032947D01*
X037586Y032879D01*
X037529Y032936D01*
X037597Y033003D01*
X037596Y033004D01*
X037521Y033035D01*
D02*
G37*
G36*
X039811Y031165D02*
X039729D01*
X039654Y031134D01*
X039653Y031133D01*
X039721Y031066D01*
X039664Y031009D01*
X039597Y031077D01*
X039596Y031076D01*
X039565Y031001D01*
Y030919D01*
X039596Y030844D01*
X039597Y030843D01*
X039664Y030911D01*
X039721Y030854D01*
X039653Y030787D01*
X039654Y030786D01*
X039729Y030755D01*
X039811D01*
X039886Y030786D01*
X039887Y030787D01*
X039819Y030854D01*
X039876Y030911D01*
X039943Y030843D01*
X039944Y030844D01*
X039975Y030919D01*
Y031001D01*
X039944Y031076D01*
X039943Y031077D01*
X039876Y031009D01*
X039819Y031066D01*
X039887Y031133D01*
X039886Y031134D01*
X039811Y031165D01*
D02*
G37*
G36*
X03507Y031373D02*
X035015Y031362D01*
X034969Y031331D01*
X034969Y031331D01*
X034831Y031192D01*
X0348Y031146D01*
X034789Y031091D01*
X034789Y031091D01*
Y031018D01*
X034871Y030936D01*
X034814Y030879D01*
X034747Y030947D01*
X034746Y030946D01*
X034715Y030871D01*
Y030789D01*
X034746Y030714D01*
X034747Y030713D01*
X034814Y030781D01*
X034871Y030724D01*
X034803Y030657D01*
X034804Y030656D01*
X034879Y030625D01*
X034961D01*
X035036Y030656D01*
X035037Y030657D01*
X034969Y030724D01*
X035026Y030781D01*
X035093Y030713D01*
X035094Y030714D01*
X035125Y030789D01*
Y030871D01*
X035094Y030946D01*
X035074Y030966D01*
Y031032D01*
X035129Y031087D01*
X035588D01*
X035642Y031098D01*
X035689Y031129D01*
X03572Y031175D01*
X035731Y03123D01*
X03572Y031285D01*
X035689Y031331D01*
X035642Y031362D01*
X035588Y031373D01*
X03507D01*
X03507Y031373D01*
D02*
G37*
G36*
X03681Y031044D02*
X036335D01*
Y030668D01*
X036427D01*
Y030309D01*
X036311Y030193D01*
X035487D01*
X035456Y030224D01*
X035381Y030255D01*
X035299D01*
X035224Y030224D01*
X035166Y030166D01*
X035135Y030091D01*
Y030009D01*
X035166Y029934D01*
X035224Y029876D01*
X035299Y029845D01*
X035381D01*
X035456Y029876D01*
X035487Y029907D01*
X03637D01*
X03637Y029907D01*
X036425Y029918D01*
X036471Y029949D01*
X036671Y030149D01*
X036671Y030149D01*
X036702Y030195D01*
X036713Y03025D01*
X036713Y03025D01*
Y030668D01*
X03681D01*
Y031044D01*
D02*
G37*
G36*
X042351Y029805D02*
X042269D01*
X042194Y029774D01*
X042136Y029716D01*
X042105Y029641D01*
Y029559D01*
X042136Y029484D01*
X042194Y029426D01*
X042269Y029395D01*
X042351D01*
X042426Y029426D01*
X042484Y029484D01*
X042515Y029559D01*
Y029641D01*
X042484Y029716D01*
X042426Y029774D01*
X042351Y029805D01*
D02*
G37*
G36*
X035475Y029382D02*
X03435D01*
X034319Y029375D01*
X034292Y029358D01*
X034275Y029331D01*
X034268Y0293D01*
Y02778D01*
X034275Y027749D01*
X034292Y027722D01*
X034319Y027705D01*
X03435Y027698D01*
X034599D01*
X034601Y027619D01*
X034601D01*
Y027361D01*
X034733D01*
X03475Y027357D01*
X034768D01*
X034785Y027361D01*
X034899D01*
X034958Y027309D01*
Y027307D01*
X035354D01*
Y027698D01*
X035438D01*
X03547Y027705D01*
X035479Y027711D01*
X035489Y027705D01*
X03552Y027698D01*
X03645D01*
X036481Y027705D01*
X036504Y02772D01*
X036508Y027722D01*
X036525Y027749D01*
X036532Y02778D01*
Y02883D01*
X036525Y028861D01*
X036508Y028888D01*
X036481Y028905D01*
X03645Y028912D01*
X035666D01*
X03561Y028968D01*
X035613Y029242D01*
X035613Y029242D01*
X035613Y029243D01*
X03561Y029258D01*
X035607Y029273D01*
X035607Y029274D01*
X035607Y029274D01*
X035598Y029287D01*
X03559Y0293D01*
X03559Y0293D01*
X035589Y0293D01*
X035533Y029357D01*
X035533Y029357D01*
X035533Y029358D01*
X03552Y029366D01*
X035507Y029375D01*
X035507Y029375D01*
X035506Y029375D01*
X035491Y029378D01*
X035476Y029382D01*
X035475Y029382D01*
X035475Y029382D01*
D02*
G37*
%LPD*%
G36*
X03645Y02778D02*
X03552D01*
Y02883D01*
X03645D01*
Y02778D01*
D02*
G37*
G36*
X035531Y029243D02*
X035528Y028912D01*
X03552D01*
X035489Y028905D01*
X035462Y028888D01*
X035445Y028861D01*
X035438Y02883D01*
Y02778D01*
X03435D01*
Y0293D01*
X035475D01*
X035531Y029243D01*
D02*
G37*
%LPC*%
G36*
X036151Y028715D02*
X036069D01*
X035994Y028684D01*
X035993Y028683D01*
X036061Y028616D01*
X036004Y028559D01*
X035937Y028627D01*
X035936Y028626D01*
X035905Y028551D01*
Y028469D01*
X035936Y028394D01*
X035937Y028393D01*
X036004Y028461D01*
X036061Y028404D01*
X035993Y028337D01*
X035994Y028336D01*
X036069Y028305D01*
X036151D01*
X036226Y028336D01*
X036227Y028337D01*
X036159Y028404D01*
X036216Y028461D01*
X036283Y028393D01*
X036284Y028394D01*
X036315Y028469D01*
Y028551D01*
X036284Y028626D01*
X036283Y028627D01*
X036216Y028559D01*
X036159Y028616D01*
X036227Y028683D01*
X036226Y028684D01*
X036151Y028715D01*
D02*
G37*
G36*
X034921Y029135D02*
X034839D01*
X034764Y029104D01*
X034763Y029103D01*
X034831Y029036D01*
X034774Y028979D01*
X034707Y029047D01*
X034706Y029046D01*
X034675Y028971D01*
Y028889D01*
X034706Y028814D01*
X034707Y028813D01*
X034774Y028881D01*
X034831Y028824D01*
X034763Y028757D01*
X034764Y028756D01*
X034839Y028725D01*
X034921D01*
X034996Y028756D01*
X034997Y028757D01*
X034929Y028824D01*
X034986Y028881D01*
X035053Y028813D01*
X035054Y028814D01*
X035085Y028889D01*
Y028971D01*
X035054Y029046D01*
X035053Y029047D01*
X034986Y028979D01*
X034929Y029036D01*
X034997Y029103D01*
X034996Y029104D01*
X034921Y029135D01*
D02*
G37*
G36*
X040956Y027535D02*
X040884D01*
X040814Y027516D01*
X040751Y02748D01*
X0407Y027429D01*
X040664Y027366D01*
X040645Y027296D01*
Y027224D01*
X040664Y027154D01*
X0407Y027091D01*
X040751Y02704D01*
X040814Y027004D01*
X040884Y026985D01*
X040956D01*
X041026Y027004D01*
X041089Y02704D01*
X04114Y027091D01*
X041176Y027154D01*
X041195Y027224D01*
Y027296D01*
X041176Y027366D01*
X04114Y027429D01*
X041089Y02748D01*
X041026Y027516D01*
X040956Y027535D01*
D02*
G37*
%LPD*%
D15*
X035156Y027633D02*
D03*
X035864Y028224D02*
D03*
Y028027D02*
D03*
Y02783D02*
D03*
Y027633D02*
D03*
Y027436D02*
D03*
X035156Y02783D02*
D03*
Y028027D02*
D03*
Y027436D02*
D03*
D16*
X03475Y02749D02*
D03*
X034533D02*
D03*
D17*
X036276Y02803D02*
D03*
X03665D02*
D03*
D18*
X036572Y030856D02*
D03*
Y031604D02*
D03*
X035588Y03123D02*
D03*
D19*
X038204Y029972D02*
D03*
X037456D02*
D03*
X03783Y028988D02*
D03*
D20*
X0493Y02984D02*
D03*
X049547D02*
D03*
D21*
X04682Y03442D02*
D03*
X045836D02*
D03*
D22*
X0473Y034267D02*
D03*
Y034513D02*
D03*
D23*
X04681Y030317D02*
D03*
X047361D02*
D03*
X046534D02*
D03*
X049566Y033663D02*
D03*
X046258D02*
D03*
X04929D02*
D03*
X049132Y030671D02*
D03*
X04681Y033663D02*
D03*
X049014Y030317D02*
D03*
X048739D02*
D03*
Y033663D02*
D03*
X049014D02*
D03*
X046258Y030317D02*
D03*
X047636D02*
D03*
X047912D02*
D03*
X04929D02*
D03*
X049566D02*
D03*
X048463Y033663D02*
D03*
X048188D02*
D03*
X047912D02*
D03*
X047636D02*
D03*
X047361D02*
D03*
X047085D02*
D03*
Y030317D02*
D03*
X046534Y033663D02*
D03*
X048463Y030317D02*
D03*
X048188D02*
D03*
X049447Y030671D02*
D03*
D24*
X045845Y032817D02*
D03*
Y031439D02*
D03*
Y033644D02*
D03*
Y030336D02*
D03*
Y030888D02*
D03*
Y031163D02*
D03*
Y031714D02*
D03*
Y03199D02*
D03*
Y032266D02*
D03*
Y032541D02*
D03*
Y033092D02*
D03*
Y033368D02*
D03*
Y030612D02*
D03*
D25*
X048075Y03447D02*
D03*
X048725D02*
D03*
D26*
X041314Y031762D02*
D03*
X040566D02*
D03*
X041314Y030778D02*
D03*
X04094Y031762D02*
D03*
X040566Y030778D02*
D03*
D27*
X033956Y02802D02*
D03*
X034684D02*
D03*
D28*
X035156Y02823D02*
D03*
D32*
X03792Y02766D02*
D03*
X04092Y02806D02*
D03*
Y02726D02*
D03*
D41*
X03842Y02741D02*
D03*
X03892D02*
D03*
X03942Y02741D02*
D03*
X03992Y02741D02*
D03*
X04042D02*
D03*
Y02791D02*
D03*
X03992D02*
D03*
X03942Y02791D02*
D03*
X03892Y02791D02*
D03*
X03842D02*
D03*
D42*
X040052Y032487D02*
Y033302D01*
X040317Y032221D02*
X040519D01*
X040052Y032487D02*
X040317Y032221D01*
X040234Y032599D02*
X040452Y032381D01*
X040959D01*
X040234Y032599D02*
Y033258D01*
X040403Y032686D02*
X040548Y032541D01*
X041043D01*
X040403Y032686D02*
Y033201D01*
X040052Y033302D02*
X040298Y033548D01*
X040403Y033201D02*
X04093Y033727D01*
X040234Y033258D02*
X040651Y033675D01*
X04624Y031953D02*
X04639Y032103D01*
X045916Y031953D02*
X04624D01*
X03866Y032823D02*
X03998Y034142D01*
X03866Y03182D02*
Y032823D01*
X040651Y033675D02*
Y034164D01*
X040298Y033548D02*
Y034018D01*
X0385Y031886D02*
Y033179D01*
X039623Y034302D01*
X036576Y0316D02*
X038214D01*
X0385Y031886D01*
X037456Y030616D02*
X03866Y03182D01*
X046813Y032823D02*
X04682Y03283D01*
X045852Y032823D02*
X046813D01*
X04093Y033727D02*
Y0345D01*
X04795Y03298D02*
X04836D01*
X04844Y03306D02*
Y03364D01*
X04836Y03298D02*
X04844Y03306D01*
Y03364D02*
X048463Y033663D01*
X041278Y031798D02*
X041314Y031762D01*
X040959Y032381D02*
X041278Y032062D01*
Y031798D02*
Y032062D01*
X041043Y032541D02*
X041454Y03213D01*
X041703D01*
X04175Y032084D01*
Y031322D02*
Y032084D01*
X041392Y030964D02*
X04175Y031322D01*
X041392Y03095D02*
Y030964D01*
X041386Y030944D02*
X041392Y03095D01*
X041386Y03085D02*
Y030944D01*
X041314Y030778D02*
X041386Y03085D01*
X045845Y032817D02*
X045852Y032823D01*
X040566Y031762D02*
Y032174D01*
X040519Y032221D02*
X040566Y032174D01*
X045845Y032541D02*
X04655D01*
X04588Y031989D02*
X045916Y031953D01*
X045858Y031989D02*
X04588D01*
X04639Y032103D02*
Y03213D01*
X037456Y029972D02*
Y030616D01*
X045858Y031713D02*
X046313D01*
X047104Y030322D02*
Y030834D01*
D43*
X045947Y030033D02*
X046027D01*
X04584Y03014D02*
X045947Y030033D01*
Y030033D02*
X046817D01*
X04584Y03014D02*
Y030331D01*
X046817Y030033D02*
X04684Y03001D01*
X048434Y029689D02*
X048751Y030007D01*
X046671Y029689D02*
X048434D01*
X046599Y029762D02*
X046671Y029689D01*
X046038Y029762D02*
X046599D01*
X04555Y02948D02*
X045795Y029236D01*
X049212D01*
X049537Y029561D01*
X04901Y029998D02*
Y030299D01*
X048512Y0295D02*
X04901Y029998D01*
X04627Y0295D02*
X048512D01*
X048751Y030007D02*
Y030316D01*
X03942Y02741D02*
X03959Y02724D01*
Y02674D02*
Y02724D01*
X03842Y028813D02*
X038707Y0291D01*
X03842Y02791D02*
Y028813D01*
X04555Y02948D02*
Y02949D01*
X049537Y029561D02*
Y02983D01*
X049547Y02984D01*
X035864Y027633D02*
X036147D01*
X03475Y02749D02*
X034768D01*
X034769Y027491D01*
Y027509D01*
X034893Y027633D01*
X035156D01*
X040508Y03072D02*
X040566Y030778D01*
X04755Y03259D02*
Y03296D01*
X047085Y033425D02*
Y033663D01*
Y033425D02*
X04755Y03296D01*
X04944Y03313D02*
Y033152D01*
X049566Y033277D01*
Y033663D01*
X046589Y034116D02*
X046673D01*
X04653Y033667D02*
Y034057D01*
X046589Y034116D01*
X046673D02*
X0468Y034243D01*
Y03442D01*
X047156Y034904D02*
X0473Y03476D01*
Y034513D02*
Y03476D01*
X046476Y034904D02*
X047156D01*
X046308Y03478D02*
X046352D01*
X046476Y034904D01*
X045585D02*
X046184D01*
X046308Y03478D01*
X04722Y03258D02*
Y032917D01*
X04681Y033328D02*
X04722Y032917D01*
X04681Y033328D02*
Y033663D01*
X0414Y032424D02*
Y03285D01*
Y032424D02*
X041524Y0323D01*
X049551Y02984D02*
X04958Y029869D01*
X045816Y030365D02*
X045845Y030336D01*
X04538Y034699D02*
X045585Y034904D01*
X04538Y034089D02*
Y034699D01*
Y034089D02*
X045825Y033644D01*
X045845D01*
X045731Y030365D02*
X045816D01*
X045617Y030479D02*
X045731Y030365D01*
X045617Y030479D02*
Y033501D01*
X045731Y033615D01*
X045816D01*
X045845Y033644D01*
X041799Y03248D02*
X042514D01*
X04302Y031975D01*
Y02865D02*
Y031975D01*
X041524Y0323D02*
X04244D01*
X04284Y0319D01*
Y028849D02*
Y0319D01*
X04174Y032539D02*
X041799Y03248D01*
X04174Y032539D02*
Y03285D01*
X04069Y02632D02*
X04302Y02865D01*
X039175Y02632D02*
X04069D01*
X048063Y03413D02*
Y034458D01*
X047676Y034072D02*
X048004D01*
X048063Y03413D01*
X04749Y033885D02*
Y033885D01*
X047676Y034072D01*
X04739Y033785D02*
X04749Y033885D01*
X047361Y033663D02*
X04739Y033692D01*
Y033785D01*
X04731Y03396D02*
Y034257D01*
X047242Y033892D02*
X04731Y03396D01*
X0473Y034267D02*
X04731Y034257D01*
X046912Y033892D02*
X047242D01*
X046838Y033818D02*
X046912Y033892D01*
X04681Y033663D02*
X046838Y033692D01*
Y033818D01*
X048063Y034458D02*
X048075Y03447D01*
X047665Y033806D02*
X047751Y033892D01*
X048479D01*
X047627Y033663D02*
X047665Y033702D01*
Y033806D01*
X048538Y03395D02*
Y034393D01*
X048479Y033892D02*
X048538Y03395D01*
X047098Y030316D02*
X047104Y030322D01*
Y030834D02*
X04711Y03084D01*
X048981Y02952D02*
X049241D01*
X0493Y029579D02*
Y02984D01*
X049241Y02952D02*
X0493Y029579D01*
X04958Y029869D02*
Y030314D01*
X046842Y0344D02*
Y034512D01*
X046788Y034419D02*
X046842Y034512D01*
X042781Y02879D02*
X04284Y028849D01*
X04017Y02879D02*
X042781D01*
X03992Y02791D02*
Y02854D01*
X04017Y02879D01*
X03892Y02741D02*
X03893Y0274D01*
Y026565D02*
X039175Y02632D01*
X03893Y026565D02*
Y0274D01*
X048538Y034393D02*
X048625Y03448D01*
X045846Y034233D02*
X045948Y03413D01*
X046191D02*
X04625Y034071D01*
Y033683D02*
Y034071D01*
X045948Y03413D02*
X046191D01*
X045778Y034233D02*
X045866D01*
X045765Y03438D02*
Y034448D01*
X04625Y033683D02*
X046271Y033662D01*
X045778Y034233D02*
Y03439D01*
X045765Y03438D02*
Y034448D01*
D44*
X03889Y02849D02*
X03911Y02871D01*
X03889Y02794D02*
Y02849D01*
X040508Y030368D02*
Y03072D01*
X04013Y02999D02*
X040508Y030368D01*
X03989Y02999D02*
X04013D01*
X039881Y029981D02*
X03989Y02999D01*
X038213Y029981D02*
X039881D01*
X038204Y029972D02*
X038213Y029981D01*
X034931Y031091D02*
X03507Y03123D01*
X03492Y03083D02*
X034931Y030841D01*
Y031091D01*
X03507Y03123D02*
X035588D01*
X03637Y03005D02*
X03657Y03025D01*
X03534Y03005D02*
X03637D01*
X03842Y026631D02*
Y02741D01*
X03889Y02794D02*
X03892Y02791D01*
X03657Y03025D02*
Y030854D01*
X04042Y02677D02*
Y02741D01*
X0405Y0299D02*
X04082D01*
X04094Y03002D01*
Y031762D01*
D45*
X040651Y034164D02*
D03*
X040298Y034018D02*
D03*
X03998Y034142D02*
D03*
X039623Y034302D02*
D03*
X03959Y02674D02*
D03*
X038707Y0291D02*
D03*
X04684Y03001D02*
D03*
X04555Y02949D02*
D03*
X046036Y02976D02*
D03*
X04627Y0295D02*
D03*
X03977Y03096D02*
D03*
X03748Y03283D02*
D03*
X03488Y02893D02*
D03*
X04231Y0296D02*
D03*
X03611Y02851D02*
D03*
X03989Y02999D02*
D03*
X03492Y03083D02*
D03*
X03534Y03005D02*
D03*
X0405Y0299D02*
D03*
X03842Y026631D02*
D03*
X03911Y02871D02*
D03*
X04042Y02677D02*
D03*
X04755Y03259D02*
D03*
X04944Y03313D02*
D03*
X04633Y03478D02*
D03*
X04682Y03283D02*
D03*
X04722Y03258D02*
D03*
X0414Y03285D02*
D03*
X04107Y03286D02*
D03*
X04067D02*
D03*
X04093Y0345D02*
D03*
X04795Y03298D02*
D03*
X04174Y03285D02*
D03*
X04655Y032541D02*
D03*
X04639Y03213D02*
D03*
X046313Y031713D02*
D03*
X04711Y03084D02*
D03*
X048981Y02952D02*
D03*
M02*
