G04*
G04 #@! TF.GenerationSoftware,Altium Limited,Altium Designer,25.4.2 (15)*
G04*
G04 Layer_Color=128*
%FSTAX24Y24*%
%MOIN*%
G70*
G04*
G04 #@! TF.SameCoordinates,F4185BB4-0936-4B88-B031-81E5C399A6D0*
G04*
G04*
G04 #@! TF.FilePolarity,Positive*
G04*
G01*
G75*
%ADD54C,0.0020*%
D54*
X037725Y02766D02*
X038115D01*
X03792Y027465D02*
Y027855D01*
X040725Y02806D02*
X041115D01*
X04092Y027865D02*
Y028255D01*
X040725Y02726D02*
X041115D01*
X04092Y027065D02*
Y027455D01*
X040587Y034164D02*
X040715D01*
X040651Y0341D02*
Y034228D01*
X040234Y034018D02*
X040362D01*
X040298Y033954D02*
Y034082D01*
X039916Y034142D02*
X040044D01*
X03998Y034078D02*
Y034206D01*
X039559Y034302D02*
X039687D01*
X039623Y034238D02*
Y034366D01*
X039526Y02674D02*
X039654D01*
X03959Y026676D02*
Y026804D01*
X038643Y0291D02*
X038771D01*
X038707Y029036D02*
Y029164D01*
X046776Y03001D02*
X046904D01*
X04684Y029946D02*
Y030074D01*
X045486Y02949D02*
X045614D01*
X04555Y029426D02*
Y029554D01*
X045972Y02976D02*
X0461D01*
X046036Y029696D02*
Y029824D01*
X046206Y0295D02*
X046334D01*
X04627Y029436D02*
Y029564D01*
X039706Y03096D02*
X039834D01*
X03977Y030896D02*
Y031024D01*
X037416Y03283D02*
X037544D01*
X03748Y032766D02*
Y032894D01*
X034816Y02893D02*
X034944D01*
X03488Y028866D02*
Y028994D01*
X042246Y0296D02*
X042374D01*
X04231Y029536D02*
Y029664D01*
X036046Y02851D02*
X036174D01*
X03611Y028446D02*
Y028574D01*
X039826Y02999D02*
X039954D01*
X03989Y029926D02*
Y030054D01*
X034856Y03083D02*
X034984D01*
X03492Y030766D02*
Y030894D01*
X035276Y03005D02*
X035404D01*
X03534Y029986D02*
Y030114D01*
X040436Y0299D02*
X040564D01*
X0405Y029836D02*
Y029964D01*
X038356Y026631D02*
X038484D01*
X03842Y026567D02*
Y026695D01*
X039046Y02871D02*
X039174D01*
X03911Y028646D02*
Y028774D01*
X040356Y02677D02*
X040484D01*
X04042Y026706D02*
Y026834D01*
X047486Y03259D02*
X047614D01*
X04755Y032526D02*
Y032654D01*
X049376Y03313D02*
X049504D01*
X04944Y033066D02*
Y033194D01*
X046266Y03478D02*
X046394D01*
X04633Y034716D02*
Y034844D01*
X046756Y03283D02*
X046884D01*
X04682Y032766D02*
Y032894D01*
X047156Y03258D02*
X047284D01*
X04722Y032516D02*
Y032644D01*
X041336Y03285D02*
X041464D01*
X0414Y032786D02*
Y032914D01*
X041006Y03286D02*
X041134D01*
X04107Y032796D02*
Y032924D01*
X040606Y03286D02*
X040734D01*
X04067Y032796D02*
Y032924D01*
X040866Y0345D02*
X040994D01*
X04093Y034436D02*
Y034564D01*
X047886Y03298D02*
X048014D01*
X04795Y032916D02*
Y033044D01*
X041676Y03285D02*
X041804D01*
X04174Y032786D02*
Y032914D01*
X046486Y032541D02*
X046614D01*
X04655Y032477D02*
Y032605D01*
X046326Y03213D02*
X046454D01*
X04639Y032066D02*
Y032194D01*
X046249Y031713D02*
X046377D01*
X046313Y031649D02*
Y031777D01*
X047046Y03084D02*
X047174D01*
X04711Y030776D02*
Y030904D01*
X048917Y02952D02*
X049045D01*
X048981Y029456D02*
Y029584D01*
M02*
