M48
;Layer_Color=9474304
;FILE_FORMAT=2:4
INCH,LZ
;TYPE=PLATED
T01F00S00C0.0128
;TYPE=NON_PLATED
T02F00S00C0.0390
%
T01
X04711Y03084
X048981Y02952
X04684Y03001
X046036Y02976
X04627Y0295
X04555Y02949
X04231Y0296
X0405Y0299
X03989Y02999
X03977Y03096
X03911Y02871
X038707Y0291
X03842Y026631
X03959Y02674
X04042Y02677
X03611Y02851
X03488Y02893
X03534Y03005
X03492Y03083
X03748Y03283
X04067Y03286
X04107
X0414Y03285
X04174
X040651Y034164
X040298Y034018
X03998Y034142
X039623Y034302
X04093Y0345
X04633Y03478
X04682Y03283
X04655Y032541
X04639Y03213
X046313Y031713
X04722Y03258
X04755Y03259
X04795Y03298
X04944Y03313
T02
X03792Y02766
X04092Y02806
Y02726
M30
