G04*
G04 #@! TF.GenerationSoftware,Altium Limited,Altium Designer,25.4.2 (15)*
G04*
G04 Layer_Color=2752767*
%FSTAX24Y24*%
%MOIN*%
G70*
G04*
G04 #@! TF.SameCoordinates,12F9F1C2-4B93-4E5A-9412-C193BA208CB0*
G04*
G04*
G04 #@! TF.FilePolarity,Positive*
G04*
G01*
G75*
%ADD15C,0.0100*%
%ADD42C,0.0160*%
%ADD53C,0.0020*%
%ADD54C,0.0150*%
D15*
X019906Y025423D02*
G03*
X019906Y025423I-000333J0D01*
G01*
X019572Y02659D02*
X019906Y027257D01*
X019239D02*
X019906D01*
X019239D02*
X019572Y02659D01*
X019406Y023757D02*
X019572Y02359D01*
X019239Y023757D02*
X019406D01*
X019239D02*
X019406Y023923D01*
X019239Y02409D02*
X019406Y023923D01*
X019239Y02409D02*
X019406D01*
X019572Y024257D01*
X019739Y02409D01*
X019906D01*
X019739Y023923D02*
X019906Y02409D01*
X019739Y023923D02*
X019906Y023757D01*
X019739D02*
X019906D01*
X019572Y02359D02*
X019739Y023757D01*
X019239Y02209D02*
X019572Y022257D01*
X019906Y02209D01*
X019739Y022423D02*
X019906Y02209D01*
X019739Y022423D02*
X019906Y022757D01*
X019572Y02259D02*
X019906Y022757D01*
X019239D02*
X019572Y02259D01*
X019239Y022757D02*
X019406Y022423D01*
X019239Y02209D02*
X019406Y022423D01*
X068288Y02659D02*
Y02719D01*
X068588D01*
X068688Y02709D01*
Y02689D01*
X068588Y02679D01*
X068288D01*
X068987Y02699D02*
X069187D01*
X069287Y02689D01*
Y02659D01*
X068987D01*
X068888Y02669D01*
X068987Y02679D01*
X069287D01*
X069887Y02719D02*
Y02659D01*
X069587D01*
X069487Y02669D01*
Y02689D01*
X069587Y02699D01*
X069887D01*
X068288Y02509D02*
Y02569D01*
X068588D01*
X068688Y02559D01*
Y02539D01*
X068588Y02529D01*
X068288D01*
X068987Y02549D02*
X069187D01*
X069287Y02539D01*
Y02509D01*
X068987D01*
X068888Y02519D01*
X068987Y02529D01*
X069287D01*
X069887Y02569D02*
Y02509D01*
X069587D01*
X069487Y02519D01*
Y02539D01*
X069587Y02549D01*
X069887D01*
X068288Y02359D02*
Y02419D01*
X068588D01*
X068688Y02409D01*
Y02389D01*
X068588Y02379D01*
X068288D01*
X068987Y02399D02*
X069187D01*
X069287Y02389D01*
Y02359D01*
X068987D01*
X068888Y02369D01*
X068987Y02379D01*
X069287D01*
X069887Y02419D02*
Y02359D01*
X069587D01*
X069487Y02369D01*
Y02389D01*
X069587Y02399D01*
X069887D01*
X068288Y02269D02*
Y02229D01*
X068488Y02209D01*
X068688Y02229D01*
Y02269D01*
X068888Y02209D02*
X069087D01*
X068987D01*
Y02249D01*
X068888D01*
X069487D02*
X069687D01*
X069787Y02239D01*
Y02209D01*
X069487D01*
X069387Y02219D01*
X069487Y02229D01*
X069787D01*
X053292Y02719D02*
X053692D01*
X053492D01*
Y02659D01*
X053992D02*
X054192D01*
X054292Y02669D01*
Y02689D01*
X054192Y02699D01*
X053992D01*
X053892Y02689D01*
Y02669D01*
X053992Y02659D01*
X054492Y02639D02*
Y02699D01*
X054792D01*
X054892Y02689D01*
Y02669D01*
X054792Y02659D01*
X054492D01*
X055691Y02719D02*
Y02659D01*
X056091D01*
X056391Y02699D02*
X056591D01*
X056691Y02689D01*
Y02659D01*
X056391D01*
X056291Y02669D01*
X056391Y02679D01*
X056691D01*
X056891Y02699D02*
Y02669D01*
X056991Y02659D01*
X057291D01*
Y02649D01*
X057191Y02639D01*
X057091D01*
X057291Y02659D02*
Y02699D01*
X057791Y02659D02*
X057591D01*
X057491Y02669D01*
Y02689D01*
X057591Y02699D01*
X057791D01*
X057891Y02689D01*
Y02679D01*
X057491D01*
X058091Y02699D02*
Y02659D01*
Y02679D01*
X058191Y02689D01*
X058291Y02699D01*
X058391D01*
X05929Y02689D02*
X05969D01*
X06049Y02719D02*
Y02659D01*
X06079D01*
X06089Y02669D01*
Y02679D01*
X06079Y02689D01*
X06049D01*
X06079D01*
X06089Y02699D01*
Y02709D01*
X06079Y02719D01*
X06049D01*
X06119Y02659D02*
X06139D01*
X06149Y02669D01*
Y02689D01*
X06139Y02699D01*
X06119D01*
X06109Y02689D01*
Y02669D01*
X06119Y02659D01*
X061789Y02709D02*
Y02699D01*
X06169D01*
X061889D01*
X061789D01*
Y02669D01*
X061889Y02659D01*
X062289Y02709D02*
Y02699D01*
X062189D01*
X062389D01*
X062289D01*
Y02669D01*
X062389Y02659D01*
X062789D02*
X062989D01*
X063089Y02669D01*
Y02689D01*
X062989Y02699D01*
X062789D01*
X062689Y02689D01*
Y02669D01*
X062789Y02659D01*
X063289D02*
Y02699D01*
X063389D01*
X063489Y02689D01*
Y02659D01*
Y02689D01*
X063589Y02699D01*
X063689Y02689D01*
Y02659D01*
X064489Y02719D02*
Y02659D01*
X064888D01*
X065188Y02699D02*
X065388D01*
X065488Y02689D01*
Y02659D01*
X065188D01*
X065088Y02669D01*
X065188Y02679D01*
X065488D01*
X065688Y02699D02*
Y02669D01*
X065788Y02659D01*
X066088D01*
Y02649D01*
X065988Y02639D01*
X065888D01*
X066088Y02659D02*
Y02699D01*
X066588Y02659D02*
X066388D01*
X066288Y02669D01*
Y02689D01*
X066388Y02699D01*
X066588D01*
X066688Y02689D01*
Y02679D01*
X066288D01*
X066888Y02699D02*
Y02659D01*
Y02679D01*
X066988Y02689D01*
X067088Y02699D01*
X067188D01*
X053292Y02569D02*
X053692D01*
X053492D01*
Y02509D01*
X053992D02*
X054192D01*
X054292Y02519D01*
Y02539D01*
X054192Y02549D01*
X053992D01*
X053892Y02539D01*
Y02519D01*
X053992Y02509D01*
X054492Y02489D02*
Y02549D01*
X054792D01*
X054892Y02539D01*
Y02519D01*
X054792Y02509D01*
X054492D01*
X055691Y02569D02*
Y02509D01*
X056091D01*
X056391Y02549D02*
X056591D01*
X056691Y02539D01*
Y02509D01*
X056391D01*
X056291Y02519D01*
X056391Y02529D01*
X056691D01*
X056891Y02549D02*
Y02519D01*
X056991Y02509D01*
X057291D01*
Y02499D01*
X057191Y02489D01*
X057091D01*
X057291Y02509D02*
Y02549D01*
X057791Y02509D02*
X057591D01*
X057491Y02519D01*
Y02539D01*
X057591Y02549D01*
X057791D01*
X057891Y02539D01*
Y02529D01*
X057491D01*
X058091Y02549D02*
Y02509D01*
Y02529D01*
X058191Y02539D01*
X058291Y02549D01*
X058391D01*
X05929Y02539D02*
X05969D01*
X06049Y02569D02*
Y02509D01*
X06079D01*
X06089Y02519D01*
Y02529D01*
X06079Y02539D01*
X06049D01*
X06079D01*
X06089Y02549D01*
Y02559D01*
X06079Y02569D01*
X06049D01*
X06119Y02509D02*
X06139D01*
X06149Y02519D01*
Y02539D01*
X06139Y02549D01*
X06119D01*
X06109Y02539D01*
Y02519D01*
X06119Y02509D01*
X061789Y02559D02*
Y02549D01*
X06169D01*
X061889D01*
X061789D01*
Y02519D01*
X061889Y02509D01*
X062289Y02559D02*
Y02549D01*
X062189D01*
X062389D01*
X062289D01*
Y02519D01*
X062389Y02509D01*
X062789D02*
X062989D01*
X063089Y02519D01*
Y02539D01*
X062989Y02549D01*
X062789D01*
X062689Y02539D01*
Y02519D01*
X062789Y02509D01*
X063289D02*
Y02549D01*
X063389D01*
X063489Y02539D01*
Y02509D01*
Y02539D01*
X063589Y02549D01*
X063689Y02539D01*
Y02509D01*
X064489Y02569D02*
Y02509D01*
X064888D01*
X065188Y02549D02*
X065388D01*
X065488Y02539D01*
Y02509D01*
X065188D01*
X065088Y02519D01*
X065188Y02529D01*
X065488D01*
X065688Y02549D02*
Y02519D01*
X065788Y02509D01*
X066088D01*
Y02499D01*
X065988Y02489D01*
X065888D01*
X066088Y02509D02*
Y02549D01*
X066588Y02509D02*
X066388D01*
X066288Y02519D01*
Y02539D01*
X066388Y02549D01*
X066588D01*
X066688Y02539D01*
Y02529D01*
X066288D01*
X066888Y02549D02*
Y02509D01*
Y02529D01*
X066988Y02539D01*
X067088Y02549D01*
X067188D01*
X053292Y02419D02*
X053692D01*
X053492D01*
Y02359D01*
X053992D02*
X054192D01*
X054292Y02369D01*
Y02389D01*
X054192Y02399D01*
X053992D01*
X053892Y02389D01*
Y02369D01*
X053992Y02359D01*
X054492Y02339D02*
Y02399D01*
X054792D01*
X054892Y02389D01*
Y02369D01*
X054792Y02359D01*
X054492D01*
X055691Y02419D02*
Y02359D01*
X056091D01*
X056391Y02399D02*
X056591D01*
X056691Y02389D01*
Y02359D01*
X056391D01*
X056291Y02369D01*
X056391Y02379D01*
X056691D01*
X056891Y02399D02*
Y02369D01*
X056991Y02359D01*
X057291D01*
Y02349D01*
X057191Y02339D01*
X057091D01*
X057291Y02359D02*
Y02399D01*
X057791Y02359D02*
X057591D01*
X057491Y02369D01*
Y02389D01*
X057591Y02399D01*
X057791D01*
X057891Y02389D01*
Y02379D01*
X057491D01*
X058091Y02399D02*
Y02359D01*
Y02379D01*
X058191Y02389D01*
X058291Y02399D01*
X058391D01*
X05929Y02389D02*
X05969D01*
X06049Y02419D02*
Y02359D01*
X06079D01*
X06089Y02369D01*
Y02379D01*
X06079Y02389D01*
X06049D01*
X06079D01*
X06089Y02399D01*
Y02409D01*
X06079Y02419D01*
X06049D01*
X06119Y02359D02*
X06139D01*
X06149Y02369D01*
Y02389D01*
X06139Y02399D01*
X06119D01*
X06109Y02389D01*
Y02369D01*
X06119Y02359D01*
X061789Y02409D02*
Y02399D01*
X06169D01*
X061889D01*
X061789D01*
Y02369D01*
X061889Y02359D01*
X062289Y02409D02*
Y02399D01*
X062189D01*
X062389D01*
X062289D01*
Y02369D01*
X062389Y02359D01*
X062789D02*
X062989D01*
X063089Y02369D01*
Y02389D01*
X062989Y02399D01*
X062789D01*
X062689Y02389D01*
Y02369D01*
X062789Y02359D01*
X063289D02*
Y02399D01*
X063389D01*
X063489Y02389D01*
Y02359D01*
Y02389D01*
X063589Y02399D01*
X063689Y02389D01*
Y02359D01*
X064489Y02419D02*
Y02359D01*
X064888D01*
X065188Y02399D02*
X065388D01*
X065488Y02389D01*
Y02359D01*
X065188D01*
X065088Y02369D01*
X065188Y02379D01*
X065488D01*
X065688Y02399D02*
Y02369D01*
X065788Y02359D01*
X066088D01*
Y02349D01*
X065988Y02339D01*
X065888D01*
X066088Y02359D02*
Y02399D01*
X066588Y02359D02*
X066388D01*
X066288Y02369D01*
Y02389D01*
X066388Y02399D01*
X066588D01*
X066688Y02389D01*
Y02379D01*
X066288D01*
X066888Y02399D02*
Y02359D01*
Y02379D01*
X066988Y02389D01*
X067088Y02399D01*
X067188D01*
X053292Y02269D02*
X053692D01*
X053492D01*
Y02209D01*
X053992D02*
X054192D01*
X054292Y02219D01*
Y02239D01*
X054192Y02249D01*
X053992D01*
X053892Y02239D01*
Y02219D01*
X053992Y02209D01*
X054492Y02189D02*
Y02249D01*
X054792D01*
X054892Y02239D01*
Y02219D01*
X054792Y02209D01*
X054492D01*
X055691Y02269D02*
Y02209D01*
X056091D01*
X056391Y02249D02*
X056591D01*
X056691Y02239D01*
Y02209D01*
X056391D01*
X056291Y02219D01*
X056391Y02229D01*
X056691D01*
X056891Y02249D02*
Y02219D01*
X056991Y02209D01*
X057291D01*
Y02199D01*
X057191Y02189D01*
X057091D01*
X057291Y02209D02*
Y02249D01*
X057791Y02209D02*
X057591D01*
X057491Y02219D01*
Y02239D01*
X057591Y02249D01*
X057791D01*
X057891Y02239D01*
Y02229D01*
X057491D01*
X058091Y02249D02*
Y02209D01*
Y02229D01*
X058191Y02239D01*
X058291Y02249D01*
X058391D01*
X05929Y02239D02*
X05969D01*
X06049Y02269D02*
Y02209D01*
X06079D01*
X06089Y02219D01*
Y02229D01*
X06079Y02239D01*
X06049D01*
X06079D01*
X06089Y02249D01*
Y02259D01*
X06079Y02269D01*
X06049D01*
X06119Y02209D02*
X06139D01*
X06149Y02219D01*
Y02239D01*
X06139Y02249D01*
X06119D01*
X06109Y02239D01*
Y02219D01*
X06119Y02209D01*
X061789Y02259D02*
Y02249D01*
X06169D01*
X061889D01*
X061789D01*
Y02219D01*
X061889Y02209D01*
X062289Y02259D02*
Y02249D01*
X062189D01*
X062389D01*
X062289D01*
Y02219D01*
X062389Y02209D01*
X062789D02*
X062989D01*
X063089Y02219D01*
Y02239D01*
X062989Y02249D01*
X062789D01*
X062689Y02239D01*
Y02219D01*
X062789Y02209D01*
X063289D02*
Y02249D01*
X063389D01*
X063489Y02239D01*
Y02209D01*
Y02239D01*
X063589Y02249D01*
X063689Y02239D01*
Y02209D01*
X064489Y02269D02*
Y02209D01*
X064888D01*
X065188Y02249D02*
X065388D01*
X065488Y02239D01*
Y02209D01*
X065188D01*
X065088Y02219D01*
X065188Y02229D01*
X065488D01*
X065688Y02249D02*
Y02219D01*
X065788Y02209D01*
X066088D01*
Y02199D01*
X065988Y02189D01*
X065888D01*
X066088Y02209D02*
Y02249D01*
X066588Y02209D02*
X066388D01*
X066288Y02219D01*
Y02239D01*
X066388Y02249D01*
X066588D01*
X066688Y02239D01*
Y02229D01*
X066288D01*
X066888Y02249D02*
Y02209D01*
Y02229D01*
X066988Y02239D01*
X067088Y02249D01*
X067188D01*
X045954Y02659D02*
Y02719D01*
X046254D01*
X046354Y02709D01*
Y02689D01*
X046254Y02679D01*
X045954D01*
X046154D02*
X046354Y02659D01*
X046654D02*
X046854D01*
X046954Y02669D01*
Y02689D01*
X046854Y02699D01*
X046654D01*
X046554Y02689D01*
Y02669D01*
X046654Y02659D01*
X047154Y02699D02*
Y02669D01*
X047254Y02659D01*
X047554D01*
Y02699D01*
X047754Y02659D02*
Y02699D01*
X048054D01*
X048153Y02689D01*
Y02659D01*
X048753Y02719D02*
Y02659D01*
X048453D01*
X048353Y02669D01*
Y02689D01*
X048453Y02699D01*
X048753D01*
X045954Y02509D02*
Y02569D01*
X046254D01*
X046354Y02559D01*
Y02539D01*
X046254Y02529D01*
X045954D01*
X046154D02*
X046354Y02509D01*
X046654D02*
X046854D01*
X046954Y02519D01*
Y02539D01*
X046854Y02549D01*
X046654D01*
X046554Y02539D01*
Y02519D01*
X046654Y02509D01*
X047154Y02549D02*
Y02519D01*
X047254Y02509D01*
X047554D01*
Y02549D01*
X047754Y02509D02*
Y02549D01*
X048054D01*
X048153Y02539D01*
Y02509D01*
X048753Y02569D02*
Y02509D01*
X048453D01*
X048353Y02519D01*
Y02539D01*
X048453Y02549D01*
X048753D01*
X045954Y02359D02*
Y02419D01*
X046254D01*
X046354Y02409D01*
Y02389D01*
X046254Y02379D01*
X045954D01*
X046154D02*
X046354Y02359D01*
X046654D02*
X046854D01*
X046954Y02369D01*
Y02389D01*
X046854Y02399D01*
X046654D01*
X046554Y02389D01*
Y02369D01*
X046654Y02359D01*
X047154Y02399D02*
Y02369D01*
X047254Y02359D01*
X047554D01*
Y02399D01*
X047754Y02359D02*
Y02399D01*
X048054D01*
X048153Y02389D01*
Y02359D01*
X048753Y02419D02*
Y02359D01*
X048453D01*
X048353Y02369D01*
Y02389D01*
X048453Y02399D01*
X048753D01*
X045954Y02209D02*
Y02269D01*
X046254D01*
X046354Y02259D01*
Y02239D01*
X046254Y02229D01*
X045954D01*
X046154D02*
X046354Y02209D01*
X046654D02*
X046854D01*
X046954Y02219D01*
Y02239D01*
X046854Y02249D01*
X046654D01*
X046554Y02239D01*
Y02219D01*
X046654Y02209D01*
X047154Y02249D02*
Y02219D01*
X047254Y02209D01*
X047554D01*
Y02249D01*
X047754Y02209D02*
Y02249D01*
X048054D01*
X048153Y02239D01*
Y02209D01*
X048753Y02269D02*
Y02209D01*
X048453D01*
X048353Y02219D01*
Y02239D01*
X048453Y02249D01*
X048753D01*
X040895Y02659D02*
Y02719D01*
X041295Y02659D01*
Y02719D01*
X041495Y02659D02*
Y02719D01*
X041795D01*
X041895Y02709D01*
Y02689D01*
X041795Y02679D01*
X041495D01*
X042095Y02719D02*
X042495D01*
X042295D01*
Y02659D01*
X042695Y02719D02*
Y02659D01*
Y02689D01*
X043095D01*
Y02719D01*
Y02659D01*
X040895Y02509D02*
Y02569D01*
X041295Y02509D01*
Y02569D01*
X041495Y02509D02*
Y02569D01*
X041795D01*
X041895Y02559D01*
Y02539D01*
X041795Y02529D01*
X041495D01*
X042095Y02569D02*
X042495D01*
X042295D01*
Y02509D01*
X042695Y02569D02*
Y02509D01*
Y02539D01*
X043095D01*
Y02569D01*
Y02509D01*
X040895Y02359D02*
Y02419D01*
X041195D01*
X041295Y02409D01*
Y02389D01*
X041195Y02379D01*
X040895D01*
X041495Y02419D02*
X041895D01*
X041695D01*
Y02359D01*
X042095Y02419D02*
Y02359D01*
Y02389D01*
X042495D01*
Y02419D01*
Y02359D01*
X040895Y02209D02*
Y02269D01*
X041195D01*
X041295Y02259D01*
Y02239D01*
X041195Y02229D01*
X040895D01*
X041495Y02269D02*
X041895D01*
X041695D01*
Y02209D01*
X042095Y02269D02*
Y02209D01*
Y02239D01*
X042495D01*
Y02269D01*
Y02209D01*
X029999Y02659D02*
X030199D01*
X030099D01*
Y02719D01*
X029999Y02709D01*
X030498Y02659D02*
Y02669D01*
X030598D01*
Y02659D01*
X030498D01*
X030998Y02709D02*
X031098Y02719D01*
X031298D01*
X031398Y02709D01*
Y02669D01*
X031298Y02659D01*
X031098D01*
X030998Y02669D01*
Y02709D01*
X031598Y02659D02*
X031798D01*
X031698D01*
Y02719D01*
X031598Y02709D01*
X032498Y02719D02*
X032298Y02709D01*
X032098Y02689D01*
Y02669D01*
X032198Y02659D01*
X032398D01*
X032498Y02669D01*
Y02679D01*
X032398Y02689D01*
X032098D01*
X032698Y02659D02*
Y02699D01*
X032798D01*
X032898Y02689D01*
Y02659D01*
Y02689D01*
X032998Y02699D01*
X033098Y02689D01*
Y02659D01*
X033298D02*
Y02699D01*
X033398D01*
X033497Y02689D01*
Y02659D01*
Y02689D01*
X033597Y02699D01*
X033697Y02689D01*
Y02659D01*
X034697D02*
X034497Y02679D01*
Y02699D01*
X034697Y02719D01*
X035297Y02659D02*
Y02719D01*
X034997Y02689D01*
X035397D01*
X035597Y02709D02*
X035697Y02719D01*
X035897D01*
X035997Y02709D01*
Y02669D01*
X035897Y02659D01*
X035697D01*
X035597Y02669D01*
Y02709D01*
X036197Y02659D02*
Y02669D01*
X036297D01*
Y02659D01*
X036197D01*
X036696Y02709D02*
X036796Y02719D01*
X036996D01*
X037096Y02709D01*
Y02669D01*
X036996Y02659D01*
X036796D01*
X036696Y02669D01*
Y02709D01*
X037296D02*
X037396Y02719D01*
X037596D01*
X037696Y02709D01*
Y02669D01*
X037596Y02659D01*
X037396D01*
X037296Y02669D01*
Y02709D01*
X037896Y02659D02*
Y02699D01*
X037996D01*
X038096Y02689D01*
Y02659D01*
Y02689D01*
X038196Y02699D01*
X038296Y02689D01*
Y02659D01*
X038496D02*
X038696D01*
X038596D01*
Y02699D01*
X038496D01*
X038996Y02659D02*
X039196D01*
X039096D01*
Y02719D01*
X038996D01*
X039496Y02659D02*
X039695Y02679D01*
Y02699D01*
X039496Y02719D01*
X029999Y02509D02*
X030199D01*
X030099D01*
Y02569D01*
X029999Y02559D01*
X030498Y02509D02*
Y02519D01*
X030598D01*
Y02509D01*
X030498D01*
X030998Y02559D02*
X031098Y02569D01*
X031298D01*
X031398Y02559D01*
Y02519D01*
X031298Y02509D01*
X031098D01*
X030998Y02519D01*
Y02559D01*
X031598Y02509D02*
X031798D01*
X031698D01*
Y02569D01*
X031598Y02559D01*
X032498Y02569D02*
X032298Y02559D01*
X032098Y02539D01*
Y02519D01*
X032198Y02509D01*
X032398D01*
X032498Y02519D01*
Y02529D01*
X032398Y02539D01*
X032098D01*
X032698Y02509D02*
Y02549D01*
X032798D01*
X032898Y02539D01*
Y02509D01*
Y02539D01*
X032998Y02549D01*
X033098Y02539D01*
Y02509D01*
X033298D02*
Y02549D01*
X033398D01*
X033497Y02539D01*
Y02509D01*
Y02539D01*
X033597Y02549D01*
X033697Y02539D01*
Y02509D01*
X034697D02*
X034497Y02529D01*
Y02549D01*
X034697Y02569D01*
X035297Y02509D02*
Y02569D01*
X034997Y02539D01*
X035397D01*
X035597Y02559D02*
X035697Y02569D01*
X035897D01*
X035997Y02559D01*
Y02519D01*
X035897Y02509D01*
X035697D01*
X035597Y02519D01*
Y02559D01*
X036197Y02509D02*
Y02519D01*
X036297D01*
Y02509D01*
X036197D01*
X036696Y02559D02*
X036796Y02569D01*
X036996D01*
X037096Y02559D01*
Y02519D01*
X036996Y02509D01*
X036796D01*
X036696Y02519D01*
Y02559D01*
X037296D02*
X037396Y02569D01*
X037596D01*
X037696Y02559D01*
Y02519D01*
X037596Y02509D01*
X037396D01*
X037296Y02519D01*
Y02559D01*
X037896Y02509D02*
Y02549D01*
X037996D01*
X038096Y02539D01*
Y02509D01*
Y02539D01*
X038196Y02549D01*
X038296Y02539D01*
Y02509D01*
X038496D02*
X038696D01*
X038596D01*
Y02549D01*
X038496D01*
X038996Y02509D02*
X039196D01*
X039096D01*
Y02569D01*
X038996D01*
X039496Y02509D02*
X039695Y02529D01*
Y02549D01*
X039496Y02569D01*
X029999Y02409D02*
X030099Y02419D01*
X030299D01*
X030398Y02409D01*
Y02369D01*
X030299Y02359D01*
X030099D01*
X029999Y02369D01*
Y02409D01*
X030598Y02359D02*
Y02369D01*
X030698D01*
Y02359D01*
X030598D01*
X031098Y02409D02*
X031198Y02419D01*
X031398D01*
X031498Y02409D01*
Y02399D01*
X031398Y02389D01*
X031498Y02379D01*
Y02369D01*
X031398Y02359D01*
X031198D01*
X031098Y02369D01*
Y02379D01*
X031198Y02389D01*
X031098Y02399D01*
Y02409D01*
X031198Y02389D02*
X031398D01*
X031698Y02359D02*
X031898D01*
X031798D01*
Y02419D01*
X031698Y02409D01*
X032198D02*
X032298Y02419D01*
X032498D01*
X032598Y02409D01*
Y02399D01*
X032498Y02389D01*
X032398D01*
X032498D01*
X032598Y02379D01*
Y02369D01*
X032498Y02359D01*
X032298D01*
X032198Y02369D01*
X032798Y02359D02*
Y02399D01*
X032898D01*
X032998Y02389D01*
Y02359D01*
Y02389D01*
X033098Y02399D01*
X033198Y02389D01*
Y02359D01*
X033398D02*
Y02399D01*
X033497D01*
X033597Y02389D01*
Y02359D01*
Y02389D01*
X033697Y02399D01*
X033797Y02389D01*
Y02359D01*
X034797D02*
X034597Y02379D01*
Y02399D01*
X034797Y02419D01*
X035097Y02409D02*
X035197Y02419D01*
X035397D01*
X035497Y02409D01*
Y02399D01*
X035397Y02389D01*
X035297D01*
X035397D01*
X035497Y02379D01*
Y02369D01*
X035397Y02359D01*
X035197D01*
X035097Y02369D01*
X036097Y02359D02*
X035697D01*
X036097Y02399D01*
Y02409D01*
X035997Y02419D01*
X035797D01*
X035697Y02409D01*
X036297Y02359D02*
Y02369D01*
X036397D01*
Y02359D01*
X036297D01*
X036796Y02409D02*
X036896Y02419D01*
X037096D01*
X037196Y02409D01*
Y02369D01*
X037096Y02359D01*
X036896D01*
X036796Y02369D01*
Y02409D01*
X037396D02*
X037496Y02419D01*
X037696D01*
X037796Y02409D01*
Y02369D01*
X037696Y02359D01*
X037496D01*
X037396Y02369D01*
Y02409D01*
X037996Y02359D02*
Y02399D01*
X038096D01*
X038196Y02389D01*
Y02359D01*
Y02389D01*
X038296Y02399D01*
X038396Y02389D01*
Y02359D01*
X038596D02*
X038796D01*
X038696D01*
Y02399D01*
X038596D01*
X039096Y02359D02*
X039296D01*
X039196D01*
Y02419D01*
X039096D01*
X039595Y02359D02*
X039795Y02379D01*
Y02399D01*
X039595Y02419D01*
X029999Y02259D02*
X030099Y02269D01*
X030299D01*
X030398Y02259D01*
Y02219D01*
X030299Y02209D01*
X030099D01*
X029999Y02219D01*
Y02259D01*
X030598Y02209D02*
Y02219D01*
X030698D01*
Y02209D01*
X030598D01*
X031098Y02259D02*
X031198Y02269D01*
X031398D01*
X031498Y02259D01*
Y02249D01*
X031398Y02239D01*
X031298D01*
X031398D01*
X031498Y02229D01*
Y02219D01*
X031398Y02209D01*
X031198D01*
X031098Y02219D01*
X031698Y02259D02*
X031798Y02269D01*
X031998D01*
X032098Y02259D01*
Y02219D01*
X031998Y02209D01*
X031798D01*
X031698Y02219D01*
Y02259D01*
X032698Y02269D02*
X032298D01*
Y02239D01*
X032498Y02249D01*
X032598D01*
X032698Y02239D01*
Y02219D01*
X032598Y02209D01*
X032398D01*
X032298Y02219D01*
X032898Y02209D02*
Y02249D01*
X032998D01*
X033098Y02239D01*
Y02209D01*
Y02239D01*
X033198Y02249D01*
X033298Y02239D01*
Y02209D01*
X033497D02*
Y02249D01*
X033597D01*
X033697Y02239D01*
Y02209D01*
Y02239D01*
X033797Y02249D01*
X033897Y02239D01*
Y02209D01*
X034897D02*
X034697Y02229D01*
Y02249D01*
X034897Y02269D01*
X035197Y02209D02*
X035397D01*
X035297D01*
Y02269D01*
X035197Y02259D01*
X036097Y02209D02*
X035697D01*
X036097Y02249D01*
Y02259D01*
X035997Y02269D01*
X035797D01*
X035697Y02259D01*
X036297Y02209D02*
Y02219D01*
X036397D01*
Y02209D01*
X036297D01*
X036796Y02259D02*
X036896Y02269D01*
X037096D01*
X037196Y02259D01*
Y02219D01*
X037096Y02209D01*
X036896D01*
X036796Y02219D01*
Y02259D01*
X037396D02*
X037496Y02269D01*
X037696D01*
X037796Y02259D01*
Y02219D01*
X037696Y02209D01*
X037496D01*
X037396Y02219D01*
Y02259D01*
X037996Y02209D02*
Y02249D01*
X038096D01*
X038196Y02239D01*
Y02209D01*
Y02239D01*
X038296Y02249D01*
X038396Y02239D01*
Y02209D01*
X038596D02*
X038796D01*
X038696D01*
Y02249D01*
X038596D01*
X039096Y02209D02*
X039296D01*
X039196D01*
Y02269D01*
X039096D01*
X039595Y02209D02*
X039795Y02229D01*
Y02249D01*
X039595Y02269D01*
X0246Y02119D02*
X025D01*
Y02109D01*
X0246Y02069D01*
Y02059D01*
X0255D02*
Y02119D01*
X0252Y02089D01*
X0256D01*
X026399Y02119D02*
X026799D01*
X026599D01*
Y02059D01*
X027099D02*
X027299D01*
X027399Y02069D01*
Y02089D01*
X027299Y02099D01*
X027099D01*
X026999Y02089D01*
Y02069D01*
X027099Y02059D01*
X027699Y02109D02*
Y02099D01*
X027599D01*
X027799D01*
X027699D01*
Y02069D01*
X027799Y02059D01*
X028199Y02099D02*
X028399D01*
X028499Y02089D01*
Y02059D01*
X028199D01*
X028099Y02069D01*
X028199Y02079D01*
X028499D01*
X028699Y02059D02*
X028899D01*
X028799D01*
Y02119D01*
X028699D01*
X0246Y02659D02*
X0248D01*
X0247D01*
Y02719D01*
X0246Y02709D01*
Y02509D02*
X0248D01*
X0247D01*
Y02569D01*
X0246Y02559D01*
Y02359D02*
X0248D01*
X0247D01*
Y02419D01*
X0246Y02409D01*
X0251D02*
X0252Y02419D01*
X0254D01*
X0255Y02409D01*
Y02369D01*
X0254Y02359D01*
X0252D01*
X0251Y02369D01*
Y02409D01*
X025Y02269D02*
X0248Y02259D01*
X0246Y02239D01*
Y02219D01*
X0247Y02209D01*
X0249D01*
X025Y02219D01*
Y02229D01*
X0249Y02239D01*
X0246D01*
X0256Y02209D02*
X0252D01*
X0256Y02249D01*
Y02259D01*
X0255Y02269D01*
X0253D01*
X0252Y02259D01*
D42*
X068288Y02881D02*
Y02833D01*
X068528Y02809D01*
X068768Y02833D01*
Y02881D01*
X069007Y02809D02*
X069247D01*
X069127D01*
Y02857D01*
X069007D01*
X069727D02*
X069967D01*
X070087Y02845D01*
Y02809D01*
X069727D01*
X069607Y02821D01*
X069727Y02833D01*
X070087D01*
X070327Y02809D02*
X070807Y02857D01*
X071047Y02809D02*
Y02881D01*
X071407D01*
X071527Y02869D01*
Y02845D01*
X071407Y02833D01*
X071047D01*
X071887Y02857D02*
X072126D01*
X072246Y02845D01*
Y02809D01*
X071887D01*
X071767Y02821D01*
X071887Y02833D01*
X072246D01*
X072966Y02881D02*
Y02809D01*
X072606D01*
X072486Y02821D01*
Y02845D01*
X072606Y02857D01*
X072966D01*
X053292Y02881D02*
Y02809D01*
X053652D01*
X053772Y02821D01*
Y02869D01*
X053652Y02881D01*
X053292D01*
X054012Y02857D02*
Y02809D01*
Y02833D01*
X054132Y02845D01*
X054252Y02857D01*
X054372D01*
X054732Y02809D02*
X054972D01*
X054852D01*
Y02857D01*
X054732D01*
X055332Y02809D02*
X055571D01*
X055452D01*
Y02881D01*
X055332D01*
X055931Y02809D02*
X056171D01*
X056051D01*
Y02881D01*
X055931D01*
X057251D02*
Y02809D01*
X057731D01*
X058091Y02857D02*
X058331D01*
X058451Y02845D01*
Y02809D01*
X058091D01*
X057971Y02821D01*
X058091Y02833D01*
X058451D01*
X05869Y02857D02*
Y02821D01*
X05881Y02809D01*
X05917D01*
Y02797D01*
X05905Y02785D01*
X05893D01*
X05917Y02809D02*
Y02857D01*
X05977Y02809D02*
X05953D01*
X05941Y02821D01*
Y02845D01*
X05953Y02857D01*
X05977D01*
X05989Y02845D01*
Y02833D01*
X05941D01*
X06013Y02857D02*
Y02809D01*
Y02833D01*
X06025Y02845D01*
X06037Y02857D01*
X06049D01*
X06157Y02809D02*
Y02881D01*
X061929D01*
X062049Y02869D01*
Y02845D01*
X061929Y02833D01*
X06157D01*
X062409Y02857D02*
X062649D01*
X062769Y02845D01*
Y02809D01*
X062409D01*
X062289Y02821D01*
X062409Y02833D01*
X062769D01*
X063009Y02809D02*
X063249D01*
X063129D01*
Y02857D01*
X063009D01*
X063609D02*
Y02809D01*
Y02833D01*
X063729Y02845D01*
X063849Y02857D01*
X063969D01*
X045954Y02881D02*
Y02809D01*
Y02845D01*
X046434D01*
Y02881D01*
Y02809D01*
X046794D02*
X047034D01*
X047154Y02821D01*
Y02845D01*
X047034Y02857D01*
X046794D01*
X046674Y02845D01*
Y02821D01*
X046794Y02809D01*
X047394D02*
X047634D01*
X047514D01*
Y02881D01*
X047394D01*
X048353Y02809D02*
X048113D01*
X047994Y02821D01*
Y02845D01*
X048113Y02857D01*
X048353D01*
X048473Y02845D01*
Y02833D01*
X047994D01*
X049433Y02881D02*
X049913D01*
X049673D01*
Y02809D01*
X050153Y02857D02*
Y02821D01*
X050273Y02809D01*
X050633D01*
Y02797D01*
X050513Y02785D01*
X050393D01*
X050633Y02809D02*
Y02857D01*
X050873Y02785D02*
Y02857D01*
X051232D01*
X051352Y02845D01*
Y02821D01*
X051232Y02809D01*
X050873D01*
X051952D02*
X051712D01*
X051592Y02821D01*
Y02845D01*
X051712Y02857D01*
X051952D01*
X052072Y02845D01*
Y02833D01*
X051592D01*
X040895Y02809D02*
Y02881D01*
X041255D01*
X041375Y02869D01*
Y02845D01*
X041255Y02833D01*
X040895D01*
X041615Y02809D02*
X041855D01*
X041735D01*
Y02881D01*
X041615D01*
X042335Y02857D02*
X042575D01*
X042695Y02845D01*
Y02809D01*
X042335D01*
X042215Y02821D01*
X042335Y02833D01*
X042695D01*
X043055Y02869D02*
Y02857D01*
X042935D01*
X043175D01*
X043055D01*
Y02821D01*
X043175Y02809D01*
X043894D02*
X043655D01*
X043535Y02821D01*
Y02845D01*
X043655Y02857D01*
X043894D01*
X044014Y02845D01*
Y02833D01*
X043535D01*
X044734Y02881D02*
Y02809D01*
X044374D01*
X044254Y02821D01*
Y02845D01*
X044374Y02857D01*
X044734D01*
X029999Y02881D02*
Y02809D01*
Y02845D01*
X030478D01*
Y02881D01*
Y02809D01*
X030838D02*
X031078D01*
X031198Y02821D01*
Y02845D01*
X031078Y02857D01*
X030838D01*
X030718Y02845D01*
Y02821D01*
X030838Y02809D01*
X031438D02*
X031678D01*
X031558D01*
Y02881D01*
X031438D01*
X032398Y02809D02*
X032158D01*
X032038Y02821D01*
Y02845D01*
X032158Y02857D01*
X032398D01*
X032518Y02845D01*
Y02833D01*
X032038D01*
X033957Y02869D02*
X033837Y02881D01*
X033597D01*
X033477Y02869D01*
Y02857D01*
X033597Y02845D01*
X033837D01*
X033957Y02833D01*
Y02821D01*
X033837Y02809D01*
X033597D01*
X033477Y02821D01*
X034197Y02809D02*
X034437D01*
X034317D01*
Y02857D01*
X034197D01*
X034797D02*
X035277D01*
X034797Y02809D01*
X035277D01*
X035877D02*
X035637D01*
X035517Y02821D01*
Y02845D01*
X035637Y02857D01*
X035877D01*
X035997Y02845D01*
Y02833D01*
X035517D01*
X02508Y02869D02*
X02496Y02881D01*
X02472D01*
X0246Y02869D01*
Y02821D01*
X02472Y02809D01*
X02496D01*
X02508Y02821D01*
X02544Y02809D02*
X02568D01*
X0258Y02821D01*
Y02845D01*
X02568Y02857D01*
X02544D01*
X02532Y02845D01*
Y02821D01*
X02544Y02809D01*
X02604Y02857D02*
Y02821D01*
X02616Y02809D01*
X026519D01*
Y02857D01*
X026759Y02809D02*
Y02857D01*
X027119D01*
X027239Y02845D01*
Y02809D01*
X027599Y02869D02*
Y02857D01*
X027479D01*
X027719D01*
X027599D01*
Y02821D01*
X027719Y02809D01*
X020021Y02869D02*
X019901Y02881D01*
X019661D01*
X019541Y02869D01*
Y02857D01*
X019661Y02845D01*
X019901D01*
X020021Y02833D01*
Y02821D01*
X019901Y02809D01*
X019661D01*
X019541Y02821D01*
X020261Y02857D02*
Y02821D01*
X020381Y02809D01*
X020741D01*
Y02797D01*
X020621Y02785D01*
X020501D01*
X020741Y02809D02*
Y02857D01*
X020981Y02809D02*
Y02857D01*
X021101D01*
X021221Y02845D01*
Y02809D01*
Y02845D01*
X021341Y02857D01*
X021461Y02845D01*
Y02809D01*
X021701Y02881D02*
Y02809D01*
X02206D01*
X02218Y02821D01*
Y02833D01*
Y02845D01*
X02206Y02857D01*
X021701D01*
X02254Y02809D02*
X02278D01*
X0229Y02821D01*
Y02845D01*
X02278Y02857D01*
X02254D01*
X02242Y02845D01*
Y02821D01*
X02254Y02809D01*
X02314D02*
X02338D01*
X02326D01*
Y02881D01*
X02314D01*
D53*
X019124Y01887D02*
G03*
X019124Y01887I-0001J0D01*
G01*
X02759Y01594D02*
X02769Y01599D01*
X02779Y01594D01*
X02774Y01604D02*
X02779Y01594D01*
X02774Y01604D02*
X02779Y01614D01*
X02769Y01609D02*
X02779Y01614D01*
X02759D02*
X02769Y01609D01*
X02759Y01614D02*
X02764Y01604D01*
X02759Y01594D02*
X02764Y01604D01*
X02963Y0145D02*
X02973Y01455D01*
X02983Y0145D01*
X02978Y0146D02*
X02983Y0145D01*
X02978Y0146D02*
X02983Y0147D01*
X02973Y01465D02*
X02983Y0147D01*
X02963D02*
X02973Y01465D01*
X02963Y0147D02*
X02968Y0146D01*
X02963Y0145D02*
X02968Y0146D01*
X02962Y01361D02*
X02972Y01366D01*
X02982Y01361D01*
X02977Y01371D02*
X02982Y01361D01*
X02977Y01371D02*
X02982Y01381D01*
X02972Y01376D02*
X02982Y01381D01*
X02962D02*
X02972Y01376D01*
X02962Y01381D02*
X02967Y01371D01*
X02962Y01361D02*
X02967Y01371D01*
X02963Y01297D02*
X02973Y01302D01*
X02983Y01297D01*
X02978Y01307D02*
X02983Y01297D01*
X02978Y01307D02*
X02983Y01317D01*
X02973Y01312D02*
X02983Y01317D01*
X02963D02*
X02973Y01312D01*
X02963Y01317D02*
X02968Y01307D01*
X02963Y01297D02*
X02968Y01307D01*
X023583Y011737D02*
X023683Y011787D01*
X023783Y011737D01*
X023733Y011837D02*
X023783Y011737D01*
X023733Y011837D02*
X023783Y011937D01*
X023683Y011887D02*
X023783Y011937D01*
X023583D02*
X023683Y011887D01*
X023583Y011937D02*
X023633Y011837D01*
X023583Y011737D02*
X023633Y011837D01*
X01944Y01813D02*
X01954Y01818D01*
X01964Y01813D01*
X01959Y01823D02*
X01964Y01813D01*
X01959Y01823D02*
X01964Y01833D01*
X01954Y01828D02*
X01964Y01833D01*
X01944D02*
X01954Y01828D01*
X01944Y01833D02*
X01949Y01823D01*
X01944Y01813D02*
X01949Y01823D01*
X02394Y01811D02*
X02404Y01816D01*
X02414Y01811D01*
X02409Y01821D02*
X02414Y01811D01*
X02409Y01821D02*
X02414Y01831D01*
X02404Y01826D02*
X02414Y01831D01*
X02394D02*
X02404Y01826D01*
X02394Y01831D02*
X02399Y01821D01*
X02394Y01811D02*
X02399Y01821D01*
X02615Y01301D02*
X02625Y01306D01*
X02635Y01301D01*
X0263Y01311D02*
X02635Y01301D01*
X0263Y01311D02*
X02635Y01321D01*
X02625Y01316D02*
X02635Y01321D01*
X02615D02*
X02625Y01316D01*
X02615Y01321D02*
X0262Y01311D01*
X02615Y01301D02*
X0262Y01311D01*
X02103Y01109D02*
X02113Y01114D01*
X02123Y01109D01*
X02118Y01119D02*
X02123Y01109D01*
X02118Y01119D02*
X02123Y01129D01*
X02113Y01124D02*
X02123Y01129D01*
X02103D02*
X02113Y01124D01*
X02103Y01129D02*
X02108Y01119D01*
X02103Y01109D02*
X02108Y01119D01*
X021053Y012087D02*
X021153Y012137D01*
X021253Y012087D01*
X021203Y012187D02*
X021253Y012087D01*
X021203Y012187D02*
X021253Y012287D01*
X021153Y012237D02*
X021253Y012287D01*
X021053D02*
X021153Y012237D01*
X021053Y012287D02*
X021103Y012187D01*
X021053Y012087D02*
X021103Y012187D01*
X02141Y01235D02*
X02151Y0124D01*
X02161Y01235D01*
X02156Y01245D02*
X02161Y01235D01*
X02156Y01245D02*
X02161Y01255D01*
X02151Y0125D02*
X02161Y01255D01*
X02141D02*
X02151Y0125D01*
X02141Y01255D02*
X02146Y01245D01*
X02141Y01235D02*
X02146Y01245D01*
X023635Y011008D02*
X023735Y011058D01*
X023835Y011008D01*
X023785Y011108D02*
X023835Y011008D01*
X023785Y011108D02*
X023835Y011208D01*
X023735Y011158D02*
X023835Y011208D01*
X023635D02*
X023735Y011158D01*
X023635Y011208D02*
X023685Y011108D01*
X023635Y011008D02*
X023685Y011108D01*
X023232Y012345D02*
X023332Y012395D01*
X023432Y012345D01*
X023382Y012445D02*
X023432Y012345D01*
X023382Y012445D02*
X023432Y012545D01*
X023332Y012495D02*
X023432Y012545D01*
X023232D02*
X023332Y012495D01*
X023232Y012545D02*
X023282Y012445D01*
X023232Y012345D02*
X023282Y012445D01*
X0248Y0122D02*
X0249Y01225D01*
X025Y0122D01*
X02495Y0123D02*
X025Y0122D01*
X02495Y0123D02*
X025Y0124D01*
X0249Y01235D02*
X025Y0124D01*
X0248D02*
X0249Y01235D01*
X0248Y0124D02*
X02485Y0123D01*
X0248Y0122D02*
X02485Y0123D01*
X02135Y01816D02*
X02145Y01821D01*
X02155Y01816D01*
X0215Y01826D02*
X02155Y01816D01*
X0215Y01826D02*
X02155Y01836D01*
X02145Y01831D02*
X02155Y01836D01*
X02135D02*
X02145Y01831D01*
X02135Y01836D02*
X0214Y01826D01*
X02135Y01816D02*
X0214Y01826D01*
X02407Y01363D02*
X02417Y01368D01*
X02427Y01363D01*
X02422Y01373D02*
X02427Y01363D01*
X02422Y01373D02*
X02427Y01383D01*
X02417Y01378D02*
X02427Y01383D01*
X02407D02*
X02417Y01378D01*
X02407Y01383D02*
X02412Y01373D01*
X02407Y01363D02*
X02412Y01373D01*
X02664Y01367D02*
X02674Y01372D01*
X02684Y01367D01*
X02679Y01377D02*
X02684Y01367D01*
X02679Y01377D02*
X02684Y01387D01*
X02674Y01382D02*
X02684Y01387D01*
X02664D02*
X02674Y01382D01*
X02664Y01387D02*
X02669Y01377D01*
X02664Y01367D02*
X02669Y01377D01*
X02558Y01575D02*
X02568Y0158D01*
X02578Y01575D01*
X02573Y01585D02*
X02578Y01575D01*
X02573Y01585D02*
X02578Y01595D01*
X02568Y0159D02*
X02578Y01595D01*
X02558D02*
X02568Y0159D01*
X02558Y01595D02*
X02563Y01585D01*
X02558Y01575D02*
X02563Y01585D01*
X02606Y01576D02*
X02616Y01581D01*
X02626Y01576D01*
X02621Y01586D02*
X02626Y01576D01*
X02621Y01586D02*
X02626Y01596D01*
X02616Y01591D02*
X02626Y01596D01*
X02606D02*
X02616Y01591D01*
X02606Y01596D02*
X02611Y01586D01*
X02606Y01576D02*
X02611Y01586D01*
X02721Y01676D02*
X02731Y01681D01*
X02741Y01676D01*
X02736Y01686D02*
X02741Y01676D01*
X02736Y01686D02*
X02741Y01696D01*
X02731Y01691D02*
X02741Y01696D01*
X02721D02*
X02731Y01691D01*
X02721Y01696D02*
X02726Y01686D01*
X02721Y01676D02*
X02726Y01686D01*
X02796Y01676D02*
X02806Y01681D01*
X02816Y01676D01*
X02811Y01686D02*
X02816Y01676D01*
X02811Y01686D02*
X02816Y01696D01*
X02806Y01691D02*
X02816Y01696D01*
X02796D02*
X02806Y01691D01*
X02796Y01696D02*
X02801Y01686D01*
X02796Y01676D02*
X02801Y01686D01*
X025434Y011334D02*
X025534Y011384D01*
X025634Y011334D01*
X025584Y011434D02*
X025634Y011334D01*
X025584Y011434D02*
X025634Y011534D01*
X025534Y011484D02*
X025634Y011534D01*
X025434D02*
X025534Y011484D01*
X025434Y011534D02*
X025484Y011434D01*
X025434Y011334D02*
X025484Y011434D01*
X02743Y01126D02*
X02753Y01131D01*
X02763Y01126D01*
X02758Y01136D02*
X02763Y01126D01*
X02758Y01136D02*
X02763Y01146D01*
X02753Y01141D02*
X02763Y01146D01*
X02743D02*
X02753Y01141D01*
X02743Y01146D02*
X02748Y01136D01*
X02743Y01126D02*
X02748Y01136D01*
X02631Y017096D02*
X02641Y017146D01*
X02651Y017096D01*
X02646Y017196D02*
X02651Y017096D01*
X02646Y017196D02*
X02651Y017296D01*
X02641Y017246D02*
X02651Y017296D01*
X02631D02*
X02641Y017246D01*
X02631Y017296D02*
X02636Y017196D01*
X02631Y017096D02*
X02636Y017196D01*
X02755Y01707D02*
X02765Y01712D01*
X02775Y01707D01*
X0277Y01717D02*
X02775Y01707D01*
X0277Y01717D02*
X02775Y01727D01*
X02765Y01722D02*
X02775Y01727D01*
X02755D02*
X02765Y01722D01*
X02755Y01727D02*
X0276Y01717D01*
X02755Y01707D02*
X0276Y01717D01*
X024379Y015761D02*
X024479Y015811D01*
X024579Y015761D01*
X024529Y015861D02*
X024579Y015761D01*
X024529Y015861D02*
X024579Y015961D01*
X024479Y015911D02*
X024579Y015961D01*
X024379D02*
X024479Y015911D01*
X024379Y015961D02*
X024429Y015861D01*
X024379Y015761D02*
X024429Y015861D01*
X02412Y01484D02*
X02422Y01489D01*
X02432Y01484D01*
X02427Y01494D02*
X02432Y01484D01*
X02427Y01494D02*
X02432Y01504D01*
X02422Y01499D02*
X02432Y01504D01*
X02412D02*
X02422Y01499D01*
X02412Y01504D02*
X02417Y01494D01*
X02412Y01484D02*
X02417Y01494D01*
X02332Y01669D02*
X02342Y01674D01*
X02352Y01669D01*
X02347Y01679D02*
X02352Y01669D01*
X02347Y01679D02*
X02352Y01689D01*
X02342Y01684D02*
X02352Y01689D01*
X02332D02*
X02342Y01684D01*
X02332Y01689D02*
X02337Y01679D01*
X02332Y01669D02*
X02337Y01679D01*
X01995Y0127D02*
X02005Y01275D01*
X02015Y0127D01*
X0201Y0128D02*
X02015Y0127D01*
X0201Y0128D02*
X02015Y0129D01*
X02005Y01285D02*
X02015Y0129D01*
X01995D02*
X02005Y01285D01*
X01995Y0129D02*
X02Y0128D01*
X01995Y0127D02*
X02Y0128D01*
X03035Y01796D02*
X03045Y01801D01*
X03055Y01796D01*
X0305Y01806D02*
X03055Y01796D01*
X0305Y01806D02*
X03055Y01816D01*
X03045Y01811D02*
X03055Y01816D01*
X03035D02*
X03045Y01811D01*
X03035Y01816D02*
X0304Y01806D01*
X03035Y01796D02*
X0304Y01806D01*
X01953Y01609D02*
X01963Y01614D01*
X01973Y01609D01*
X01968Y01619D02*
X01973Y01609D01*
X01968Y01619D02*
X01973Y01629D01*
X01963Y01624D02*
X01973Y01629D01*
X01953D02*
X01963Y01624D01*
X01953Y01629D02*
X01958Y01619D01*
X01953Y01609D02*
X01958Y01619D01*
X01953Y01734D02*
X01963Y01739D01*
X01973Y01734D01*
X01968Y01744D02*
X01973Y01734D01*
X01968Y01744D02*
X01973Y01754D01*
X01963Y01749D02*
X01973Y01754D01*
X01953D02*
X01963Y01749D01*
X01953Y01754D02*
X01958Y01744D01*
X01953Y01734D02*
X01958Y01744D01*
X02078Y01109D02*
X02088Y01114D01*
X02098Y01109D01*
X02093Y01119D02*
X02098Y01109D01*
X02093Y01119D02*
X02098Y01129D01*
X02088Y01124D02*
X02098Y01129D01*
X02078D02*
X02088Y01124D01*
X02078Y01129D02*
X02083Y01119D01*
X02078Y01109D02*
X02083Y01119D01*
X02078Y01234D02*
X02088Y01239D01*
X02098Y01234D01*
X02093Y01244D02*
X02098Y01234D01*
X02093Y01244D02*
X02098Y01254D01*
X02088Y01249D02*
X02098Y01254D01*
X02078D02*
X02088Y01249D01*
X02078Y01254D02*
X02083Y01244D01*
X02078Y01234D02*
X02083Y01244D01*
X02078Y01359D02*
X02088Y01364D01*
X02098Y01359D01*
X02093Y01369D02*
X02098Y01359D01*
X02093Y01369D02*
X02098Y01379D01*
X02088Y01374D02*
X02098Y01379D01*
X02078D02*
X02088Y01374D01*
X02078Y01379D02*
X02083Y01369D01*
X02078Y01359D02*
X02083Y01369D01*
X02078Y01734D02*
X02088Y01739D01*
X02098Y01734D01*
X02093Y01744D02*
X02098Y01734D01*
X02093Y01744D02*
X02098Y01754D01*
X02088Y01749D02*
X02098Y01754D01*
X02078D02*
X02088Y01749D01*
X02078Y01754D02*
X02083Y01744D01*
X02078Y01734D02*
X02083Y01744D01*
X02203Y01109D02*
X02213Y01114D01*
X02223Y01109D01*
X02218Y01119D02*
X02223Y01109D01*
X02218Y01119D02*
X02223Y01129D01*
X02213Y01124D02*
X02223Y01129D01*
X02203D02*
X02213Y01124D01*
X02203Y01129D02*
X02208Y01119D01*
X02203Y01109D02*
X02208Y01119D01*
X02203Y01234D02*
X02213Y01239D01*
X02223Y01234D01*
X02218Y01244D02*
X02223Y01234D01*
X02218Y01244D02*
X02223Y01254D01*
X02213Y01249D02*
X02223Y01254D01*
X02203D02*
X02213Y01249D01*
X02203Y01254D02*
X02208Y01244D01*
X02203Y01234D02*
X02208Y01244D01*
X02203Y01484D02*
X02213Y01489D01*
X02223Y01484D01*
X02218Y01494D02*
X02223Y01484D01*
X02218Y01494D02*
X02223Y01504D01*
X02213Y01499D02*
X02223Y01504D01*
X02203D02*
X02213Y01499D01*
X02203Y01504D02*
X02208Y01494D01*
X02203Y01484D02*
X02208Y01494D01*
X02203Y01609D02*
X02213Y01614D01*
X02223Y01609D01*
X02218Y01619D02*
X02223Y01609D01*
X02218Y01619D02*
X02223Y01629D01*
X02213Y01624D02*
X02223Y01629D01*
X02203D02*
X02213Y01624D01*
X02203Y01629D02*
X02208Y01619D01*
X02203Y01609D02*
X02208Y01619D01*
X02203Y01734D02*
X02213Y01739D01*
X02223Y01734D01*
X02218Y01744D02*
X02223Y01734D01*
X02218Y01744D02*
X02223Y01754D01*
X02213Y01749D02*
X02223Y01754D01*
X02203D02*
X02213Y01749D01*
X02203Y01754D02*
X02208Y01744D01*
X02203Y01734D02*
X02208Y01744D01*
X02328Y00984D02*
X02338Y00989D01*
X02348Y00984D01*
X02343Y00994D02*
X02348Y00984D01*
X02343Y00994D02*
X02348Y01004D01*
X02338Y00999D02*
X02348Y01004D01*
X02328D02*
X02338Y00999D01*
X02328Y01004D02*
X02333Y00994D01*
X02328Y00984D02*
X02333Y00994D01*
X02328Y01359D02*
X02338Y01364D01*
X02348Y01359D01*
X02343Y01369D02*
X02348Y01359D01*
X02343Y01369D02*
X02348Y01379D01*
X02338Y01374D02*
X02348Y01379D01*
X02328D02*
X02338Y01374D01*
X02328Y01379D02*
X02333Y01369D01*
X02328Y01359D02*
X02333Y01369D01*
X02328Y01484D02*
X02338Y01489D01*
X02348Y01484D01*
X02343Y01494D02*
X02348Y01484D01*
X02343Y01494D02*
X02348Y01504D01*
X02338Y01499D02*
X02348Y01504D01*
X02328D02*
X02338Y01499D01*
X02328Y01504D02*
X02333Y01494D01*
X02328Y01484D02*
X02333Y01494D01*
X02328Y01734D02*
X02338Y01739D01*
X02348Y01734D01*
X02343Y01744D02*
X02348Y01734D01*
X02343Y01744D02*
X02348Y01754D01*
X02338Y01749D02*
X02348Y01754D01*
X02328D02*
X02338Y01749D01*
X02328Y01754D02*
X02333Y01744D01*
X02328Y01734D02*
X02333Y01744D01*
X02453Y00984D02*
X02463Y00989D01*
X02473Y00984D01*
X02468Y00994D02*
X02473Y00984D01*
X02468Y00994D02*
X02473Y01004D01*
X02463Y00999D02*
X02473Y01004D01*
X02453D02*
X02463Y00999D01*
X02453Y01004D02*
X02458Y00994D01*
X02453Y00984D02*
X02458Y00994D01*
X02453Y01109D02*
X02463Y01114D01*
X02473Y01109D01*
X02468Y01119D02*
X02473Y01109D01*
X02468Y01119D02*
X02473Y01129D01*
X02463Y01124D02*
X02473Y01129D01*
X02453D02*
X02463Y01124D01*
X02453Y01129D02*
X02458Y01119D01*
X02453Y01109D02*
X02458Y01119D01*
X02453Y01234D02*
X02463Y01239D01*
X02473Y01234D01*
X02468Y01244D02*
X02473Y01234D01*
X02468Y01244D02*
X02473Y01254D01*
X02463Y01249D02*
X02473Y01254D01*
X02453D02*
X02463Y01249D01*
X02453Y01254D02*
X02458Y01244D01*
X02453Y01234D02*
X02458Y01244D01*
X02453Y01734D02*
X02463Y01739D01*
X02473Y01734D01*
X02468Y01744D02*
X02473Y01734D01*
X02468Y01744D02*
X02473Y01754D01*
X02463Y01749D02*
X02473Y01754D01*
X02453D02*
X02463Y01749D01*
X02453Y01754D02*
X02458Y01744D01*
X02453Y01734D02*
X02458Y01744D01*
X02578Y00984D02*
X02588Y00989D01*
X02598Y00984D01*
X02593Y00994D02*
X02598Y00984D01*
X02593Y00994D02*
X02598Y01004D01*
X02588Y00999D02*
X02598Y01004D01*
X02578D02*
X02588Y00999D01*
X02578Y01004D02*
X02583Y00994D01*
X02578Y00984D02*
X02583Y00994D01*
X02578Y01234D02*
X02588Y01239D01*
X02598Y01234D01*
X02593Y01244D02*
X02598Y01234D01*
X02593Y01244D02*
X02598Y01254D01*
X02588Y01249D02*
X02598Y01254D01*
X02578D02*
X02588Y01249D01*
X02578Y01254D02*
X02583Y01244D01*
X02578Y01234D02*
X02583Y01244D01*
X02703Y00984D02*
X02713Y00989D01*
X02723Y00984D01*
X02718Y00994D02*
X02723Y00984D01*
X02718Y00994D02*
X02723Y01004D01*
X02713Y00999D02*
X02723Y01004D01*
X02703D02*
X02713Y00999D01*
X02703Y01004D02*
X02708Y00994D01*
X02703Y00984D02*
X02708Y00994D01*
X02703Y01234D02*
X02713Y01239D01*
X02723Y01234D01*
X02718Y01244D02*
X02723Y01234D01*
X02718Y01244D02*
X02723Y01254D01*
X02713Y01249D02*
X02723Y01254D01*
X02703D02*
X02713Y01249D01*
X02703Y01254D02*
X02708Y01244D01*
X02703Y01234D02*
X02708Y01244D01*
X02703Y01359D02*
X02713Y01364D01*
X02723Y01359D01*
X02718Y01369D02*
X02723Y01359D01*
X02718Y01369D02*
X02723Y01379D01*
X02713Y01374D02*
X02723Y01379D01*
X02703D02*
X02713Y01374D01*
X02703Y01379D02*
X02708Y01369D01*
X02703Y01359D02*
X02708Y01369D01*
X02703Y01484D02*
X02713Y01489D01*
X02723Y01484D01*
X02718Y01494D02*
X02723Y01484D01*
X02718Y01494D02*
X02723Y01504D01*
X02713Y01499D02*
X02723Y01504D01*
X02703D02*
X02713Y01499D01*
X02703Y01504D02*
X02708Y01494D01*
X02703Y01484D02*
X02708Y01494D01*
X02703Y01609D02*
X02713Y01614D01*
X02723Y01609D01*
X02718Y01619D02*
X02723Y01609D01*
X02718Y01619D02*
X02723Y01629D01*
X02713Y01624D02*
X02723Y01629D01*
X02703D02*
X02713Y01624D01*
X02703Y01629D02*
X02708Y01619D01*
X02703Y01609D02*
X02708Y01619D01*
X02828Y01109D02*
X02838Y01114D01*
X02848Y01109D01*
X02843Y01119D02*
X02848Y01109D01*
X02843Y01119D02*
X02848Y01129D01*
X02838Y01124D02*
X02848Y01129D01*
X02828D02*
X02838Y01124D01*
X02828Y01129D02*
X02833Y01119D01*
X02828Y01109D02*
X02833Y01119D01*
X02828Y01234D02*
X02838Y01239D01*
X02848Y01234D01*
X02843Y01244D02*
X02848Y01234D01*
X02843Y01244D02*
X02848Y01254D01*
X02838Y01249D02*
X02848Y01254D01*
X02828D02*
X02838Y01249D01*
X02828Y01254D02*
X02833Y01244D01*
X02828Y01234D02*
X02833Y01244D01*
X02828Y01484D02*
X02838Y01489D01*
X02848Y01484D01*
X02843Y01494D02*
X02848Y01484D01*
X02843Y01494D02*
X02848Y01504D01*
X02838Y01499D02*
X02848Y01504D01*
X02828D02*
X02838Y01499D01*
X02828Y01504D02*
X02833Y01494D01*
X02828Y01484D02*
X02833Y01494D01*
X02828Y01609D02*
X02838Y01614D01*
X02848Y01609D01*
X02843Y01619D02*
X02848Y01609D01*
X02843Y01619D02*
X02848Y01629D01*
X02838Y01624D02*
X02848Y01629D01*
X02828D02*
X02838Y01624D01*
X02828Y01629D02*
X02833Y01619D01*
X02828Y01609D02*
X02833Y01619D01*
X0296Y01229D02*
X0297Y01234D01*
X0298Y01229D01*
X02975Y01239D02*
X0298Y01229D01*
X02975Y01239D02*
X0298Y01249D01*
X0297Y01244D02*
X0298Y01249D01*
X0296D02*
X0297Y01244D01*
X0296Y01249D02*
X02965Y01239D01*
X0296Y01229D02*
X02965Y01239D01*
X02526Y01781D02*
X02536Y01786D01*
X02546Y01781D01*
X02541Y01791D02*
X02546Y01781D01*
X02541Y01791D02*
X02546Y01801D01*
X02536Y01796D02*
X02546Y01801D01*
X02526D02*
X02536Y01796D01*
X02526Y01801D02*
X02531Y01791D01*
X02526Y01781D02*
X02531Y01791D01*
X022474Y01882D02*
X022524Y01877D01*
X022424Y01882D02*
X022474D01*
X022424D02*
X022474Y01887D01*
X022424Y01892D02*
X022474Y01887D01*
X022424Y01892D02*
X022474D01*
X022524Y01897D01*
X022574Y01892D01*
X022624D01*
X022574Y01887D02*
X022624Y01892D01*
X022574Y01887D02*
X022624Y01882D01*
X022574D02*
X022624D01*
X022524Y01877D02*
X022574Y01882D01*
X024474D02*
X024524Y01877D01*
X024424Y01882D02*
X024474D01*
X024424D02*
X024474Y01887D01*
X024424Y01892D02*
X024474Y01887D01*
X024424Y01892D02*
X024474D01*
X024524Y01897D01*
X024574Y01892D01*
X024624D01*
X024574Y01887D02*
X024624Y01892D01*
X024574Y01887D02*
X024624Y01882D01*
X024574D02*
X024624D01*
X024524Y01877D02*
X024574Y01882D01*
X023474D02*
X023524Y01877D01*
X023424Y01882D02*
X023474D01*
X023424D02*
X023474Y01887D01*
X023424Y01892D02*
X023474Y01887D01*
X023424Y01892D02*
X023474D01*
X023524Y01897D01*
X023574Y01892D01*
X023624D01*
X023574Y01887D02*
X023624Y01892D01*
X023574Y01887D02*
X023624Y01882D01*
X023574D02*
X023624D01*
X023524Y01877D02*
X023574Y01882D01*
X023974D02*
X024024Y01877D01*
X023924Y01882D02*
X023974D01*
X023924D02*
X023974Y01887D01*
X023924Y01892D02*
X023974Y01887D01*
X023924Y01892D02*
X023974D01*
X024024Y01897D01*
X024074Y01892D01*
X024124D01*
X024074Y01887D02*
X024124Y01892D01*
X024074Y01887D02*
X024124Y01882D01*
X024074D02*
X024124D01*
X024024Y01877D02*
X024074Y01882D01*
X022974D02*
X023024Y01877D01*
X022924Y01882D02*
X022974D01*
X022924D02*
X022974Y01887D01*
X022924Y01892D02*
X022974Y01887D01*
X022924Y01892D02*
X022974D01*
X023024Y01897D01*
X023074Y01892D01*
X023124D01*
X023074Y01887D02*
X023124Y01892D01*
X023074Y01887D02*
X023124Y01882D01*
X023074D02*
X023124D01*
X023024Y01877D02*
X023074Y01882D01*
X019474D02*
X019524Y01877D01*
X019424Y01882D02*
X019474D01*
X019424D02*
X019474Y01887D01*
X019424Y01892D02*
X019474Y01887D01*
X019424Y01892D02*
X019474D01*
X019524Y01897D01*
X019574Y01892D01*
X019624D01*
X019574Y01887D02*
X019624Y01892D01*
X019574Y01887D02*
X019624Y01882D01*
X019574D02*
X019624D01*
X019524Y01877D02*
X019574Y01882D01*
X021474D02*
X021524Y01877D01*
X021424Y01882D02*
X021474D01*
X021424D02*
X021474Y01887D01*
X021424Y01892D02*
X021474Y01887D01*
X021424Y01892D02*
X021474D01*
X021524Y01897D01*
X021574Y01892D01*
X021624D01*
X021574Y01887D02*
X021624Y01892D01*
X021574Y01887D02*
X021624Y01882D01*
X021574D02*
X021624D01*
X021524Y01877D02*
X021574Y01882D01*
X020474D02*
X020524Y01877D01*
X020424Y01882D02*
X020474D01*
X020424D02*
X020474Y01887D01*
X020424Y01892D02*
X020474Y01887D01*
X020424Y01892D02*
X020474D01*
X020524Y01897D01*
X020574Y01892D01*
X020624D01*
X020574Y01887D02*
X020624Y01892D01*
X020574Y01887D02*
X020624Y01882D01*
X020574D02*
X020624D01*
X020524Y01877D02*
X020574Y01882D01*
X020974D02*
X021024Y01877D01*
X020924Y01882D02*
X020974D01*
X020924D02*
X020974Y01887D01*
X020924Y01892D02*
X020974Y01887D01*
X020924Y01892D02*
X020974D01*
X021024Y01897D01*
X021074Y01892D01*
X021124D01*
X021074Y01887D02*
X021124Y01892D01*
X021074Y01887D02*
X021124Y01882D01*
X021074D02*
X021124D01*
X021024Y01877D02*
X021074Y01882D01*
X022024Y01818D02*
X022124Y01838D01*
X021924D02*
X022124D01*
X021924D02*
X022024Y01818D01*
X019974Y01882D02*
X020024Y01877D01*
X019924Y01882D02*
X019974D01*
X019924D02*
X019974Y01887D01*
X019924Y01892D02*
X019974Y01887D01*
X019924Y01892D02*
X019974D01*
X020024Y01897D01*
X020074Y01892D01*
X020124D01*
X020074Y01887D02*
X020124Y01892D01*
X020074Y01887D02*
X020124Y01882D01*
X020074D02*
X020124D01*
X020024Y01877D02*
X020074Y01882D01*
D54*
X018641Y02764D02*
X074186D01*
X018641Y02164D02*
X074186D01*
X018641Y02014D02*
X074186D01*
Y02914D01*
X018641D02*
X074186D01*
X018641Y02014D02*
Y02914D01*
X067838Y02014D02*
Y02914D01*
X052842Y02014D02*
Y02914D01*
X045504Y02014D02*
Y02914D01*
X040445Y02014D02*
Y02914D01*
X029549Y02014D02*
Y02914D01*
X02415Y02014D02*
Y02914D01*
M02*
