G04*
G04 #@! TF.GenerationSoftware,Altium Limited,Altium Designer,25.4.2 (15)*
G04*
G04 Layer_Color=255*
%FSTAX24Y24*%
%MOIN*%
G70*
G04*
G04 #@! TF.SameCoordinates,12F9F1C2-4B93-4E5A-9412-C193BA208CB0*
G04*
G04*
G04 #@! TF.FilePolarity,Positive*
G04*
G01*
G75*
%ADD17R,0.0377X0.0416*%
%ADD18R,0.0157X0.0197*%
%ADD19R,0.0197X0.0157*%
%ADD20R,0.0453X0.0236*%
%ADD21R,0.0217X0.0315*%
G04:AMPARAMS|DCode=22|XSize=21.7mil|YSize=31.5mil|CornerRadius=0mil|HoleSize=0mil|Usage=FLASHONLY|Rotation=223.000|XOffset=0mil|YOffset=0mil|HoleType=Round|Shape=Rectangle|*
%AMROTATEDRECTD22*
4,1,4,-0.0028,0.0189,0.0187,-0.0041,0.0028,-0.0189,-0.0187,0.0041,-0.0028,0.0189,0.0*
%
%ADD22ROTATEDRECTD22*%

%ADD23R,0.0098X0.0138*%
%ADD24R,0.0413X0.0315*%
%ADD25R,0.0236X0.0098*%
%ADD26R,0.0236X0.0177*%
%ADD27R,0.0236X0.0110*%
%ADD28C,0.0300*%
%ADD29R,0.0394X0.0709*%
%ADD30R,0.0475X0.0417*%
%AMCUSTOMSHAPE43*
4,1,4,0.0180,0.0000,-0.0180,0.0000,-0.0180,-0.0320,0.0180,-0.0320,0.0180,0.0000,0.0*%
%ADD43CUSTOMSHAPE43*%

D17*
X02588Y01725D02*
D03*
Y017802D02*
D03*
X03034Y013106D02*
D03*
Y012554D02*
D03*
D18*
X02779Y014227D02*
D03*
X028341D02*
D03*
X027514D02*
D03*
X027238Y017573D02*
D03*
X03027D02*
D03*
X030112Y014581D02*
D03*
X029994Y014227D02*
D03*
X029719D02*
D03*
Y017573D02*
D03*
X029994D02*
D03*
X027238Y014227D02*
D03*
X028616D02*
D03*
X028892D02*
D03*
X03027D02*
D03*
X030546D02*
D03*
X029443Y017573D02*
D03*
X029168D02*
D03*
X028892D02*
D03*
X028616D02*
D03*
X028341D02*
D03*
X028065Y014227D02*
D03*
X027514Y017573D02*
D03*
X029443Y014227D02*
D03*
X029168D02*
D03*
X030427Y014581D02*
D03*
X02779Y017573D02*
D03*
X028065D02*
D03*
X030546D02*
D03*
D19*
X026825Y016727D02*
D03*
Y015349D02*
D03*
Y014798D02*
D03*
Y015073D02*
D03*
Y015624D02*
D03*
Y0159D02*
D03*
Y016176D02*
D03*
Y016451D02*
D03*
Y017002D02*
D03*
Y017278D02*
D03*
Y014522D02*
D03*
Y014246D02*
D03*
Y017554D02*
D03*
D20*
X027022Y010686D02*
D03*
Y01106D02*
D03*
Y011434D02*
D03*
X026038D02*
D03*
Y010686D02*
D03*
D21*
X0254Y012608D02*
D03*
X025774Y013592D02*
D03*
X025026D02*
D03*
D22*
X023814Y0165D02*
D03*
X024212Y015525D02*
D03*
X024759Y016035D02*
D03*
D23*
X022884Y012445D02*
D03*
Y012229D02*
D03*
D24*
X023034Y011108D02*
D03*
Y011837D02*
D03*
D25*
X021826Y012384D02*
D03*
Y012187D02*
D03*
X022534Y01199D02*
D03*
Y011793D02*
D03*
X021826Y011596D02*
D03*
Y011793D02*
D03*
Y01199D02*
D03*
X022534Y012187D02*
D03*
Y012384D02*
D03*
D26*
X021484Y01105D02*
D03*
Y011424D02*
D03*
D27*
X022534Y01159D02*
D03*
D28*
X0252Y01563D02*
D03*
X02825Y0128D02*
D03*
X0278D02*
D03*
X02521Y015206D02*
D03*
D29*
X026548Y01817D02*
D03*
X027532D02*
D03*
D30*
X028405Y01815D02*
D03*
X029055D02*
D03*
D43*
X020024Y01887D02*
D03*
X021024D02*
D03*
X020524D02*
D03*
X021524D02*
D03*
X019524D02*
D03*
X023024D02*
D03*
X024024D02*
D03*
X023524D02*
D03*
X024524D02*
D03*
X022524D02*
D03*
M02*
