G04*
G04 #@! TF.GenerationSoftware,Altium Limited,Altium Designer,25.4.2 (15)*
G04*
G04 Layer_Physical_Order=1*
G04 Layer_Color=1265191*
%FSTAX24Y24*%
%MOIN*%
G70*
G04*
G04 #@! TF.SameCoordinates,12F9F1C2-4B93-4E5A-9412-C193BA208CB0*
G04*
G04*
G04 #@! TF.FilePolarity,Positive*
G04*
G01*
G75*
%ADD15C,0.0100*%
%ADD17R,0.0377X0.0416*%
%ADD18R,0.0157X0.0197*%
%ADD19R,0.0197X0.0157*%
%ADD20R,0.0453X0.0236*%
%ADD21R,0.0217X0.0315*%
G04:AMPARAMS|DCode=22|XSize=21.7mil|YSize=31.5mil|CornerRadius=0mil|HoleSize=0mil|Usage=FLASHONLY|Rotation=223.000|XOffset=0mil|YOffset=0mil|HoleType=Round|Shape=Rectangle|*
%AMROTATEDRECTD22*
4,1,4,-0.0028,0.0189,0.0187,-0.0041,0.0028,-0.0189,-0.0187,0.0041,-0.0028,0.0189,0.0*
%
%ADD22ROTATEDRECTD22*%

%ADD23R,0.0098X0.0138*%
%ADD24R,0.0413X0.0315*%
%ADD25R,0.0236X0.0098*%
%ADD26R,0.0236X0.0177*%
%ADD27R,0.0236X0.0110*%
%ADD28C,0.0300*%
%ADD29R,0.0394X0.0709*%
%ADD30R,0.0475X0.0417*%
%ADD41C,0.0080*%
%ADD42C,0.0160*%
%AMCUSTOMSHAPE43*
4,1,4,0.0180,0.0000,-0.0180,0.0000,-0.0180,-0.0320,0.0180,-0.0320,0.0180,0.0000,0.0*%
%ADD43CUSTOMSHAPE43*%

%ADD44C,0.0240*%
G36*
X030667Y015816D02*
X030574Y015778D01*
X029525Y016827D01*
Y017375D01*
X0296Y017435D01*
X029662Y017435D01*
X029838Y017435D01*
X029938Y017435D01*
X030113Y017435D01*
X030213Y017435D01*
X030389D01*
Y017712D01*
X030151Y017712D01*
X030051Y017712D01*
X029876Y017712D01*
X029776Y017712D01*
X0296Y017712D01*
X0295Y017712D01*
X029324Y017712D01*
X029224Y017712D01*
X029049Y017712D01*
X028962Y017712D01*
X028955Y01773D01*
X028933Y017812D01*
X028943Y017827D01*
X028949Y017858D01*
X029031Y017902D01*
X029333D01*
Y018398D01*
X028782D01*
X028778Y018398D01*
X028682D01*
X028678Y018398D01*
X028127D01*
Y017902D01*
X028259D01*
Y017712D01*
X028222D01*
Y017435D01*
X02846Y017435D01*
X02856Y017435D01*
X028673D01*
X028735Y017435D01*
Y017435D01*
X028773D01*
X028773Y017435D01*
X029011Y017435D01*
X029111Y017435D01*
X029286Y017435D01*
X029362Y017375D01*
Y016794D01*
X029362Y016794D01*
X029368Y016762D01*
X029385Y016736D01*
X030688Y015433D01*
Y014455D01*
X03068Y014425D01*
X030636Y014418D01*
X030612Y01443D01*
X030546Y014499D01*
Y01472D01*
X030331D01*
X030309Y01472D01*
X030231D01*
X030209Y01472D01*
X029994D01*
Y014691D01*
X029918Y014637D01*
X029894Y014635D01*
X029884Y014645D01*
X029866Y014691D01*
X029821Y014736D01*
X029762Y01476D01*
X029698D01*
X029639Y014736D01*
X029594Y014691D01*
X02957Y014632D01*
Y014568D01*
X029594Y014509D01*
X029639Y014465D01*
X029638Y01446D01*
X029617Y014365D01*
X0295Y014365D01*
X029324D01*
Y014365D01*
X029286D01*
Y014365D01*
X029049Y014365D01*
X028949Y014365D01*
X028773Y014365D01*
X028673Y014365D01*
X028498Y014365D01*
X028398Y014365D01*
X028222Y014365D01*
X028144Y014419D01*
Y015667D01*
X028144Y015667D01*
X028138Y015699D01*
X02812Y015725D01*
X027846Y015999D01*
X02785Y016008D01*
Y016072D01*
X027826Y016131D01*
X027781Y016176D01*
X027722Y0162D01*
X027658D01*
X027599Y016176D01*
X027554Y016131D01*
X02753Y016072D01*
Y016008D01*
X027554Y015949D01*
X027599Y015904D01*
X027658Y01588D01*
X027722D01*
X027731Y015884D01*
X027981Y015634D01*
Y014431D01*
X027908Y014365D01*
X027846Y014365D01*
X027671Y014365D01*
X027571Y014365D01*
X027395Y014365D01*
X027295Y014365D01*
X02712D01*
Y014088D01*
X027357Y014088D01*
X027457Y014088D01*
X027633Y014088D01*
X027733Y014088D01*
X027908Y014088D01*
X028008Y014088D01*
X028184Y014088D01*
X028259Y014029D01*
Y013375D01*
X027864Y012979D01*
X027838Y01299D01*
X027762D01*
X027692Y012961D01*
X027639Y012908D01*
X02761Y012838D01*
Y012762D01*
X027639Y012692D01*
X027692Y012639D01*
X027762Y01261D01*
X027838D01*
X027908Y012639D01*
X027961Y012692D01*
X027971Y012716D01*
X028079D01*
X028089Y012692D01*
X028142Y012639D01*
X028212Y01261D01*
X028288D01*
X028358Y012639D01*
X028411Y012692D01*
X02844Y012762D01*
Y012838D01*
X028429Y012864D01*
X028674Y013109D01*
X028674Y013109D01*
X028692Y013135D01*
X028698Y013166D01*
X028698Y013166D01*
Y014029D01*
X028773Y014088D01*
X028835Y014088D01*
X029011Y014088D01*
X029086Y014029D01*
Y012537D01*
X027389Y01084D01*
X027288Y010844D01*
Y010844D01*
X026792D01*
Y011276D01*
X027288D01*
Y011592D01*
X026756D01*
Y011515D01*
X026729Y011509D01*
X026702Y011492D01*
X026702Y011492D01*
X026652Y011442D01*
X026635Y011415D01*
X026628Y011384D01*
X026628Y011384D01*
Y010691D01*
X026536Y010653D01*
X026445Y010744D01*
X026419Y010761D01*
X026387Y010768D01*
X026304Y010823D01*
Y010844D01*
X025772D01*
Y010528D01*
X026304D01*
Y010528D01*
X026404Y010554D01*
X026648Y01031D01*
X026648Y01031D01*
X026674Y010293D01*
X026706Y010286D01*
X026706Y010286D01*
X028058D01*
X028058Y010286D01*
X028089Y010293D01*
X028116Y01031D01*
X029894Y012088D01*
X030723D01*
X030723Y012088D01*
X030754Y012095D01*
X030781Y012112D01*
X030828Y012159D01*
X030828Y012159D01*
X030845Y012186D01*
X030852Y012217D01*
Y015467D01*
X030852Y015467D01*
X030845Y015498D01*
X030859Y015547D01*
X030878Y015583D01*
X030891Y015597D01*
X031307D01*
Y012388D01*
X031079Y012059D01*
X030747Y011648D01*
X030384Y011262D01*
X029995Y010904D01*
X029579Y010576D01*
X029141Y010279D01*
X028681Y010016D01*
X028204Y009788D01*
X02771Y009596D01*
X027204Y009441D01*
X026688Y009324D01*
X026165Y009246D01*
X025637Y009207D01*
X025107D01*
X02458Y009246D01*
X024056Y009324D01*
X02354Y009441D01*
X023034Y009596D01*
X022541Y009788D01*
X022063Y010016D01*
X021604Y010279D01*
X021165Y010576D01*
X02075Y010904D01*
X02036Y011262D01*
X019997Y011648D01*
X019665Y012059D01*
X019364Y012495D01*
X019096Y012951D01*
X018862Y013426D01*
X018665Y013917D01*
X018504Y014422D01*
X018381Y014937D01*
X018297Y015459D01*
X018252Y015986D01*
X018246Y016516D01*
X01828Y017044D01*
X018352Y017568D01*
X018464Y018086D01*
X018613Y018594D01*
X018686Y018788D01*
X018798D01*
X01882Y018734D01*
X018888Y018667D01*
X018976Y01863D01*
X019071D01*
X01916Y018667D01*
X0192Y018707D01*
X0193Y018669D01*
Y01855D01*
X019313Y018519D01*
X019344Y018507D01*
X019458D01*
Y018369D01*
X019449Y018366D01*
X019404Y018321D01*
X01938Y018262D01*
Y018198D01*
X019404Y018139D01*
X019449Y018094D01*
X019508Y01807D01*
X019572D01*
X019631Y018094D01*
X019676Y018139D01*
X0197Y018198D01*
Y018262D01*
X019676Y018321D01*
X019631Y018366D01*
X019622Y018369D01*
Y018507D01*
X019704D01*
X019734Y018519D01*
X019813Y018519D01*
X019844Y018507D01*
X020204D01*
X020234Y018519D01*
X020313Y018519D01*
X020344Y018507D01*
X020704D01*
X020734Y018519D01*
X020813Y018519D01*
X020844Y018507D01*
X021204D01*
X021234Y018519D01*
X021247Y01855D01*
Y018788D01*
X0223D01*
Y01855D01*
X022313Y018519D01*
X022344Y018507D01*
X022704D01*
X022734Y018519D01*
X022813Y018519D01*
X022844Y018507D01*
X023204D01*
X023234Y018519D01*
X023313Y018519D01*
X023344Y018507D01*
X023704D01*
X023734Y018519D01*
X023813Y018519D01*
X023844Y018507D01*
X023958D01*
Y018349D01*
X023949Y018346D01*
X023904Y018301D01*
X02388Y018242D01*
Y018178D01*
X023904Y018119D01*
X023949Y018074D01*
X024008Y01805D01*
X024072D01*
X024131Y018074D01*
X024176Y018119D01*
X0242Y018178D01*
Y018242D01*
X024176Y018301D01*
X024131Y018346D01*
X024122Y018349D01*
Y018507D01*
X024204D01*
X024234Y018519D01*
X024313Y018519D01*
X024344Y018507D01*
X024704D01*
X024734Y018519D01*
X024747Y01855D01*
Y018788D01*
X030667Y018788D01*
X030667Y015816D01*
D02*
G37*
G36*
X030688Y013062D02*
Y012252D01*
X02986D01*
X02986Y012252D01*
X029829Y012245D01*
X029802Y012228D01*
X029802Y012228D01*
X028024Y010449D01*
X027565D01*
X027527Y010542D01*
X029501Y012515D01*
X029501Y012515D01*
X029519Y012542D01*
X029525Y012573D01*
X029525Y012573D01*
Y012908D01*
X029625Y012949D01*
X029639Y012934D01*
X029698Y01291D01*
X029762D01*
X029821Y012934D01*
X029866Y012979D01*
X029869Y012988D01*
X030111D01*
Y012858D01*
X030569D01*
Y013092D01*
X030588Y013109D01*
X030688Y013062D01*
D02*
G37*
%LPC*%
G36*
X022071Y01852D02*
X021976D01*
X021888Y018483D01*
X02182Y018416D01*
X021784Y018328D01*
Y018232D01*
X02182Y018144D01*
X021888Y018077D01*
X021976Y01804D01*
X022071D01*
X02216Y018077D01*
X022227Y018144D01*
X022264Y018232D01*
Y018328D01*
X022227Y018416D01*
X02216Y018483D01*
X022071Y01852D01*
D02*
G37*
G36*
X027769Y018564D02*
X027295D01*
X027295Y017788D01*
X027216Y017726D01*
X027Y017942D01*
X026974Y01796D01*
X026942Y017966D01*
X026942Y017966D01*
X026785D01*
Y018564D01*
X026311D01*
Y017776D01*
X026785D01*
Y017803D01*
X026909D01*
X02712Y017592D01*
Y017435D01*
X027357Y017435D01*
X027457Y017435D01*
X027534D01*
X027595Y017335D01*
X027586Y017316D01*
X027559Y017306D01*
X027514Y017261D01*
X02749Y017202D01*
Y017138D01*
X027514Y017079D01*
X027559Y017034D01*
X027618Y01701D01*
X027682D01*
X027741Y017034D01*
X027786Y017079D01*
X02781Y017138D01*
Y017202D01*
X027806Y017211D01*
X027819Y017223D01*
X027836Y01725D01*
X027842Y017281D01*
X027842Y017281D01*
Y017435D01*
X027908D01*
Y017712D01*
X027842D01*
X027769Y017776D01*
X027769Y017812D01*
Y018564D01*
D02*
G37*
G36*
X026109Y017498D02*
X025651D01*
Y017002D01*
X026109D01*
Y017114D01*
X026271D01*
X026274Y017105D01*
X026319Y01706D01*
X026378Y017036D01*
X026442D01*
X026501Y01706D01*
X026546Y017105D01*
X02657Y017164D01*
Y017228D01*
X026546Y017287D01*
X026501Y017332D01*
X026442Y017356D01*
X026378D01*
X026319Y017332D01*
X026274Y017287D01*
X026271Y017278D01*
X026109D01*
Y017498D01*
D02*
G37*
G36*
X026963Y017397D02*
X026687D01*
X026687Y017159D01*
X026687Y017059D01*
X026687Y016884D01*
X026687Y016784D01*
X026687Y016608D01*
X026687Y016508D01*
X026687Y016332D01*
X026687Y016232D01*
X026687Y016057D01*
X026687Y015957D01*
X026687Y015781D01*
X026627Y015706D01*
X025374D01*
X025361Y015738D01*
X025308Y015791D01*
X025238Y01582D01*
X025162D01*
X025136Y015809D01*
X025001Y015944D01*
X025002Y015992D01*
Y015992D01*
X024733Y016281D01*
X024516Y016078D01*
X024785Y01579D01*
X024858Y015857D01*
X025021Y015694D01*
X02501Y015668D01*
Y015592D01*
X025039Y015522D01*
X025092Y015469D01*
X025098Y015414D01*
X025095Y01536D01*
X025049Y015313D01*
X02502Y015243D01*
Y015168D01*
X025028Y015148D01*
X024951Y015077D01*
X02495Y015076D01*
X024948Y015075D01*
X02494Y015063D01*
X024932Y015051D01*
X024932Y01505D01*
X024931Y015048D01*
X024928Y015034D01*
X024924Y01502D01*
X024925Y015019D01*
X024924Y015017D01*
Y01379D01*
X024878D01*
Y013395D01*
X025174D01*
Y01379D01*
X025088D01*
Y01495D01*
X025172Y015016D01*
X025248D01*
X025317Y015045D01*
X025371Y015098D01*
X0254Y015168D01*
Y015243D01*
X025492Y015267D01*
X026627D01*
X026687Y015192D01*
X026687Y01513D01*
X026687Y014955D01*
X026687Y014855D01*
X026687Y014679D01*
X026687Y014579D01*
Y014403D01*
X026963D01*
X026963Y014641D01*
X026963Y014741D01*
X026963Y014916D01*
X026963Y015016D01*
X026963Y015192D01*
X026963Y015292D01*
X026963Y015468D01*
X026963Y015568D01*
X026963Y015743D01*
X026963Y015843D01*
X026963Y016019D01*
X026963Y016119D01*
X026963Y016294D01*
X026963Y016394D01*
X026963Y01657D01*
X026963Y01667D01*
X026963Y016846D01*
X026963Y016946D01*
X026963Y017121D01*
X026963Y017221D01*
Y017397D01*
D02*
G37*
G36*
X024186Y015771D02*
X023969Y015568D01*
X024164Y015359D01*
Y01509D01*
X024129Y015076D01*
X024084Y015031D01*
X02406Y014972D01*
Y014908D01*
X024084Y014849D01*
X024129Y014804D01*
X024188Y01478D01*
X024252D01*
X024311Y014804D01*
X024356Y014849D01*
X02438Y014908D01*
Y014972D01*
X024356Y015031D01*
X024327Y015059D01*
Y015362D01*
X024455Y015482D01*
X024186Y015771D01*
D02*
G37*
G36*
X025922Y01379D02*
X025626D01*
Y013395D01*
X025922D01*
Y013508D01*
X026109D01*
X026168Y013449D01*
Y013249D01*
X026159Y013246D01*
X026114Y013201D01*
X02609Y013142D01*
Y013078D01*
X026114Y013019D01*
X026159Y012974D01*
X026218Y01295D01*
X026282D01*
X026341Y012974D01*
X026386Y013019D01*
X02641Y013078D01*
Y013142D01*
X026386Y013201D01*
X026341Y013246D01*
X026332Y013249D01*
Y013483D01*
X026332Y013483D01*
X026325Y013514D01*
X026308Y013541D01*
X026308Y013541D01*
X026201Y013648D01*
X026174Y013665D01*
X026143Y013672D01*
X026143Y013672D01*
X025922D01*
Y01379D01*
D02*
G37*
G36*
X022692Y012473D02*
X022376D01*
X022376Y012294D01*
X022376Y012194D01*
X022376Y012098D01*
X022376Y012001D01*
X022376Y011882D01*
X022376D01*
Y011704D01*
X022376D01*
Y011686D01*
X022376D01*
Y011495D01*
X022592D01*
X02261Y011495D01*
X022614Y011494D01*
X022614Y011494D01*
X022681Y011494D01*
X022688Y011495D01*
X022689Y011494D01*
X022692Y011495D01*
Y011496D01*
X0227Y011501D01*
X022712Y011506D01*
X022713Y01151D01*
X022717Y011513D01*
X022801Y011639D01*
X023281D01*
Y011715D01*
X023579D01*
X023593Y011701D01*
X023651Y011677D01*
X023715D01*
X023774Y011701D01*
X023819Y011746D01*
X023843Y011805D01*
Y011869D01*
X023819Y011927D01*
X023774Y011973D01*
X023715Y011997D01*
X023651D01*
X023593Y011973D01*
X023579Y011959D01*
X023281D01*
Y012034D01*
X023009D01*
X022974Y01212D01*
X022974Y012134D01*
Y012337D01*
X022795D01*
Y012337D01*
X022792Y012336D01*
X022741Y012357D01*
X022692Y012402D01*
Y012473D01*
D02*
G37*
G36*
X020081Y01296D02*
X020018D01*
X019959Y012935D01*
X019914Y01289D01*
X01989Y012831D01*
Y012768D01*
X019914Y012709D01*
X019959Y012664D01*
X020018Y01264D01*
X020081D01*
X020101Y012648D01*
X021326Y011423D01*
Y011295D01*
X021642D01*
Y011473D01*
X021727Y011507D01*
X021984D01*
Y011686D01*
X021984D01*
Y011704D01*
X021984D01*
Y011882D01*
X021984D01*
Y011901D01*
X021984D01*
Y012079D01*
X021668D01*
Y01207D01*
X021654D01*
X021624Y012057D01*
X021554Y011987D01*
X021541Y011957D01*
Y011735D01*
X021407Y011601D01*
X02021Y012799D01*
Y012831D01*
X020185Y01289D01*
X02014Y012935D01*
X020081Y01296D01*
D02*
G37*
G36*
X025566Y011594D02*
X025502D01*
X025443Y01157D01*
X025398Y011525D01*
X025374Y011466D01*
Y011402D01*
X025398Y011343D01*
X025443Y011298D01*
X025502Y011274D01*
X025566D01*
X025625Y011298D01*
X025668Y011342D01*
X025772D01*
Y011276D01*
X026304D01*
Y011592D01*
X025772D01*
Y011526D01*
X025668D01*
X025625Y01157D01*
X025566Y011594D01*
D02*
G37*
%LPD*%
G36*
X022834Y011987D02*
Y011687D01*
X022781D01*
X022681Y011537D01*
X022614D01*
Y012037D01*
X022734D01*
X022834Y011987D01*
D02*
G37*
G36*
X021724Y011553D02*
X021559Y011487D01*
X021394D01*
Y011527D01*
X021584Y011717D01*
Y011957D01*
X021654Y012027D01*
X021724D01*
Y011553D01*
D02*
G37*
D15*
X025534Y011434D02*
X026038D01*
X02005Y0128D02*
X020065Y012784D01*
X020094D01*
X021455Y011424D01*
X021484D01*
D17*
X02588Y01725D02*
D03*
Y017802D02*
D03*
X03034Y013106D02*
D03*
Y012554D02*
D03*
D18*
X02779Y014227D02*
D03*
X028341D02*
D03*
X027514D02*
D03*
X027238Y017573D02*
D03*
X03027D02*
D03*
X030112Y014581D02*
D03*
X029994Y014227D02*
D03*
X029719D02*
D03*
Y017573D02*
D03*
X029994D02*
D03*
X027238Y014227D02*
D03*
X028616D02*
D03*
X028892D02*
D03*
X03027D02*
D03*
X030546D02*
D03*
X029443Y017573D02*
D03*
X029168D02*
D03*
X028892D02*
D03*
X028616D02*
D03*
X028341D02*
D03*
X028065Y014227D02*
D03*
X027514Y017573D02*
D03*
X029443Y014227D02*
D03*
X029168D02*
D03*
X030427Y014581D02*
D03*
X02779Y017573D02*
D03*
X028065D02*
D03*
X030546D02*
D03*
D19*
X026825Y016727D02*
D03*
Y015349D02*
D03*
Y014798D02*
D03*
Y015073D02*
D03*
Y015624D02*
D03*
Y0159D02*
D03*
Y016176D02*
D03*
Y016451D02*
D03*
Y017002D02*
D03*
Y017278D02*
D03*
Y014522D02*
D03*
Y014246D02*
D03*
Y017554D02*
D03*
D20*
X027022Y010686D02*
D03*
Y01106D02*
D03*
Y011434D02*
D03*
X026038D02*
D03*
Y010686D02*
D03*
D21*
X0254Y012608D02*
D03*
X025774Y013592D02*
D03*
X025026D02*
D03*
D22*
X023814Y0165D02*
D03*
X024212Y015525D02*
D03*
X024759Y016035D02*
D03*
D23*
X022884Y012445D02*
D03*
Y012229D02*
D03*
D24*
X023034Y011108D02*
D03*
Y011837D02*
D03*
D25*
X021826Y012384D02*
D03*
Y012187D02*
D03*
X022534Y01199D02*
D03*
Y011793D02*
D03*
X021826Y011596D02*
D03*
Y011793D02*
D03*
Y01199D02*
D03*
X022534Y012187D02*
D03*
Y012384D02*
D03*
D26*
X021484Y01105D02*
D03*
Y011424D02*
D03*
D27*
X022534Y01159D02*
D03*
D28*
X0252Y01563D02*
D03*
X02825Y0128D02*
D03*
X0278D02*
D03*
X02521Y015206D02*
D03*
D29*
X026548Y01817D02*
D03*
X027532D02*
D03*
D30*
X028405Y01815D02*
D03*
X029055D02*
D03*
D41*
X025958Y017682D02*
Y017684D01*
X02536Y01791D02*
X025731D01*
X025958Y017684D01*
X0297Y01239D02*
X03028D01*
X03045Y01256D01*
X027358Y010488D02*
X029443Y012573D01*
Y014227D01*
X02676Y010488D02*
X027358D01*
X029443Y016794D02*
Y017573D01*
Y016794D02*
X03077Y015467D01*
Y012217D02*
Y015467D01*
X02986Y01217D02*
X030723D01*
X03077Y012217D01*
X03045Y018033D02*
Y01806D01*
X030546Y017573D02*
Y017937D01*
X03045Y018033D02*
X030546Y017937D01*
X023541Y016774D02*
X023814Y0165D01*
X02342Y01679D02*
X023436Y016774D01*
X023776Y016434D02*
Y016434D01*
X023436Y016774D02*
X023541D01*
X024246Y014993D02*
Y015537D01*
X02422Y014967D02*
X024246Y014993D01*
Y015537D02*
X024246Y015537D01*
X02422Y01494D02*
Y014967D01*
X02489Y01594D02*
X0252Y01563D01*
X024798Y01594D02*
X02489D01*
X02765Y01717D02*
X027761Y017281D01*
Y017544D01*
X02779Y017573D01*
X02596Y017251D02*
X026015Y017196D01*
X02641D01*
X027511Y011341D02*
X02753Y01136D01*
X027511Y011151D02*
Y011341D01*
X02742Y01106D02*
X027511Y011151D01*
X02676Y011434D02*
X027022D01*
X02671Y011384D02*
X02676Y011434D01*
X02671Y010538D02*
Y011384D01*
X027022Y01106D02*
X02742D01*
X02735Y010686D02*
X029168Y012504D01*
Y014227D01*
X028058Y010368D02*
X02986Y01217D01*
X026706Y010368D02*
X028058D01*
X028645Y017573D02*
Y017635D01*
X02973Y01307D02*
X030408D01*
X025766Y01359D02*
X026143D01*
X025006Y013582D02*
Y015017D01*
X027022Y010686D02*
X02735D01*
X026038D02*
X026387D01*
X026706Y010368D01*
X02671Y010538D02*
X02676Y010488D01*
X028063Y017571D02*
X028065Y017573D01*
X026925Y017525D02*
X02731Y01714D01*
X026854Y017525D02*
X026925D01*
X028063Y016863D02*
Y017571D01*
X02731Y01686D02*
Y01714D01*
X026825Y017554D02*
X026854Y017525D01*
X02806Y01686D02*
X028063Y016863D01*
X026825Y013882D02*
Y014246D01*
X02674Y013797D02*
X026825Y013882D01*
X02674Y01377D02*
Y013797D01*
X025353Y012551D02*
X0254Y012598D01*
X025353Y012367D02*
Y012551D01*
X025294Y012309D02*
X025353Y012367D01*
X02145Y01826D02*
Y018717D01*
X02143Y018737D02*
X02145Y018717D01*
X024909Y012309D02*
X025294D01*
X0249Y0123D02*
X024909Y012309D01*
X022884Y012445D02*
X023332D01*
X023034Y011108D02*
X023735D01*
X021537Y01245D02*
X021603Y012384D01*
X02151Y01245D02*
X021537D01*
X021603Y012384D02*
X021826D01*
X021153Y012187D02*
X021826D01*
X02127Y01105D02*
X021484D01*
X02113Y01119D02*
X02127Y01105D01*
X026143Y01359D02*
X02625Y013483D01*
Y01311D02*
Y013483D01*
X01954Y01823D02*
Y018714D01*
X02404Y01821D02*
Y018694D01*
X022884Y012209D02*
Y012229D01*
X022862Y012187D02*
X022884Y012209D01*
X022534Y012187D02*
X022862D01*
X030408Y01307D02*
X03045Y013112D01*
X030546Y01328D01*
Y014227D01*
X029719Y013711D02*
X02972Y01371D01*
X029719Y014227D02*
X029719Y014226D01*
Y013711D02*
Y014226D01*
X029956Y014266D02*
Y014374D01*
X02973Y0146D02*
X029956Y014374D01*
Y014266D02*
X029994Y014227D01*
X025206Y015624D02*
X026825D01*
X0252Y01563D02*
X025206Y015624D01*
X025006Y015017D02*
X02521Y015206D01*
X025006Y013582D02*
X025026Y013592D01*
X028616Y013166D02*
Y014227D01*
X02825Y0128D02*
X028616Y013166D01*
X02521Y015206D02*
X025225D01*
X028063Y014229D02*
X028065Y014227D01*
X02769Y01604D02*
X028063Y015667D01*
X026942Y017884D02*
X027238Y017588D01*
X025225Y015206D02*
X025368Y015349D01*
X026825D01*
X028616Y017573D02*
X028645D01*
X028341Y018086D02*
X028405Y01815D01*
X028341Y017573D02*
Y018086D01*
X028868Y017858D02*
Y017992D01*
X029026Y01815D01*
X029055D01*
X027234Y014223D02*
X027238Y014227D01*
X028063Y014229D02*
Y015667D01*
X028645Y017635D02*
X028868Y017858D01*
X026695Y017884D02*
X026942D01*
X026548Y018031D02*
Y01817D01*
Y018031D02*
X026695Y017884D01*
X027238Y017573D02*
Y017588D01*
X027514Y017573D02*
Y018152D01*
X027532Y01817D01*
X028341Y013341D02*
Y014227D01*
X0278Y0128D02*
X028341Y013341D01*
D42*
X023034Y011837D02*
X023683D01*
D43*
X020024Y01887D02*
D03*
X021024D02*
D03*
X020524D02*
D03*
X021524D02*
D03*
X019524D02*
D03*
X023024D02*
D03*
X024024D02*
D03*
X023524D02*
D03*
X024524D02*
D03*
X022524D02*
D03*
D44*
X02536Y01791D02*
D03*
X0297Y01239D02*
D03*
X02838Y01619D02*
D03*
Y01494D02*
D03*
Y01244D02*
D03*
Y01119D02*
D03*
X02713Y01619D02*
D03*
Y01494D02*
D03*
Y01369D02*
D03*
Y01244D02*
D03*
Y00994D02*
D03*
X02588Y01244D02*
D03*
Y00994D02*
D03*
X02463Y01744D02*
D03*
Y01244D02*
D03*
Y01119D02*
D03*
Y00994D02*
D03*
X02338Y01744D02*
D03*
Y01494D02*
D03*
Y01369D02*
D03*
Y00994D02*
D03*
X02213Y01744D02*
D03*
Y01619D02*
D03*
Y01494D02*
D03*
Y01244D02*
D03*
Y01119D02*
D03*
X02088Y01744D02*
D03*
Y01369D02*
D03*
Y01244D02*
D03*
Y01119D02*
D03*
X01963Y01744D02*
D03*
Y01619D02*
D03*
X03045Y01806D02*
D03*
X02005Y0128D02*
D03*
X02342Y01679D02*
D03*
X02422Y01494D02*
D03*
X024479Y015861D02*
D03*
X02765Y01717D02*
D03*
X02641Y017196D02*
D03*
X02753Y01136D02*
D03*
X025534Y011434D02*
D03*
X02806Y01686D02*
D03*
X02731D02*
D03*
X02616Y01586D02*
D03*
X02568Y01585D02*
D03*
X02674Y01377D02*
D03*
X02417Y01373D02*
D03*
X02145Y01826D02*
D03*
X0249Y0123D02*
D03*
X023332Y012445D02*
D03*
X023735Y011108D02*
D03*
X02151Y01245D02*
D03*
X021153Y012187D02*
D03*
X02113Y01119D02*
D03*
X02625Y01311D02*
D03*
X02404Y01821D02*
D03*
X01954Y01823D02*
D03*
X023683Y011837D02*
D03*
X02973Y01307D02*
D03*
X02972Y01371D02*
D03*
X02973Y0146D02*
D03*
X02769Y01604D02*
D03*
M02*
