G04*
G04 #@! TF.GenerationSoftware,Altium Limited,Altium Designer,25.4.2 (15)*
G04*
G04 Layer_Color=16711935*
%FSTAX24Y24*%
%MOIN*%
G70*
G04*
G04 #@! TF.SameCoordinates,12F9F1C2-4B93-4E5A-9412-C193BA208CB0*
G04*
G04*
G04 #@! TF.FilePolarity,Negative*
G04*
G01*
G75*
%ADD51R,0.2020X0.2020*%
G36*
X024704Y01855D02*
X024344D01*
Y01887D01*
X024704D01*
Y01855D01*
D02*
G37*
G36*
X024204D02*
X023844D01*
Y01887D01*
X024204D01*
Y01855D01*
D02*
G37*
G36*
X023704D02*
X023344D01*
Y01887D01*
X023704D01*
Y01855D01*
D02*
G37*
G36*
X023204D02*
X022844D01*
Y01887D01*
X023204D01*
Y01855D01*
D02*
G37*
G36*
X022704D02*
X022344D01*
Y01887D01*
X022704D01*
Y01855D01*
D02*
G37*
G36*
X021704D02*
X021344D01*
Y01887D01*
X021704D01*
Y01855D01*
D02*
G37*
G36*
X021204D02*
X020844D01*
Y01887D01*
X021204D01*
Y01855D01*
D02*
G37*
G36*
X020704D02*
X020344D01*
Y01887D01*
X020704D01*
Y01855D01*
D02*
G37*
G36*
X020204D02*
X019844D01*
Y01887D01*
X020204D01*
Y01855D01*
D02*
G37*
G36*
X019704D02*
X019344D01*
Y01887D01*
X019704D01*
Y01855D01*
D02*
G37*
G36*
X031265Y0156D02*
X031267Y015599D01*
X031269Y015597D01*
X031271Y015595D01*
X031272Y015593D01*
X031272Y01559D01*
Y01523D01*
Y01386D01*
Y01359D01*
X031272Y013587D01*
X031271Y013585D01*
X031269Y013583D01*
X031267Y013581D01*
X031265Y01358D01*
X031262Y01358D01*
X030239D01*
X030236Y01358D01*
X030234Y013581D01*
X030231Y013583D01*
X03023Y013585D01*
X030229Y013587D01*
X030229Y01359D01*
Y01559D01*
X030229Y015593D01*
X03023Y015595D01*
X030231Y015597D01*
X030234Y015599D01*
X030236Y0156D01*
X030239Y0156D01*
X031262D01*
X031265Y0156D01*
D02*
G37*
G36*
X020564D02*
X020566Y015599D01*
X020569Y015597D01*
X02057Y015595D01*
X020571Y015593D01*
X020572Y01559D01*
Y01359D01*
X020571Y013587D01*
X02057Y013585D01*
X020569Y013583D01*
X020566Y013581D01*
X020564Y01358D01*
X020561Y01358D01*
X019538D01*
X019535Y01358D01*
X019533Y013581D01*
X019531Y013583D01*
X019529Y013585D01*
X019528Y013587D01*
X019528Y01359D01*
Y01385D01*
X019D01*
X018997Y01385D01*
X018995Y013851D01*
X018993Y013853D01*
X018991Y013855D01*
X01899Y013857D01*
X01899Y01386D01*
Y01523D01*
X01899Y015233D01*
X018991Y015235D01*
X018993Y015237D01*
X018995Y015239D01*
X018997Y01524D01*
X019Y01524D01*
X019528D01*
Y01559D01*
X019528Y015593D01*
X019529Y015595D01*
X019531Y015597D01*
X019533Y015599D01*
X019535Y0156D01*
X019538Y0156D01*
X020561D01*
X020564Y0156D01*
D02*
G37*
D51*
X02542Y01459D02*
D03*
M02*
