G04*
G04 #@! TF.GenerationSoftware,Altium Limited,Altium Designer,25.4.2 (15)*
G04*
G04 Layer_Color=8388736*
%FSTAX24Y24*%
%MOIN*%
G70*
G04*
G04 #@! TF.SameCoordinates,12F9F1C2-4B93-4E5A-9412-C193BA208CB0*
G04*
G04*
G04 #@! TF.FilePolarity,Negative*
G04*
G01*
G75*
%ADD17R,0.0377X0.0416*%
%ADD24R,0.0413X0.0315*%
%ADD26R,0.0236X0.0177*%
%ADD30R,0.0475X0.0417*%
%ADD31R,0.0177X0.0217*%
%ADD32R,0.0217X0.0177*%
%ADD33R,0.0473X0.0256*%
%ADD34R,0.0237X0.0335*%
G04:AMPARAMS|DCode=35|XSize=23.7mil|YSize=33.5mil|CornerRadius=0mil|HoleSize=0mil|Usage=FLASHONLY|Rotation=223.000|XOffset=0mil|YOffset=0mil|HoleType=Round|Shape=Rectangle|*
%AMROTATEDRECTD35*
4,1,4,-0.0028,0.0203,0.0201,-0.0042,0.0028,-0.0203,-0.0201,0.0042,-0.0028,0.0203,0.0*
%
%ADD35ROTATEDRECTD35*%

%ADD36R,0.0118X0.0158*%
%ADD37R,0.0256X0.0118*%
%ADD38R,0.0256X0.0130*%
%ADD39C,0.0320*%
%ADD40R,0.0414X0.0729*%
G36*
X024704Y01855D02*
X024344D01*
Y01887D01*
X024704D01*
Y01855D01*
D02*
G37*
G36*
X024204D02*
X023844D01*
Y01887D01*
X024204D01*
Y01855D01*
D02*
G37*
G36*
X023704D02*
X023344D01*
Y01887D01*
X023704D01*
Y01855D01*
D02*
G37*
G36*
X023204D02*
X022844D01*
Y01887D01*
X023204D01*
Y01855D01*
D02*
G37*
G36*
X022704D02*
X022344D01*
Y01887D01*
X022704D01*
Y01855D01*
D02*
G37*
G36*
X021704D02*
X021344D01*
Y01887D01*
X021704D01*
Y01855D01*
D02*
G37*
G36*
X021204D02*
X020844D01*
Y01887D01*
X021204D01*
Y01855D01*
D02*
G37*
G36*
X020704D02*
X020344D01*
Y01887D01*
X020704D01*
Y01855D01*
D02*
G37*
G36*
X020204D02*
X019844D01*
Y01887D01*
X020204D01*
Y01855D01*
D02*
G37*
G36*
X019704D02*
X019344D01*
Y01887D01*
X019704D01*
Y01855D01*
D02*
G37*
D17*
X02588Y01725D02*
D03*
Y017802D02*
D03*
X03034Y013106D02*
D03*
Y012554D02*
D03*
D24*
X023034Y011108D02*
D03*
Y011837D02*
D03*
D26*
X021484Y01105D02*
D03*
Y011424D02*
D03*
D30*
X028405Y01815D02*
D03*
X029055D02*
D03*
D31*
X02779Y014227D02*
D03*
X028341D02*
D03*
X027514D02*
D03*
X027238Y017573D02*
D03*
X03027D02*
D03*
X030112Y014581D02*
D03*
X029994Y014227D02*
D03*
X029719D02*
D03*
Y017573D02*
D03*
X029994D02*
D03*
X027238Y014227D02*
D03*
X028616D02*
D03*
X028892D02*
D03*
X03027D02*
D03*
X030546D02*
D03*
X029443Y017573D02*
D03*
X029168D02*
D03*
X028892D02*
D03*
X028616D02*
D03*
X028341D02*
D03*
X028065Y014227D02*
D03*
X027514Y017573D02*
D03*
X029443Y014227D02*
D03*
X029168D02*
D03*
X030427Y014581D02*
D03*
X02779Y017573D02*
D03*
X028065D02*
D03*
X030546D02*
D03*
D32*
X026825Y016727D02*
D03*
Y015349D02*
D03*
Y014798D02*
D03*
Y015073D02*
D03*
Y015624D02*
D03*
Y0159D02*
D03*
Y016176D02*
D03*
Y016451D02*
D03*
Y017002D02*
D03*
Y017278D02*
D03*
Y014522D02*
D03*
Y014246D02*
D03*
Y017554D02*
D03*
D33*
X027022Y010686D02*
D03*
Y01106D02*
D03*
Y011434D02*
D03*
X026038D02*
D03*
Y010686D02*
D03*
D34*
X0254Y012608D02*
D03*
X025774Y013592D02*
D03*
X025026D02*
D03*
D35*
X023814Y0165D02*
D03*
X024212Y015525D02*
D03*
X024759Y016035D02*
D03*
D36*
X022884Y012445D02*
D03*
Y012229D02*
D03*
D37*
X021826Y012384D02*
D03*
Y012187D02*
D03*
X022534Y01199D02*
D03*
Y011793D02*
D03*
X021826Y011596D02*
D03*
Y011793D02*
D03*
Y01199D02*
D03*
X022534Y012187D02*
D03*
Y012384D02*
D03*
D38*
Y01159D02*
D03*
D39*
X0252Y01563D02*
D03*
X02825Y0128D02*
D03*
X0278D02*
D03*
X02521Y015206D02*
D03*
D40*
X026548Y01817D02*
D03*
X027532D02*
D03*
M02*
